<svg xmlns="http://www.w3.org/2000/svg" viewBox="0 0 500 150"><defs><style>.cls-1{fill:#b6b6b6;}.cls-2{fill:#fff;}.cls-3{fill:#c8102e;}</style></defs><title>huawei</title><g id="Layer_2" data-name="Layer 2"><g id="Layer_1-2" data-name="Layer 1"><path class="cls-1" d="M464.73,0H31.24c-1.13,0-2.26,0-3.4,0a50.26,50.26,0,0,0-7.42.66,24.31,24.31,0,0,0-7,2.32,23.9,23.9,0,0,0-6,4.36,23.59,23.59,0,0,0-4.36,6A24.51,24.51,0,0,0,.72,20.44a47.24,47.24,0,0,0-.66,7.41C0,29,0,30.12,0,31.26v87.49c0,1.15,0,2.27.06,3.42a47.45,47.45,0,0,0,.66,7.41,24.25,24.25,0,0,0,2.31,7A23.81,23.81,0,0,0,13.39,147a24.66,24.66,0,0,0,7,2.34,50.24,50.24,0,0,0,7.42.65c1.14,0,2.27,0,3.4,0h437.5c1.13,0,2.28,0,3.41,0a49.39,49.39,0,0,0,7.4-.65,25.23,25.23,0,0,0,7.07-2.34,23.08,23.08,0,0,0,6-4.36,23.45,23.45,0,0,0,4.38-6,24.52,24.52,0,0,0,2.29-7,50.05,50.05,0,0,0,.69-7.41c0-1.15,0-2.27,0-3.42,0-1.34,0-2.68,0-4V35.3c0-1.36,0-2.7,0-4,0-1.14,0-2.28,0-3.41a49.81,49.81,0,0,0-.69-7.41,24.78,24.78,0,0,0-2.29-7A24,24,0,0,0,486.62,3,24.86,24.86,0,0,0,479.55.71a49.4,49.4,0,0,0-7.4-.66c-1.13,0-2.28,0-3.41,0Z"/><path d="M31.26,146.76c-1.13,0-2.23,0-3.35,0a47.28,47.28,0,0,1-6.92-.6,22,22,0,0,1-6.13-2,20.68,20.68,0,0,1-8.95-8.93,21.4,21.4,0,0,1-2-6.14,45,45,0,0,1-.61-6.94c0-.78-.06-3.38-.06-3.38V31.26s0-2.56.06-3.31A44.37,44.37,0,0,1,3.9,21a21.23,21.23,0,0,1,2-6.16A19.94,19.94,0,0,1,9.67,9.69,20.79,20.79,0,0,1,14.86,5.9a21.79,21.79,0,0,1,6.12-2,47.65,47.65,0,0,1,6.94-.61l3.34,0H468.72l3.38,0a45.32,45.32,0,0,1,6.88.6,21.68,21.68,0,0,1,6.18,2,20.63,20.63,0,0,1,8.94,9,21.38,21.38,0,0,1,2,6.11,48,48,0,0,1,.64,7c0,1.05,0,2.18,0,3.3,0,1.39,0,2.71,0,4v79.4c0,1.35,0,2.66,0,4s0,2.31,0,3.45a45.57,45.57,0,0,1-.63,6.86,21,21,0,0,1-2,6.18,20.82,20.82,0,0,1-8.94,8.91,21.53,21.53,0,0,1-6.17,2,46.7,46.7,0,0,1-6.92.6c-1.08,0-2.22,0-3.32,0H31.26Z"/><path class="cls-2" d="M185.55,100.26H166.88L162,113h-6l17.53-43.83h5.17l18,43.83h-6.15ZM168.63,95.6h15.08l-5.42-14c-.51-1.19-1.11-2.84-1.82-4.93l-.36-1c-.57,1.81-1.24,3.76-2,5.84Z"/><path class="cls-2" d="M200.08,88.33c0-2.86-.08-5.47-.24-7.81H205a38.24,38.24,0,0,1,.52,4,17.16,17.16,0,0,1,4.6-3.33,12.17,12.17,0,0,1,5.54-1.28,11.58,11.58,0,0,1,6.07,1.67,11.88,11.88,0,0,1,4.49,5.25A20.94,20.94,0,0,1,228,95.93a22.73,22.73,0,0,1-1.83,9.55,13.6,13.6,0,0,1-5.21,6.07,14.81,14.81,0,0,1-7.94,2.09,20,20,0,0,1-3.88-.38,19.55,19.55,0,0,1-3.42-1V126l-5.6.64Zm19.57,17.59q2.53-3.36,2.53-9.78,0-6.15-2.18-8.91a7,7,0,0,0-5.75-2.77q-4.6,0-8.57,4.2v19.23a13.92,13.92,0,0,0,3.06,1,16.42,16.42,0,0,0,3.42.36C215.47,109.28,218,108.16,219.65,105.92Z"/><path class="cls-2" d="M232.92,88.33c0-2.86-.08-5.47-.24-7.81h5.18c.26,1.51.43,2.84.51,4a17.31,17.31,0,0,1,4.6-3.33,12.2,12.2,0,0,1,5.54-1.28,11.55,11.55,0,0,1,6.07,1.67,11.9,11.9,0,0,1,4.5,5.25,21.09,21.09,0,0,1,1.72,9.13,22.73,22.73,0,0,1-1.83,9.55,13.58,13.58,0,0,1-5.2,6.07,14.85,14.85,0,0,1-8,2.09,20.1,20.1,0,0,1-3.88-.38,19.55,19.55,0,0,1-3.42-1V126l-5.6.64Zm19.57,17.59q2.53-3.36,2.53-9.78,0-6.15-2.18-8.91a7,7,0,0,0-5.75-2.77q-4.6,0-8.57,4.2v19.23a13.92,13.92,0,0,0,3.06,1,16.42,16.42,0,0,0,3.42.36Q250,109.28,252.49,105.92Z"/><path class="cls-2" d="M274.54,110.87a18,18,0,0,1-7.24-7.74,25.92,25.92,0,0,1-2.48-11.65A25.22,25.22,0,0,1,267.71,79a19.3,19.3,0,0,1,7.93-7.81A24.23,24.23,0,0,1,287,68.56a29.06,29.06,0,0,1,7.18.88,31.74,31.74,0,0,1,6.32,2.33l-1.78,4.54a26,26,0,0,0-11.54-3,17.16,17.16,0,0,0-8.55,2.08,14.45,14.45,0,0,0-5.79,6.18,21.31,21.31,0,0,0-2.09,9.84,23.22,23.22,0,0,0,1.62,8.92,13.54,13.54,0,0,0,5.07,6.22,15.41,15.41,0,0,0,8.72,2.3,27.69,27.69,0,0,0,5-.47A29.39,29.39,0,0,0,296,107.1v-10H285.08V92.33h16.49V110a36.79,36.79,0,0,1-15.71,3.63A22.25,22.25,0,0,1,274.54,110.87Z"/><path class="cls-2" d="M328.9,113a29.7,29.7,0,0,1-.48-4.51,14.87,14.87,0,0,1-4.74,3.64,14.18,14.18,0,0,1-6.46,1.48,11.39,11.39,0,0,1-5.06-1.09,8.39,8.39,0,0,1-3.54-3.24,9.91,9.91,0,0,1-1.3-5.24,9.32,9.32,0,0,1,3.39-7.52q3.39-2.83,11.26-2.83a49.26,49.26,0,0,1,6.27.42V93.3c0-3.35-.68-5.71-2-7.06a7.7,7.7,0,0,0-5.69-2,19.72,19.72,0,0,0-5,.7,25.91,25.91,0,0,0-4.65,1.67l-1-4.27a24.51,24.51,0,0,1,4.92-1.65,27,27,0,0,1,6.55-.78A15.45,15.45,0,0,1,328,81.19a9.06,9.06,0,0,1,4.27,4.42A19.3,19.3,0,0,1,333.81,94v12.84q0,2,.24,6.14ZM324,107.9a12.58,12.58,0,0,0,4.26-3.25v-7a52,52,0,0,0-5.6-.33c-3.62,0-6.12.59-7.53,1.76a5.83,5.83,0,0,0-2.1,4.72,5.28,5.28,0,0,0,1.5,4.15,5.84,5.84,0,0,0,4,1.33A12,12,0,0,0,324,107.9Z"/><path class="cls-2" d="M342,111.67c-1.2-1.29-1.79-3.27-1.79-5.93V66.56l5.57-.6V104.8a5.59,5.59,0,0,0,.7,3.24,2.73,2.73,0,0,0,2.36.94,6.81,6.81,0,0,0,1.72-.31l.76,4.27a10.26,10.26,0,0,1-2,.49,14.09,14.09,0,0,1-2.12.18A6.72,6.72,0,0,1,342,111.67Z"/><path class="cls-2" d="M359,111.67q-1.78-1.94-1.79-5.93V66.56l5.57-.6V104.8a5.67,5.67,0,0,0,.7,3.24,2.73,2.73,0,0,0,2.36.94,6.94,6.94,0,0,0,1.73-.31l.75,4.27a10.33,10.33,0,0,1-2,.49,14.31,14.31,0,0,1-2.12.18A6.75,6.75,0,0,1,359,111.67Z"/><path class="cls-2" d="M397.84,97h-21.7q.06,6.09,2.77,9.13t7.82,3a21.57,21.57,0,0,0,9.18-2.09l1.3,4a24.28,24.28,0,0,1-5.2,1.9,26.78,26.78,0,0,1-6.37.67,16.31,16.31,0,0,1-8.28-2,12.46,12.46,0,0,1-5.14-5.68,20.82,20.82,0,0,1-1.74-8.91,21.59,21.59,0,0,1,1.81-9.23,13.49,13.49,0,0,1,5.07-5.91,13.9,13.9,0,0,1,7.5-2A12.23,12.23,0,0,1,392.14,82a12.47,12.47,0,0,1,4.31,5.5,19.34,19.34,0,0,1,1.39,7.4ZM392.24,93c-.2-3-1-5.23-2.28-6.73A6.73,6.73,0,0,0,384.64,84a7.17,7.17,0,0,0-5.46,2.29,12,12,0,0,0-2.8,6.7Z"/><path class="cls-2" d="M403.92,88.69c0-1.81-.08-4.54-.24-8.17h5.14c.13.91.24,2,.34,3.28s.17,2.3.21,3a29.8,29.8,0,0,1,2.6-3.64,10.42,10.42,0,0,1,3-2.4,8.16,8.16,0,0,1,3.94-.93,10.49,10.49,0,0,1,3,.4l-.79,4.93a9.49,9.49,0,0,0-2.42-.3,7.75,7.75,0,0,0-4.75,1.53,21.09,21.09,0,0,0-4.42,5V113h-5.57Z"/><path class="cls-2" d="M423.62,125.81l1.06-4.33c.42.12,1,.26,1.84.41a12.3,12.3,0,0,0,2.21.23,6.2,6.2,0,0,0,4.62-2,17,17,0,0,0,3.35-5.64l.66-1.61L425.1,80.52h6L438,100a64.52,64.52,0,0,1,2.21,7.5q1-3.48,2.3-7.26l6.75-19.74h5.84L442.6,113.91a36.59,36.59,0,0,1-3.45,7.25,12.34,12.34,0,0,1-4.22,4.12,11.86,11.86,0,0,1-5.92,1.38A16,16,0,0,1,423.62,125.81Z"/><path class="cls-2" d="M156.16,27.38h12.89l-.39,2.51H159.1V37.1h9.05v2.42H159.1v7.94h10.05L168.82,50H156.16Z"/><path class="cls-2" d="M178.18,38.46l-7-11.08h3.39l5.26,8.76,5.49-8.76h3.26l-7,10.94L189.13,50h-3.45l-5.81-9.5-6,9.5h-3.26Z"/><path class="cls-2" d="M192.21,27.38h5.69q4.13,0,6.29,1.69A5.88,5.88,0,0,1,206.37,34a7.38,7.38,0,0,1-1,3.91,6.83,6.83,0,0,1-2.87,2.6,9.31,9.31,0,0,1-4.21.91,13.75,13.75,0,0,1-3.11-.36v9h-2.94ZM202,37.73a4.63,4.63,0,0,0,1.46-3.63A3.81,3.81,0,0,0,202,30.77a7,7,0,0,0-4.15-1h-2.68v9a14.4,14.4,0,0,0,2.56.27A6.17,6.17,0,0,0,202,37.73Z"/><path class="cls-2" d="M210.4,27.38h2.93v20h9.82L222.82,50H210.4Z"/><path class="cls-2" d="M228.87,48.89a9.3,9.3,0,0,1-3.71-4,13.25,13.25,0,0,1-1.28-6,13.62,13.62,0,0,1,1.37-6.26,9.67,9.67,0,0,1,3.94-4.14,12,12,0,0,1,6.07-1.46A11.25,11.25,0,0,1,241,28.48a9.17,9.17,0,0,1,3.69,4A13.27,13.27,0,0,1,246,38.39a13.68,13.68,0,0,1-1.38,6.33,9.81,9.81,0,0,1-4,4.14,12,12,0,0,1-6,1.46A11.12,11.12,0,0,1,228.87,48.89Zm10.39-2.2A7.24,7.24,0,0,0,242,43.43a11.87,11.87,0,0,0,.9-4.75,13.2,13.2,0,0,0-.79-4.68,7,7,0,0,0-2.54-3.28A7.74,7.74,0,0,0,235,29.5a7.65,7.65,0,0,0-4.43,1.25,7.48,7.48,0,0,0-2.73,3.32,11.37,11.37,0,0,0-.91,4.57,12.41,12.41,0,0,0,.86,4.72,7.25,7.25,0,0,0,2.64,3.3,7.56,7.56,0,0,0,4.38,1.22A7.85,7.85,0,0,0,239.26,46.69Z"/><path class="cls-2" d="M250.6,27.38h6.55a8.86,8.86,0,0,1,5.54,1.51,5.14,5.14,0,0,1,2,4.35,6.57,6.57,0,0,1-.75,3.19A7.4,7.4,0,0,1,262,38.68,9.05,9.05,0,0,1,259.69,40l7.08,10h-3.5l-6.36-9.23h-3.37V50H250.6Zm5.59,11a6.19,6.19,0,0,0,2.85-.62A4.5,4.5,0,0,0,261,36a5,5,0,0,0,.68-2.6,3.24,3.24,0,0,0-1.23-2.82,6.15,6.15,0,0,0-3.6-.88h-3.26v8.67Z"/><path class="cls-2" d="M270.13,27.38H283l-.39,2.51h-9.56V37.1h9.05v2.42h-9.05v7.94h10.05L282.79,50H270.13Z"/><path class="cls-2" d="M297.63,27.38h2.94V50h-2.94Z"/><path class="cls-2" d="M311.21,29.88H304.1l.34-2.5h16.83l-.36,2.5h-6.76V50h-2.94Z"/><path class="cls-2" d="M338.21,48.89a9.22,9.22,0,0,1-3.7-4,13.12,13.12,0,0,1-1.29-6,13.62,13.62,0,0,1,1.37-6.26,9.72,9.72,0,0,1,3.94-4.14,12,12,0,0,1,6.07-1.46,11.29,11.29,0,0,1,5.77,1.41,9.2,9.2,0,0,1,3.68,4,13.14,13.14,0,0,1,1.27,5.93,13.68,13.68,0,0,1-1.38,6.33,9.83,9.83,0,0,1-4,4.14,12,12,0,0,1-6,1.46A11.12,11.12,0,0,1,338.21,48.89Zm10.4-2.2a7.28,7.28,0,0,0,2.7-3.26,11.87,11.87,0,0,0,.9-4.75,13,13,0,0,0-.79-4.68,7,7,0,0,0-2.54-3.28,7.74,7.74,0,0,0-4.5-1.22,7.44,7.44,0,0,0-7.16,4.57,11.36,11.36,0,0,0-.9,4.57,12.22,12.22,0,0,0,.86,4.72,7.23,7.23,0,0,0,2.63,3.3,7.56,7.56,0,0,0,4.38,1.22A7.9,7.9,0,0,0,348.61,46.69Z"/><path class="cls-2" d="M359.94,27.38h3.35l12.26,18.67c-.09-1.69-.14-3.22-.14-4.61V27.38h2.8V50H375L362.54,31.07c0,.76.09,1.66.13,2.69s.05,2,.05,2.78V50h-2.78Z"/><g id="形状_1_拷贝_25" data-name="形状 1 拷贝 25"><rect class="cls-3" x="32.76" y="27.5" width="95" height="95" rx="26.73" ry="26.73"/></g><path class="cls-2" d="M51.57,75h2.52V87.43H51.57V82.38H45.88v5.05H43.36V75h2.52v5h5.69Zm14.2,7.11c0,2-1,3.1-2.82,3.1S60.11,84.11,60.11,82V75H57.59v7.1c0,3.49,1.94,5.49,5.32,5.49s5.38-2,5.38-5.6V75H65.77Zm29.12,1.43L92.07,75H90L87.2,83.55,84.45,75H81.77L86.1,87.43h2.09L91,79.27l2.82,8.16h2.11L100.26,75H97.64Zm9.88-1.47h4.59V79.82h-4.59V77.28h6.66V75h-9.14v12.4h9.38V85.16h-6.9Zm9.9,5.33h2.49V75h-2.49Zm-41.4-2.57-1.13,2.58H69.57L75,75h2.22l5.45,12.41H80.07L79,84.84Zm.94-2.24H78L76.1,78.15Z"/><path class="cls-2" d="M80.26,59.19A15.82,15.82,0,0,1,64.45,43.38h2.23a13.58,13.58,0,0,0,27.16,0h2.23A15.82,15.82,0,0,1,80.26,59.19Z"/></g></g></svg>