<svg xmlns="http://www.w3.org/2000/svg" xmlns:xlink="http://www.w3.org/1999/xlink" viewBox="0 0 161 54.01"><defs><style>.cls-1,.cls-2{fill:none;}.cls-2{stroke:#fff;stroke-miterlimit:10;stroke-width:2px;}.cls-3{clip-path:url(#clip-path);}.cls-4{fill:url(#linear-gradient);}.cls-5{fill:url(#linear-gradient-2);}.cls-6{fill:url(#linear-gradient-3);}.cls-7{fill:url(#linear-gradient-4);}.cls-8{fill:#f9f9f9;}.cls-9{fill:#fff;}</style><clipPath id="clip-path"><path class="cls-1" d="M35.46,23.89l-7.17-4.14-13.83-8c-.77-.44-1.53-.18-1.53.75V45.05c0,.7.54,1,1.21.61l14.15-8.17,7.17-4.14,6.89-4c.81-.47.73-1.11,0-1.48S35.46,23.89,35.46,23.89Z"/></clipPath><linearGradient id="linear-gradient" x1="21.81" y1="11.01" x2="21.81" y2="46.23" gradientUnits="userSpaceOnUse"><stop offset="0" stop-color="#2079b0"/><stop offset="0.32" stop-color="#4a98b5"/><stop offset="0.78" stop-color="#81bfbc"/><stop offset="1" stop-color="#97cfbf"/></linearGradient><linearGradient id="linear-gradient-2" x1="12.93" y1="19.75" x2="35.46" y2="19.75" gradientUnits="userSpaceOnUse"><stop offset="0" stop-color="#5abcab"/><stop offset="1" stop-color="#e6e99a"/></linearGradient><linearGradient id="linear-gradient-3" x1="24.19" y1="28.62" x2="24.19" y2="46.36" gradientUnits="userSpaceOnUse"><stop offset="0" stop-color="#e53432"/><stop offset="0.18" stop-color="#d43745"/><stop offset="0.73" stop-color="#a33e7c"/><stop offset="1" stop-color="#904192"/></linearGradient><linearGradient id="linear-gradient-4" x1="37.17" y1="23.89" x2="37.17" y2="33.35" gradientUnits="userSpaceOnUse"><stop offset="0" stop-color="#f18779"/><stop offset="0.64" stop-color="#f9b575"/><stop offset="1" stop-color="#fdcb73"/></linearGradient></defs><title>Recurso 7</title><g id="Capa_2" data-name="Capa 2"><g id="Layer_1" data-name="Layer 1"><rect class="cls-2" x="1" y="1" width="159" height="52.01" rx="7.03"/><rect x="1" y="1" width="159" height="52.01" rx="7.03"/><g id="PLAY"><g class="cls-3"><polygon class="cls-4" points="12.93 11.01 12.93 28.62 12.93 46.23 30.69 28.62 12.93 11.01"/><polygon class="cls-5" points="35.46 23.89 28.29 19.75 12.93 10.88 12.93 11.01 30.69 28.62 35.46 23.89"/><polygon class="cls-6" points="12.93 46.23 12.93 46.36 28.29 37.49 35.46 33.35 30.69 28.62 12.93 46.23"/><polygon class="cls-7" points="35.46 23.89 30.69 28.62 35.46 33.35 43.65 28.62 35.46 23.89"/></g></g><path class="cls-8" d="M124.74,35.51a4.4,4.4,0,0,1-1.83-.37A3.37,3.37,0,0,1,121.53,34h-.12a13,13,0,0,1,.12,1.71v4.21H120V25.08h1.26l.21,1.4h.08a3.6,3.6,0,0,1,1.39-1.21,4.23,4.23,0,0,1,1.82-.38,3.82,3.82,0,0,1,3.15,1.39,6.21,6.21,0,0,1,1.1,3.91,6.1,6.1,0,0,1-1.12,3.92A3.8,3.8,0,0,1,124.74,35.51Zm-.22-9.3a2.73,2.73,0,0,0-2.27.87,4.44,4.44,0,0,0-.72,2.77v.34a5.13,5.13,0,0,0,.72,3.09,2.73,2.73,0,0,0,2.3.93,2.4,2.4,0,0,0,2.08-1.07,5.06,5.06,0,0,0,.76-3,4.88,4.88,0,0,0-.76-2.94A2.46,2.46,0,0,0,124.52,26.21Z"/><path class="cls-8" d="M132.59,35.32H131V20.78h1.56Z"/><path class="cls-8" d="M141.51,35.32l-.31-1.46h-.08a4.26,4.26,0,0,1-1.53,1.31,4.58,4.58,0,0,1-1.9.34,3.41,3.41,0,0,1-2.39-.79,2.86,2.86,0,0,1-.86-2.23q0-3.11,5-3.25l1.74-.06v-.63a2.56,2.56,0,0,0-.52-1.78,2.1,2.1,0,0,0-1.66-.58,6.64,6.64,0,0,0-2.89.79l-.48-1.19a7.65,7.65,0,0,1,1.66-.65,7.42,7.42,0,0,1,1.81-.23,3.9,3.9,0,0,1,2.71.81,3.42,3.42,0,0,1,.88,2.61v7ZM138,34.23a3.17,3.17,0,0,0,2.28-.8,2.92,2.92,0,0,0,.82-2.22v-.93l-1.55.07a5.62,5.62,0,0,0-2.67.58,1.72,1.72,0,0,0-.81,1.58,1.59,1.59,0,0,0,.51,1.28A2.12,2.12,0,0,0,138,34.23Z"/><path class="cls-8" d="M143.56,25.08h1.66l2.24,5.84a23,23,0,0,1,.92,2.89h.07c.08-.32.25-.86.51-1.63s1.11-3.14,2.54-7.1h1.66l-4.4,11.66a5.72,5.72,0,0,1-1.53,2.46,3.26,3.26,0,0,1-2.14.72,6,6,0,0,1-1.4-.16V38.52a5.68,5.68,0,0,0,1.15.11,2.38,2.38,0,0,0,2.28-1.79l.57-1.46Z"/><path class="cls-8" d="M96,26A3.5,3.5,0,0,1,95.72,32a1.47,1.47,0,0,0-.6,1.05,1.18,1.18,0,0,0,.56.92l.77.6c1,.79,1.8,1.52,1.8,3,0,2-2,4.05-5.63,4.05-3.11,0-4.61-1.48-4.61-3.07a3.09,3.09,0,0,1,1.65-2.61,9.23,9.23,0,0,1,4.09-1,2.23,2.23,0,0,1-.64-1.45,2,2,0,0,1,.21-.84c-.23,0-.47,0-.68,0a3.39,3.39,0,0,1-3.56-3.36,3.84,3.84,0,0,1,1.37-2.87,5.83,5.83,0,0,1,3.84-1.18H98.7L97.33,26Zm-1.52,9.51a3.7,3.7,0,0,0-.49,0,8.71,8.71,0,0,0-2.25.35,2.4,2.4,0,0,0-1.84,2.2c0,1.52,1.47,2.62,3.77,2.62,2,0,3.15-1,3.15-2.32C96.82,37.28,96.11,36.7,94.48,35.54Zm.62-4.07a2.18,2.18,0,0,0,.54-1.56c0-1.54-.92-3.94-2.7-3.94a2,2,0,0,0-1.5.7A2.45,2.45,0,0,0,91,28.26c0,1.43.83,3.81,2.68,3.81A2.15,2.15,0,0,0,95.1,31.47Z"/><path class="cls-8" d="M82.51,35.2a5,5,0,0,1-5.21-5.05A5.29,5.29,0,0,1,82.84,25,5,5,0,0,1,88,30,5.23,5.23,0,0,1,82.51,35.2Zm2.68-1.73a3.91,3.91,0,0,0,.64-2.38c0-1.88-.9-5.47-3.55-5.47a3,3,0,0,0-1.93.73,3.24,3.24,0,0,0-1,2.61c0,2.11,1,5.6,3.64,5.6A2.75,2.75,0,0,0,85.19,33.47Z"/><path class="cls-8" d="M70.92,35.2a5,5,0,0,1-5.22-5.05A5.3,5.3,0,0,1,71.24,25a5,5,0,0,1,5.11,5A5.22,5.22,0,0,1,70.92,35.2Zm2.67-1.73a3.85,3.85,0,0,0,.65-2.38c0-1.88-.9-5.47-3.55-5.47a3,3,0,0,0-1.93.73,3.24,3.24,0,0,0-1,2.61c0,2.11,1,5.6,3.63,5.6A2.73,2.73,0,0,0,73.59,33.47Z"/><path class="cls-8" d="M64.07,34.87,61,35.58a23.22,23.22,0,0,1-3.55.36c-5.93,0-8.19-4.37-8.19-7.79,0-4.17,3.2-8,8.69-8a12.39,12.39,0,0,1,3.29.45,8.7,8.7,0,0,1,2.84,1.34l-1.79,1.7-.75.17.54-.86a6.15,6.15,0,0,0-4.6-2c-3.4,0-6,2.58-6,6.34a7.6,7.6,0,0,0,7.61,7.85,6.34,6.34,0,0,0,2.73-.54V31.08l-3.25.17,1.72-.92h4.56l-.55.53a.49.49,0,0,0-.22.35c0,.19,0,.82,0,1Z"/><path class="cls-8" d="M102.8,34.25c-.71-.07-.86-.2-.86-1V21a.61.61,0,0,0,0-.14c.09-.75.3-.88,1-1.27H99.85l-1.62.78h1.64V33.69c0,.43-.08.49-.58,1.14h3.81l.8-.48Z"/><path class="cls-8" d="M111.55,34.44c-.23.13-.47.28-.7.39a5,5,0,0,1-2.08.4,4.55,4.55,0,0,1-2.84-.83,5.53,5.53,0,0,1-2.17-4.51A4.84,4.84,0,0,1,108.65,25a4.11,4.11,0,0,1,2.2.6,3.55,3.55,0,0,1,1.49,2.11l-5,2-1.64.13c.53,2.71,2.37,4.29,4.4,4.29a5.5,5.5,0,0,0,2.6-.74Zm-2-6.36c.41-.15.62-.28.62-.58a2.12,2.12,0,0,0-2.11-1.83,2.63,2.63,0,0,0-2.46,3c0,.37,0,.75.07,1.14Z"/><path class="cls-8" d="M113.61,25.11v1.41h-.17V25.11H113V25h1.11v.15Z"/><path class="cls-8" d="M115.53,26.52V25.09h0l-.43,1.43H115l-.44-1.43h0v1.43h-.15V25h.26l.4,1.26h0l.39-1.26h.27v1.56Z"/><path class="cls-9" d="M48.28,6.35a16.23,16.23,0,0,1,2.47-.19,5.2,5.2,0,0,1,3.66,1.12,4.17,4.17,0,0,1,1.27,3.24A4.8,4.8,0,0,1,54.38,14a5.56,5.56,0,0,1-4,1.29,20.73,20.73,0,0,1-2.11-.1Zm1.16,8a7.86,7.86,0,0,0,1.18.07,3.47,3.47,0,0,0,3.84-3.83c0-2.13-1.19-3.48-3.65-3.48a7.25,7.25,0,0,0-1.37.12Z"/><path class="cls-9" d="M58.47,7A.73.73,0,0,1,57,7a.72.72,0,0,1,.73-.74A.71.71,0,0,1,58.47,7Zm-1.31,8.29V8.77h1.17v6.47Z"/><path class="cls-9" d="M60.13,14a3,3,0,0,0,1.55.47c.85,0,1.26-.43,1.26-1s-.34-.86-1.21-1.19c-1.16-.41-1.71-1-1.71-1.83a2,2,0,0,1,2.23-1.9,3.32,3.32,0,0,1,1.6.4l-.3.86a2.5,2.5,0,0,0-1.32-.38c-.7,0-1.09.41-1.09.89s.39.77,1.23,1.09c1.13.43,1.7,1,1.7,2,0,1.14-.88,1.94-2.42,1.94a3.79,3.79,0,0,1-1.82-.44Z"/><path class="cls-9" d="M65.59,10.88c0-.83,0-1.5-.06-2.11h1.06l.06,1.11h0A2.55,2.55,0,0,1,69,8.62c1.57,0,2.75,1.33,2.75,3.29,0,2.33-1.42,3.48-3,3.48a2.26,2.26,0,0,1-2-1h0v3.52H65.59Zm1.16,1.73a2.42,2.42,0,0,0,.06.48,1.81,1.81,0,0,0,1.76,1.38c1.25,0,2-1,2-2.5,0-1.3-.68-2.41-1.93-2.41A1.88,1.88,0,0,0,66.83,11a1.85,1.85,0,0,0-.08.48Z"/><path class="cls-9" d="M79.07,12a3.16,3.16,0,0,1-3.23,3.44,3.07,3.07,0,0,1-3.1-3.33A3.16,3.16,0,0,1,76,8.62,3.07,3.07,0,0,1,79.07,12ZM73.93,12c0,1.42.81,2.49,2,2.49s2-1.06,2-2.52c0-1.09-.55-2.49-1.94-2.49S73.93,10.79,73.93,12Z"/><path class="cls-9" d="M80.55,10.52c0-.67,0-1.22,0-1.75h1l.07,1.07h0a2.37,2.37,0,0,1,2.14-1.22c.89,0,2.29.54,2.29,2.76v3.86H84.89V11.51c0-1-.39-1.91-1.5-1.91a1.67,1.67,0,0,0-1.58,1.2,1.82,1.82,0,0,0-.08.55v3.89H80.55Z"/><path class="cls-9" d="M89.29,7a.69.69,0,0,1-.75.72A.7.7,0,0,1,87.83,7a.72.72,0,0,1,.74-.74A.7.7,0,0,1,89.29,7ZM88,15.24V8.77h1.18v6.47Z"/><path class="cls-9" d="M99.12,5.74h1.17v9.5H99.12Z"/><path class="cls-9" d="M91.13,15.24c0-.44.05-1.09.05-1.67V5.74h1.17V9.81h0a2.4,2.4,0,0,1,2.2-1.19c1.61,0,2.75,1.34,2.73,3.31,0,2.31-1.46,3.46-2.9,3.46a2.3,2.3,0,0,1-2.17-1.22h0l0,1.07Zm1.22-2.59a3,3,0,0,0,.05.43,1.82,1.82,0,0,0,1.77,1.37c1.23,0,2-1,2-2.48,0-1.3-.66-2.41-1.92-2.41A1.89,1.89,0,0,0,92.41,11a3.14,3.14,0,0,0-.06.48Z"/><path class="cls-9" d="M102.55,12.22a2.07,2.07,0,0,0,2.22,2.25,4.19,4.19,0,0,0,1.79-.34l.2.85a5.33,5.33,0,0,1-2.15.4,3,3,0,0,1-3.19-3.27c0-1.95,1.15-3.49,3-3.49,2.11,0,2.68,1.86,2.68,3.05a5.29,5.29,0,0,1,0,.55Zm3.45-.84a1.68,1.68,0,0,0-1.63-1.92,2,2,0,0,0-1.81,1.92Z"/><path class="cls-9" d="M112.09,12.22a2.08,2.08,0,0,0,2.22,2.25,4.19,4.19,0,0,0,1.79-.34l.21.85a5.43,5.43,0,0,1-2.16.4A3,3,0,0,1,111,12.11c0-1.95,1.15-3.49,3-3.49,2.12,0,2.68,1.86,2.68,3.05a5.29,5.29,0,0,1,0,.55Zm3.45-.84a1.68,1.68,0,0,0-1.63-1.92,2,2,0,0,0-1.81,1.92Z"/><path class="cls-9" d="M118.14,10.52c0-.67,0-1.22,0-1.75h1l.07,1.07h0a2.37,2.37,0,0,1,2.14-1.22c.89,0,2.28.54,2.28,2.76v3.86h-1.17V11.51c0-1-.39-1.91-1.5-1.91a1.67,1.67,0,0,0-1.58,1.2,1.82,1.82,0,0,0-.08.55v3.89h-1.18Z"/></g></g></svg>