<svg version="1.1" id="Layer_1" xmlns="http://www.w3.org/2000/svg" x="0" y="0" viewBox="0 0 137 38" xml:space="preserve"><style>.st0{fill:#b1b1b1}.st1{fill:#43aa34}.st2{fill:#fff}</style><g id="Group" transform="translate(0 7.037)"><path id="Shape" class="st0" d="M.2 11.9c0-.9.1-1.7.4-2.5.3-.8.7-1.4 1.1-2s1-1 1.7-1.3c.6-.3 1.3-.5 2.1-.5.7 0 1.4.2 2 .5s1.1.8 1.6 1.3V5.7h3v12.4h-3v-1.7c-.5.6-1 1-1.6 1.3s-1.3.5-2 .5-1.4-.2-2.1-.5-1.2-.8-1.7-1.3c-.5-.6-.8-1.2-1.1-2-.3-.8-.4-1.6-.4-2.5zm3 0c0 .4.1.8.2 1.2.1.4.3.7.6 1 .3.3.6.5.9.7.4.1.8.2 1.2.2.4 0 .8-.1 1.1-.2.4-.2.7-.4.9-.7.3-.3.5-.6.6-1 .2-.4.2-.8.2-1.2 0-.4-.1-.8-.2-1.2-.2-.4-.4-.7-.6-1-.2-.2-.5-.4-.8-.6-.4-.2-.8-.2-1.2-.2-.4 0-.8 0-1.1.2-.4.2-.7.4-.9.7-.3.3-.5.6-.6 1-.2.3-.3.7-.3 1.1z"/><path id="Path" class="st0" d="M13.5 5.7h.8v-.1c0-.6.1-1.1.2-1.7s.4-1 .7-1.4c.3-.4.8-.7 1.3-.9.5-.2 1.2-.2 2-.1v2.4c-.4 0-.7.1-.9.3-.2.2-.3.5-.3 1v.5h1.4v2.6h-1.4v9.8h-3V8.3h-.8V5.7z"/><path id="Path_1_" class="st0" d="M22.8 5.7v12.4h-3V5.7z"/><path id="Path_2_" class="st1" d="M19.6 2.2c0-.5.2-1 .5-1.4s.8-.6 1.3-.6 1 .2 1.3.6c.3.4.5.8.5 1.4 0 .5-.2.9-.5 1.3s-.8.6-1.3.6-.9-.2-1.3-.6-.5-.8-.5-1.3z"/><path id="Path_3_" class="st0" d="M27.8 2.2v15.9h-3V2.2z"/><path id="Path_4_" class="st0" d="M32.5 5.7v12.4h-3V5.7z"/><path id="Path_5_" class="st1" d="M29.3 2.2c0-.5.2-1 .5-1.4s.8-.6 1.3-.6 1 .2 1.3.6c.3.4.5.8.5 1.4 0 .5-.2.9-.5 1.3s-.8.6-1.3.6-.9-.2-1.3-.6-.5-.8-.5-1.3z"/><path id="Shape_1_" class="st0" d="M33.9 11.9c0-.9.1-1.7.4-2.5.3-.8.7-1.4 1.1-2s1-1 1.7-1.3c.6-.3 1.3-.5 2.1-.5.7 0 1.4.2 2 .5.6.3 1.1.8 1.6 1.3V5.7h3v12.4h-3v-1.7c-.5.6-1 1-1.6 1.3-.6.3-1.3.5-2 .5s-1.4-.2-2.1-.5c-.6-.3-1.2-.8-1.7-1.3-.5-.6-.8-1.2-1.1-2-.2-.8-.4-1.6-.4-2.5zm3.1 0c0 .4.1.8.2 1.2.1.4.3.7.6 1 .3.3.6.5.9.7.3.2.7.2 1.2.2.4 0 .8-.1 1.1-.2.4-.2.7-.4.9-.7.3-.3.5-.6.6-1 .2-.4.2-.8.2-1.2 0-.4-.1-.8-.2-1.2-.2-.4-.4-.7-.6-1-.3-.3-.6-.5-.9-.7-.4-.2-.7-.2-1.1-.2-.4 0-.8.1-1.2.2-.3.2-.7.4-.9.7-.3.3-.5.6-.6 1s-.2.8-.2 1.2z"/><path id="Shape_2_" class="st0" d="M46.9 11.9c0-.9.1-1.7.4-2.5.3-.8.7-1.4 1.1-2 .5-.6 1-1 1.7-1.3.6-.3 1.3-.5 2.1-.5.7 0 1.4.2 2 .5s1.1.7 1.6 1.3V2.2h3v15.9h-3v-1.6c-.5.5-1 1-1.6 1.3-.6.3-1.3.4-2 .4s-1.4-.2-2.1-.5c-.6-.3-1.2-.8-1.7-1.3-.5-.6-.8-1.2-1.1-2-.2-.8-.4-1.6-.4-2.5zm3 0c0 .4.1.8.2 1.2.1.4.3.7.6 1 .3.3.6.5.9.7s.7.2 1.2.2c.4 0 .7-.1 1.1-.2.3-.1.6-.3.9-.6.3-.2.5-.5.6-.8.2-.3.3-.7.3-1.1v-.8c0-.4-.2-.7-.3-1.1s-.4-.6-.6-.9l-.9-.6c-.3-.1-.7-.2-1.1-.2-.4 0-.8.1-1.2.2s-.7.4-.9.7c-.3.3-.5.6-.6 1-.1.5-.2.9-.2 1.3z"/><path id="Shape_3_" class="st0" d="M71.7 11.9c0 .9-.2 1.7-.5 2.4-.3.8-.7 1.4-1.3 2-.5.6-1.2 1-1.9 1.3-.7.3-1.5.5-2.3.5-.8 0-1.6-.2-2.3-.5s-1.4-.8-1.9-1.3c-.5-.6-1-1.2-1.3-2-.3-.8-.5-1.6-.5-2.4 0-.9.2-1.7.5-2.5s.7-1.4 1.3-2c.5-.6 1.2-1 1.9-1.3.7-.3 1.5-.5 2.3-.5.8 0 1.6.2 2.3.5.7.3 1.4.8 1.9 1.3.5.6 1 1.2 1.3 2 .3.8.5 1.7.5 2.5zm-3.1 0c0-.4-.1-.8-.2-1.2-.2-.4-.4-.7-.6-1-.3-.3-.6-.5-.9-.7s-.7-.2-1.1-.2c-.4 0-.8.1-1.1.2s-.7.4-.9.7c-.3.3-.5.6-.6 1-.2.4-.2.8-.2 1.2 0 .4.1.8.2 1.2.2.4.4.7.6 1 .3.3.6.5.9.7s.7.2 1.1.2c.4 0 .8-.1 1.1-.2s.7-.4.9-.7c.3-.3.5-.6.6-1 .2-.3.2-.7.2-1.2z"/></g><path id="Path_6_" class="st1" d="M136.5 18v-.4c0-.2-.1-.5-.1-.7-.5-2.7-1.9-5.2-3.9-7.2-2.7-2.5-6-4-9.8-4-.1 0-.2.1-.2.2 0 2.5 2.8 3.1 3 3.1 1.8.4 3.2 1.3 4.8 2.8 1.9 1.8 2.9 3.9 3.1 6.2v.1h.1c.4.2 1 .2 1.5.2h.1c.4 0 .9-.1 1.4-.3z"/><path id="Path_7_" class="st1" d="M122.6 9.9c-.1 0-.2.1-.2.2v.3c.2 1.9 2.1 3 2.2 3.1 1.7.9 2.8 2.6 2.9 4.7 0 0 .9.2 1.7.2.8 0 1.6-.2 1.6-.2-.1-2.2-.9-4.2-2.4-5.8-1.4-1.7-3.5-2.5-5.8-2.5z"/><path id="Path_8_" class="st1" d="M122.7 15.5h-.1s-.1 0-.1.1v2.5s0 .1.1.1c.2 0 .7.1 1.3.1s1.2-.1 1.3-.1c0 0 .1 0 .1-.1v-.2c0-1.3-1.2-2.4-2.6-2.4z"/><g id="Group_1_" transform="translate(73.185 12.667)"><path id="Shape_4_" class="st2" d="M11.7.3H8.8c-.1 0-.2.1-.2.2v1.1c-.4-.4-.8-.7-1.3-.9C6.7.4 6 .2 5.3.2S3.9.4 3.2.7C2.6 1 2 1.5 1.6 2 1.1 2.6.7 3.2.5 3.9.2 4.6.1 5.4.1 6.3c0 .8.1 1.6.4 2.3s.6 1.4 1.1 1.9 1 1 1.7 1.3c.6.3 1.3.5 2.1.5.7 0 1.4-.2 2-.5.5-.2.9-.5 1.3-.9V12c0 .1.1.2.2.2h2.9c.1 0 .2-.1.2-.2V.5c-.1-.1-.2-.2-.3-.2zM5.9 8.9c-.4 0-.7-.1-1-.2-.3-.1-.6-.3-.8-.5-.3-.3-.5-.6-.6-.9-.1-.3-.2-.7-.2-1 0-.4.1-.7.2-1.1.1-.3.3-.6.6-.9.2-.2.5-.4.8-.6.3-.1.7-.2 1-.2.4 0 .7.1 1 .2.3.1.6.3.8.6.3.3.5.6.6.9.1.3.2.7.2 1 0 .4-.1.7-.2 1-.1.4-.3.7-.5 1-.3.2-.5.4-.9.5-.3.2-.6.2-1 .2z"/><path id="Path_9_" class="st2" d="M27.3 1.5c-.3-.4-.7-.7-1.2-1-.5-.2-1-.3-1.5-.3-.7 0-1.3.1-1.8.4-.4.2-.8.6-1.1 1-.3-.4-.6-.7-1-1-.5-.3-1.1-.5-1.7-.5-.8 0-1.6.3-2.2.8V.5c0-.1-.1-.2-.2-.2h-2.9c-.1 0-.2.1-.2.2V12c0 .1.1.2.2.2h2.9c.1 0 .2-.1.2-.2V5.2c0-.6.1-1 .3-1.2.2-.2.4-.4.6-.4.2-.1.3-.1.5-.1s.4.1.5.2c.3 0 .4.1.5.3.1.2.1.4.1.6V12c0 .1.1.2.2.2h2.9c.1 0 .2-.1.2-.2V5.2c0-.6.1-1 .3-1.3.2-.2.4-.4.6-.5.2-.1.3-.1.5-.1s.3.1.5.2.3.2.4.4c.1.2.1.4.1.6V12c0 .1.1.2.2.2h2.9c.1 0 .2-.1.2-.2V4.6c0-.6-.1-1.2-.3-1.7-.1-.5-.3-1-.7-1.4z"/><path id="Path_10_" class="st2" d="M40.4.4l-.1-.1h-3.1c-.1 0-.1 0-.2.1l-2.3 6.9L32.5.4c0-.1-.1-.1-.2-.1h-3.1c-.1 0-.1 0-.1.1v.2L33 12.2c0 .1.1.1.2.1h3.1c.1 0 .1 0 .2-.1L40.6.6c-.2-.1-.2-.2-.2-.2z"/></g><path id="Path_11_" class="st1" d="M96.3 1.9s17.2 6.2 18.7 6.8c1.8.6 3.2-.4 3.2-.4L95.4 0l-3.9 11.3s1.4 0 2.2-1.8 2.6-7.6 2.6-7.6"/><path id="Path_12_" class="st1" d="M115.5 26.7l-3.5 9.5L87.8 28l.3-.9h-1.6l-.6 1.8L113 38l3.8-10.4z"/><path id="Path_13_" class="st2" d="M129.2 19.4c-.9 0-1.7-.1-1.7-.1v.1c0 .2-.1.4-.1.6 0 .1-.1.2-.1.3 0 .1-.1.2-.1.3v.1c0 .1-.1.2-.1.3-.1.1-.1.2-.2.3-.1.1-.1.2-.2.3-.1.1-.1.2-.2.3l-.2.2c-.1.1-.2.1-.3.2h-.1c-.1.1-.2.1-.3.2h-.1c-.1.1-.2.1-.3.2-.1.1-.2.1-.3.2-.1.1-.2.1-.4.1-.1 0-.3.1-.4.1-.1 0-.3.1-.4.1h-.1c-.1 0-.3 0-.4.1h-.6c-3.5 0-5.1-2.5-5.1-4.7 0-1.7.9-3.9 3.5-4.5.7-.2 1.1-.8 1.1-1.5 0-.9-.8-1.6-1.7-1.6-.2 0-.3 0-.5.1-1.8.5-3 1.5-3.7 2.2-1.3 1.4-2.1 3.4-2.1 5.3s.8 3.9 2.1 5.3c1.1 1.2 3.1 2.5 6.3 2.5 3.3 0 5.3-1.4 6.3-2.5l.3-.3s0-.1.1-.1c.1-.1.2-.2.2-.3.1-.1.2-.3.3-.4v-.1c.1-.1.1-.2.2-.3v-.1c.1-.2.1-.3.2-.4.1-.1.1-.3.2-.4v-.1c0-.1.1-.2.1-.4 0-.1.1-.3.1-.4.1-.4.1-.8.2-1.1v-.1c.2-.1-.6 0-1.5 0z"/></svg>