<svg xmlns="http://www.w3.org/2000/svg" viewBox="0 0 161 54.01"><defs><style>.cls-2{fill:#fff}</style></defs><g id="Capa_2" data-name="Capa 2"><g id="Layer_1" data-name="Layer 1"><rect x="1" y="1" width="159" height="52.01" rx="7.03" fill="none" stroke="#fff" stroke-miterlimit="10" stroke-width="2"/><rect x="1" y="1" width="159" height="52.01" rx="7.03"/><path class="cls-2" d="M42.46 35.38a25.46 25.46 0 01-2.33 4.35c-1.51 2.3-3.64 5.17-6.28 5.19-2.35 0-3-1.53-6.13-1.51s-3.85 1.54-6.2 1.51c-2.64 0-4.66-2.61-6.17-4.91-4.23-6.44-4.67-14-2.07-18a9.38 9.38 0 017.53-4.52c2.8 0 4.56 1.53 6.87 1.53s3.62-1.53 6.85-1.53a9.15 9.15 0 016.89 3.63 7.88 7.88 0 001.04 14.26z"/><path class="cls-2" d="M32.08 14.9a7.83 7.83 0 001.74-5.81A8.48 8.48 0 0028.34 12a7.31 7.31 0 00-1.79 5.68 7.18 7.18 0 005.53-2.78zM55.34 21.91l-6.05 17.83h2.77l1.81-5.48h5.86l1.86 5.48h2.86l-6.09-17.83zm1.44 2.93c.21.79.43 1.62.71 2.51l1.63 4.73h-4.64l1.61-4.76c.24-.77.48-1.6.69-2.48zM72.28 26.53a5.07 5.07 0 00-4.29 2l-.1-1.77h-2.47V27c.08 1.1.11 2.32.11 4.06v13.79h2.7v-6.42A4.69 4.69 0 0071.92 40 5.57 5.57 0 0076 38.28a7.38 7.38 0 001.81-5.19 7.24 7.24 0 00-1.57-4.74 5.16 5.16 0 00-3.96-1.82zm-.67 2.23c2.41 0 3.48 2.23 3.48 4.44 0 2.84-1.37 4.61-3.58 4.61a3.27 3.27 0 01-3.18-2.5 3.58 3.58 0 01-.09-.87v-2.17a4.2 4.2 0 01.08-.67v-.22a3.42 3.42 0 013.29-2.62zM86.17 26.53a5.06 5.06 0 00-4.28 2l-.11-1.77h-2.47v.23c.07 1.1.1 2.32.1 4.06v13.8h2.7v-6.42a4.69 4.69 0 003.7 1.57 5.57 5.57 0 004.09-1.74 7.38 7.38 0 001.81-5.19 7.24 7.24 0 00-1.57-4.74 5.16 5.16 0 00-3.97-1.8zm-.67 2.23c2.41 0 3.5 2.24 3.5 4.44 0 2.84-1.37 4.61-3.58 4.61a3.28 3.28 0 01-3.18-2.5 3.58 3.58 0 01-.09-.87v-2.17a4.2 4.2 0 01.08-.67 1.7 1.7 0 000-.22 3.42 3.42 0 013.27-2.62zM103.58 29.46c-2.52-1-3.33-1.74-3.33-3.16 0-1.19 1-2.39 3.07-2.39a6.12 6.12 0 013.17.79l.23.14.76-2.25-.15-.09a7.91 7.91 0 00-3.93-.88c-3.44 0-5.85 2-5.85 4.94 0 2.34 1.51 4 4.74 5.16 2.29.85 3.14 1.73 3.14 3.23 0 1.7-1.31 2.76-3.43 2.76a7.4 7.4 0 01-3.89-1.1l-.23-.15-.72 2.3.13.09a9.23 9.23 0 004.56 1.15c4.63 0 6.28-2.83 6.28-5.25s-1.32-4.01-4.55-5.29zM113 23.74l-2.64.83v2.24h-1.96V29h1.94v6.6a5 5 0 00.93 3.42 3.44 3.44 0 002.61 1 6.41 6.41 0 002.12-.32l.15-.06-.15-2.16-.26.08a3.87 3.87 0 01-1.25.15c-1 0-1.5-.66-1.5-2.22V29h3.26v-2.19H113zM122.92 26.53c-3.77 0-6.41 2.81-6.41 6.85s2.55 6.62 6.21 6.62c3.09 0 6.41-2.15 6.41-6.88a6.79 6.79 0 00-1.72-4.77 6 6 0 00-4.49-1.82zm-.07 2.13c2.42 0 3.53 2.36 3.53 4.56 0 2.71-1.51 4.67-3.59 4.67-2 0-3.53-1.93-3.53-4.59-.02-2.3 1.09-4.64 3.59-4.64zM137.42 26.65h-.17a2.51 2.51 0 00-.67-.08 3.84 3.84 0 00-3.38 2.17l-.08-1.89h-2.42v.23c.07 1.07.1 2.27.1 3.88v8.82h2.7v-6.92a8.54 8.54 0 01.07-1.05 3 3 0 012.84-2.71h1.02zM143.48 26.5c-3.59 0-6.1 2.87-6.1 7s2.5 6.51 6.36 6.51a10.25 10.25 0 004.27-.82l.16-.07-.52-2-.22.09a8.33 8.33 0 01-3.38.61 3.75 3.75 0 01-4-3.92h8.71v-.17a5.64 5.64 0 00.08-1.13c-.01-2.81-1.41-6.1-5.36-6.1zm-.18 2.05a2.67 2.67 0 012 .76 3.83 3.83 0 01.93 2.51h-6.15c.23-1.56 1.2-3.27 3.22-3.27zM49.29 6.29a16.23 16.23 0 012.47-.19 5.15 5.15 0 013.66 1.13 4.15 4.15 0 011.27 3.23 4.78 4.78 0 01-1.3 3.54 5.56 5.56 0 01-4 1.3 18 18 0 01-2.11-.11zm1.16 8a6.66 6.66 0 001.18.07 3.47 3.47 0 003.84-3.83C55.48 8.38 54.28 7 51.82 7a6.3 6.3 0 00-1.37.13zM59.47 6.89a.69.69 0 01-.74.72.7.7 0 01-.73-.72.71.71 0 01.73-.73.7.7 0 01.74.73zm-1.31 8.3V8.71h1.18v6.48zM61.13 14a3.09 3.09 0 001.56.47c.85 0 1.25-.43 1.25-1s-.33-.87-1.2-1.19c-1.16-.4-1.74-1.04-1.74-1.82a2 2 0 012.23-1.9 3.14 3.14 0 011.62.44l-.29.85a2.5 2.5 0 00-1.32-.37c-.7 0-1.09.4-1.09.88s.39.78 1.23 1.1c1.13.43 1.7 1 1.7 2 0 1.14-.88 1.94-2.42 1.94a3.68 3.68 0 01-1.82-.44zM66.6 10.82c0-.82 0-1.49-.06-2.11h1.06l.05 1.11A2.54 2.54 0 0170 8.56c1.57 0 2.74 1.33 2.74 3.3 0 2.32-1.41 3.47-2.94 3.47a2.26 2.26 0 01-2-1v3.52h-1.2zm1.16 1.73a3.37 3.37 0 000 .48 1.83 1.83 0 001.77 1.38c1.24 0 2-1 2-2.5 0-1.3-.69-2.41-1.93-2.41a1.89 1.89 0 00-1.76 1.5 1.93 1.93 0 00-.08.48zM80.07 11.9a3.16 3.16 0 01-3.22 3.43 3.07 3.07 0 01-3.1-3.33A3.16 3.16 0 0177 8.56a3.07 3.07 0 013.07 3.34zm-5.13.1c0 1.42.81 2.49 2 2.49s2-1.06 2-2.51c0-1.1-.55-2.49-1.94-2.49s-2.06 1.24-2.06 2.51zM81.56 10.46V8.71h1l.07 1.07a2.39 2.39 0 012.14-1.22c.89 0 2.28.54 2.28 2.76v3.87H85.9v-3.74c0-1-.39-1.91-1.5-1.91a1.67 1.67 0 00-1.58 1.21 1.71 1.71 0 00-.08.54v3.9h-1.18zM90.3 6.89a.69.69 0 01-.75.72.7.7 0 01-.71-.72.72.72 0 01.74-.73.7.7 0 01.72.73zm-1.3 8.3V8.71h1.18v6.48zM100.12 5.69h1.18v9.5h-1.18zM92.14 15.19v-9.5h1.17v4.06a2.43 2.43 0 012.21-1.19c1.61 0 2.74 1.34 2.73 3.31 0 2.31-1.46 3.46-2.9 3.46a2.31 2.31 0 01-2.17-1.21v1.07zm1.22-2.6a2 2 0 000 .43 1.82 1.82 0 001.77 1.38c1.23 0 2-1 2-2.49 0-1.3-.67-2.41-1.92-2.41a1.88 1.88 0 00-1.79 1.5 2.84 2.84 0 00-.06.48zM103.55 12.16a2.08 2.08 0 002.23 2.25 4.38 4.38 0 001.79-.33l.2.84a5.2 5.2 0 01-2.15.4 3 3 0 01-3.19-3.26c0-2 1.15-3.5 3-3.5 2.11 0 2.67 1.86 2.67 3a3.35 3.35 0 010 .55zm3.46-.84a1.68 1.68 0 00-1.63-1.91 1.94 1.94 0 00-1.81 1.91zM113.1 12.16a2.07 2.07 0 002.22 2.25 4.38 4.38 0 001.79-.33l.2.84a5.16 5.16 0 01-2.15.4 3 3 0 01-3.16-3.26c0-2 1.15-3.5 3-3.5 2.12 0 2.68 1.86 2.68 3a5.07 5.07 0 010 .55zm3.45-.84a1.68 1.68 0 00-1.63-1.91 2 2 0 00-1.81 1.91zM119.15 10.46c0-.66 0-1.21-.05-1.75h1l.07 1.07a2.42 2.42 0 012.15-1.22c.89 0 2.28.54 2.28 2.76v3.87h-1.17v-3.74c0-1-.39-1.91-1.5-1.91a1.67 1.67 0 00-1.58 1.21 1.71 1.71 0 00-.08.54v3.9h-1.18z"/></g></g></svg>