<svg xmlns="http://www.w3.org/2000/svg" viewBox="0 0 161 54.01"><defs><linearGradient id="linear-gradient" x1="21.81" y1="11.01" x2="21.81" y2="46.23" gradientUnits="userSpaceOnUse"><stop offset="0" stop-color="#2079b0"/><stop offset=".32" stop-color="#4a98b5"/><stop offset=".78" stop-color="#81bfbc"/><stop offset="1" stop-color="#97cfbf"/></linearGradient><linearGradient id="linear-gradient-2" x1="12.93" y1="19.75" x2="35.46" y2="19.75" gradientUnits="userSpaceOnUse"><stop offset="0" stop-color="#5abcab"/><stop offset="1" stop-color="#e6e99a"/></linearGradient><linearGradient id="linear-gradient-3" x1="24.19" y1="28.62" x2="24.19" y2="46.36" gradientUnits="userSpaceOnUse"><stop offset="0" stop-color="#e53432"/><stop offset=".18" stop-color="#d43745"/><stop offset=".73" stop-color="#a33e7c"/><stop offset="1" stop-color="#904192"/></linearGradient><linearGradient id="linear-gradient-4" x1="37.17" y1="23.89" x2="37.17" y2="33.35" gradientUnits="userSpaceOnUse"><stop offset="0" stop-color="#f18779"/><stop offset=".64" stop-color="#f9b575"/><stop offset="1" stop-color="#fdcb73"/></linearGradient><clipPath id="clip-path"><path d="M35.46 23.89l-7.17-4.14-13.83-8c-.77-.44-1.53-.18-1.53.75v32.55c0 .7.54 1 1.21.61l14.15-8.17 7.17-4.14 6.89-4c.81-.47.73-1.11 0-1.48s-6.89-3.98-6.89-3.98z" fill="none"/></clipPath><style>.cls-8{fill:#f9f9f9}.cls-9{fill:#fff}</style></defs><g id="Capa_2" data-name="Capa 2"><g id="Layer_1" data-name="Layer 1"><rect x="1" y="1" width="159" height="52.01" rx="7.03" stroke="#fff" stroke-miterlimit="10" stroke-width="2" fill="none"/><rect x="1" y="1" width="159" height="52.01" rx="7.03"/><g clip-path="url(#clip-path)" id="PLAY"><path fill="url(#linear-gradient)" d="M12.93 11.01v35.22l17.76-17.61-17.76-17.61z"/><path fill="url(#linear-gradient-2)" d="M35.46 23.89l-7.17-4.14-15.36-8.87v.13l17.76 17.61 4.77-4.73z"/><path fill="url(#linear-gradient-3)" d="M12.93 46.23v.13l15.36-8.87 7.17-4.14-4.77-4.73-17.76 17.61z"/><path fill="url(#linear-gradient-4)" d="M35.46 23.89l-4.77 4.73 4.77 4.73 8.19-4.73-8.19-4.73z"/></g><path class="cls-8" d="M124.74 35.51a4.4 4.4 0 01-1.83-.37 3.37 3.37 0 01-1.38-1.14h-.12a13 13 0 01.12 1.71v4.21H120V25.08h1.26l.21 1.4h.08a3.6 3.6 0 011.39-1.21 4.23 4.23 0 011.82-.38 3.82 3.82 0 013.15 1.39 6.21 6.21 0 011.1 3.91 6.1 6.1 0 01-1.12 3.92 3.8 3.8 0 01-3.15 1.4zm-.22-9.3a2.73 2.73 0 00-2.27.87 4.44 4.44 0 00-.72 2.77v.34a5.13 5.13 0 00.72 3.09 2.73 2.73 0 002.3.93 2.4 2.4 0 002.08-1.07 5.06 5.06 0 00.76-3 4.88 4.88 0 00-.76-2.94 2.46 2.46 0 00-2.11-.99zM132.59 35.32H131V20.78h1.56zM141.51 35.32l-.31-1.46h-.08a4.26 4.26 0 01-1.53 1.31 4.58 4.58 0 01-1.9.34 3.41 3.41 0 01-2.39-.79 2.86 2.86 0 01-.86-2.23q0-3.11 5-3.25l1.74-.06v-.63a2.56 2.56 0 00-.52-1.78 2.1 2.1 0 00-1.66-.58 6.64 6.64 0 00-2.89.79l-.48-1.19a7.65 7.65 0 011.66-.65 7.42 7.42 0 011.81-.23 3.9 3.9 0 012.71.81 3.42 3.42 0 01.88 2.61v7zM138 34.23a3.17 3.17 0 002.28-.8 2.92 2.92 0 00.82-2.22v-.93l-1.55.07a5.62 5.62 0 00-2.67.58 1.72 1.72 0 00-.81 1.58 1.59 1.59 0 00.51 1.28 2.12 2.12 0 001.42.44zM143.56 25.08h1.66l2.24 5.84a23 23 0 01.92 2.89h.07c.08-.32.25-.86.51-1.63s1.11-3.14 2.54-7.1h1.66l-4.4 11.66a5.72 5.72 0 01-1.53 2.46 3.26 3.26 0 01-2.14.72 6 6 0 01-1.4-.16v-1.24a5.68 5.68 0 001.15.11 2.38 2.38 0 002.28-1.79l.57-1.46zM96 26a3.5 3.5 0 01-.28 6 1.47 1.47 0 00-.6 1.05 1.18 1.18 0 00.56.92l.77.6c1 .79 1.8 1.52 1.8 3 0 2-2 4.05-5.63 4.05-3.11 0-4.61-1.48-4.61-3.07a3.09 3.09 0 011.65-2.61 9.23 9.23 0 014.09-1 2.23 2.23 0 01-.64-1.45 2 2 0 01.21-.84h-.68a3.39 3.39 0 01-3.56-3.36 3.84 3.84 0 011.37-2.87 5.83 5.83 0 013.84-1.18h4.41l-1.37.76zm-1.52 9.51a3.7 3.7 0 00-.49 0 8.71 8.71 0 00-2.25.35 2.4 2.4 0 00-1.84 2.2c0 1.52 1.47 2.62 3.77 2.62 2 0 3.15-1 3.15-2.32 0-1.08-.71-1.66-2.34-2.82zm.62-4.07a2.18 2.18 0 00.54-1.56c0-1.54-.92-3.94-2.7-3.94a2 2 0 00-1.5.7 2.45 2.45 0 00-.44 1.62c0 1.43.83 3.81 2.68 3.81a2.15 2.15 0 001.42-.6zM82.51 35.2a5 5 0 01-5.21-5.05A5.29 5.29 0 0182.84 25 5 5 0 0188 30a5.23 5.23 0 01-5.49 5.2zm2.68-1.73a3.91 3.91 0 00.64-2.38c0-1.88-.9-5.47-3.55-5.47a3 3 0 00-1.93.73 3.24 3.24 0 00-1 2.61c0 2.11 1 5.6 3.64 5.6a2.75 2.75 0 002.2-1.09zM70.92 35.2a5 5 0 01-5.22-5.05A5.3 5.3 0 0171.24 25a5 5 0 015.11 5 5.22 5.22 0 01-5.43 5.2zm2.67-1.73a3.85 3.85 0 00.65-2.38c0-1.88-.9-5.47-3.55-5.47a3 3 0 00-1.93.73 3.24 3.24 0 00-1 2.61c0 2.11 1 5.6 3.63 5.6a2.73 2.73 0 002.2-1.09zM64.07 34.87l-3.07.71a23.22 23.22 0 01-3.55.36c-5.93 0-8.19-4.37-8.19-7.79 0-4.17 3.2-8 8.69-8a12.39 12.39 0 013.29.45 8.7 8.7 0 012.84 1.34l-1.79 1.7-.75.17.54-.86a6.15 6.15 0 00-4.6-2c-3.4 0-6 2.58-6 6.34a7.6 7.6 0 007.61 7.85 6.34 6.34 0 002.73-.54v-3.52l-3.25.17 1.72-.92h4.56l-.55.53a.49.49 0 00-.22.35v1z"/><path class="cls-8" d="M102.8 34.25c-.71-.07-.86-.2-.86-1V21a.61.61 0 000-.14c.09-.75.3-.88 1-1.27h-3.09l-1.62.78h1.64v13.32c0 .43-.08.49-.58 1.14h3.81l.8-.48zM111.55 34.44c-.23.13-.47.28-.7.39a5 5 0 01-2.08.4 4.55 4.55 0 01-2.84-.83 5.53 5.53 0 01-2.17-4.51 4.84 4.84 0 014.89-4.89 4.11 4.11 0 012.2.6 3.55 3.55 0 011.49 2.11l-5 2-1.64.13c.53 2.71 2.37 4.29 4.4 4.29a5.5 5.5 0 002.6-.74zm-2-6.36c.41-.15.62-.28.62-.58a2.12 2.12 0 00-2.11-1.83 2.63 2.63 0 00-2.46 3c0 .37 0 .75.07 1.14zM113.61 25.11v1.41h-.17v-1.41H113V25h1.11v.15zM115.53 26.52v-1.43l-.43 1.43h-.1l-.44-1.43v1.43h-.15V25h.26l.4 1.26.39-1.26h.27v1.56z"/><path class="cls-9" d="M48.28 6.35a16.23 16.23 0 012.47-.19 5.2 5.2 0 013.66 1.12 4.17 4.17 0 011.27 3.24 4.8 4.8 0 01-1.3 3.48 5.56 5.56 0 01-4 1.29 20.73 20.73 0 01-2.11-.1zm1.16 8a7.86 7.86 0 001.18.07 3.47 3.47 0 003.84-3.83c0-2.13-1.19-3.48-3.65-3.48a7.25 7.25 0 00-1.37.12zM58.47 7A.73.73 0 0157 7a.72.72 0 01.73-.74.71.71 0 01.74.74zm-1.31 8.29V8.77h1.17v6.47zM60.13 14a3 3 0 001.55.47c.85 0 1.26-.43 1.26-1s-.34-.86-1.21-1.19c-1.16-.41-1.71-1-1.71-1.83a2 2 0 012.23-1.9 3.32 3.32 0 011.6.4l-.3.86a2.5 2.5 0 00-1.32-.38c-.7 0-1.09.41-1.09.89s.39.77 1.23 1.09c1.13.43 1.7 1 1.7 2 0 1.14-.88 1.94-2.42 1.94a3.79 3.79 0 01-1.82-.44zM65.59 10.88c0-.83 0-1.5-.06-2.11h1.06l.06 1.11A2.55 2.55 0 0169 8.62c1.57 0 2.75 1.33 2.75 3.29 0 2.33-1.42 3.48-3 3.48a2.26 2.26 0 01-2-1v3.52h-1.16zm1.16 1.73a2.42 2.42 0 00.06.48 1.81 1.81 0 001.76 1.38c1.25 0 2-1 2-2.5 0-1.3-.68-2.41-1.93-2.41A1.88 1.88 0 0066.83 11a1.85 1.85 0 00-.08.48zM79.07 12a3.16 3.16 0 01-3.23 3.44 3.07 3.07 0 01-3.1-3.33A3.16 3.16 0 0176 8.62 3.07 3.07 0 0179.07 12zm-5.14 0c0 1.42.81 2.49 2 2.49s2-1.06 2-2.52c0-1.09-.55-2.49-1.94-2.49s-2.06 1.31-2.06 2.52zM80.55 10.52V8.77h1l.07 1.07a2.37 2.37 0 012.14-1.22c.89 0 2.29.54 2.29 2.76v3.86h-1.16v-3.73c0-1-.39-1.91-1.5-1.91a1.67 1.67 0 00-1.58 1.2 1.82 1.82 0 00-.08.55v3.89h-1.18zM89.29 7a.69.69 0 01-.75.72.7.7 0 01-.71-.72.72.72 0 01.74-.74.7.7 0 01.72.74zM88 15.24V8.77h1.18v6.47zM99.12 5.74h1.17v9.5h-1.17zM91.13 15.24c0-.44.05-1.09.05-1.67V5.74h1.17v4.07a2.4 2.4 0 012.2-1.19c1.61 0 2.75 1.34 2.73 3.31 0 2.31-1.46 3.46-2.9 3.46a2.3 2.3 0 01-2.17-1.22v1.07zm1.22-2.59a3 3 0 00.05.43 1.82 1.82 0 001.77 1.37c1.23 0 2-1 2-2.48 0-1.3-.66-2.41-1.92-2.41A1.89 1.89 0 0092.41 11a3.14 3.14 0 00-.06.48zM102.55 12.22a2.07 2.07 0 002.22 2.25 4.19 4.19 0 001.79-.34l.2.85a5.33 5.33 0 01-2.15.4 3 3 0 01-3.19-3.27c0-1.95 1.15-3.49 3-3.49 2.11 0 2.68 1.86 2.68 3.05a5.29 5.29 0 010 .55zm3.45-.84a1.68 1.68 0 00-1.63-1.92 2 2 0 00-1.81 1.92zM112.09 12.22a2.08 2.08 0 002.22 2.25 4.19 4.19 0 001.79-.34l.21.85a5.43 5.43 0 01-2.16.4 3 3 0 01-3.15-3.27c0-1.95 1.15-3.49 3-3.49 2.12 0 2.68 1.86 2.68 3.05a5.29 5.29 0 010 .55zm3.45-.84a1.68 1.68 0 00-1.63-1.92 2 2 0 00-1.81 1.92zM118.14 10.52V8.77h1l.07 1.07a2.37 2.37 0 012.14-1.22c.89 0 2.28.54 2.28 2.76v3.86h-1.17v-3.73c0-1-.39-1.91-1.5-1.91a1.67 1.67 0 00-1.58 1.2 1.82 1.82 0 00-.08.55v3.89h-1.18z"/></g></g></svg>