<svg xmlns="http://www.w3.org/2000/svg" viewBox="0 0 313 98.8"><defs><style>.cls-1{fill:#bcbec0;fill-rule:evenodd;}</style></defs><title>audi</title><g id="Layer_2" data-name="Layer 2"><g id="Layer_1-2" data-name="Layer 1"><path class="cls-1" d="M302.82,82.93c-19.45,17.74-47.29,20.33-71.61,2.16-28.52,20.87-54.13,12.69-72,.68-28.76,19-49.39,15.52-72,.37-52,37-112.44-16.63-76.11-75.68l1.72,1.17C-18.44,58.24,43.33,119.08,93.33,79.12c20.5,15.7,47.48,19.7,71.74-.62,31,23.83,60.1,10.9,71.37-.55C255.1,93,281.51,97.22,301.22,82.32c1.17.86.43-.12,1.6.61Zm-1.35-13.05c37-46.8-23.83-91.57-59.18-58.44l1.11,1.17C270.56-6.11,326.29,20.43,300,69l1.48.86ZM237.42,59l-2.83-3.45c3-8.93.56-18.78-3.2-23.77L235.58,22c9,13.36,5.66,29.25,1.84,37ZM166,59.29l-2.83-3.45c3-9,.55-18.84-3.2-23.83l4.25-9.79c9,13.42,5.66,29.25,1.78,37.07Zm-71.37.18L91.79,56c3.08-9,.61-18.78-3.2-23.76l4.25-9.8c9,13.37,5.66,29.25,1.78,37ZM229.24,69.2c-15.09-19-11.77-42.73-1.61-58.19-20.26-15.95-43.17-9.79-55.91-.18a20.41,20.41,0,0,1,.92,2.27c16.87-7.51,35.66-8.19,47.79,4.5C208.24,39.4,210.88,56.09,222,74c2.53-1.61,4.87-3.21,7.21-4.75Zm-71.44.25c-15-19.09-11.7-42.8-1.6-58.19-20.14-16-43-9.86-55.79-.25a20.45,20.45,0,0,1,.86,2.34c16.87-7.58,35.66-8.25,47.79,4.5-12.19,21.73-9.49,38.42,1.6,56.28,2.46-1.54,4.86-3.2,7.14-4.68Zm-71.37.18C71.35,50.54,74.67,26.9,84.83,11.44,64.63-4.51,41.72,1.59,29,11.26l1.17,2C47.08,5.65,65.56,5.28,77.69,18c-12.26,21.8-9.55,38.43,1.6,56.35,2.46-1.6,4.86-3.21,7.14-4.75Z"/></g></g></svg>