<svg xmlns="http://www.w3.org/2000/svg" viewBox="0 0 313 313"><defs><style>.cls-1{fill:#a3a3a3;}.cls-1,.cls-2,.cls-3,.cls-4,.cls-5{fill-rule:evenodd;}.cls-2{fill:#fff;}.cls-3{fill:#0a339b;}.cls-4{fill:#727272;}.cls-5{fill:#990808;}</style></defs><title>biuck</title><g id="Layer_2" data-name="Layer 2"><g id="Logos"><path class="cls-1" d="M156.5,0A156.5,156.5,0,1,0,313,156.5,156.55,156.55,0,0,0,156.5,0Zm0,296.38A139.91,139.91,0,1,1,296.38,156.5,139.85,139.85,0,0,1,156.5,296.38Z"/><path class="cls-1" d="M191.28,184.85c-7.9,36.93-32.37,69-33.78,71.18h.07c-.67-1.54-16.62-22.45-27.14-49.66-7.91,37-32.37,69.1-33.78,71.24h.06c-1-2.34-36.26-47.72-36.26-93V106.3h60.93V84.78h60.86V63.2h72.38v78.22c0,45.31-34.51,90.48-36.19,93h.07c-.67-1.54-16.69-22.39-27.22-49.6Z"/><path class="cls-2" d="M71.92,117.83v68c0,34.25,23.32,65.55,24.79,68,1.41-2.41,24.67-33.71,24.67-68v-68Z"/><path class="cls-2" d="M132.84,96.25v68c0,34.31,23.33,65.61,24.73,68,1.41-2.35,24.67-33.65,24.67-68v-68Z"/><path class="cls-2" d="M193.7,74.66v68c0,34.38,23.32,65.61,24.73,68,1.47-2.35,24.73-33.58,24.73-68v-68Z"/><path class="cls-3" d="M195.87,77.43,240.24,77l.53,54.49c.11,11.86-.22,19-.59,23l-44.31-77Z"/><path class="cls-3" d="M196.24,109.25l37.81,66.49c-5,13.47-10.79,22.65-15.55,30.29-10.59-15.82-22.26-40.28-22.26-62.26V109.25Z"/><path class="cls-4" d="M135.39,98.79h44.3v54.49c0,11.87-.4,19-.8,23l-43.5-77.48Z"/><path class="cls-4" d="M135.39,130.76l37.73,66.49c-5,13.47-10.79,22.72-15.55,30.36-10.45-15.88-22.18-40.28-22.18-62.26V130.76Z"/><path class="cls-5" d="M74.46,120.37h44.37v54.49c0,11.87-.4,19-.8,22.93L74.46,120.37Z"/><path class="cls-5" d="M74.46,152.34l37.8,66.49c-5,13.47-10.79,22.72-15.55,30.36-10.52-15.88-22.25-40.34-22.25-62.26V152.34Z"/></g></g></svg>