<svg xmlns="http://www.w3.org/2000/svg" viewBox="0 0 313 286.65"><defs><style>.cls-1{fill:#a1a1a1;}.cls-2{fill:#d6b271;}.cls-3{fill:#fff;}.cls-4{fill:#bfbfbe;}.cls-5{fill:#336bab;}.cls-6{fill:#e83e3b;}</style></defs><title>cadillac</title><g id="Layer_2" data-name="Layer 2"><g id="Logos"><path d="M86.61,268.85c22.81,11.15,47.67,18,75,17.79,58.58-3.54,116.72-40.39,140.48-96.1,15.57-33.19,13.83-80.67-1.22-113.54C284.46,38,243.13,10.71,205,0c-6.44.87-13,3.05-16.41,9.16C215,18.45,240.5,31.87,260.33,55.81c26.68,30.07,33.92,78.87,17.55,116.08-20.35,48.05-70.73,77.63-120.55,81.93q-48.14-4-85.44-33.75c-39-31.71-55.5-82.28-38.75-129.78C46,51.17,87.09,20.42,124.75,9.16,121.26,3,114.41.94,107.89,0,93.05,4.9,78.6,10.78,65.17,18.86,25,42.72,1.93,83.79.3,128.52-3.74,188.6,33.94,242.55,86.61,268.85Zm70.72-12c50.63-4.4,102-33.88,123-83,18.63-41.54,8.9-94.61-23.71-126.64-18.81-19.91-41.2-31.73-64.9-40.08.65-1.31,2.55-2.11,3.95-3l15.57,5.24c-4-.61-8.06-1.57-12.19-1.22,12.19,6.42,24.76,11.8,38.63,14.51a161.26,161.26,0,0,1,24.06,18.75c-4.18-2.77-9.89-3.74-14.72-5.87a68.73,68.73,0,0,0,27.55,21l1.7,1.21A120.08,120.08,0,0,1,292.4,87.79c-3.75-5.7-9.4-10.27-14.52-14.68,3.2,11.9,10.19,22.62,18.95,32.46,2.44,5.56,2.35,12,3,18.24a137.45,137.45,0,0,1-.73,23.12c-.88-8.1-4.16-15.49-7.41-22.41-3.37,14.1-.95,29.7,3.37,42.5-3.12,12-8.73,23-15.06,33.63,2.47-7.27,1.89-17.37,1.22-25.66-3.72,6.28-7.09,12.69-9.05,19.65l-3,20.32a131.89,131.89,0,0,1-26.06,24.51c7.14-7.53,9.82-16.85,12.19-26.29-7.36,5.8-15,13.55-18.59,21.9l-6.2,12.69a160.54,160.54,0,0,1-37.62,16.47A73.57,73.57,0,0,0,217.05,241c-10,4.5-21,8.5-28.76,18.33-3.13,2.71-4.42,7.8-9,8.47a199.44,199.44,0,0,1-22,2.84ZM228.08,18.74a102.08,102.08,0,0,1-21.42-8.32C214.1,12.23,221,15.63,228.08,18.74Zm10.42-.57c6.5,5,13.63,10.48,18.83,17.31C251,29.67,243.92,25,238.5,18.17Zm33.68,35.49a55.21,55.21,0,0,1-19.84-13.95C259.06,44.05,266,48,272.18,53.66Zm23.44,47.91a69.65,69.65,0,0,1-14.59-23C286.44,86,291.88,93.39,295.62,101.57Zm.34,61.24c.14-11.35-1.47-21.92-3-32.66C297.38,139.65,299.84,152.32,296,162.81Zm-24.3,49.34c4-9.92,6.3-20.35,8.64-31C281.08,193,279.46,203.9,271.66,212.15Zm-37.34,33.16c7.1-8.55,12.41-17.82,18.18-27A43,43,0,0,1,234.32,245.31Zm-49.65,21.08c9.7-6.57,18.92-14.48,28.31-21.95C205.75,254.33,195.74,263,184.67,266.39ZM157.33,272c13.61,7.93,33.72,9.07,48.58,3.2-9.65-2.16-18.17-6.66-29.09-5.66a228.62,228.62,0,0,0,24.33-6.2c15.08,3.57,31.85,1.35,43.71-8-9.71.15-20.67-1.3-29.78,2,10-4.47,20.84-11.17,30.68-18,15.17-.72,29.85-6.93,37.61-21-8.13,3.49-17.56,4.82-25,10.2a141.88,141.88,0,0,0,22.33-26.82c14.72-5.46,25.81-21,26.43-36.16-5,6.5-13.23,12-17.22,19.4a139.47,139.47,0,0,0,11.32-43.62c8.06-11.45,10.56-29,4.64-42.21a90,90,0,0,0-5.1,19,129.22,129.22,0,0,0-9.62-37c1.34-12.28-1.57-23.34-10.61-31.64-1.52-1.56-3.22-3.14-4.62-4.6a70.25,70.25,0,0,0,4.78,17c-6-11.27-20.47-20.23-24.8-32.59-5.24-8-14-11-21.44-15.51v.73a48.74,48.74,0,0,0,7.43,9.32A175.62,175.62,0,0,0,197.42,3.19c6.59-4.31,13.15.29,19.45,2.12,31.61,11.12,64.82,35,80.29,66.94,19.21,36,19.8,89.77.16,125.72-27.34,53.26-82.4,85-140,87.81V272Zm5.19.87a295.3,295.3,0,0,0,37.87,2.69C188.25,278.68,173.38,278.41,162.52,272.85Zm43.23-10.18c11.12-1.67,23-2.27,33.76-5.34C230.07,263.39,217.52,264.67,205.75,262.67Zm45.13-25.3c9.79-4.39,19.46-9.07,28.37-15.56C272.68,231.2,262,236.19,250.88,237.37Zm34.38-39.78c7.41-7.8,14.71-17.13,19.66-26.61C302.91,181.7,295.75,192.51,285.26,197.59Zm15.93-59.28c.08-11.93,0-24,4.28-34.12A170.87,170.87,0,0,1,301.19,138.31Zm-12-62.2c-4.39-8.77-9.59-17.18-11.16-27.06A104.18,104.18,0,0,1,289.2,76.11ZM121.74,6.86C83.93,18.74,43,50.14,30.07,89.54c-16,45-2.07,94,32.49,126.33,26.54,24.74,58.15,37.38,93.6,40.94v13.6a123.81,123.81,0,0,1-24.33-3.16c-5.69-5.92-10.46-13.13-17.55-17.47-5.77-3.36-11.85-6.22-17.9-9v.68a78.32,78.32,0,0,0,23.75,22.82,162.76,162.76,0,0,1-37.38-16.47c-5.06-9.39-8.1-19.69-16.83-27.56L58.09,213c1.54,7.32,3.83,14.74,8,21.23l4.11,5.26a149.8,149.8,0,0,1-26.07-24.14c-1.46-9.1-1.8-18.6-5.17-26.94A110.07,110.07,0,0,0,32.05,175c-.65,8.29-1.31,18.38,1.21,25.66a138.42,138.42,0,0,1-15-33.39c4.31-13,6.74-28.64,3.33-42.74-3.31,6.92-6.42,14.25-7.49,22.25-1.64-12.47-.84-27.18,1.51-39.62,5-7.49,11.92-14.16,15.32-22.36,1.61-3.84,3.38-7.56,4.59-11.5-5.13,3.85-10.86,8.88-14.66,14.5A122.23,122.23,0,0,1,37.12,57.58c8-4.64,16.42-8.07,23.3-15.34l6-6.61C61.57,37.3,56,38.51,51.51,41.5a129.5,129.5,0,0,1,25-19.26c13.5-2.35,25.63-8.1,37.73-14.15-4.15-.35-8.27.61-12.21,1.22l15.32-5.24A18.47,18.47,0,0,1,121.74,6.86Zm6.86,259.53c-11.06-3.38-21.07-12.06-28.31-21.95C109.66,251.91,118.88,259.8,128.6,266.39ZM78.76,245.17c-9.21-5.76-15.82-16.35-18.08-26.85C66.44,227.45,71.71,236.71,78.76,245.17Zm-37.13-33c-7.82-8.25-9.44-19.13-8.73-31C35.31,191.8,37.61,202.23,41.63,212.15ZM17.32,162.81c-3.86-10.49-1.46-23.16,3-32.66C18.78,140.89,17.21,151.46,17.32,162.81Zm.38-61.09C21.21,93.48,26.85,86,32.19,78.58A74.29,74.29,0,0,1,17.7,101.72ZM41.26,53.5c5.63-5,12.92-9.57,19.65-13.79C55.07,45.7,48.62,51,41.26,53.5ZM56,35.48c5.07-6.83,12.19-12.11,18.56-17.31C69.73,24.8,62.19,29.67,56,35.48ZM85.2,18.74c6.4-2.77,13.85-6.65,21.44-8.32C99.71,13.69,92.76,16.91,85.2,18.74ZM38.62,41.13C59.05,21,82.87,9.1,108.42,1.22a25.13,25.13,0,0,1,7.27,2A182.37,182.37,0,0,0,71.4,23.82,39.06,39.06,0,0,0,79,14c-9.18,4.49-21.4,10.41-25,21.53l-1.52,3.36a114.74,114.74,0,0,0-19.67,23C34.6,57,36.73,50.66,37.33,44.81c-11.65,9.27-17.09,21.63-15.26,36.4a125.35,125.35,0,0,0-9.52,37.12c-.71-6.82-3-13-5.17-19.22-6.08,13.53-3,31.36,5,43.09,1.51,15.09,4.9,29.34,11,42.59C19.58,178,11.18,172,6.13,165.54a40.78,40.78,0,0,0,20.94,33.18c7.23,1.42,8.65,9.7,13.41,14.26,4.67,5.28,9.08,10.83,14.59,15.54-7.63-5.34-16.73-6.61-25-10.44v.74C38.22,233,52.88,238.51,68,239.47a159.4,159.4,0,0,0,30.32,17.86c-8.73-3.35-20-1.67-29.81-2.11,2.55,2.54,6.44,4.31,9.92,6,10,4.5,23,4.35,34,2.1a219.23,219.23,0,0,0,24,6.2c-10.92-1-19.55,3.5-29.14,5.66,14.94,5.87,35,4.73,48.58-3.2l.26,13.65C95.4,283.51,35,245.68,11.3,187.9-8,139.46.87,78.2,38.62,41.13ZM24,76.11A101.46,101.46,0,0,1,35.31,49.05C33.69,59,28.3,67.3,24,76.11ZM12,138.31a176.14,176.14,0,0,1-4.21-34.12C12,114.34,11.88,126.38,12,138.31Zm16.17,59.52c-10.49-5.17-17.9-16-19.92-26.85A126.31,126.31,0,0,0,28.15,197.83Zm34.22,39.54C51.24,236,40.82,231.5,33.81,221.81,42.86,228.16,52.51,233,62.37,237.37Zm45.16,25.1c-11.49,2.28-24.46,1-33.85-5.14C84.48,260.18,96,261.22,107.53,262.47Zm43.23,10.38c-10.95,5.4-25.68,5.9-37.72,2.69A304.13,304.13,0,0,0,150.76,272.85Z"/><path d="M47.82,78.2l18.62,32,.7,14.36L70,162.14l2.12,15c1.43,9.46,11,16.15,19.14,19.45,21.16,8.28,43.4,14.21,65.53,20.13,21.39-5.72,42.61-11.68,63.2-19.27,8.42-3.19,18.86-9.4,20.84-19.25,3.8-21.76,5-44.61,5.88-67.62L265.43,78.2l-4.76-.68-64.88-8-40.23-4-31.29,3.3Z"/><path class="cls-1" d="M157.33,68.65l68.72,7.62,34.28,4.47-16.72,28.57c-1,20.39-2.19,40.75-4.36,60.59-1.18,6.95-2.28,14.06-8.92,18.49-6.61,4.83-14.28,7.09-21.79,9.81-16.73,5.85-34.06,10.33-51.21,15.18l-.19-13.45c22-5.55,45.6-7,66-16.37,5.88-2.67,7.9-8.72,8.3-14.55L233,106.54c3.55-6.05,7.26-12.15,10.61-18.26l-86.28-.13V68.65Z"/><path class="cls-2" d="M158.39,174.13H229c-2,8.39-11.18,9.68-17.69,12.51l-17.53,4.44L158.55,198Z"/><path class="cls-3" d="M156.16,89.56h1v23.68l36.89.12.34-.51V89.56h46.75l-4.39,7.78H195.64c-.67,2.2-.21,4.81-.36,7.23l.49.36h36.34c-1.36,2.67-.7,6.2-.84,9.32l-35.84.25-.15,24.34.49.36h34.88v.86H157.51l-.37.55v17l73.06.17c.26.14.13.55.13.85l-73,.15-.19,12.88.5.4h72l-.36.88H157.33L157.14,198c-.12.26-.58.2-.85.23L156.16,166l-36.91-.21-.37.58v24.52c-9.71-2.21-19.53-4.17-28.17-8.84h26.93c.65-2.24.2-4.95.42-7.43l-.67-.29H84.11a59.54,59.54,0,0,1-1-9.45l34.57-.11.42-.5V140.44l-.67-.38H82.5v-.86h73.24l.42-.58v-16.9l-74-.26v-.85l73.73-.15.26-12.92-74.11-.11c-.37-.29-.22-.76-.22-1.13H155.9Z"/><polygon class="cls-2" points="230.53 141.46 230.32 156.34 158.39 156.34 158.39 141.46 230.53 141.46"/><polygon class="cls-2" points="82.17 122.94 154.85 122.94 154.85 137.74 82.5 137.74 82.17 122.94"/><polygon class="cls-2" points="81.13 105.09 72.07 89.56 154.85 89.56 154.85 104.92 81.13 105.09"/><path class="cls-4" d="M155.74,68.65v19.5H69.79l.16,1,10.42,17.63,1.28,60.08c.52,5,.64,10.16,4.6,13.79,7.85,5.84,17.2,7.91,26.4,10.39l42.91,8.67h.18c.34,4.43.08,9.11.16,13.64-22-6.3-44.34-11.92-65.4-20.53-8.45-3.07-15.75-11.28-16.11-20.47-2.44-20.56-4-41.5-4.76-62.73C64.28,99.91,58.2,90.47,53,80.75L124.35,72Z"/><path class="cls-5" d="M193.82,123.06H157.51v7.46l36.68-.17C194,127.88,194.55,125.28,193.82,123.06Z"/><rect class="cls-5" x="119.25" y="148.91" width="36.65" height="7.21"/><rect class="cls-6" x="158.39" y="89.56" width="34.52" height="22.43"/><rect class="cls-6" x="82.69" y="141.3" width="34.52" height="22.43"/><rect class="cls-6" x="196.45" y="115.58" width="34.52" height="22.43"/><polygon class="cls-6" points="154.83 198.2 120.31 191 120.31 167.3 154.83 167.3 154.83 198.2"/></g></g></svg>