<svg xmlns="http://www.w3.org/2000/svg" xmlns:xlink="http://www.w3.org/1999/xlink" viewBox="0 0 38.67 7.78"><defs><style>.cls-1{fill:#231f20;}.cls-2{fill:#191919;}.cls-3{fill:#fff;}.cls-4{fill:url(#linear-gradient);}.cls-5{fill:url(#linear-gradient-2);}.cls-6{fill:url(#linear-gradient-3);}.cls-7{fill:url(#linear-gradient-4);}</style><linearGradient id="linear-gradient" x1="16.96" y1="6.13" x2="16.96" y2="4.92" gradientUnits="userSpaceOnUse"><stop offset="0.01"/><stop offset="0.12" stop-color="#00205f"/><stop offset="0.33" stop-color="#00053f"/><stop offset="0.76" stop-color="#000747"/><stop offset="0.9" stop-color="#001e9f"/><stop offset="1"/></linearGradient><linearGradient id="linear-gradient-2" x1="79.51" y1="6.13" x2="79.51" y2="4.92" gradientTransform="matrix(-1, 0, 0, 1, 101.08, 0)" xlink:href="#linear-gradient"/><linearGradient id="linear-gradient-3" x1="9.79" y1="4.76" x2="9.79" y2="3.87" gradientUnits="userSpaceOnUse"><stop offset="0.03" stop-color="#b0b0b0"/><stop offset="0.33" stop-color="#dcdcdc"/><stop offset="0.58" stop-color="#b5b5b5"/><stop offset="0.68" stop-color="#9d9d9d"/><stop offset="0.94" stop-color="#8b8b8b"/></linearGradient><linearGradient id="linear-gradient-4" x1="267.64" y1="4.76" x2="267.64" y2="3.87" gradientTransform="matrix(-1, 0, 0, 1, 296.48, 0)" xlink:href="#linear-gradient-3"/></defs><title>Asset 5</title><g id="Layer_2" data-name="Layer 2"><g id="Layer_1-2" data-name="Layer 1"><polyline class="cls-1" points="24.24 1.93 27.27 1.93 27.27 1.58 25.17 1.58 25.17 0.08 24.24 0.08 24.24 1.93"/><path class="cls-1" d="M6.77.08V1.93h.92V1.17H9.3v.76h.93V.08H9.3V.83H7.69V.08H6.77"/><path class="cls-1" d="M18.37.08l-.86.78-.9-.78L15.54,0V.08l1.31,1.09v.76h.93V1.16L19,.08V0l-.62.07"/><polyline class="cls-1" points="28.3 1.93 31.39 1.93 31.39 1.61 29.23 1.61 29.23 1.15 31.31 1.15 31.31 0.84 29.23 0.84 29.23 0.39 31.35 0.39 31.35 0.08 28.3 0.08 28.3 1.93"/><path class="cls-1" d="M19.76.56c0,.43.49.53,1.16.61s1,.11,1,.27-.2.22-.79.22a5.24,5.24,0,0,1-1.32-.18s-.06.2-.08.31a.15.15,0,0,0,0,.07A6.6,6.6,0,0,0,21.17,2c.9,0,1.76-.15,1.76-.63S22.58.86,21.58.75c-.41-.05-.84-.08-.84-.24s.12-.17.7-.17a4.83,4.83,0,0,1,1.15.14l.08-.43a14.35,14.35,0,0,0-1.45,0c-.63,0-1.46.09-1.46.56"/><path class="cls-1" d="M2.33,1c0,.6.63,1,1.93,1a9.72,9.72,0,0,0,1.12-.08l.08-.46a5.17,5.17,0,0,1-1,.15c-.72,0-1.21-.17-1.21-.61S3.71.4,4.47.4a9.51,9.51,0,0,1,1,.07V.4L5.38.09A7.42,7.42,0,0,0,4.29,0c-1.32,0-2,.4-2,1"/><path class="cls-1" d="M11.66,1.93h.93V.41l.49,0a3.87,3.87,0,0,1,.52,0c.28,0,.37.13.37.26s-.13.23-.41.28a4.12,4.12,0,0,1-.48,0A1.24,1.24,0,0,1,12.8.9V1l1,1H15V1.85L14,1.16a2.19,2.19,0,0,0,.5-.09c.28-.09.42-.24.42-.4s-.13-.41-.65-.52a5,5,0,0,0-1.15-.1c-.66,0-1.35,0-1.42,0V1.93"/><path class="cls-1" d="M32.61,1.93h.93V.41l.48,0a4,4,0,0,1,.53,0c.28,0,.37.13.37.26S34.79.9,34.5,1A4,4,0,0,1,34,1,1.24,1.24,0,0,1,33.75.9V1l1,1H36V1.85l-1.07-.69a2.19,2.19,0,0,0,.5-.09c.28-.09.42-.24.42-.4s-.14-.41-.66-.52A4.89,4.89,0,0,0,34,.05c-.66,0-1.35,0-1.42,0V1.93"/><path class="cls-2" d="M2.38,4.55l8.79.14a2.18,2.18,0,0,1,.47.07A1.47,1.47,0,0,1,12,5h2.23a6.48,6.48,0,0,0-.83.06c-.06,0,0,0,0,0h-1.6l.06.06.48.06.37.31h1.76a1.75,1.75,0,0,0-.4.11L14,5.66H12.7s0,.07.23.08a.85.85,0,0,1,.29.07,4.83,4.83,0,0,0,1.22.57c.77.22,2.13.45,2.13.45a10.64,10.64,0,0,1-2.83-.41c-.86-.37-2-1.21-2.28-1.32A1.27,1.27,0,0,0,10.93,5s-6-.24-6.66-.3S2.38,4.55,2.38,4.55Z"/><path class="cls-2" d="M36.29,4.55l-8.8.14a2.12,2.12,0,0,0-.46.07,1.47,1.47,0,0,0-.39.19H24.41a6.48,6.48,0,0,1,.83.06c.06,0,0,0,0,0h1.6l-.06.06-.48.06L26,5.49H24.19a1.75,1.75,0,0,1,.4.11l.06.06H26s0,.07-.23.08a.78.78,0,0,0-.29.07,5,5,0,0,1-1.23.57c-.76.22-2.12.45-2.12.45a10.54,10.54,0,0,0,2.82-.41c.86-.37,2-1.21,2.29-1.32A1.27,1.27,0,0,1,27.74,5s6-.24,6.66-.3S36.29,4.55,36.29,4.55Z"/><path class="cls-3" d="M19.39,6.14H16.68A2,2,0,0,1,15,5.63c-.58-.49-.51-.72-.51-.72h4.93"/><path class="cls-4" d="M19.39,6.13H16.72A2,2,0,0,1,15,5.62c-.56-.5-.5-.7-.5-.7h4.86"/><path class="cls-3" d="M19.22,6.14h2.71a2,2,0,0,0,1.71-.51c.58-.49.51-.72.51-.72H19.22"/><path class="cls-5" d="M19.22,6.13h2.67a2,2,0,0,0,1.69-.51c.56-.5.5-.7.5-.7h-5"/><polyline class="cls-3" points="20.29 5.66 20.98 5.66 20.98 5.58 20.5 5.58 20.5 5.24 20.29 5.24 20.29 5.66"/><path class="cls-3" d="M16.55,5.25v.41h.21V5.49h.36v.17h.21V5.25h-.21v.16h-.36V5.25h-.21"/><polyline class="cls-3" points="19.07 5.24 18.87 5.42 18.66 5.24 18.41 5.24 18.72 5.49 18.72 5.67 18.93 5.67 18.93 5.49 19.22 5.24 19.07 5.24"/><polyline class="cls-3" points="21.16 5.66 21.87 5.66 21.87 5.59 21.37 5.59 21.37 5.49 21.85 5.49 21.85 5.42 21.37 5.42 21.37 5.31 21.86 5.31 21.86 5.24 21.16 5.24 21.16 5.66"/><path class="cls-3" d="M19.33,5.35c0,.1.11.12.26.14s.24,0,.24.06,0,0-.19,0a1,1,0,0,1-.3,0l0,.09a1.31,1.31,0,0,0,.33,0c.21,0,.41,0,.41-.14s-.09-.12-.31-.15-.2,0-.2,0,0,0,.16,0a1.66,1.66,0,0,1,.27,0l0-.08a2.63,2.63,0,0,0-.34,0c-.14,0-.33,0-.33.13"/><path class="cls-3" d="M15.6,5.45c0,.14.14.23.43.23l.26,0V5.57l-.22,0c-.17,0-.28,0-.28-.14s.11-.13.28-.13h.22V5.25l-.25,0c-.3,0-.44.09-.44.22"/><path class="cls-3" d="M17.6,5.66h.21V5.32H18c.06,0,.08,0,.08.06s0,0-.09.06h-.17l.24.21h.26l-.24-.17.11,0c.07,0,.1-.06.1-.09s0-.09-.15-.12l-.25,0H17.6v.41"/><path class="cls-3" d="M22.09,5.66h.21V5.32h.23c.06,0,.08,0,.08.06s0,0-.09.06h-.18l.24.21h.27l-.24-.17.11,0c.07,0,.1-.06.1-.09s0-.09-.15-.12a1,1,0,0,0-.26,0h-.32v.42"/><path d="M19.38,7.45a5.77,5.77,0,0,0-.86,0,3.92,3.92,0,0,0-1,.26,9.36,9.36,0,0,1-1.75-.08L3,5.72a3.79,3.79,0,0,1-1.7-.52A3.15,3.15,0,0,1,0,4.23a4.9,4.9,0,0,1,.44.26,5.5,5.5,0,0,0,1.67.89c.72.27,12,1.89,12,1.89a14.53,14.53,0,0,0,3,.3c.42-.17.66-.32.86-.37a7.23,7.23,0,0,1,1.72-.11"/><path d="M19.29,7.45a5.77,5.77,0,0,1,.86,0,4.23,4.23,0,0,1,1,.26,9.36,9.36,0,0,0,1.75-.08l12.81-2a4.15,4.15,0,0,0,1.71-.52,2.77,2.77,0,0,0,1.29-1,3.66,3.66,0,0,0-.44.26,5.63,5.63,0,0,1-1.67.89c-.72.27-12,1.89-12,1.89a14.56,14.56,0,0,1-3,.3c-.42-.17-.66-.32-.86-.37a6.68,6.68,0,0,0-1.65-.11"/><path class="cls-6" d="M19.48,4.49s-2.73,0-3-.09S15.61,4,15.4,4a3.17,3.17,0,0,0-.64-.09S.45,4,.32,4a.85.85,0,0,0-.26.11s.9.14,1.31.18c4.28.33,13.55.16,13.89.21s.57.29,1,.29h3.25"/><path class="cls-7" d="M19.16,4.49s2.73,0,3-.09S23,4,23.23,4a3.33,3.33,0,0,1,.65-.09S38.19,4,38.32,4a.85.85,0,0,1,.26.11s-.9.14-1.31.18c-4.28.33-13.55.16-13.89.21s-.58.29-1,.29H19.11"/></g></g></svg>