<svg xmlns="http://www.w3.org/2000/svg" viewBox="0 0 313 313"><defs><style>.cls-1{fill:#ed1b2e;}.cls-2{fill:#fff;}.cls-3{fill:none;}</style></defs><title>dodge</title><g id="Layer_2" data-name="Layer 2"><g id="Layer_1-2" data-name="Layer 1"><path class="cls-1" d="M156.5,0c46.39,0,95.56,2.75,114.2,4.64,21.26,2.11,31.16,12.91,31.16,34,0,39.88-1.49,102.08-4.21,138.83-2.43,32.61-4.35,58.35-44.94,83-28.93,17.54-57.87,32.72-95.56,52.19l-.65.34-.69-.34c-37.61-19.44-66.48-34.57-95.53-52.19-40.59-24.68-42.51-50.42-44.94-83-2.72-36.56-4.2-98.83-4.2-138.83,0-21.06,9.89-31.86,31.15-34C60.93,2.75,110.11,0,156.5,0"/><path class="cls-2" d="M66.62,249h0c28.11,17.1,53.43,30.38,89.91,49.29,36.23-18.79,61.55-32,89.88-49.29,34.45-20.91,35.87-40.26,38.25-72.3C287.43,139.86,289,77,289,36.49c0-13.4-4-17.7-17.7-19.06-18.68-1.88-68.07-4.67-114.72-4.67S60.46,15.55,41.78,17.43C28,18.79,24.08,23.09,24.08,36.49c0,40.46,1.52,103.37,4.24,140.24,2.4,32,3.85,51.39,38.3,72.3"/><path class="cls-1" d="M154.58,93.48l-4.39,14.75c-15.85-32.41-34.75-49.4-57.63-49.4-24.78,0-36.89,16.53-40.44,21.78,6.34-16,23.13-30,45.47-30,30.62,0,47.92,24.16,57,42.84"/><path class="cls-1" d="M39.82,126.69c.18,54,15.89,79.88,39.32,79.88,10.84,0,18.64-6.82,18.64-17.92,0-9.51-4.14-17-5.8-20a51.13,51.13,0,0,1,1.19,10.61c0,9.28-6.27,12.3-11.39,12.3-15.59,0-31.19-30.3-35.58-64.83H39.82"/><path class="cls-1" d="M215.47,50.64a48.73,48.73,0,0,1,45.48,30c-3.59-5.25-15.71-21.78-40.44-21.78-22.89,0-41.78,17-57.63,49.4l-4.39-14.75c9.07-18.68,26.37-42.84,57-42.84"/><path class="cls-1" d="M266.86,126.69c-4.39,34.53-20,64.83-35.58,64.83-5.14,0-11.42-3-11.42-12.3a53.21,53.21,0,0,1,1.2-10.61c-1.68,3.06-5.77,10.53-5.77,20,0,11.1,7.76,17.92,18.64,17.92,23.39,0,39.13-25.92,39.32-79.88h-6.39"/><path class="cls-1" d="M156.53,244.17c7.22,0,13.64,0,15.42-9,.66-3.31,3.77-19,3.77-19s9.17-15.7,10.48-17.92a28.17,28.17,0,0,0,2.5-6.23c.51-2.12,7.51-31.7,7.51-31.7l12-5.32c11-4.91,11.6-16.42,7.68-30.23,2.15-5,5.69-9.59,10-9.59,6.39,0,9.14,5.32,9.14,13.85,0,18.42-6.56,28.53-6.56,38.23,0,4,1.67,6.38,4.85,6.38,10.49,0,24.41-23.17,29.38-50.49h6c1.33-19.4-8.93-42.88-33.66-42.88-20.06,0-39.61,15.93-51.29,52.8l7.55,5.25-3.63,18.11-14.14,5.89L171,180.16l6.89-8.45,7.4-3.1L183,180.12l-12.76,5.29-4.46,30.79,3.11,9.81-12.33,4.87L144.2,226l3.12-9.81-4.46-30.79-12.77-5.29-2.32-11.51,7.4,3.1,6.93,8.45-2.61-17.81-14.14-5.89-3.63-18.11,7.58-5.25C117.62,96.23,98,80.3,78,80.3c-24.74,0-35,23.48-33.67,42.88H50.3c5,27.32,18.9,50.49,29.34,50.49,3.23,0,4.9-2.42,4.9-6.38,0-9.7-6.6-19.81-6.6-38.23,0-8.53,2.76-13.85,9.18-13.85,4.35,0,7.9,4.61,10,9.59-3.88,13.81-3.26,25.32,7.73,30.23l12,5.32s7,29.58,7.47,31.7a30.33,30.33,0,0,0,2.54,6.23c1.3,2.22,10.44,17.92,10.44,17.92s3.12,15.67,3.81,19c1.78,9,8.19,9,15.41,9"/><path class="cls-2" d="M103.18,124.87l8.53,13.44,3.15,13.89-5.7-2.5c-7.79-3.31-8.59-12.52-6-24.83"/><path class="cls-2" d="M203.9,149.7c-2.65,1.14-5.73,2.5-5.73,2.5l3.16-13.89,8.55-13.44c2.61,12.31,1.81,21.52-6,24.83"/><rect class="cls-3" width="313" height="313"/></g></g></svg>