<svg xmlns="http://www.w3.org/2000/svg" viewBox="0 0 313 313"><defs><style>.cls-1{fill:none;}</style></defs><title>infiniti</title><g id="Layer_2" data-name="Layer 2"><g id="Layer_1-2" data-name="Layer 1"><path d="M310.46,143.46c-11-35.22-58.73-64.83-142.08-67.39-1.92-.06-6.87-.31-11.88-.3s-10.32.25-12.37.31c-83,2.67-130.6,32.23-141.59,67.38C.9,148.72-22.89,218,115.74,237.23L156.5,118.9l40.76,118.33C335.89,218,312.1,148.72,310.46,143.46Zm-87,46.85-66.91-89-66.91,89c-29.34-3.46-60.8-19.55-60.8-40.72,0-52.12,100.08-62.39,123.05-64a65.59,65.59,0,0,1,9,0c22.3,1.59,123.4,11.69,123.4,64.08C284.21,170.76,252.75,186.85,223.41,190.31Z"/><rect class="cls-1" width="313" height="313"/></g></g></svg>