<svg xmlns="http://www.w3.org/2000/svg" viewBox="0 0 313 313"><defs><style>.cls-1{fill:#231f20;fill-rule:evenodd;}.cls-2{fill:none;}</style></defs><title>jeep</title><g id="Layer_2" data-name="Layer 2"><g id="Layer_1-2" data-name="Layer 1"><path class="cls-1" d="M54.18,93.65H79.76v67.11c0,11.56-5,35.76-40.43,35.76S0,174,0,161.31V148.94H24.75V161c0,7.43,5,14.3,14.31,14.3s15.12-5.23,15.12-14V93.65Z"/><path class="cls-1" d="M122.39,180.84c-8.25,0-12.92-4.67-12.92-16h47.58c0-35.48-17.6-43.18-37.68-43.18-23.38,0-33.83,21.45-33.83,39.88s11.83,36.3,36,36.3c21.18.28,35.21-13.47,35.21-23.65H133.4A11.82,11.82,0,0,1,122.39,180.84ZM121,137.11c8.81,0,12.65,6.6,12.65,13.48h-24.2C109.47,143.16,112.49,137.11,121,137.11Z"/><path class="cls-1" d="M198.86,180.84c-8.25,0-12.93-4.67-12.93-16h47.58c0-35.48-17.6-43.18-37.68-43.18-23.38,0-33.83,21.45-33.83,39.88s11.83,36.3,36,36.3c21.18.28,35.21-13.47,35.21-23.65H209.86A11.81,11.81,0,0,1,198.86,180.84Zm-1.38-43.73c8.81,0,12.65,6.6,12.65,13.48h-24.2C185.93,143.16,189,137.11,197.48,137.11Z"/><path class="cls-1" d="M282.75,122.53c-11.83,0-17.61,6.6-17.88,7.43s-3.3,4.12-3.3-1.65v-3.85H237.91v94.89h23.93V193.22c0-1.93,1.93-1.65,3.3,0S272.57,199,283,199c19,0,30-16.5,30-39.05C313,130.78,294.57,122.53,282.75,122.53Zm-7.16,59.69c-11.55,0-14.57-7.43-14.3-21.46S267.07,141,274.5,141c12.1,0,14.3,9.35,14.3,19S287.15,182.22,275.59,182.22Z"/><rect class="cls-2" width="313" height="313"/></g></g></svg>