<svg xmlns="http://www.w3.org/2000/svg" viewBox="0 0 313 131.82"><defs><style>.cls-1{fill:#151112;}</style></defs><title>mini</title><g id="Layer_2" data-name="Layer 2"><g id="Logos"><g id="Mini"><path class="cls-1" d="M156.69,120.4a54.51,54.51,0,1,0-54.51-54.49A54.5,54.5,0,0,0,156.69,120.4Zm0-105a50.46,50.46,0,1,1-50.45,50.47A50.46,50.46,0,0,1,156.69,15.44Z"/><path class="cls-1" d="M8.5,44.17c2.48,3,5.48,6.54,9,10.41h0c3.23,3.6,6.88,7.53,10.93,11.65h0c3.3,3.33,6.85,6.84,10.65,10.38h0c4.1,3.82,8.46,7.72,13.11,11.65h0c4.13,3.49,8.49,7,13,10.4h0c5.1,3.84,10.47,7.59,16.06,11.22h26.38a65.87,65.87,0,0,0,98.16,0h26C281.45,77.69,313,33.34,313,33.34H214a66,66,0,0,0-114.66,0H0s3,4.14,8.48,10.83Zm33,32.44c-3.63-3.37-7.23-6.83-10.75-10.38h60a66.89,66.89,0,0,0,.86,10.38Zm230,0H221.74a64.52,64.52,0,0,0,.87-10.38h59.65Q277,71.56,271.5,76.61Zm30.82-32.44c-2.54,3-5.56,6.57-9,10.41H221.64A66.2,66.2,0,0,0,219,44.17Zm-83.6,44.09h39.53c-4.38,3.61-8.8,7.1-13.24,10.4h-31.1A68.08,68.08,0,0,0,218.72,88.26Zm-62-79.41a57,57,0,1,1-57,57.06A57,57,0,0,1,156.69,8.85ZM99.47,98.66H68c-4.44-3.3-8.85-6.79-13.23-10.4H94.66A67.14,67.14,0,0,0,99.47,98.66Zm-5-54.49a65.14,65.14,0,0,0-2.69,10.41h-72c-3.47-3.84-6.49-7.35-9-10.41Z"/><rect class="cls-1" x="149.79" y="51.94" width="6.89" height="28.23"/><path class="cls-1" d="M129.58,80.17l7.08-16.6v16.6h7V51.94H136l-8,18.61-7.34-18.61h-7.79V80.17h5.92v-17l6.75,17Z"/><polygon class="cls-1" points="168.7 63.15 181.81 80.17 187.14 80.17 187.14 51.94 181.15 51.94 181.15 69.1 181.15 69.11 167.94 51.94 162.78 51.94 162.78 80.17 168.7 80.17 168.7 63.15"/><rect class="cls-1" x="193.33" y="51.94" width="6.89" height="28.23"/></g></g></g></svg>