<svg xmlns="http://www.w3.org/2000/svg" viewBox="0 0 313 313"><defs><style>.cls-1{fill:none;}</style></defs><title>nissan</title><g id="Layer_2" data-name="Layer 2"><g id="Layer_1-2" data-name="Layer 1"><g id="Layer_1-3" data-name="Layer 1"><g id="Nissan_Badge" data-name="Nissan Badge"><path d="M182.4,167a12.11,12.11,0,0,1-1.68.07H148.67v7.45h32.61c.25,0,2.17,0,2.55-.06,6.64-.62,9.68-6.15,9.68-11s-3.16-10.3-9.19-10.86a23.37,23.37,0,0,0-2.61-.13h-21.3a11.26,11.26,0,0,1-2.36-.18,3.14,3.14,0,0,1-2.3-3.17,3.2,3.2,0,0,1,2.36-3.11,9.22,9.22,0,0,1,2.24-.18h30.74v-7.33H159.85a19.89,19.89,0,0,0-3.1.19,10.65,10.65,0,0,0-.13,21c1.12.12,2.67.12,3.36.12h20.74a11,11,0,0,1,1.49.06,3.58,3.58,0,0,1,.19,7.08Z"/><path d="M121.66,167a11.5,11.5,0,0,1-1.61.07H87.94v7.45h32.6c.25,0,2.18,0,2.55-.06,6.64-.62,9.69-6.15,9.69-11s-3.17-10.3-9.19-10.86a23.46,23.46,0,0,0-2.61-.13H99.68a11.13,11.13,0,0,1-2.36-.18,3.13,3.13,0,0,1-2.3-3.17A3.19,3.19,0,0,1,97.38,146a9.07,9.07,0,0,1,2.23-.18h30.74v-7.33H99.12a19.94,19.94,0,0,0-3.11.19,10.65,10.65,0,0,0-.12,21c1.12.12,2.67.12,3.35.12H120a10.81,10.81,0,0,1,1.49.06,3.58,3.58,0,0,1,.19,7.08Z"/><rect x="63.16" y="138.21" width="8.07" height="36.45"/><polygon points="45.34 174.66 45.34 138.21 37.26 138.21 37.26 165.41 10.37 138.21 0 138.21 0 174.66 8.07 174.66 8.07 147.34 35.15 174.66 45.34 174.66"/><polygon points="304.99 138.21 304.99 165.41 278.1 138.21 267.73 138.21 267.73 174.66 275.8 174.66 275.8 147.34 302.81 174.66 313 174.66 313 138.21 304.99 138.21"/><path d="M225.68,138.21,203,174.67h9.82l4-6.53h26.52l4,6.53h9.75l-22.73-36.46Zm13.48,23H221l9.13-14.66Z"/><path d="M44.9,117.53a118.2,118.2,0,0,1,223.32,0l.13.37h35.58v-4.28l-14.78-1.74c-9.13-1.06-11-5.09-13.54-10.19l-.62-1.24C253.63,55,207.11,25.56,156.56,25.56a131.1,131.1,0,0,0-118.43,75l-.62,1.24C35,106.91,33.1,111,24,112L9.19,113.74V118H44.71Z"/><path d="M268.35,195l-.13.37a118.21,118.21,0,0,1-223.32-.06l-.12-.38H9.25v4.29L24,201c9.13,1.05,11.06,5.09,13.54,10.18l.62,1.24c21.37,45.59,67.88,75,118.43,75S253.69,258,275.05,212.49l.63-1.25c2.48-5.09,4.41-9.13,13.53-10.18L304,199.32V195Z"/></g></g><rect class="cls-1" width="313" height="313"/></g></g></svg>