<svg xmlns="http://www.w3.org/2000/svg" xmlns:xlink="http://www.w3.org/1999/xlink" viewBox="0 0 299.74 313"><defs><style>.cls-1{isolation:isolate;}.cls-2{fill:url(#linear-gradient);}.cls-3{fill:url(#linear-gradient-2);}.cls-4{fill:url(#linear-gradient-3);}.cls-5{fill:url(#linear-gradient-4);}.cls-6{fill:url(#radial-gradient);}.cls-7{opacity:0.85;fill:url(#radial-gradient-2);}.cls-7,.cls-9{mix-blend-mode:multiply;}.cls-8{fill:url(#linear-gradient-5);}.cls-9{fill:url(#linear-gradient-6);}</style><linearGradient id="linear-gradient" x1="294.01" y1="42.21" x2="200.63" y2="185.22" gradientUnits="userSpaceOnUse"><stop offset="0.2" stop-color="#b5b3b3"/><stop offset="0.22" stop-color="#a19f9f"/><stop offset="0.25" stop-color="#787676"/><stop offset="0.28" stop-color="#585656"/><stop offset="0.31" stop-color="#413f3f"/><stop offset="0.34" stop-color="#333131"/><stop offset="0.37" stop-color="#2e2c2c"/><stop offset="0.45" stop-color="#343232"/><stop offset="0.55" stop-color="#454242"/><stop offset="0.67" stop-color="#605e5e"/><stop offset="0.81" stop-color="#878484"/><stop offset="0.81" stop-color="#898686"/><stop offset="1"/></linearGradient><linearGradient id="linear-gradient-2" x1="31.75" y1="146.02" x2="48.67" y2="107.27" gradientUnits="userSpaceOnUse"><stop offset="0.03" stop-color="#8c8888"/><stop offset="0.2" stop-color="#8c8888"/><stop offset="0.99" stop-color="#403e3d"/></linearGradient><linearGradient id="linear-gradient-3" x1="75.26" y1="166.49" x2="92.41" y2="127.22" gradientUnits="userSpaceOnUse"><stop offset="0" stop-color="#b5b3b3"/><stop offset="0.01" stop-color="#b4b2b2"/><stop offset="0.14" stop-color="#9e9b9b"/><stop offset="0.26" stop-color="#918d8d"/><stop offset="0.37" stop-color="#8c8888"/><stop offset="0.99"/></linearGradient><linearGradient id="linear-gradient-4" x1="242.07" y1="351.62" x2="-64.24" y2="40" gradientUnits="userSpaceOnUse"><stop offset="0.08" stop-color="#676464"/><stop offset="0.12" stop-color="#73706f"/><stop offset="0.17" stop-color="#53504f"/><stop offset="0.31" stop-color="#676464"/><stop offset="0.47" stop-color="#e6e5e5"/><stop offset="0.7" stop-color="#e6e5e5"/><stop offset="0.72" stop-color="#d7d6d6"/><stop offset="0.76" stop-color="#b0aeae"/><stop offset="0.82" stop-color="#716e6d"/><stop offset="0.84" stop-color="#575453"/><stop offset="0.96" stop-color="#2e2c2c"/></linearGradient><radialGradient id="radial-gradient" cx="17.51" cy="-92.65" r="229.32" gradientTransform="translate(104.19 108.88) scale(0.3)" gradientUnits="userSpaceOnUse"><stop offset="0.04" stop-color="#fff"/><stop offset="0.47" stop-color="#fff"/><stop offset="0.51" stop-color="#fbfbfb"/><stop offset="0.56" stop-color="#efefee"/><stop offset="0.61" stop-color="#dbdada"/><stop offset="0.66" stop-color="#bebdbd"/><stop offset="0.7" stop-color="#9a9898"/><stop offset="0.75" stop-color="#73706f"/><stop offset="0.85" stop-color="#53504f"/><stop offset="1" stop-color="#2e2c2c"/></radialGradient><radialGradient id="radial-gradient-2" cx="177.92" cy="-80.27" r="320.76" gradientTransform="translate(104.19 108.88) scale(0.3)" gradientUnits="userSpaceOnUse"><stop offset="0.04" stop-color="#fff"/><stop offset="0.25" stop-color="#fff"/><stop offset="0.27" stop-color="#fbfbfb"/><stop offset="0.29" stop-color="#efeeee"/><stop offset="0.3" stop-color="#dbdada"/><stop offset="0.32" stop-color="#bebdbd"/><stop offset="0.34" stop-color="#9a9898"/><stop offset="0.35" stop-color="#7f7c7c"/><stop offset="0.41" stop-color="#53504f"/><stop offset="0.47" stop-color="#2e2c2c"/><stop offset="0.86" stop-color="#2e2c2c"/></radialGradient><linearGradient id="linear-gradient-5" x1="897.98" y1="299.17" x2="1397.86" y2="908.21" gradientTransform="translate(-305.82 -111.36) scale(0.44)" gradientUnits="userSpaceOnUse"><stop offset="0" stop-color="#fff"/><stop offset="0.07" stop-color="#cbc9c9"/><stop offset="0.16" stop-color="#fff"/><stop offset="0.2" stop-color="#fff"/><stop offset="0.22" stop-color="#f3f3f3"/><stop offset="0.29" stop-color="#c6c5c5"/><stop offset="0.33" stop-color="#b5b3b3"/><stop offset="0.33" stop-color="#b9b7b7"/><stop offset="0.36" stop-color="#d2d1d1"/><stop offset="0.38" stop-color="#e6e6e6"/><stop offset="0.41" stop-color="#f4f4f4"/><stop offset="0.45" stop-color="#fdfcfc"/><stop offset="0.5" stop-color="#fff"/><stop offset="0.89" stop-color="#fff"/><stop offset="0.98" stop-color="#969393"/></linearGradient><linearGradient id="linear-gradient-6" x1="130.35" y1="242.44" x2="153.38" y2="256.01" gradientUnits="userSpaceOnUse"><stop offset="0.2" stop-color="#fff"/><stop offset="0.31" stop-color="#fdfdfd"/><stop offset="0.37" stop-color="#f4f4f4"/><stop offset="0.42" stop-color="#e7e6e6"/><stop offset="0.47" stop-color="#d3d2d2"/><stop offset="0.51" stop-color="#bab8b8"/><stop offset="0.52" stop-color="#afadad"/><stop offset="0.84" stop-color="#2e2c2c"/><stop offset="0.96" stop-color="#1f1f1f"/><stop offset="1" stop-color="#1a1a1a"/></linearGradient></defs><title>peugeot</title><g class="cls-1"><g id="Layer_2" data-name="Layer 2"><g id="Layer_1-2" data-name="Layer 1"><path d="M299,289.15c-5.77-17.26-29.1-60.56-47.43-84.94-4-5.31-2.49-8-.36-9.75a153.06,153.06,0,0,0,17-16.85c8.15-9.33,10.12-19.87,4.36-35.12s-24.7-51-28.68-62.91c-4.56-13.73-5-19.83-2.28-27.31,3.25-8.8,8-9.17,11.55-9.11a3.76,3.76,0,0,1,3.34,3c.11,3.89.3,8.68,4.07,18.7,6.05,16,21.56,26.38,26.45,28.49,3.41,1.47,4-1.16,3.72-2.44s-5.36-21-9.14-35.91c-4-15.58-5.95-19-9.48-22.26A30.82,30.82,0,0,0,250.8,24.8c-16.11.63-23.22,16.19-24.1,17.63s-1.07,2.2-2.71,1.07C219.38,40.27,206,29,204.71,22c-.73-4.15-1.46-4.73-5.62-6.35C182.93,9.37,168.94,3.82,153.45,1.08,147.23,0,146.9-.55,139.65.8a93,93,0,0,0-29.11,10c-5.08,2.7-5.69,4.5-6.67,5.79a6.85,6.85,0,0,1-3.44,2.82c-3.08,1-14.5,5.25-18.41,7.52-2.44,1.43-3.78,2.92-2.53,5.68,2.2,4.87,8.77,15,11.64,17.57,1.74,1.54,6.11,2.61,7.14,2.83s1.76.55,2.16-.22a6.5,6.5,0,0,1,2.62-3.52c3.07-2.15,8.77-3.64,11.81-3.92,2.33-.19,3.74-.27,4.94.6a16.49,16.49,0,0,1,4.89,6.75c1,3,.36,4.06-1.29,4.75a51.4,51.4,0,0,1-12.34,2.28c-5.72.46-7.34-1.12-7.75-1.48a1,1,0,0,0-1.64,0c-1,1.34-2.41,2.21-4.64,3.32-1.27.62-1.94,2-.75,4.07,3.66,6.3,8.45,13.37,12.91,14.72,3.53,1.1,5.44-.06,9.42-2.91,3.57-2.57,5.89-2.56,6.87-1.83s3.21,2.62,2.67,4.44c-1,3.16-7.32,10.7-8.55,12.25s-2.24,2.26-4.3,1.27c-3-1.44-48.77-25.18-54.88-27.56a49.17,49.17,0,0,0-17.6-3.48A86.47,86.47,0,0,0,26,63.57c-3.24.59-5.07,2.12-8.08,4.9C13.79,72.3,9.41,77.21,9,81.28c-.3,2.94,3,8.94,3.32,9.35a2.6,2.6,0,0,0,2.73,1.09c1.81-.21,6.34-2.56,11.75-1.62,4.89.84,5.37,4.69,5.64,7.64a2,2,0,0,0,2,1.63A18.23,18.23,0,0,1,43,101.09c4.34,2.07,12.93,8.72,14.26,10.2,1.06,1.2,1,2.28-1.05,2.48-10.91,1-27.51,4.22-35.19,6.74-5.45,1.78-11.89,4.23-14.16,8.18C4.29,133.16,1,140.34.11,145.47s4.52,11.43,6,12.84c1,1,1.64,1.55,3.39.6,2.66-1.53,9.12-5.51,15.3-5.87,3.74-.22,5.24,3.31,6.15,4.61s1.77.39,5.13-.52c5.94-1.6,39.14-1,50.86-.44,5.36.23,12.82,1,18.31,4.05s15.33,12.32,15.33,12.32-13.12,22-20.18,35c-6.54,12-11.32,21.1-13.67,26.34-2.17,4.79-3.94,11.58-3.55,16.94a150.1,150.1,0,0,1,.7,15.4c-.09,3.12-3,3.46-7.14,4.47-5.68,1.45-17,2.49-26.21,4.75-8.36,2.09-11.47,4.05-13,10.51a173.54,173.54,0,0,0-3.09,23.31c-.11,2.34-.14,3.49,2.82,2.87,1.7-.33,6.62-1,12.88-1.5,7.75-.6,16.15-.47,22.64-.49,11.93-.07,47.19,2,49.56,2.22,3,.3,3.62-.07,3.41-2.17-.28-2.78-.78-11.64-.92-16.92s-1-10.67,3.84-15.83,40.67-45.22,42.66-47.28c1.74-1.74,2.9-3.59,5.58-1.15s32.26,23.8,38.26,28.16a29.82,29.82,0,0,0,18.45,5.93c4.88.08,6.24,8.61,2.08,9.4s-10.75,2.15-15.27,3.18c-7,1.64-9.14,3.93-11.26,8.64-1.78,4-3.78,23.56-3.83,25.25-.07,1.22-.14,3,1.78,2.58,8.64-1.75,22.32-2.25,36.94-1.79,16.81.51,33.12,1.9,35.42,2s2.7-.2,3.95-2.13a83.21,83.21,0,0,1,13.94-15.13C300.13,293.45,300.19,292.52,299,289.15ZM234.51,170.82c-4.26,1.4-7,.19-9.11-1.79s-19-22.38-24.48-28.61c-2.74-3.15-4.8-10.33,3.46-13.39,6.77-2.46,18.94-6.38,22.32-8.14s5.14-3.62,5.47-7.08.29-7.38.31-8.67,1.72-2.36,2.59-.82c.59,1.08,3.64,7,7.35,13.88,5.54,10.31,12.54,23.2,14.83,28.73,2.15,5.3,1.1,9.33-2.19,13.4C250.61,163.83,237.63,169.8,234.51,170.82Z"/><path class="cls-2" d="M252,28a.21.21,0,0,0-.16,0c-13.22-.06-26.62,15.27-24.08,38.13,1.6,14,3.73,20.37,7.88,29.41,2.06,4.47,24.64,47.46,25.68,52,1.41,6.51.15,10.58-4.84,15.13-5.52,5-14.65,10.66-20.82,12.79a12.5,12.5,0,0,1-4,.75c-1.39,0-4.88-.48-11.48-8.62l29.17,38.94c-3.72-5-5.65-8.75-5-12s6-6.79,12.09-11.6,12.9-10.77,16-18.9a19.53,19.53,0,0,0,1.3-7.23c0-7.76-3.77-16.55-8.28-26.08-5.83-12.37-22.38-39.34-27.4-58.25a48.68,48.68,0,0,1-1.78-12.53c0-10.71,4.55-17.51,10.14-19.82a18.82,18.82,0,0,1,7.07-1.45,13.3,13.3,0,0,1,6.07,1.32c1.57.88,1.79,2.75,1.79,4.22v.32c0,.34-.05,1.14-.05,2.31a50.2,50.2,0,0,0,5.74,23.51c6.47,12,17.37,18.61,21.66,20.41.36.16-10-38.34-11.89-45.6C274.68,36.62,268.71,28.15,252,28Z"/><path class="cls-3" d="M70.29,113.52c2.54,2.55-1.89,2.4-15.34,3.57-13.7,1.19-27.5,4-34.71,6.66-5.28,2-8.48,3.4-10.58,8.25,0,0-4.39,9.53-5,13.29a5.41,5.41,0,0,0,.74,4.31c.52.8,1.78-24.85,34.88-26.54,29.29-1.49,36.5-4.56,30.78-10.16Z"/><path class="cls-4" d="M71.44,114.63c1,2.71-3,2.07-16.42,3.24-13.69,1.19-27.5,3.85-34.71,6.56-5.29,2-8.48,3.39-10.59,8.24,0,0-4.39,9.54-5,13.31a5.53,5.53,0,0,0,1.1,4.29c1.41,2.22,2.31,2.7,4.36,1.52,1.66-.95,9-5.1,13.78-5.19,4.37-.1,6.3,2.57,6.94,4.86.39,1.41,2.32.68,2.66.59,1.91-.48,3.78-1.06,10.63-1.55,8.13-.6,39.85-.33,51.5-.06,10.48.25,51.73,32.61,52.34,32.77l2.08-4.18c-14-11.58-66.08-52.86-78.66-65.18Z"/><path class="cls-5" d="M190.3,140.21c6.28,7.54,25,30.24,41,50.75,25,32,40.37,57,56.58,93.91,1.61,3.68.38,4.08-2.2,6.16-5,4-3.92,5.66-7.61,12-.42.73-1.37,1.92-2.54,1.81-3.42-.27-30-2.51-47.41-1.9-10.36.35-13,1.12-15.33,1.65-1.84.45-2.48.26-2.44-2.15,0-.93,2-11.84,3.49-15.85s3.81-5.56,7.3-6.51,13.31-2.78,17.29-3.78,4.17-4.79,3.81-7.65S239.57,262,237,261.5a36.63,36.63,0,0,1-9.68-2.78c-3.77-1.7-58-45.35-62.93-49.38-1.26-1-2.24-1.79-2.63-1.33s.63,1.77,1.11,2.28c.93,1,9.11,9.42,10.9,11.14,1.3,1.26.61,1.88,0,2.51-1,.88-26.6,26.16-37.24,37.19s-18.26,17.45-18.17,26.23.48,15.69.51,17.21c0,1.32-1.37,1.3-2.5,1.2-3.3-.3-28.76-2.81-43-3.12s-24.63,1.08-31.35,2.77c-1.58.39-2.06-.55-2-1.92a101.85,101.85,0,0,1,3.66-17.17c1.35-4.07,4.3-5.67,7.81-6.51,4.65-1.14,22.93-4.43,31.16-5.7,4.48-.72,5.41-2.23,5.36-6s-.51-12.05-.7-16.17,1.1-8.64,2.62-12.25c6.5-15.22,22.44-47.33,36.28-66.46,1.59-2.22,3.21-2.6,4.74-2.21,1.82.44,10.13,7,10.82,7.31,1.46.74,3.39.07,2.49-.82-4.83-4.85-19.49-13.76-28.41-20.87-17.65-14.08-36.06-34.54-50.88-48.21-7.64-7-15.84-12.23-21.93-13.56a61,61,0,0,0-6.07-.74,1.27,1.27,0,0,1-1.06-1.35A7,7,0,0,0,34,87.84c-1.41-1.61-4.47-2.14-6.6-2.18A44.87,44.87,0,0,0,16.73,87c-1.35.37-2,.09-2.51-.5a10.57,10.57,0,0,1-1.52-4,5.25,5.25,0,0,1,.87-3.4c1.81-3.45,6.46-6.83,9.13-9.32s4.49-2.67,7.08-3c6.23-.75,14.5-1.26,22.89.65,6.14,1.39,11,3.81,17,6.78S110.51,95,115,97.12Z"/><path class="cls-6" d="M132.43,76.8c.69,4.34-2.1,7.17-3.78,9.85s-5.06,6.53-6.81,8.71c-2.21,2.82-6.47,2-6.47,2s20.07,10.19,31.61,16c4.58,2.32,11.75.16,16.64-8.95,1.13-2.12,8.34-17.39,10.15-22s4.37-9.56.25-18.22-17-24.6-22.05-30.73c-2.68-3.2-5.82-5.15-12.6-5.53s-15,.63-25.61,3.5a227.24,227.24,0,0,0-25.2,8.85c-.29.18-.25.46-.09.78s1.58,2.81,1.58,2.81a6.75,6.75,0,0,0,2.82,2.87,17.76,17.76,0,0,0,4.64,1.79.81.81,0,0,0,1-.4c.17-.24,2.22-4.15,9.71-6.1a32.41,32.41,0,0,1,7.88-1.14,11.13,11.13,0,0,1,6.68,2.65c2.74,2.7,5.14,7.18,5.56,9.33s.09,4.67-2,5.75-8.14,2.49-11.93,2.88c-3.95.38-7.78.19-10-1.12a.76.76,0,0,0-1,0,17.62,17.62,0,0,1-3.07,2.3c-.36.21-.61.68-.24,1.42s5.12,8.61,8,10.73,4.4,1.18,7.83-.72,5.76-4.23,9.33-4.11A7.93,7.93,0,0,1,132.43,76.8Z"/><path class="cls-7" d="M132.51,77.41c.68,4.34-2.1,7.48-3.79,10.14s-5.07,6.55-6.8,8.73a4.93,4.93,0,0,1-5.46,1.59s19,9.65,30.52,15.45c4.58,2.32,11.49.74,16.36-8.39,1.14-2.11,8.37-17.39,10.16-21.93Z"/><path class="cls-8" d="M292.2,286.37c-5.34-13.44-20.41-42.6-41.07-72.92-20.25-29.82-54.6-70.22-59.34-76.93s-6.47-14,3.21-17c6.31-2,21.55-5.16,27.77-6.9,6-1.66,6.49-3.63,7-8.32.53-5.07-.86-29.68-3.92-44.33a12.3,12.3,0,0,0-5.12-7.31,129.72,129.72,0,0,1-15.15-14.08c-5.3-6.06-7.71-11.78-8.58-16.17a3.75,3.75,0,0,0-1.17-1.92,5.43,5.43,0,0,0-1.35-1c-9.11-5.6-41.29-14.4-47.86-15-4.49-.4-20.42,1.64-34.92,10.36-4.27,2.58-4.45,5.76-7.43,7.49s-9.81,3.28-17,6.5c-4,1.76-4,2-3,4.28.38.94,3,5.62,4.27,5.62A12.53,12.53,0,0,0,93,37.48c2.12-.84,16.26-6.31,27.49-8.71,12.51-2.68,26-2.9,30.73,2.15,7.26,7.68,20,24.93,23.89,32.41s3.41,11,.88,18.58c-2.33,7-11.14,25.23-13.73,29s-5.76,5.88-13.3,2.79c-8.09-3.32-37.87-18.6-44.34-21.87-4.39-2.21-22.8-11.53-36.72-18.52a68.52,68.52,0,0,0-14-5.63c-10.24-2.6-21.25-1.43-26.33-.59-2.3.38-3.76,4.1-3.65,5.61.15,1.88,5.55.55,10,.87,3.63.25,16.05,1.59,23.21,4.49,7.56,3.07,45.44,23.47,55,28.61,72.87,39.65,104,65.17,160.36,159.8,2.51,4.23,3.71,9.42-.25,10.6-5.77,1.69-29.8,6.26-37.05,8.64-6.12,2-6.93,2.49-7.83,5.51-1,3.45-2.53,10.29-2.17,11.66.16.56-.33,1.3.91,1.3,6.76,0,31,0,49.67,1.79,2.25.23,2.37.18,3.79-2,1.63-2.5,8.09-9.9,12.35-13C293.69,289.64,292.5,287.17,292.2,286.37Z"/><path class="cls-9" d="M118.31,288c-.19-3.78,1.2-7.24,3.61-10.69,3.23-4.63,8.2-9.37,14.31-15.7,10.7-11.1,36.77-36.62,37.71-37.56.59-.58,1.3-1.4-.15-2.8-2.59-2.49-3.95-4.08-8-8.16-2.48-2.49-4.21-4-4.12-4.86,0-.12-29.13,32.64-38.68,56.87-3.92,8.64-5,13.56-5,17.86A21.21,21.21,0,0,0,118.31,288Z"/><path d="M126.66,16.62c1.06-.2,1.58-.1,1.64.49a4.32,4.32,0,0,1-.05,1.2c0,.33-.18.51-.71.7-1.09.39-8,2.86-9.7,3.56s-2.3.29-2.45-.36a3.86,3.86,0,0,1,.37-2.15,2.16,2.16,0,0,1,1.25-1C118.26,18.66,124.69,17,126.66,16.62Z"/></g></g></g></svg>