<svg xmlns="http://www.w3.org/2000/svg" viewBox="0 0 143.75 187.09"><defs><style>.cls-1{fill:#231f20;}.cls-1,.cls-2{fill-rule:evenodd;}.cls-2{fill:#fff;}</style></defs><title>porsche</title><g id="Layer_2" data-name="Layer 2"><g id="Layer_1-2" data-name="Layer 1"><path class="cls-1" d="M71.87,187.09C37.56,169.39,9.39,144.47,8,114.49H8L0,9.75H0C29.25,3.07,47,0,71.87,0V187.09Z"/><path class="cls-2" d="M71.87,62.48H47.67v41.18h0c0,11.19,9.4,24,24.2,24V62.48Z"/><path class="cls-1" d="M71.87,187.09c34.31-17.7,62.49-42.62,63.93-72.6h0L143.75,9.75h0C114.49,3.07,96.79,0,71.87,0V187.09Z"/><path class="cls-2" d="M71.87,2.89c29.62,0,56.35,6.32,68.81,9.39h0l-1.34,17.91h0C107.45,22.21,88.49,21,71.87,21S36.3,22.21,4.4,30.19h0L3.07,12.28h0c12.46-3.07,39.19-9.39,68.8-9.39Z"/><polygon class="cls-2" points="98.96 79.17 98.9 99.06 133.94 99.17 135.5 79.07 98.96 79.17 98.96 79.17 98.96 79.17"/><polygon class="cls-2" points="136.97 59.83 138.54 39.1 73.32 38.73 73.32 58.95 98.96 58.95 98.96 59.82 136.97 59.83 136.97 59.83 136.97 59.83"/><path class="cls-1" d="M44.79,79.26a12.18,12.18,0,0,0-2,3.27,8.42,8.42,0,0,1,2,1.91h0V79.26Z"/><path class="cls-2" d="M35.93,159.33c10.53,9.53,23,17.46,34.5,23.56h0V159.26l-34.5.07Z"/><path class="cls-2" d="M70.43,138.94v-8.41h0a26.34,26.34,0,0,1-21-11.49h0l-38.23,0h0A55.36,55.36,0,0,0,18.7,139H70.43Z"/><path class="cls-2" d="M71.87,62.48h24.2v41.18h0c0,11.19-9.39,24-24.2,24V62.48Z"/><path class="cls-2" d="M88.51,125.12C95.57,119.69,99,111.34,99,105.46h0V102l34.88-.11-1.29,17h0c-4.33,28.53-34,50.74-59.23,64.1h0v-52.4h0a27,27,0,0,0,11.09-2.83h0l-.08.72h0a13.33,13.33,0,0,0-.85,4.07c-.14,1.12-1.51,1.23-1.76,1.11a1.92,1.92,0,0,0-1-.28,2,2,0,0,0-2,2,1.62,1.62,0,0,0,.08.49,1.67,1.67,0,0,0-1,1.71,1.85,1.85,0,0,0,1.82,2c.45,0,.75.06,1.08-.2a2,2,0,0,0,1.5.67c1.1,0,1.66-.29,1.73-2.53,7.36-3.9,18.56-6.88,23.51-6.61,5.61.3,9.68,5.92,10.12,6.28s.79.37.72-.21c-.36-2.31-1.07-5.79-6.54-8.78.36-1.52,3-1.8,3.52-2s.51-.65,0-.65c-3.65-.48-6.26,1.15-6.77,1.8a20.44,20.44,0,0,0-3.7-.25,8.21,8.21,0,0,1,3.11-4.57c-.24.2.43-.58-.08-.58-4,.37-6.55,4.56-6.84,5.64-.36.07-4.75.79-5.47,1,.66-4.26,5.49-7.15,5.92-7.44s.58-.72,0-.72c-6.08.2-10.53,8-10.74,9.71a25.33,25.33,0,0,0-3.11,1.3c-.25-2.83-.2-3.7.57-5.39h0l.41-.84Z"/><path class="cls-1" d="M82.58,151.77c-.06,1.8-.51,2-1.38,2a1.59,1.59,0,0,1-1.2-.54,1.21,1.21,0,0,1-.87.17,1.48,1.48,0,0,1-1.45-1.6,1.33,1.33,0,0,1,.83-1.37,1.27,1.27,0,0,1-.06-.39A1.59,1.59,0,0,1,80,148.48a1.56,1.56,0,0,1,.81.22c.2.1,1.3,0,1.41-.88s2.07-8.12,7-8.81c.52-.11.35.29.11.52.4-.39-4.21,3.28-3.85,7.38a27.69,27.69,0,0,1,3-1.22c.17-1.33,4.18-7.34,9-7.51.47,0,.35.35,0,.58s-4.57,2.46-5.1,5.86c.58-.17,3.46-.75,3.75-.81.23-.86,3.28-4.67,6.83-4.59.4,0-.13.62.06.46-1.3,1.09-3.7,2.44-4,3.93a15.37,15.37,0,0,1,3,.2,7,7,0,0,1,5.6-1.63c.4,0,.3.39,0,.52s-2.26.77-2.55,2c3.16,1.87,4.4,3.82,4.69,5.67.06.46-.23.46-.58.17s-3.69-3.52-8.18-3.76c-4-.21-12.56,1.9-18.45,5Z"/><path class="cls-1" d="M81,164.13c0,1.22-.62,1.48-1.22,1.48a1.13,1.13,0,0,1-.82-.37c-.18.14-.34.11-.59.11a1,1,0,0,1-1-1.09.92.92,0,0,1,.56-.94A1.07,1.07,0,0,1,79,162a1,1,0,0,1,.56.16c.13.06.88,0,1-.61s.39-5.66,3.42-6.2c.36-.08.24.2.08.35a7.51,7.51,0,0,0-1.28,5.09,14.56,14.56,0,0,1,1.66-.7c.12-.9,1.24-5.11,4.56-5.22.32,0,.24.24,0,.4a7,7,0,0,0-2,4,16.35,16.35,0,0,1,2-.55c.15-.59,2.56-3.83,5-3.78.28,0-.09.43,0,.32a7,7,0,0,0-2.3,3,7.29,7.29,0,0,1,1.62,0,3.42,3.42,0,0,1,3.29-1.34c.28,0,.21.27,0,.36a2.31,2.31,0,0,0-1.2,1.44c2.33,1.13,3.33,2.11,3.52,3.38,0,.32-.15.32-.39.12a10.54,10.54,0,0,0-5.42-1.81c-2.71-.14-8,1.33-12.12,3.84Z"/><path class="cls-1" d="M51.83,99.19c.22-.68,1-1.49,1-1.9s0-.72.22-1.13a14.44,14.44,0,0,1,1.31-1.44,1,1,0,0,1,1.72.4c.49,1.09,1.35,3.48,3.07,4.2A16.59,16.59,0,0,1,56,100.45c-.86.18-1.54.32-1.18,2.44a11.59,11.59,0,0,1,.32,3.7,3.41,3.41,0,0,0,1.08,3.25h0l1.13,1.58h0c.45.41,1.54.86,1.63,0s.36-1.81-.55-1.9a1.72,1.72,0,0,1-1.08-1.58,3.55,3.55,0,0,0-.5-2.17,3,3,0,0,1-.31-2.12c.18-.68.68-1.08,1.8-.86.91.32,5.06,1.45,6.32,0,.86.63,6,2.53,8.94,2.21a17.7,17.7,0,0,0,2.4,3.61,2.43,2.43,0,0,1-.18,3.16c-.59.45-2.13,2-3.39,2.4a4.56,4.56,0,0,0-2.35,1.17c-.58.59-1,.59-1.31,1.35s-1.17,2.13.14,2.13,1.67-.64,1.76-1,0-1.13.5-1.26a5,5,0,0,0,3.07-1.49A7.4,7.4,0,0,1,78.19,113a1.07,1.07,0,0,0,.82-1.35,2.53,2.53,0,0,1,.36-2c.72.18,3,.68,4.11,2.17a6.08,6.08,0,0,0,.4.9c-.31.54-.95,1-1.17,1.58a4.76,4.76,0,0,1-1.54,2.26,11.69,11.69,0,0,0-2.43,2,3.59,3.59,0,0,0-.73,2.48c.09,1,.36.5.82.5s1.49-.5,1.53-1.17-.27-1,.68-1.4a7.34,7.34,0,0,0,3-2.62,8,8,0,0,1,2.3-3c.86-.49.68-1.22.27-1.94s-1.81-2.66-1.53-3.93,1.76-2,2.21-4a5.27,5.27,0,0,0-.09-3.52c.77-.23,1.22,0,2.21.41s3.25.36,3.52-.28a3.49,3.49,0,0,0,0-2.16c.63-.54,1.08-1.72.72-2.26a2.52,2.52,0,0,1-.36-2c-.63-.09-1.31-.63-.86-1a2.47,2.47,0,0,0,1-2.58c.14-.77.18-1.71-1.13-1.67,0-.49-.45-2.12-2.48-.63-.31.23-.68-.27-.22-.41s2.79-.9,3.16-1.71a1.71,1.71,0,0,0,.09-1.54c.18-.36.36-1.08.18-1.35s-.91-.23-1.4,1S91.2,85,89.89,85.24s-2.31,0-3.16,1.44a3,3,0,0,1-1,1.13,2.21,2.21,0,0,0-1.09,1.44c-.09.5.37,1.4.28,2a3.21,3.21,0,0,0,1.21,3.43c.82.9,2,2.07,1.13,3s-1.71,0-2.39-.5a9.44,9.44,0,0,0-4.33-1c-1.45.09-6.19-1.08-7.32-2s-.44-1.43.14-1.72a1.58,1.58,0,0,0,.9-.81,1,1,0,0,1,1-.54c.41,0,.82-.09,1.18-1s.72-.54,1.13-.63a.65.65,0,0,0,0-1.22c-.72-.27-1.13-.54-1.08-.81a1.42,1.42,0,0,1,1.22-.9c.67,0,.72-.5.67-.86a.66.66,0,0,1,.46-.81c.45-.23.4-.77-.37-1s-1.89-.49-1.89-.86a1.65,1.65,0,0,1,1-1.17c.5-.18.72-.95-.41-.9s-1.76.18-2-.54-.27-1.13.9-1.58c.5-.14.63-.82-.27-.77s-1.94.49-2.26.18-.22-.59,0-.72a.33.33,0,0,0-.23-.59c-.45,0-2.21.68-2.66.18a1.41,1.41,0,0,0-1.76-.41c-.59.37-.59.91-.27,1.22a.34.34,0,1,1-.45.5.6.6,0,0,1-.23-.68,1.44,1.44,0,0,0-.59-.77c-.31-.18-.31-.67-.22-1s-.27-.63-.82-.31a1.36,1.36,0,0,0-.76,1.67c-.59,0-2.08.4-2.12.85s.18,1,.09,1.13-.59.18-.86.36c-.77.77-2.08,1.49-2.39,1.81a13.19,13.19,0,0,0-1,1.13,1,1,0,0,0-.27,1.22c.49.72.9.22,1.17.63s.27.5.23.72.49.72,1.3,0,1.4-1.4,2-.64,0,1.22-.23,1.72c-.54.54-1.81,2.21-2.39,2.71a5.43,5.43,0,0,0-1.27,2.75,2.66,2.66,0,0,1-.72,1.58,12.17,12.17,0,0,1-3-1.44A1.37,1.37,0,0,0,54,92a22.72,22.72,0,0,0-2.35,3.52c-.41,1-1,.59-1,2.39,0,.63-.5.91-.77,1.9,0,.27-.77,1.94,0,2.26a1.42,1.42,0,0,0,1.76-.55,13.85,13.85,0,0,0,.27-2.34Z"/><path class="cls-2" d="M44.79,59.59H70.43V24h0c-14.31.2-33.78,1-65.76,9.36h0l5,65.77h35.1V87h0c-1-.77-2.49-2-7-2-2.67,0-10.24,2.52-14.64,7.92-.07,1.89-1.15,2.59-2.08,2.59a1.68,1.68,0,0,1-1.26-.57,1.55,1.55,0,0,1-1,.33,1.68,1.68,0,0,1-1.68-1.68,1.81,1.81,0,0,1,1.1-1.6,1.41,1.41,0,0,1-.07-.41,1.68,1.68,0,0,1,1.68-1.68,1.65,1.65,0,0,1,.86.23c.21.11.88.56,1-.38s0-10.44,5-11.87c.54-.12.36.3.12.55a15.6,15.6,0,0,0-2.18,9,23.38,23.38,0,0,1,2.72-1.67c.25-1,2-8.88,6.17-9,.48,0,.36.37,0,.61s-2.19,2.4-2.55,6.24c.61-.19,2.13-.45,2.43-.51.25-.91,2-6.17,5.46-6.48.43,0,.24.44.06.63a12.72,12.72,0,0,0-2.35,5.14,10.14,10.14,0,0,1,2.45.11c.37-.48,3.26-3.65,5.73-4.69h0V67.07h0c-.47-.43-1.21-.89-3.49-.89-3.56,0-9.51,1.46-17.72,6.82-.08,2.52-1.52,3.46-2.76,3.46a2.22,2.22,0,0,1-1.68-.76,2.11,2.11,0,0,1-1.33.44,2.25,2.25,0,0,1-2.24-2.24A2.45,2.45,0,0,1,17,71.76a1.63,1.63,0,0,1-.08-.55A2.24,2.24,0,0,1,19.2,69a2.19,2.19,0,0,1,1.14.32c.28.14,1.42.62,1.58-.64S24.1,56.09,31,55.11c.73-.16.48.41.16.74s-5.71,4.74-5.31,11.22A44.09,44.09,0,0,1,30.21,65c.33-1.38,3.38-9.8,8.94-9.91.65,0,.49.49,0,.81a10.63,10.63,0,0,0-4.36,7.83c.81-.24,3.32-.83,3.73-.91.32-1.22,2.48-6.07,7-6.47.57,0,.33.58.08.83a8.23,8.23,0,0,0-3.13,5.17,10.53,10.53,0,0,1,2.3.3h0v-3Z"/><path class="cls-1" d="M22.57,53.18C22.48,56,20.88,57,19.5,57a2.5,2.5,0,0,1-1.87-.85,2.27,2.27,0,0,1-1.47.49,2.5,2.5,0,0,1-2.49-2.49,2.69,2.69,0,0,1,1.63-2.37,2.1,2.1,0,0,1-.09-.61,2.48,2.48,0,0,1,2.49-2.49,2.4,2.4,0,0,1,1.27.35c.31.15,1.57.69,1.75-.71s2.12-14.76,9.8-15.84c.81-.19.54.45.18.81s-6.32,5.15-5.6,13.27a55.65,55.65,0,0,1,5.24-2.53c.27-2.07,3.25-11.74,9.93-11.92.72,0,.54.55,0,.91a13.65,13.65,0,0,0-5.15,9.3c.91-.27,3.8-.72,4.25-.82.36-1.35,3.16-7.94,8.21-8.39.64,0,.37.45.09.72s-3.88,3.34-3.88,7a20,20,0,0,1,4.07.09,10.91,10.91,0,0,1,7.22-4.06c.63,0,.36.45,0,.81S52.37,40.09,51.92,42c1.35.72,5.24,3.34,5.69,6.23.09.72-.36.72-.91.27a16.83,16.83,0,0,0-9.93-3.79c-5.24,0-15.08,2.52-24.2,8.48Z"/><path class="cls-1" d="M62,16.27v2.09l-3.12.15V16.68h0c0-1.83-1-3-2.71-2.85h0l-8.62.56.09,5-3.11.14L44.19,7.06,57.13,6.2h0c2.37-.2,4.45.29,4.45,3.54a5.43,5.43,0,0,1-.83,2.71C61.4,13,62,14.31,62,16.27Z"/><path class="cls-1" d="M6.68,27.18l-.9-12.55,12.87-2.89h0c1.62-.36,3.92-.14,4,2.75s-.45,4.11-2.48,4.56h0L9.39,21.49l.41,5-3.12.72Z"/><path class="cls-2" d="M9.12,16.75l.09,1.85,9-2h0a1.06,1.06,0,0,0,.86-1.21c0-.32-.36-.77-1.26-.59s-8.67,1.94-8.67,1.94Z"/><path class="cls-1" d="M24.61,13.14c0-1.18-.05-2.89,3.16-3.39h0L38.19,8h0c1.27-.23,4.11.63,4.11,3h0l.14,6.05h0c0,1.26,0,2.93-3.43,3.43h0L29.35,22h0c-1.72.32-4.52,0-4.61-3.2h0l-.13-5.69Z"/><path class="cls-2" d="M27.77,14.54h0c0-.95-.05-1.85,1.62-2.17h0l8-1.35h0a1.49,1.49,0,0,1,1.76,1.35h0l.09,3.7h0a1.71,1.71,0,0,1-1.58,1.76h0l-7.9,1.27h0c-1.08.18-1.8.22-1.89-1.18h0l-.09-3.38Z"/><path class="cls-1" d="M68.62,10.79a1.09,1.09,0,0,1,0-2.17H81.35V5.91H67.13c-.72,0-3.16.16-3.13,3.84s2.59,3.75,3.13,3.75h10a1.08,1.08,0,0,1,1.09,1.08,1,1,0,0,1-1.09,1H64.38v2.7H78.55c.91,0,3.28.14,3.28-3.77s-2.67-3.72-3.28-3.72H68.62Z"/><polygon class="cls-1" points="103.66 7.45 102.89 20.27 105.87 20.68 106.23 15.17 116.7 17.16 116.34 22.39 119.32 22.93 120.09 10.16 117.16 9.62 116.84 14.58 106.36 12.6 106.64 7.9 103.66 7.45 103.66 7.45 103.66 7.45"/><polygon class="cls-1" points="122.12 23.34 122.84 10.7 137.2 13.72 137.02 16.3 125.69 13.9 125.6 16.25 136.84 18.65 136.66 21.22 125.42 18.83 125.28 21.4 136.48 23.79 136.25 26.37 122.12 23.34 122.12 23.34 122.12 23.34"/><path class="cls-1" d="M100.81,10l.14-2.8-13.23-1h0c-1.13-.1-3.3-.19-3.48,3.52S84,15.08,84,15.08a3.39,3.39,0,0,0,3.12,3.57h0l13.18,1,.14-2.8-11-.81h0c-1-.05-2.17-.36-2.08-2.26h0l.09-2.71h0c0-1.08.41-2.08,2.13-1.94h0l11.28.9Z"/><path class="cls-2" d="M56.71,11.1l-9.24.52,0-2,9.36-.49h0c.73,0,1,.27,1.06.93s-.5,1-1.14,1Z"/><path class="cls-1" d="M51,70.45c.14.76.49,1.08,1.2,1.08s1-.32,1-.77c0-.24-.13-.4-.48-.57h0l-1.65-.76h0A1.63,1.63,0,0,1,50,67.79a1.87,1.87,0,0,1,2-2,2,2,0,0,1,2.11,2.12H53.05c-.11-.72-.41-1-1-1s-.93.31-.93.76a.57.57,0,0,0,.38.49h0l1.7.79h0a1.59,1.59,0,0,1,1.1,1.65,2.08,2.08,0,0,1-.68,1.57,1.91,1.91,0,0,1-1.43.47,2,2,0,0,1-1.92-.95A2.24,2.24,0,0,1,50,70.45H51Z"/><polygon class="cls-1" points="59.02 65.92 59.02 67.11 57.42 67.11 57.42 72.5 56.31 72.5 56.31 67.11 54.67 67.11 54.67 65.92 59.02 65.92 59.02 65.92 59.02 65.92"/><path class="cls-1" d="M64.14,65.92V70h0c0,1.5-.44,2.64-2.18,2.64S59.79,71.5,59.79,70h0V65.92H60.9v4h0c0,1.06.29,1.48,1,1.48S63,71,63,70h0v-4Z"/><polygon class="cls-1" points="69.07 65.92 69.07 67.11 67.47 67.11 67.47 72.5 66.36 72.5 66.36 67.11 64.72 67.11 64.72 65.92 69.07 65.92 69.07 65.92 69.07 65.92"/><path class="cls-1" d="M76.52,68.94h2.24v3.57H78l-.11-.84h0a1.83,1.83,0,0,1-1.62,1c-1.45,0-2.48-1.39-2.48-3.36s1-3.47,2.64-3.47A2.25,2.25,0,0,1,78.76,68H77.63c-.22-.72-.58-1-1.19-1-.93,0-1.51.86-1.51,2.23s.6,2.22,1.51,2.22c.7,0,1.16-.49,1.3-1.37H76.52V68.94Z"/><polygon class="cls-1" points="81.31 65.92 82.56 65.92 84.47 72.5 83.26 72.5 82.89 71.12 80.93 71.12 80.55 72.5 79.39 72.5 81.31 65.92 81.31 65.92 81.31 65.92"/><path class="cls-1" d="M87.46,65.92c.77,0,1.06.08,1.39.38a2,2,0,0,1,.56,1.52,1.52,1.52,0,0,1-.77,1.52c.52.28.59.47.63,1.74,0,1.06.06,1.23.24,1.43H88.28a2.86,2.86,0,0,1-.14-1c0-1,.11-1.57-.92-1.57h-1v2.61H85.09V65.92Z"/><polygon class="cls-1" points="94.37 65.92 94.37 67.11 92.77 67.11 92.77 72.5 91.66 72.5 91.66 67.11 90.03 67.11 90.03 65.92 94.37 65.92 94.37 65.92 94.37 65.92"/><polygon class="cls-1" points="73.94 65.92 73.94 67.11 72.34 67.11 72.34 72.5 71.23 72.5 71.23 67.11 69.6 67.11 69.6 65.92 73.94 65.92 73.94 65.92 73.94 65.92"/><polygon class="cls-2" points="82.59 70 81.91 67.43 81.24 70 82.59 70 82.59 70 82.59 70"/><path class="cls-2" d="M86.2,68.79h1.06c.76,0,1-.2,1-.84s-.24-.84-1-.84H86.2v1.68Z"/></g></g></svg>