<svg id="Layer_1" data-name="Layer 1" xmlns="http://www.w3.org/2000/svg" xmlns:xlink="http://www.w3.org/1999/xlink" viewBox="0 0 313 313"><defs><style>.cls-1{fill:#903035;}.cls-2{fill:#cc2229;}.cls-3{fill:#b3b3b3;stroke:#b3b3b3;}.cls-3,.cls-4{stroke-width:0.11px;}.cls-4{fill:#4d4d4d;stroke:#4d4d4d;}.cls-5{fill:url(#linear-gradient);}.cls-6{fill:url(#linear-gradient-2);}.cls-7{fill:url(#linear-gradient-3);}</style><linearGradient id="linear-gradient" x1="58.3" y1="66.96" x2="82.31" y2="66.96" gradientTransform="matrix(11.67, 0, 0, -11.67, -664.73, 870.26)" gradientUnits="userSpaceOnUse"><stop offset="0" stop-color="#929496"/><stop offset="0.07" stop-color="#97999b"/><stop offset="0.17" stop-color="#a4a6a8"/><stop offset="0.27" stop-color="#bbbdbf"/><stop offset="0.39" stop-color="#dcddde"/><stop offset="0.49" stop-color="#fff"/><stop offset="0.56" stop-color="#f8f8f8"/><stop offset="0.66" stop-color="#eaeaeb"/><stop offset="0.77" stop-color="#d4d5d7"/><stop offset="0.88" stop-color="#b6b8ba"/><stop offset="1" stop-color="#929496"/></linearGradient><linearGradient id="linear-gradient-2" x1="58.34" y1="61.65" x2="82.35" y2="61.65" xlink:href="#linear-gradient"/><linearGradient id="linear-gradient-3" x1="58.27" y1="56.32" x2="82.3" y2="56.32" xlink:href="#linear-gradient"/></defs><title>seat</title><path class="cls-1" d="M303.45,32.54c-29.74-7.44-115.29-15-206.39-9.3C7.81,28.82,6,70.66,2.23,100.41S5,282.62,5,282.62,95.2,295,151.91,294.39,299.18,303.13,308.09,238c9.31-67.87-4.63-205.46-4.63-205.46Z"/><path class="cls-2" d="M303.46,29.75c-29.75-7.44-115.3-15-206.4-9.3C7.81,26,6,67.87,2.23,97.61S5,279.83,5,279.83,95.2,292.21,151.91,291.6s147.26,8.74,156.19-56.39c9.3-67.87-4.64-205.46-4.64-205.46Z"/><path class="cls-3" d="M16.42,98.55s-.85-39.89,20.46-52.07c26-14.87,93.9-27.89,257.53-7.43,0,0,1.85,52.06,1.85,55.78,0,0-121.82-10.44-144.09-8.68-15.81,1.24-8.37,9.61,0,10.83,0,0,122.71,20.16,144.09,24.81v21.39S103.82,105.05,16.42,98.55Zm-.92,14.87s215.69,33.47,280.76,49.27v19.53S76.85,132.94,16.42,127.36l-.92-13.94Zm.92,29.76s211.05,32.53,279.84,59.49c0,0,5.58,44.63-16.73,58.57-31.92,19.95-152.47,19.53-260.31,6.51,0,0-2.79-51.13,0-76.24,0,0,119.05,8.84,145,12.09,14.87,1.86,14.88-5.58,5.58-11.16,0,0-115.28-31.61-152.47-36.26l-.94-13Z"/><path class="cls-4" d="M16.43,104.13s-.86-39.89,20.45-52.07c26-14.87,93.9-27.89,257.53-7.44,0,0,1.86,52.06,1.86,55.79,0,0-121.83-10.45-144.1-8.69-15.81,1.25-8.37,9.62,0,10.83,0,0,122.72,20.17,144.1,24.81v21.39S103.82,110.63,16.43,104.13ZM15.5,119s215.69,33.47,280.76,49.27V187.8S76.86,138.52,16.43,132.94Zm.93,29.75s211,32.54,279.83,59.5c0,0,5.58,44.62-16.73,58.57-31.92,19.95-152.47,19.52-260.31,6.51,0,0-2.79-51.14,0-76.24,0,0,119.05,8.84,145,12.08,14.87,1.87,14.88-5.57,5.58-11.15,0,0-115.28-31.61-152.47-36.26l-.93-13Z"/><path class="cls-5" d="M16.27,101.34s-.86-39.89,20.46-52.07c26-14.87,93.89-27.89,257.52-7.43,0,0,1.86,52.06,1.86,55.78,0,0-121.82-10.44-144.1-8.69-15.8,1.25-8.37,9.62,0,10.84,0,0,122.72,20.16,144.1,24.81V146S103.66,107.84,16.27,101.34Z"/><path class="cls-6" d="M15.81,116.21s215.69,33.47,280.76,49.27V185S77.17,135.73,16.74,130.15l-.93-13.94Z"/><path class="cls-7" d="M16,146s211,32.54,279.84,59.5c0,0,5.58,44.62-16.74,58.57-31.92,20-152.46,19.52-260.31,6.51,0,0-2.79-51.13,0-76.24,0,0,119.06,8.84,145,12.08,14.87,1.87,14.88-5.57,5.58-11.15,0,0-115.29-31.61-152.48-36.26L16,146Z"/></svg>