<svg id="Layer_1" data-name="Layer 1" xmlns="http://www.w3.org/2000/svg" xmlns:xlink="http://www.w3.org/1999/xlink" viewBox="0 0 313 313"><defs><style>.cls-1{fill:#004990;}.cls-2,.cls-3,.cls-4{fill:none;}.cls-2,.cls-3{stroke:#231f20;}.cls-2{stroke-width:1.98px;}.cls-3{stroke-width:0.99px;}.cls-5{fill:url(#linear-gradient);}.cls-6{fill:url(#linear-gradient-2);}.cls-7{fill:url(#linear-gradient-3);}.cls-8{fill:url(#linear-gradient-4);}.cls-9{fill:url(#radial-gradient);}.cls-10{fill:url(#radial-gradient-2);}.cls-11{fill:url(#radial-gradient-3);}.cls-12{fill:url(#linear-gradient-5);}</style><linearGradient id="linear-gradient" y1="156.5" x2="313" y2="156.5" gradientUnits="userSpaceOnUse"><stop offset="0.01" stop-color="gray"/><stop offset="0.15" stop-color="#fff"/><stop offset="0.2" stop-color="#f4f4f4"/><stop offset="0.3" stop-color="#dcdcdc"/><stop offset="0.4" stop-color="#cecece"/><stop offset="0.48" stop-color="#c9c9c9"/><stop offset="0.49" stop-color="silver"/><stop offset="0.51" stop-color="#979797"/><stop offset="0.54" stop-color="#757575"/><stop offset="0.57" stop-color="#5a5a5a"/><stop offset="0.59" stop-color="#474747"/><stop offset="0.62" stop-color="#3c3c3c"/><stop offset="0.65" stop-color="#383838"/><stop offset="0.84" stop-color="#383838"/><stop offset="1" stop-color="#7a7a7a"/></linearGradient><linearGradient id="linear-gradient-2" y1="156.5" x2="313" y2="156.5" gradientUnits="userSpaceOnUse"><stop offset="0.01" stop-color="#d1d1d1"/><stop offset="0.46" stop-color="#4d4d4d"/><stop offset="1" stop-color="#a6a6a6"/></linearGradient><linearGradient id="linear-gradient-3" x1="90.44" y1="88.16" x2="218.43" y2="220.6" gradientUnits="userSpaceOnUse"><stop offset="0.01" stop-color="#e6e6e6"/><stop offset="0.46" stop-color="#595959"/><stop offset="0.84" stop-color="gray"/><stop offset="1" stop-color="#d9d9d9"/></linearGradient><linearGradient id="linear-gradient-4" x1="98.27" y1="122.15" x2="265.65" y2="219.67" gradientUnits="userSpaceOnUse"><stop offset="0.01" stop-color="#f2f2f2"/><stop offset="0.35" stop-color="#1a1a1a"/><stop offset="0.59" stop-color="#3d3d3d"/><stop offset="0.69" stop-color="#474747"/><stop offset="0.77" stop-color="#525252"/><stop offset="1" stop-color="#bdbdbd"/></linearGradient><radialGradient id="radial-gradient" cx="184.67" cy="200.24" r="51.19" gradientUnits="userSpaceOnUse"><stop offset="0" stop-color="#a1a1a1"/><stop offset="0.06" stop-color="#909090"/><stop offset="0.15" stop-color="#7d7d7d"/><stop offset="0.24" stop-color="#727272"/><stop offset="0.34" stop-color="#6e6e6e"/><stop offset="0.41" stop-color="#fff"/><stop offset="0.42" stop-color="#f8f8f8"/><stop offset="0.55" stop-color="#c7c8ca"/><stop offset="0.65" stop-color="#a4a6a8"/><stop offset="0.74" stop-color="#8f9193"/><stop offset="0.8" stop-color="#87898c"/><stop offset="0.83" stop-color="#7d7f81"/><stop offset="0.89" stop-color="#6e6f6f"/><stop offset="0.94" stop-color="#696969"/></radialGradient><radialGradient id="radial-gradient-2" cx="225.96" cy="169.68" r="48.06" xlink:href="#radial-gradient"/><radialGradient id="radial-gradient-3" cx="151.82" cy="142.08" r="96.49" gradientTransform="translate(0 28.42) scale(1 0.8)" gradientUnits="userSpaceOnUse"><stop offset="0" stop-color="#a1a1a1"/><stop offset="0.06" stop-color="#909090"/><stop offset="0.15" stop-color="#7d7d7d"/><stop offset="0.24" stop-color="#727272"/><stop offset="0.34" stop-color="#6e6e6e"/><stop offset="0.66" stop-color="#fff"/><stop offset="0.67" stop-color="#f8f8f8"/><stop offset="0.71" stop-color="#c7c8ca"/><stop offset="0.75" stop-color="#a4a6a8"/><stop offset="0.78" stop-color="#8f9193"/><stop offset="0.8" stop-color="#87898c"/><stop offset="0.83" stop-color="#7d7f81"/><stop offset="0.89" stop-color="#6e6f6f"/><stop offset="0.94" stop-color="#696969"/></radialGradient><linearGradient id="linear-gradient-5" x1="285.02" y1="167.06" x2="285.02" y2="169.04" gradientUnits="userSpaceOnUse"><stop offset="0" stop-color="#c2c2c2"/><stop offset="0.12" stop-color="#bababa"/><stop offset="0.32" stop-color="#a4a4a4"/><stop offset="0.45" stop-color="#919191"/><stop offset="0.71" stop-color="#b1b1b1"/><stop offset="0.82" stop-color="#bfbfbf"/></linearGradient></defs><title>subaru</title><path class="cls-1" d="M301.3,156.66c0,41.23-64.67,74.65-144.47,74.65S12.36,197.89,12.36,156.66,77,82,156.83,82,301.3,115.44,301.3,156.66Z"/><path class="cls-2" d="M313,156.5c0,46.58-70.07,84.35-156.5,84.35S0,203.08,0,156.5,70.07,72.15,156.5,72.15,313,109.92,313,156.5Z"/><path class="cls-3" d="M300.15,156.17c0,40.94-64.24,74.13-143.49,74.13S13.18,197.11,13.18,156.17,77.42,82,156.66,82,300.15,115.23,300.15,156.17Z"/><path class="cls-4" d="M313,156.5c0,46.58-70.07,84.35-156.5,84.35S0,203.08,0,156.5,70.07,72.15,156.5,72.15,313,109.92,313,156.5Z"/><path class="cls-4" d="M310.37,155.67c0,45-68.82,81.55-153.71,81.55S3,200.71,3,155.67,71.78,74.13,156.66,74.13,310.37,110.64,310.37,155.67Z"/><path class="cls-5" d="M156.5,72.15C70.07,72.15,0,109.92,0,156.5s70.07,84.35,156.5,84.35S313,203.08,313,156.5,242.93,72.15,156.5,72.15Zm.16,165.07C71.78,237.22,3,200.71,3,155.67S71.78,74.13,156.66,74.13s153.71,36.51,153.71,81.54S241.55,237.22,156.66,237.22Z"/><path class="cls-4" d="M300.15,156.17c0,40.94-64.24,74.13-143.49,74.13S13.18,197.11,13.18,156.17,77.42,82,156.66,82,300.15,115.23,300.15,156.17Z"/><path class="cls-6" d="M156.5,72.15C70.07,72.15,0,109.92,0,156.5s70.07,84.35,156.5,84.35S313,203.08,313,156.5,242.93,72.15,156.5,72.15Zm.16,158.15c-79.24,0-143.48-33.19-143.48-74.13S77.42,82,156.66,82s143.49,33.19,143.49,74.13S235.91,230.3,156.66,230.3Z"/><path class="cls-7" d="M156,75.62c-83.7,0-151.55,36-151.55,80.38S72.3,236.4,156,236.4s151.56-36,151.56-80.4S239.71,75.62,156,75.62Zm.66,154.68c-79.24,0-143.48-33.19-143.48-74.13S77.42,82,156.66,82s143.49,33.19,143.49,74.13S235.91,230.3,156.66,230.3Z"/><path class="cls-8" d="M156.66,80.85c-80.51,0-145.78,33.72-145.78,75.32S76.15,231.5,156.66,231.5s145.79-33.73,145.79-75.33S237.18,80.85,156.66,80.85Zm0,149.45c-79.24,0-143.48-33.19-143.48-74.13S77.42,82,156.66,82s143.49,33.19,143.49,74.13S235.91,230.3,156.66,230.3Z"/><path class="cls-9" d="M130.72,196s-15.07,1.15-15,2.8,12.43,2.88,14.49,3.13,10.14,1.15,12.44,2,3.87,1.49,4.78,4,3.13,10.13,3.13,10.13,1.07,4.2,2,4.2,2-4.45,2-4.45,2.23-9.47,3.87-11.2,1.9-2.39,9.23-3.54,14.57-2.47,20.1-2.47a62.8,62.8,0,0,1,10,.49c3.38.42,10.63,1.32,13.51,2.23s3.87,3,4.61,4.86,2.4,6.92,2.4,6.92.41,2.06,1.4,2.06,1.39-2.15,1.39-2.15,2.64-8.4,4.12-9.72,2.56-2.55,9.89-3.45,11.69-1.82,14.25-2,4.36-.5,4.36-1.32-1-1.15-4.61-1.65-14.41-1.65-20.1-2.88-6-5.77-6.84-8-1.39-5.77-2.71-5.77-1.65,2.39-1.9,3.13-1.56,5.44-2.55,7-1.73,3.29-5.6,4-11.12,2.31-18,2.47a93.62,93.62,0,0,1-16.06-1c-5.35-.66-10.29-.9-14-2.55s-5.6-7.08-6.59-10.38-1.65-4.86-2.23-4.86-1.64,2.47-2.3,4.61-2.39,8.49-4.94,10.06S138.38,195.29,130.72,196Z"/><path class="cls-10" d="M233.8,170.1c-5.52,0-12.77,1.34-20.1,2.51s-7.57,1.85-9.22,3.61-3.87,11.41-3.87,11.41-1.07,4.54-2,4.54-2-4.28-2-4.28-2.22-7.72-3.12-10.32-2.47-3.28-4.78-4.12-10.38-1.76-12.44-2-14.41-1.51-14.5-3.19,15-2.85,15-2.85c7.66-.76,11.95-1.68,14.5-3.27s4.28-8.06,4.94-10.24,1.73-4.7,2.31-4.7,1.24,1.59,2.22,4.95,2.88,8.9,6.59,10.57,8.66,1.93,14,2.61a69.65,69.65,0,0,0,13.14,1.06,76.75,76.75,0,0,0,13.6-1.73c2.63-.41,7.57-1.23,9.13-4.86s3.13-8.89,4.29-9,3,5.76,3,5.76,1.32,5.69,5.77,6.67,11.45,2.64,15.08,3.13,4.77.83,4.77,1.82-4.85,1.48-4.85,1.48-13.11,1.48-15.74,3.13-4.2,2.8-6.18,11.69c-.74,2.31-.91,3.38-1.65,3.38s-2-3.71-3.46-8.81-2.71-6.51-10.05-7.58S237.72,170.11,233.8,170.1Z"/><path class="cls-11" d="M46.91,134.14l-18,2.47s-3.21.12-3.21,1.36,2.72,1.23,3.7,1.36S49.63,142,49.63,142s30.76,4.21,33.72,4.7,11.25,1.6,14.83,4.82,6.67,10.13,8.9,20.38,4.57,19,4.57,19,.37,3.09,1.6,3.09,1.61-3.21,1.61-3.21,6.06-24.1,7.54-28.3,3.58-13.09,17-15.19S178,142.42,178,142.42s24.46-3,32.87-2.48,17.78,1.73,20.13,2.1,6.14.79,7.79,4.91a111.68,111.68,0,0,1,3.46,11.86s.57,2.38,1.48,2.38,1.48-2.22,1.48-2.22,2.72-9.39,3.71-11.78,3-4.44,10.29-5.35,15.08-2.56,15.08-2.56,3.7-.08,3.7-1.48-3.95-1.48-3.95-1.48l-16.81-2.72s-6.75-.49-8.48-4.94-3.54-9.31-3.54-9.31-.33-2-1.32-2-1.48,2.39-1.48,2.39-2,6.84-3.54,9.06-3.46,4.45-11.78,5.28-12.68,1.72-16,1.81a121.49,121.49,0,0,1-15.57-.58l-40.6-4.94s-14.09-1.57-18.54-3-11-1.73-16-17.46S115.07,93,115.07,93s-.42-2.88-1.82-2.88-1.8,3.21-1.8,3.21-5.61,18.21-8.25,23.64-4.52,10.55-26.51,13C57.16,132.53,46.91,134.14,46.91,134.14Z"/><path class="cls-12" d="M280.64,167.39a.8.8,0,0,1,.37.65c0,.38-.46.71-1.08,1l7.53.35c1.28-.25,2.64-.63,2.64-1.15,0-.72-.6-1.09-2.32-1.43Z"/></svg>