<svg xmlns="http://www.w3.org/2000/svg" viewBox="0 0 313 298.69"><g data-name="Layer 2"><path d="M0 148.93C0 12.62 101 0 156.5 0S313 12.62 313 148.93c0 132.94-102.65 149.76-156.5 149.76-53 0-156.5-16.82-156.5-149.76zm215.4-5.05l16.83 126.21c9.25-5 59.73-29.45 58.89-121.16 0-107.7-65.63-136.31-122-136.31l46.28 131.26zm-58.9-25.24h7.57v-106h-14.3v106zm0 167.43c31.13 0 58.9-8.41 70.68-14.3L165.75 138h-18.51L85.82 271.77c11.78 5.89 39.55 14.3 70.68 14.3zM143.88 12.62c-56.38 0-122 28.61-122 136.31C21 240.64 71.52 265 80.77 270.09l17.67-126.21 45.44-131.26z" fill="#a7a9ac" fill-rule="evenodd" data-name="Layer 1"/></g></svg>