<svg xmlns="http://www.w3.org/2000/svg" viewBox="0 0 60.76 61.25"><defs><style>.cls-1{fill:#05197a}.cls-2{fill:#fff}.cls-3{fill:#7c0404}.cls-4{fill:#085b04}</style></defs><g id="Layer_2" data-name="Layer 2"><g id="Logos"><path class="cls-1" d="M30.38 0a30.63 30.63 0 1030.38 30.63A30.5 30.5 0 0030.38 0z"/><path class="cls-2" d="M8.46 30.63A21.84 21.84 0 0030 52.56V8.7A21.83 21.83 0 008.46 30.63z"/><path class="cls-3" d="M8.55 33.46A21.91 21.91 0 0016.73 48V33.46zM16.72 13.29a21.89 21.89 0 00-8 13.39h8zM23.52 26.67h6.55V8.62a21.41 21.41 0 00-6.55 1.09z"/><path class="cls-2" d="M48.62 7.03l1.21 1.13-1.3 3.31 3.25-1.45 1.21 1.16-3.25 5.5-1.2-1.18 1.82-3.23-.02-.01-3.54 1.52-.49-.46 1.35-3.61-.02-.01-3.02 2.05-1.23-1.14 5.23-3.58zM35.24 4.14a3.37 3.37 0 014.36-1.93A3.4 3.4 0 0142 6.34a3.34 3.34 0 01-4.43 2.14 3.37 3.37 0 01-2.33-4.34zM28.22 1.06c1.27-.1 2.28.4 2.38 1.72a1.67 1.67 0 01-1.27 1.85L31.55 7l-2.08.17-1.76-2.26.18 2.37-1.67.13-.48-6.16zM17.52 3.93l4.99 4.34-1.58.83-.86-.75-2.04 1.08.1 1.16-1.58.83-.65-6.63 1.62-.86zM9.81 9.22l1 .92-1.37 1.5.76.7 1.23-1.37 1.01.92-1.25 1.37 1.78 1.63-1.12 1.25-4.53-4.17 2.49-2.75zM3.07 19.19l4.41 1.85.78-1.87 1.24.52-1.41 3.43-5.66-2.38.64-1.55zM6.92 28.77l-1.08.41-.02 2.32 1.06.46-.02 1.79-6.1-2.56.02-1.85 6.16-2.37-.02 1.8zM51.5 20.02l5.66-2.37 1.4 3.41-1.25.52-.76-1.85-.94.4.72 1.75-1.25.52-.72-1.75-.98.4.77 1.86-1.25.52-1.4-3.41zM57.26 33.34a3.36 3.36 0 01-3.5-3.47 3.28 3.28 0 116.53-.23 3.4 3.4 0 01-3.03 3.7z"/><path class="cls-1" d="M57.07 27.92a1.83 1.83 0 10.12 3.66 1.84 1.84 0 00-.12-3.66zM27.77 3.87c.55 0 1.15-.19 1.1-.86s-.67-.72-1.22-.68h-.16l.12 1.53zM38.07 7a1.79 1.79 0 002.29-1.19 1.78 1.78 0 00-1.23-2.12 1.76 1.76 0 00-2.23 1A1.81 1.81 0 0038.07 7zM4.61 29.62l-1.95.67v.01l1.94.72.01-1.4zM19.09 7.47l-1.51-1.43-.02.01.3 2.07 1.23-.65z"/><path class="cls-3" d="M23.52 51.54a21.67 21.67 0 006.55 1.09V33.47h-6.55z"/><path class="cls-2" d="M30.79 8.7v43.86a21.93 21.93 0 000-43.86z"/><path class="cls-4" d="M44.17 14a.66.66 0 01.66.66.66.66 0 11-1.32 0 .66.66 0 01.66-.66zM36.9 15.69h7.91v.64H36.9zM36.9 17.03h7.91v.83H36.9zM42.5 14a.66.66 0 01.66.66.66.66 0 11-1.32 0 .65.65 0 01.66-.66zM40.83 14a.66.66 0 01.66.66.66.66 0 11-1.32 0 .65.65 0 01.66-.66zM39.16 14a.66.66 0 01.66.66.66.66 0 11-1.32 0 .65.65 0 01.66-.66zM37.48 14a.65.65 0 01.66.66.66.66 0 11-1.31 0 .65.65 0 01.65-.66zM32.87 26.79a.64.64 0 01.19-.46l1.17-.82c.57-.39.46-1 .38-1.55s-.63-.28-.79-.08a1.37 1.37 0 110-1.91c.16.19.71.44.79-.09s.19-1.16-.38-1.55l-1.17-.81a.64.64 0 11.9-.92l1.82 1.26a3.38 3.38 0 001.53 3.05A3.4 3.4 0 0035.78 26L34 27.24a.6.6 0 01-.45.19.64.64 0 01-.68-.64z"/><path class="cls-4" d="M46.92 18a8.09 8.09 0 013.78 6.76 6.09 6.09 0 01-5.7 6.07h-7.37a.7.7 0 100 1.4h6.92a4 4 0 014 4.06 3.94 3.94 0 01-4 3.94H38a.66.66 0 00-.66.67.65.65 0 00.66.66h5a2.15 2.15 0 010 4.29h-3a.51.51 0 000 1h2.32c.81 0 1.71 1.21 0 1.88 0-.35 0-.85-.77-.85h-1.94A1.61 1.61 0 0138 46.32a1.69 1.69 0 011.64-1.7h3.18a.63.63 0 00.63-.63.64.64 0 00-.63-.64h-5.1a3 3 0 01-3-3 3 3 0 013-2.94H44a.62.62 0 00.7-.6.72.72 0 00-.7-.72h-6.37a4.54 4.54 0 010-9.08h6.07a.88.88 0 00.85-.89.83.83 0 00-.85-.83h-6.84A1.9 1.9 0 0139 23.61h3.18a.66.66 0 00.66-.66.62.62 0 00-.66-.62H39a2.14 2.14 0 01-2.09-1.88h3.3c.27-.89.82-1.33 1.42-1.33h3.47A1.84 1.84 0 0046.92 18z"/></g></g></svg>