<svg data-name="레이어 1" xmlns="http://www.w3.org/2000/svg" xmlns:xlink="http://www.w3.org/1999/xlink" viewBox="0 0 313 313"><defs><linearGradient id="a" x1="176.01" y1="163.66" x2="281.67" y2="163.66" gradientTransform="matrix(1 0 0 -1 0 313)" gradientUnits="userSpaceOnUse"><stop offset="0" stop-color="#fff"/><stop offset="1"/></linearGradient><linearGradient id="c" x1="189.6" y1="222.84" x2="280.13" y2="222.84" xlink:href="#a"/><linearGradient id="d" x1="23.04" y1="164.75" x2="122.56" y2="164.75" gradientTransform="matrix(1 0 0 -1 0 313)" gradientUnits="userSpaceOnUse"><stop offset=".19"/><stop offset="1" stop-color="#fff"/></linearGradient><linearGradient id="e" x1="32.18" y1="163.72" x2="136.72" y2="163.72" xlink:href="#a"/><linearGradient id="f" x1="193.01" y1="200.99" x2="302.82" y2="137.6" gradientTransform="matrix(1 0 0 -1 0 313)" gradientUnits="userSpaceOnUse"><stop offset="0"/><stop offset=".85" stop-color="#fff"/></linearGradient><linearGradient id="g" x1="170.56" y1="162.29" x2="246.81" y2="162.29" gradientTransform="matrix(1 0 0 -1 0 313)" gradientUnits="userSpaceOnUse"><stop offset="0" stop-color="#7a7a7a"/><stop offset=".62" stop-color="#fff"/><stop offset=".99"/></linearGradient><linearGradient id="h" x1="6.99" y1="161.95" x2="306" y2="161.95" xlink:href="#a"/><linearGradient id="i" y1="151.05" x2="313" y2="151.05" gradientUnits="userSpaceOnUse"><stop offset="0" stop-color="#bfbfbf"/><stop offset="1" stop-color="#fff"/></linearGradient><clipPath id="b"><path d="M241.72 56.94s-36.83 21.57-46.08 27.36c-14.3 9-21.64 28.87-19.16 46.28 2 13.92 4.18 25.67 11.3 51.57C196 212 206.51 221 219.32 227.78c9.8 5.21 22.76 11.53 28.33 14.23.23.07.49.13.73.19a133.61 133.61 0 0031.84-26.27 1 1 0 01-.69-.06c-.09 0-.13-.11-.21-.1-12.45 1.92-59.33 6.23-73.78-34.7-3.34-9.46-11-35.6-14.47-49.29-3.84-15.13 4.91-29.17 16.52-35.51 7.9-4.31 15.61-8 23.87-11.55 28.2-12.23 46.31-.18 46.31-.18l3.9 3.4a143.1 143.1 0 00-39.53-31.46 4.93 4.93 0 01-.42.49" fill="none"/></clipPath></defs><path d="M241.72 56.94s-36.83 21.57-46.08 27.36c-14.3 9-21.64 28.87-19.16 46.28 2 13.92 4.18 25.67 11.3 51.57C196 212 206.51 221 219.32 227.78c9.8 5.21 22.76 11.53 28.33 14.23.23.07.49.13.73.19a133.61 133.61 0 0031.84-26.27 1 1 0 01-.69-.06c-.09 0-.13-.11-.21-.1-12.45 1.92-59.33 6.23-73.78-34.7-3.34-9.46-11-35.6-14.47-49.29-3.84-15.13 4.91-29.17 16.52-35.51 7.9-4.31 15.61-8 23.87-11.55 28.2-12.23 46.31-.18 46.31-.18l3.9 3.4a143.1 143.1 0 00-39.53-31.46 4.93 4.93 0 01-.42.49" fill="url(#a)"/><g clip-path="url(#b)"><path d="M196.27 103.34c5.94-8.9 18.84-15 41.75-25.67 18-8.42 11.7-16 8.22-18.86a137.44 137.44 0 0133.89 27.35l-3.08-1.46s-17.55-12.17-45.76 0c-8.21 3.59-15.94 7.19-23.84 11.55a33.86 33.86 0 00-16.82 22.26l-1 3a42.77 42.77 0 016.67-18.18" fill="url(#c)"/></g><path d="M35.55 84.67l-10.44 23.8s6.61-10.26 17.34-16.15C53.21 86.38 66.18 87 80.3 93c3.2 1.36 12.45 5.5 19.83 8.88a23.24 23.24 0 0113 27.66c-2.75 9.77-8.81 28.5-13.2 41.15-4.47 12.92-14.37 27-28.64 31.94-24.78 8.62-42.11-3.81-43.74-5a1.18 1.18 0 01-.18-.4L23 189.39s1 2.65 2.06 4.87c.54 1.13 1.62 2.89 2.18 4.11a20.55 20.55 0 011.79 5.35c.67 3.5.87 5 1.51 7.28a10.58 10.58 0 001.51 3l1 1.2a41.16 41.16 0 009.24 1.92c19 .83 53.1-2.86 64.81-36.05 3.34-9.46 11-35.6 14.47-49.29 3.85-15.13-4.9-29.17-16.53-35.51-7.9-4.31-15.61-8-23.86-11.55a61.14 61.14 0 00-24.44-5.44c-13.35 0-21.05 5.23-21.28 5.39" fill="url(#d)"/><path d="M32.46 86.13l3.08-1.45s17.54-12.19 45.74 0c8.22 3.58 16 7.19 23.86 11.55 11.63 6.34 20.38 20.38 16.54 35.51-3.5 13.69-11.14 39.83-14.47 49.29-14.45 40.97-61.34 36.62-73.78 34.7a8.36 8.36 0 01-1.25-.1 136.38 136.38 0 0032.18 26.53c.26-.07.5-.12.73-.19 5.59-2.7 18.48-9 28.32-14.23 12.82-6.83 23.38-15.75 31.54-45.63 7.11-25.93 9.32-37.65 11.3-51.58 2.45-17.45-4.86-37.26-19.18-46.27C107.83 78.45 71 56.9 71 56.9a3.78 3.78 0 01-.49-.49 138.73 138.73 0 00-38 29.68" fill="url(#e)"/><path d="M124.15 183.22s-5 17.89-14.1 29.36c-7.45 9.41-18 13.94-26 17-24.95 9.79-41.66-3.9-51.35-13.35A86.62 86.62 0 0045.43 229a140.63 140.63 0 0018.49 12.9c.6 0 .48.07 1.15.07 5.59-2.69 18.48-9 28.32-14.23 12.72-6.77 23.19-15.61 31.36-44.92a6.91 6.91 0 000-.91z" fill="#3e3b3c"/><path d="M231.71 84.72c-8.22 3.59-16 7.19-23.85 11.55-11.63 6.34-20.38 20.38-16.53 35.51 3.49 13.69 11.12 39.83 14.46 49.29 13.74 38.86 56.68 37 71.65 35a20.2 20.2 0 002.4-.87 74.23 74.23 0 003.49-9.37 79.76 79.76 0 002.24-8.32 7.36 7.36 0 01-.78.6c-3.74 2.57-20.25 12.5-43.08 4.56-14.27-5-24.17-19-28.65-31.94-4.38-12.65-10.45-31.37-13.19-41.15a23.22 23.22 0 0112.94-27.66c7.39-3.38 16.64-7.51 19.85-8.88 14.12-6 27.08-6.61 37.82-.68 10.75 5.94 13.44 9 18.39 17.78 5 8.82 8.87 26.1 8.87 26.1s-2.05-15.92-6.59-28.56c-4.86-13.47-10.49-19.74-10.49-19.74l-3.2-3.29c-.23-.18-8-5.4-21.28-5.4a61.18 61.18 0 00-24.45 5.44" fill="url(#f)"/><path d="M194.34 75.81c-16.7 11.6-26.42 28.88-23.14 53.59 2.45 18.49 6.92 41 10.19 57 3.77 18.21 10 36.6 31.09 50.87 5.7 3.86 14.38 9.18 14.38 9.18s9.92-1.84 16.16-3.17c.79-.17 3.79-1.19 3.79-1.19s-.29-.73-.62-.89c-6.17-3-17.7-8.66-26.59-13.4-12.82-6.8-23.38-15.8-31.54-45.65-7.11-25.93-9.32-37.65-11.3-51.57-2.46-17.46 4.85-37.27 19.16-46.28 8.89-5.59 34.81-20.78 45.05-26.7.15-.09.18-.66.18-.66s-4.48-.94-8.58-1.4c-5-.54-7.06-.54-7.06-.54s-16.74 10.82-31.17 20.86" fill="url(#g)"/><path d="M13.94 151.05c0-60.45 64-109.66 142.56-109.66 78.6 0 142.55 48.27 142.55 109.66 0 60.48-64 109.7-142.55 109.7-78.56 0-142.56-49.22-142.56-109.7m-6.95 0c0 63.53 66.93 115 149.51 115 82.56 0 149.5-51.49 149.5-115 0-63.5-66.94-115-149.5-115C73.92 36 7 87.52 7 151.05" fill="url(#h)"/><path d="M7.27 151.05c0-63.28 67-114.79 149.24-114.79 82.28 0 149.22 50.53 149.22 114.79 0 63.31-66.94 114.84-149.22 114.84-82.25 0-149.24-51.53-149.24-114.84m-7.27 0c0 66.51 70.06 120.41 156.51 120.41 86.42 0 156.49-53.9 156.49-120.41 0-66.48-70.07-120.4-156.49-120.4C70.06 30.65 0 84.55 0 151.05" fill="url(#i)"/></svg>