<svg xmlns="http://www.w3.org/2000/svg" xmlns:xlink="http://www.w3.org/1999/xlink" viewBox="0 0 313 313"><defs><radialGradient id="f" cx="35.39" cy="44.33" r="167.57" gradientTransform="matrix(1.33 0 0 1.33 -48.91 -48.47)" gradientUnits="userSpaceOnUse"><stop offset="0" stop-color="#fff"/><stop offset=".31" stop-color="#a8a8a8"/><stop offset=".65" stop-color="#4f4f4f"/><stop offset=".89" stop-color="#161616"/><stop offset="1"/></radialGradient><radialGradient id="a" cx="5.29" cy="27.26" r="402.63" gradientTransform="matrix(1.33 0 0 1.33 -48.91 -48.47)" gradientUnits="userSpaceOnUse"><stop offset="0" stop-color="#fff"/><stop offset=".31" stop-color="#fdfdfd"/><stop offset=".45" stop-color="#f6f6f6"/><stop offset=".56" stop-color="#e9e9e9"/><stop offset=".65" stop-color="#d7d7d7"/><stop offset=".72" stop-color="#bfbfbf"/><stop offset=".79" stop-color="#a2a2a2"/><stop offset=".86" stop-color="gray"/><stop offset=".92" stop-color="#575757"/><stop offset=".97" stop-color="#2b2b2b"/><stop offset="1" stop-color="#141414"/></radialGradient><radialGradient id="h" cx="5.27" cy="27.27" r="402.67" xlink:href="#a"/><radialGradient id="i" cx="5.27" cy="27.26" r="402.68" xlink:href="#a"/><radialGradient id="c" cx="77.4" cy="83.09" r="108.6" gradientTransform="matrix(1.33 0 0 1.33 -48.91 -48.47)" gradientUnits="userSpaceOnUse"><stop offset="0" stop-color="#e6e6e6"/><stop offset=".1" stop-color="#d6d6d6"/><stop offset=".31" stop-color="#aeaeae"/><stop offset=".59" stop-color="#6c6c6c"/><stop offset=".93" stop-color="#131313"/><stop offset="1"/></radialGradient><radialGradient id="j" cx="107.11" cy="97.69" r="157.94" gradientTransform="matrix(1.33 0 0 1.33 -48.91 -48.47)" gradientUnits="userSpaceOnUse"><stop offset="0" stop-color="#fff"/><stop offset=".34" stop-color="#fdfdfd"/><stop offset=".48" stop-color="#f6f6f6"/><stop offset=".58" stop-color="#eaeaea"/><stop offset=".67" stop-color="#d8d8d8"/><stop offset=".74" stop-color="#c2c2c2"/><stop offset=".8" stop-color="#a6a6a6"/><stop offset=".86" stop-color="#848484"/><stop offset=".91" stop-color="#5f5f5f"/><stop offset=".95" stop-color="#404040"/><stop offset=".96" stop-color="#404040"/><stop offset="1" stop-color="#404040"/><stop offset="1"/></radialGradient><radialGradient id="b" cx="60.74" cy="37.82" r="279.71" gradientTransform="matrix(1.33 0 0 1.33 -48.91 -48.47)" gradientUnits="userSpaceOnUse"><stop offset=".17" stop-color="#fff"/><stop offset=".19" stop-color="#e2f5fb"/><stop offset=".23" stop-color="#aee2f4"/><stop offset=".27" stop-color="#7fd1ee"/><stop offset=".31" stop-color="#58c3e9"/><stop offset=".36" stop-color="#38b7e5"/><stop offset=".4" stop-color="#1faee2"/><stop offset=".45" stop-color="#0ea8e0"/><stop offset=".5" stop-color="#03a4de"/><stop offset=".56" stop-color="#00a3de"/><stop offset=".6" stop-color="#01a0da"/><stop offset=".65" stop-color="#0498ce"/><stop offset=".7" stop-color="#088bba"/><stop offset=".74" stop-color="#0e789e"/><stop offset=".79" stop-color="#17607a"/><stop offset=".84" stop-color="#20424f"/><stop offset=".87" stop-color="#292929"/></radialGradient><radialGradient id="k" cx="60.73" cy="37.82" r="279.71" xlink:href="#b"/><radialGradient id="l" cx="78.89" cy="84.45" r="106.52" xlink:href="#c"/><linearGradient id="e" x1="-22.88" y1="-16.84" x2="309.13" y2="303.99" gradientUnits="userSpaceOnUse"><stop offset="0" stop-color="#deebf2"/><stop offset=".1" stop-color="#d5e1e8"/><stop offset=".28" stop-color="#bcc6cc"/><stop offset=".51" stop-color="#939b9f"/><stop offset=".78" stop-color="#5c5f61"/><stop offset="1" stop-color="#2b2b2b"/></linearGradient><linearGradient id="g" x1="-7775.61" y1="-7539.37" x2="-7564.16" y2="-7335.03" gradientTransform="rotate(180 -3752.43 -3636.23)" gradientUnits="userSpaceOnUse"><stop offset="0" stop-color="#deebf2"/><stop offset=".09" stop-color="#d5e1e8"/><stop offset=".24" stop-color="#bbc6cc"/><stop offset=".44" stop-color="#929a9f"/><stop offset=".68" stop-color="#585d60"/><stop offset=".94" stop-color="#101111"/><stop offset="1"/></linearGradient><linearGradient id="d" x1="137.97" y1="28.3" x2="275.8" y2="161.5" gradientUnits="userSpaceOnUse"><stop offset="0" stop-color="#eef0f3"/><stop offset=".11" stop-color="#e9ebed"/><stop offset=".26" stop-color="#d9dbde"/><stop offset=".42" stop-color="#c0c1c3"/><stop offset=".59" stop-color="#9c9d9f"/><stop offset=".77" stop-color="#6e6f70"/><stop offset=".96" stop-color="#373737"/><stop offset="1" stop-color="#2b2b2b"/></linearGradient><linearGradient id="m" x1="26.09" y1="140.76" x2="163.93" y2="273.96" xlink:href="#d"/><linearGradient id="n" x1="92.77" y1="93.26" x2="164.25" y2="162.33" gradientUnits="userSpaceOnUse"><stop offset="0" stop-color="#bdd5e5"/><stop offset=".14" stop-color="#b5cedf"/><stop offset=".37" stop-color="#9fbccd"/><stop offset=".65" stop-color="#7b9eb1"/><stop offset=".97" stop-color="#49758b"/><stop offset="1" stop-color="#437086"/></linearGradient><linearGradient id="o" x1="56.97" y1="110.19" x2="193.43" y2="242.05" gradientUnits="userSpaceOnUse"><stop offset="0" stop-color="#eef0f3"/><stop offset=".1" stop-color="#e5e7ea"/><stop offset=".27" stop-color="#cdcfd1"/><stop offset=".48" stop-color="#a6a7a9"/><stop offset=".73" stop-color="#707071"/><stop offset="1" stop-color="#2b2b2b"/></linearGradient><linearGradient id="p" x1="157.55" y1="159.1" x2="205.41" y2="205.35" gradientUnits="userSpaceOnUse"><stop offset="0" stop-color="#d6dde8"/><stop offset=".12" stop-color="#d1dae5"/><stop offset=".26" stop-color="#c4d1de"/><stop offset=".41" stop-color="#adc2d1"/><stop offset=".56" stop-color="#8daebf"/><stop offset=".72" stop-color="#6493a8"/><stop offset=".87" stop-color="#32738c"/><stop offset=".97" stop-color="#105d79"/></linearGradient><linearGradient id="q" x1="108.59" y1="60.14" x2="244.89" y2="191.86" xlink:href="#d"/></defs><g data-name="Layer 2"><g data-name="Warstwa 1"><path d="M156.5 0A156.5 156.5 0 10313 156.5 156.5 156.5 0 00156.5 0zm0 305.17A148.67 148.67 0 11305.17 156.5 148.67 148.67 0 01156.5 305.17z" fill="url(#e)"/><path d="M306.3 156.5A149.8 149.8 0 11156.5 6.71 149.81 149.81 0 01306.3 156.5z" fill="#444b4c"/><path d="M305.17 156.5A148.67 148.67 0 11156.5 7.83 148.67 148.67 0 01305.17 156.5z" fill="url(#f)"/><path d="M256.18 156.5a99.68 99.68 0 11-99.68-99.67 99.67 99.67 0 0199.68 99.67z" fill="url(#g)"/><path d="M160.49 54.13l10.36-27.44v27.44h7.86v-39.3h-11.82l-10.75 28.14h.11L145.5 14.83h-11.82v39.3h7.86V26.69l10.36 27.44h8.59zM268.41 71.75l-13.43 19.59 21.1-10.37 5.73 6.86-33.22 16.68-6.71-8.13 12.87-19.41-.07-.09-21.42 9.16-6.79-8.07 22.4-29.66 5.72 6.87-14.02 18.89 21.7-9.68 6.14 7.36z"/><path d="M86.89 64.25a10 10 0 00-12.64-1.16 8.69 8.69 0 00.06-5.87c-2-3.6-2.67-4-4.29-5.42-5.28-4.42-10.83-.64-14.8 4.08L36 78.74 66.19 104l20.23-24.1c4.58-5.47 5.33-10.9.47-15.65zm-39 11l11.52-13.71c1.34-1.59 4.36-1.52 6.29.11a4.13 4.13 0 01.71 6L55 81.25zm31.78 2.28l-12 14.31-7.52-6.32 12.1-14.42a4.77 4.77 0 016.48-.38c2.27 1.97 2.54 4.94.94 6.83z" fill="#333"/><path fill="url(#a)" d="M160.58 52.61l10.35-27.44v27.44h7.86v-39.3h-11.82l-10.74 28.14h.1l-10.75-28.14h-11.82v39.3h7.87V25.17l10.35 27.44h8.6z"/><path fill="url(#h)" d="M268.49 69.12l-13.43 19.59 21.1-10.38 5.72 6.86-33.21 16.68-6.71-8.13 12.88-19.41-.08-.1-21.42 9.18-6.78-8.08 22.39-29.65 5.73 6.86-14.02 18.89 21.69-9.68 6.14 7.37z"/><path d="M85.49 63.47a10 10 0 00-12.64-1.15 8.68 8.68 0 00.05-5.87c-2-3.6-2.66-4.05-4.29-5.42-5.28-4.43-10.83-.65-14.79 4.08L34.63 78l30.16 25.29L85 79.16c4.63-5.51 5.35-10.96.49-15.69zm-39 11L58 60.77c1.33-1.59 4.35-1.53 6.3.1a4.14 4.14 0 01.7 6L53.61 80.48zm31.78 2.28l-12 14.31-7.53-6.32 12.1-14.4a4.93 4.93 0 017.43 6.44z" fill="url(#i)"/><path d="M60.14 156.5a96.36 96.36 0 1196.36 96.36 96.36 96.36 0 01-96.36-96.36z" fill="url(#c)"/><path d="M62.91 156.5a93.59 93.59 0 1193.59 93.59 93.59 93.59 0 01-93.59-93.59z" fill="url(#j)"/><path d="M62.77 156.5h93.73V62.77a93.72 93.72 0 00-93.73 93.73z" fill="url(#b)"/><path d="M156.5 156.5v93.74a93.74 93.74 0 0093.73-93.74z" fill="url(#k)"/><path fill="url(#l)" d="M251.01 154.84h-92.85V61.99h-3.32v92.85H61.99v3.32h92.85v92.85h3.32v-92.85h92.85v-3.32z"/><path d="M158.16 64.62a91.89 91.89 0 0190.23 90.22h1.66A93.57 93.57 0 00158.16 63z" fill="url(#d)"/><path d="M64.45 154.82a92 92 0 0190.34-90.34v-1.66a93.67 93.67 0 00-92 92z" fill="#bdd5e5"/><path d="M154.84 248.38a91.88 91.88 0 01-90.23-90.22H63a93.57 93.57 0 0091.89 91.89z" fill="url(#m)"/><path d="M248.39 158.16a91.88 91.88 0 01-90.23 90.22v1.67a93.57 93.57 0 0091.89-91.89z" fill="#005d6c"/><path fill="url(#n)" d="M153.06 62.82v90.19H62.87v1.78h91.97V62.82h-1.78z"/><path fill="url(#o)" d="M152.91 249.18v-89.12h-89.3v-1.75h91.06v90.87h-1.76z"/><path fill="url(#p)" d="M160.07 249.18v-89.12h89.11v-1.75h-90.86v90.87h1.75z"/><path fill="url(#q)" d="M160.07 63.61v89.11h89.11v1.76h-90.86V63.61h1.75z"/><path fill="none" d="M0 0h313v313H0z"/></g></g></svg>