<svg xmlns="http://www.w3.org/2000/svg" xmlns:xlink="http://www.w3.org/1999/xlink" viewBox="0 0 78.25 29.51"><defs><linearGradient id="linear-gradient" x1="1731.59" y1="138.71" x2="1731.59" y2="151.03" gradientTransform="matrix(1.04 0 -.48 .96 -1719.71 -129.73)" gradientUnits="userSpaceOnUse"><stop offset="0" stop-color="#c7d6ee"/><stop offset=".19" stop-color="#90aec8"/><stop offset="1" stop-color="#002333"/></linearGradient><linearGradient id="linear-gradient-2" x1="42.48" y1="-3.17" x2="49.78" y2="4.13" gradientUnits="userSpaceOnUse"><stop offset="0" stop-color="#e1e8f6"/><stop offset=".9" stop-color="#91a5c1"/><stop offset=".96" stop-color="#476886"/><stop offset="1" stop-color="#e1e8f6"/></linearGradient><linearGradient id="linear-gradient-3" x1="28.6" y1="4.22" x2="36.06" y2="-3.25" gradientUnits="userSpaceOnUse"><stop offset="0" stop-color="#e1e8f6"/><stop offset=".04" stop-color="#476886"/><stop offset=".09" stop-color="#91a5c1"/><stop offset="1" stop-color="#e1e8f6"/></linearGradient><linearGradient id="linear-gradient-4" x1="23.81" y1="4.56" x2="26.24" y2="2.3" gradientUnits="userSpaceOnUse"><stop offset="0" stop-color="#e1e8f6"/><stop offset=".16" stop-color="#c7d6ee"/><stop offset=".84" stop-color="#c7d6ee"/><stop offset="1" stop-color="#e1e8f6"/></linearGradient><linearGradient id="linear-gradient-5" x1="-7743.01" y1="4.65" x2="-7740.43" y2="2.25" gradientTransform="matrix(-1 0 0 1 -7688.26 0)" xlink:href="#linear-gradient-4"/><linearGradient id="linear-gradient-6" x1="12.32" y1="10.8" x2="20.69" y2="2.43" gradientUnits="userSpaceOnUse"><stop offset=".02" stop-color="#476886"/><stop offset=".13" stop-color="#91a5c1"/><stop offset="1" stop-color="#e1e8f6"/></linearGradient><linearGradient id="linear-gradient-7" x1="1.83" y1="22.63" x2=".84" y2="21.23" gradientUnits="userSpaceOnUse"><stop offset=".01" stop-color="#002333"/><stop offset=".11" stop-color="#fff"/><stop offset=".19" stop-color="#90aec8"/><stop offset=".24" stop-color="#002333"/><stop offset=".53" stop-color="#5e748f"/><stop offset=".76" stop-color="#002333"/><stop offset="1" stop-color="#002333"/></linearGradient><linearGradient id="linear-gradient-8" x1="8.83" y1="12.74" x2="1.28" y2="16.58" gradientUnits="userSpaceOnUse"><stop offset="0" stop-color="#90aec8"/><stop offset="1" stop-color="#002333"/></linearGradient><linearGradient id="linear-gradient-9" x1="12.94" y1="24.65" x2="12.36" y2="21.37" gradientUnits="userSpaceOnUse"><stop offset="0" stop-color="#a5bacc"/><stop offset="1" stop-color="#002333"/></linearGradient><linearGradient id="linear-gradient-10" x1="24.52" y1="26.01" x2="25.48" y2="26.01" gradientUnits="userSpaceOnUse"><stop offset=".01" stop-color="#5e748f"/><stop offset=".49" stop-color="#90aec8"/></linearGradient><linearGradient id="linear-gradient-11" x1="-7742.04" y1="25.9" x2="-7740.85" y2="25.9" gradientTransform="matrix(-1 0 0 1 -7688.53 0)" gradientUnits="userSpaceOnUse"><stop offset=".01" stop-color="#5e748f"/><stop offset=".32" stop-color="#90aec8"/></linearGradient><linearGradient id="linear-gradient-12" x1="44.56" y1="31.57" x2="47.82" y2="25.92" gradientUnits="userSpaceOnUse"><stop offset="0" stop-color="#a5bacc"/><stop offset=".24" stop-color="#a5bacc"/><stop offset="1" stop-color="#002333"/></linearGradient><linearGradient id="linear-gradient-13" x1="30.82" y1="26.23" x2="34.11" y2="31.92" gradientUnits="userSpaceOnUse"><stop offset="0" stop-color="#002333"/><stop offset=".78" stop-color="#a5bacc"/><stop offset=".94" stop-color="#a5bacc"/></linearGradient><linearGradient id="linear-gradient-14" x1="17.77" y1="4.62" x2="32.44" y2="30.04" gradientUnits="userSpaceOnUse"><stop offset="0" stop-color="#ffefcf"/><stop offset=".46" stop-color="#ffe3a6"/><stop offset="1" stop-color="#bb956e"/></linearGradient><linearGradient id="linear-gradient-15" x1="58.63" y1="26.21" x2="62.75" y2="21.63" gradientUnits="userSpaceOnUse"><stop offset=".01" stop-color="#5e748f"/><stop offset=".61" stop-color="#90aec8"/><stop offset="1" stop-color="#c7dff4"/></linearGradient><linearGradient id="linear-gradient-16" x1="62.75" y1="1.22" x2="68.21" y2="10.68" gradientUnits="userSpaceOnUse"><stop offset=".01" stop-color="#e1e8f6"/><stop offset=".81" stop-color="#7f97b4"/><stop offset=".9" stop-color="#476886"/><stop offset="1" stop-color="#002333"/></linearGradient><linearGradient id="linear-gradient-17" x1="69.08" y1="22.82" x2="77.99" y2="7.39" gradientUnits="userSpaceOnUse"><stop offset=".01" stop-color="#8ca0b5"/><stop offset=".14" stop-color="#e1e8f6"/><stop offset=".81" stop-color="#7f97b4"/><stop offset=".9" stop-color="#476886"/><stop offset="1" stop-color="#002333"/></linearGradient><linearGradient id="linear-gradient-18" x1="66" y1="23.08" x2="69.16" y2="21.26" gradientUnits="userSpaceOnUse"><stop offset="0" stop-color="#002333"/><stop offset=".73" stop-color="#002333"/><stop offset=".81" stop-color="#a5bacc"/><stop offset=".89" stop-color="#002333"/></linearGradient><linearGradient id="linear-gradient-19" x1="9.16" y1="16.17" x2="19.48" y2="26.48" gradientUnits="userSpaceOnUse"><stop offset="0" stop-color="#d3bb7b"/><stop offset=".33" stop-color="#7f5f39"/><stop offset=".47" stop-color="#7f5f39"/><stop offset="1" stop-color="#d3bb7b"/></linearGradient><linearGradient id="linear-gradient-20" x1="-7752.42" y1="17.64" x2="-7745.05" y2="25" gradientTransform="matrix(-1 0 0 1 -7688.53 0)" xlink:href="#linear-gradient-19"/><linearGradient id="linear-gradient-21" x1="-7758.59" y1="1.59" x2="-7746.68" y2="13.5" gradientTransform="matrix(-1 0 0 1 -7688.53 0)" xlink:href="#linear-gradient-19"/><linearGradient id="linear-gradient-22" x1="25.78" y1="24.41" x2="27.34" y2="24.41" gradientUnits="userSpaceOnUse"><stop offset=".49" stop-color="#d3bd8b"/><stop offset="1" stop-color="#7f5f39"/></linearGradient><linearGradient id="linear-gradient-23" x1="-7740.51" y1="24.39" x2="-7738.95" y2="24.39" gradientTransform="matrix(-1 0 0 1 -7688.28 0)" xlink:href="#linear-gradient-22"/><linearGradient id="linear-gradient-24" x1="31.52" y1="25.06" x2="34.41" y2="30.07" gradientUnits="userSpaceOnUse"><stop offset="0" stop-color="#7f5f39"/><stop offset=".65" stop-color="#d3bd8b"/><stop offset=".89" stop-color="#ffe3a6"/></linearGradient><linearGradient id="linear-gradient-25" x1="46.52" y1="25.08" x2="43.36" y2="30.55" gradientUnits="userSpaceOnUse"><stop offset="0" stop-color="#7f5f39"/><stop offset=".46" stop-color="#d3bd8b"/><stop offset=".89" stop-color="#ffe3a6"/></linearGradient><linearGradient id="linear-gradient-26" x1="29.46" y1="4.93" x2="36.13" y2="-1.75" gradientUnits="userSpaceOnUse"><stop offset="0" stop-color="#d3bb7b"/><stop offset=".04" stop-color="#7f5f39"/><stop offset=".11" stop-color="#d1ac76"/><stop offset="1" stop-color="#d3bb7b"/></linearGradient><linearGradient id="linear-gradient-27" x1="-7736.93" y1="5.07" x2="-7730.14" y2="-1.73" gradientTransform="matrix(-1 0 0 1 -7688.28 0)" xlink:href="#linear-gradient-26"/><linearGradient id="linear-gradient-28" x1="25.03" y1="6.04" x2="27.52" y2="3.72" gradientUnits="userSpaceOnUse"><stop offset="0" stop-color="#ffe293"/><stop offset=".16" stop-color="#d1ac76"/><stop offset=".84" stop-color="#d1ac76"/><stop offset="1" stop-color="#ffe293"/></linearGradient><linearGradient id="linear-gradient-29" x1="-7741.41" y1="6.01" x2="-7738.82" y2="3.59" gradientTransform="matrix(-1 0 0 1 -7688.28 0)" xlink:href="#linear-gradient-28"/><linearGradient id="linear-gradient-30" x1="13.79" y1="11.95" x2="21.55" y2="4.2" gradientUnits="userSpaceOnUse"><stop offset="0" stop-color="#7f5f39"/><stop offset="1" stop-color="#bc9b6a"/></linearGradient><linearGradient id="linear-gradient-31" x1="69.74" y1="13.39" x2="73.04" y2="16.69" gradientUnits="userSpaceOnUse"><stop offset=".01" stop-color="#7f5f39"/><stop offset="1" stop-color="#d3bb7b"/></linearGradient><linearGradient id="linear-gradient-32" x1="68.64" y1="21.72" x2="75.92" y2="7.7" gradientUnits="userSpaceOnUse"><stop offset="0" stop-color="#a78a5e"/><stop offset=".76" stop-color="#7f5f39"/><stop offset=".92" stop-color="#684c2b"/></linearGradient><linearGradient id="linear-gradient-33" x1="62.52" y1="24.91" x2="41.82" y2=".25" xlink:href="#linear-gradient-14"/><linearGradient id="linear-gradient-34" x1="1.59" y1="20.43" x2="8.75" y2="13.28" gradientUnits="userSpaceOnUse"><stop offset="0" stop-color="#7f5f39"/><stop offset="1" stop-color="#e8cf97"/></linearGradient><linearGradient id="linear-gradient-35" x1=".33" y1="20" x2="9.96" y2="10.37" gradientUnits="userSpaceOnUse"><stop offset="0" stop-color="#7f5f39"/><stop offset="1" stop-color="#e4cb90"/></linearGradient><style>.cls-4{fill:#fff}</style></defs><g id="Layer_2" data-name="Layer 2"><g id="Layer_1-2" data-name="Layer 1"><path d="M7.38 7.39c.35-.81.65-1.47 2.88-1.47h12.85a1.28 1.28 0 001.42-1.37V1c0-.4.4-1 1.47-1h26.61A1.25 1.25 0 0154 1.37V4.2a1.4 1.4 0 001.46 1.57h21.33c.76 0 1.78.2 1.32 1.16s-7.39 15-7.86 16c-.18.36-.32.85-1.72.85H55.4c-.62 0-1.64 0-1.64 1.2v3.34c0 .49-.36 1.21-1.5 1.21H25.92c-.82 0-1.42-.42-1.42-1.25V25.3c0-.64-.34-1.58-1.3-1.58H1.09c-.7 0-1.36-.55-.94-1.59S7.38 7.39 7.38 7.39z" fill="#c7d6ee"/><path fill="url(#linear-gradient)" d="M8.49 8.55h-.61L1.84 20.57h.62L8.49 8.55z"/><path d="M23.25 22.27H2.58c-.72 0-1-.33-.7-.89C3.45 18.26 8.6 8 8.73 7.75A1.32 1.32 0 0110 7h13.84c1.44 0 1.68-.63 1.68-1.76V1.89a.74.74 0 01.84-.76h25.4c.69 0 1 .23 1 .68v2.5c0 1-.19 2.58 2 2.58h21c1 0 1.19.64.69 1.64-1.87 3.75-6.45 12.64-6.58 12.94a1.72 1.72 0 01-1.63.72H54.46a2.13 2.13 0 00-2.28 1.89V27a.82.82 0 01-.87.9H26.65a.92.92 0 01-1-1v-2.67c-.05-.9-.65-1.96-2.4-1.96z" fill="#e8cf97"/><path class="cls-4" d="M50.82 21.59l2.89 3a1.33 1.33 0 011-.83l-3.25-3a1.46 1.46 0 00-.64.83zM23.32 23.74s1.16 0 1.16 1.57l2.68-4-.74-.54zM51.89 8.7l3-3s-.41-.06-.83-.73l-3 3.08zM50.57 2.62L53.39.21a1.29 1.29 0 01.44.47L50.88 3.4zM24.55 1.09A1.17 1.17 0 0125.77 0l2.14 2.65s-.64 0-.74.23a6 6 0 00-.21.74zM23.62 5.85a1.11 1.11 0 00.92-1.12l2.12 2.49-1.35 1z"/><path d="M52.61 0h-13.3l-.1 1.14h12.23a.75.75 0 01.78.4l1.35-1.2a1.42 1.42 0 00-.96-.34z" fill="url(#linear-gradient-2)"/><path d="M25.77 0a1.21 1.21 0 00-.9.41l.87 1s.18-.22.88-.22h12.59l.1-1.19z" fill="url(#linear-gradient-3)"/><path d="M24.66.59l.91 1.13V5.69a2 2 0 01-.14.57l-1-1s.11-.13.11-.68V1.09a1.12 1.12 0 01.12-.5z" fill="url(#linear-gradient-4)"/><path d="M53.73.59l-1 1v3.99a1.64 1.64 0 00.32.62l1.15-1s-.2-.1-.2-.65V1.09a.72.72 0 00-.27-.5z" fill="url(#linear-gradient-5)"/><path d="M8.15 6.36L9 7.43A1.34 1.34 0 0110 7h14a1.85 1.85 0 00.86-.22L24 5.71a2.34 2.34 0 01-.79.21H9.71a2.75 2.75 0 00-1.56.44z" fill="url(#linear-gradient-6)"/><path d="M2.34 20.35s-.51.08-.87 1.12L0 22.48a1 1 0 00.1.74.88.88 0 00.55.38l1.87-1.33s-1.06-.05-.62-.84a2.26 2.26 0 00.44-1.08z" fill="url(#linear-gradient-7)"/><path d="M1.5 21.47l7-13.86a13.73 13.73 0 00-3 4C4.27 14 .42 21.54.28 21.81a6.44 6.44 0 00-.27.74z" fill="url(#linear-gradient-8)"/><path d="M.67 23.67l1.91-1.37h20.67a5 5 0 011.45.42l-1 1.11a2 2 0 00-.78-.11z" fill="url(#linear-gradient-9)"/><path d="M24.28 24.44l1-1.22a2.07 2.07 0 01.3 1v3.45l-1 1.12a2.13 2.13 0 01-.16-.77v-2.86a2 2 0 00-.14-.72z" fill="url(#linear-gradient-10)"/><path d="M53.81 24.48l-1.31-1.31a.75.75 0 00-.32.71v3.44l1.5 1.31a7.51 7.51 0 000-.76V25a1.37 1.37 0 01.13-.52z" fill="url(#linear-gradient-11)"/><path d="M53.37 29.13l-1.47-1.41s-.1.17-.84.17H39.28v1.6h13a2.27 2.27 0 001.09-.36z" fill="url(#linear-gradient-12)"/><path d="M39.28 29.49v-1.6H26.7a1.62 1.62 0 01-.38 0l-1.23 1.44a2.14 2.14 0 001.15.22z" fill="url(#linear-gradient-13)"/><path d="M28.48 2.61a1.22 1.22 0 00-1.37 1.14v3.71a.93.93 0 01-1 1.06H11a1.46 1.46 0 00-1.36.77c-.22.43-4 8-5.2 10.42-.27.53 0 .85.64.85H26.2c.91 0 1.06.83 1.06 1.66v2.89a1.23 1.23 0 001.14 1.14H39V2.61z" fill="url(#linear-gradient-14)"/><path d="M53.17 22.62l1.22 1.24a4.77 4.77 0 011.72-.16h13a2.27 2.27 0 00.64-.14l-6.85-1.38h-8.34a2.27 2.27 0 00-1.39.44z" fill="url(#linear-gradient-15)"/><path d="M53.63 6.67l1.11-1a1.71 1.71 0 00.75.12h21.18a4.47 4.47 0 011.06.15l-1.65 1H54.71a4 4 0 01-1.08-.27z" fill="url(#linear-gradient-16)"/><path d="M76.68 7.44l1.49-1.21s.2.19 0 .74-7.82 16-8 16.16a2.32 2.32 0 01-.39.38l-.71-1.4a1.73 1.73 0 00.91-.77l6.62-13a1.59 1.59 0 00.08-.9z" fill="url(#linear-gradient-17)"/><path d="M63.06 22.24l6.47 1.32a1.43 1.43 0 00.61-.51c.2-.33 0-.43-.24-.23s-.64-.14-.43-.37a3.8 3.8 0 00.4-1 2.22 2.22 0 01-1.45.74z" fill="url(#linear-gradient-18)"/><path d="M26.51 20.84l-1.65 1.74s.33-.33-2-.33H2.58s1.35-.8 5.59-1.08 9.24-.43 11.79-.38 6.55.05 6.55.05z" fill="url(#linear-gradient-19)"/><path d="M51.3 20.84l1.9 1.78s.19-.42 1.86-.42h13.7s.2-.66-3.34-.91c-3-.22-7.67-.51-9.48-.46s-4.64.01-4.64.01z" fill="url(#linear-gradient-20)"/><path d="M51.66 8.71l2.13-2s-.24.29 1.43.29L76 6.94s-1 .8-4 1.06-13.9.8-15.7.76-4.64-.05-4.64-.05z" fill="url(#linear-gradient-21)"/><path d="M25.4 23.27l1.72-2.07a4.29 4.29 0 01.14 1.08v2.56a3.31 3.31 0 00.26 1.06l-1.72 1.72a1.74 1.74 0 01-.2-.91v-2.27a4.93 4.93 0 00-.2-1.17z" fill="url(#linear-gradient-22)"/><path d="M52.62 23.27l-1.84-2.12a4.8 4.8 0 00-.14 1.11v2.64a6.11 6.11 0 01-.11 1l1.72 1.72a1.68 1.68 0 00.21-.91v-2.27a4.93 4.93 0 01.16-1.17z" fill="url(#linear-gradient-23)"/><path fill="url(#linear-gradient-24)" d="M28.03 26.21l-1.67 1.62 12.55.1h.05v-1.68l-10.93-.04z"/><path fill="url(#linear-gradient-25)" d="M49.78 26.21l-10.77.04h-.05v1.68l12.9-.15-2.08-1.57z"/><path d="M25.85 1.32L27.51 3s.16-.36 1.33-.36H39V1.13H26.53a1.51 1.51 0 00-.68.19z" fill="url(#linear-gradient-26)"/><path d="M52.25 1.48l-1.67 1.63s-.24-.51-1.41-.51H39V1.13h12.49a1.5 1.5 0 01.76.35z" fill="url(#linear-gradient-27)"/><path d="M27.18 3.44l-1.63-1.83v4a2.6 2.6 0 01-.16.77L27 8.15s.11-.15.11-.93.07-3.78.07-3.78z" fill="url(#linear-gradient-28)"/><path d="M50.65 3.48l2.1-2v3.89a1.81 1.81 0 00.26.77l-2 2s-.36-.21-.36-1z" fill="url(#linear-gradient-29)"/><path d="M9 7.44l1.27 1.31a2.22 2.22 0 011.21-.25H26a2.64 2.64 0 00.81-.15l-1.67-1.67a1.49 1.49 0 01-1 .4h-14A2.27 2.27 0 009 7.44z" fill="url(#linear-gradient-30)"/><path d="M67.68 20.61a.76.76 0 011 .64s.2.29.73-.49S75.05 9.52 75 9.37 73.93 9 73.93 9z" fill="url(#linear-gradient-31)"/><path d="M74.08 9.13l2.49-1.71s.28.32-.13 1.11-6.38 12.62-6.57 12.94a2.31 2.31 0 01-.83.61s-.73-.59.1-2 4.74-9.09 5.08-9.82.1-.98-.14-1.13z" fill="url(#linear-gradient-32)"/><path d="M50.59 25.34v-3.53a1.12 1.12 0 011-1.21h15.75a1.53 1.53 0 001.34-.86c1.29-2.38 4.84-9.28 5.1-9.84s.13-1.07-.63-1.07H52.26a1.54 1.54 0 01-1.59-1.52V3.45c0-.53-.3-.84-1-.84H39v23.64h10.46c.6 0 1.13-.25 1.13-.91z" fill="url(#linear-gradient-33)"/><path d="M2.41 21.59l2-1.22s-.23-.1.13-.83 3.78-7.69 3.78-7.69l-.76-.17z" fill="url(#linear-gradient-34)"/><path d="M8.73 7.75s.83.5.27 1.71-6 11.69-6 11.69L1.82 22s-.1-.36.4-1.27S8.73 7.75 8.73 7.75z" fill="url(#linear-gradient-35)"/><path class="cls-4" d="M3 22.3c-.08.05-.82.14-1 0s-.39-.26-.2-.42 2.66-1.58 2.66-1.58-.29.16 2.15.16h19.56a1.22 1.22 0 011.06.58c.07.23-.06.32-.22.29a1.34 1.34 0 01-.68-.32c-.09-.16.13-.29-1.28-.29s-12.23.16-14.67.39-5.67.06-7.38 1.19zM75.29 7c.08-.05.82-.14 1 0s.39.26.19.42S73.87 9 73.87 9s.29-.16-2.15-.16H52.16a1.25 1.25 0 01-1.07-.58c-.06-.23.07-.33.23-.29s.58.16.67.32-.12.29 1.29.29S65.51 8.4 68 8.17s5.61-.06 7.29-1.17zM9.36 8.84c0-.22.12-.66 0-.78s.2-.28.41-.15.63.22.68.33 0 .35-.3.45S9.64 9 9.21 10s-2.89 5.69-2.89 5.69.36-.76.2-.79-.5.61-.5.61zM26.27 8.4c-.21 0-.27-.21-.09-.24s.42-.05.63-.87a19.71 19.71 0 000-3.75c0-.45-.24-1 .06-1.22s.51.26 1.28.26 2.53-.06 2.53-.06-2.47.18-2.89.24a.84.84 0 00-.71 1 27.49 27.49 0 01-.21 4c-.09.31-.3.61-.6.64zM43 2.54c-.33 0 6.29.08 6.7.08s.9.13 1 .54a12.15 12.15 0 010 1.79 7 7 0 01.51-2.08c.29-.33.2-.81-.18-.72s-3.49.19-8.03.39zM51.79 20.81c-.21 0-.44-.06-.5.12s.26.3-.06.48-.57.29-.57.14.17-.92.79-.92h16.28c.23 0 .53 0 .65.26s.27.84.36 1-.06.18-.33-.17a1.88 1.88 0 00-1.49-.48c-.53.02-15.13-.43-15.13-.43zM68.8 21.32l-.24-.54a.67.67 0 00-.36-.29 7.25 7.25 0 00.71-1.13c.42-.78 2.38-4.46 2.59-5 0 0-.45 1.37.42.24 0 0-2.8 5.29-3 5.65a2.85 2.85 0 00-.12 1.07zM27.45 25.48s0 .43-.21.61-.36.49-.15.63.36.08.5-.14a1.12 1.12 0 011-.32s-1.14.14-1.14-.78zM42.77 26.24l6.35.34h.61s-.64-.1-.45-.3zM49.88 26.19a.29.29 0 00.11.43c.28.14.57.28.74.07s-.14-.78-.1-1.17c0 0 .14.6-.75.67z"/></g></g></svg>