<svg xmlns="http://www.w3.org/2000/svg" xmlns:xlink="http://www.w3.org/1999/xlink" viewBox="0 0 38.67 7.78"><defs><linearGradient id="linear-gradient" x1="16.96" y1="6.13" x2="16.96" y2="4.92" gradientUnits="userSpaceOnUse"><stop offset=".01"/><stop offset=".12" stop-color="#00205f"/><stop offset=".33" stop-color="#00053f"/><stop offset=".76" stop-color="#000747"/><stop offset=".9" stop-color="#001e9f"/><stop offset="1"/></linearGradient><linearGradient id="linear-gradient-2" x1="79.51" y1="6.13" x2="79.51" y2="4.92" gradientTransform="matrix(-1 0 0 1 101.08 0)" xlink:href="#linear-gradient"/><linearGradient id="linear-gradient-3" x1="9.79" y1="4.76" x2="9.79" y2="3.87" gradientUnits="userSpaceOnUse"><stop offset=".03" stop-color="#b0b0b0"/><stop offset=".33" stop-color="#dcdcdc"/><stop offset=".58" stop-color="#b5b5b5"/><stop offset=".68" stop-color="#9d9d9d"/><stop offset=".94" stop-color="#8b8b8b"/></linearGradient><linearGradient id="linear-gradient-4" x1="267.64" y1="4.76" x2="267.64" y2="3.87" gradientTransform="matrix(-1 0 0 1 296.48 0)" xlink:href="#linear-gradient-3"/><style>.cls-1{fill:#231f20}.cls-2{fill:#191919}.cls-3{fill:#fff}</style></defs><g id="Layer_2" data-name="Layer 2"><g id="Layer_1-2" data-name="Layer 1"><path class="cls-1" d="M24.24 1.93h3.03v-.35h-2.1V.08h-.93v1.85M6.77.08v1.85h.92v-.76H9.3v.76h.93V.08H9.3v.75H7.69V.08h-.92M18.37.08l-.86.78-.9-.78L15.54 0v.08l1.31 1.09v.76h.93v-.77L19 .08V0l-.62.07M28.3 1.93h3.09v-.32h-2.16v-.46h2.08V.84h-2.08V.39h2.12V.08H28.3v1.85M19.76.56c0 .43.49.53 1.16.61s1 .11 1 .27-.2.22-.79.22a5.24 5.24 0 01-1.32-.18s-.06.2-.08.31a.15.15 0 000 .07 6.6 6.6 0 001.44.14c.9 0 1.76-.15 1.76-.63s-.35-.51-1.35-.62c-.41-.05-.84-.08-.84-.24s.12-.17.7-.17a4.83 4.83 0 011.15.14l.08-.43a14.35 14.35 0 00-1.45 0c-.63 0-1.46.09-1.46.56M2.33 1c0 .6.63 1 1.93 1a9.72 9.72 0 001.12-.08l.08-.46a5.17 5.17 0 01-1 .15c-.72 0-1.21-.17-1.21-.61S3.71.4 4.47.4a9.51 9.51 0 011 .07V.4L5.38.09A7.42 7.42 0 004.29 0c-1.32 0-2 .4-2 1M11.66 1.93h.93V.41h.49a3.87 3.87 0 01.52 0c.28 0 .37.13.37.26s-.13.23-.41.28a4.12 4.12 0 01-.48 0A1.24 1.24 0 0112.8.9V1l1 1H15v-.15l-1-.69a2.19 2.19 0 00.5-.09c.28-.09.42-.24.42-.4s-.13-.41-.65-.52a5 5 0 00-1.15-.1H11.7v1.88M32.61 1.93h.93V.41h.48a4 4 0 01.53 0c.28 0 .37.13.37.26s-.13.23-.42.33a4 4 0 01-.5 0 1.24 1.24 0 01-.25-.1V1l1 1H36v-.15l-1.07-.69a2.19 2.19 0 00.5-.09c.28-.09.42-.24.42-.4s-.14-.41-.66-.52A4.89 4.89 0 0034 .05h-1.42v1.88"/><path class="cls-2" d="M2.38 4.55l8.79.14a2.18 2.18 0 01.47.07A1.47 1.47 0 0112 5h2.23a6.48 6.48 0 00-.83.06c-.06 0 0 0 0 0h-1.6l.06.06.48.06.37.31h1.76a1.75 1.75 0 00-.4.11l-.07.06h-1.3s0 .07.23.08a.85.85 0 01.29.07 4.83 4.83 0 001.22.57c.77.22 2.13.45 2.13.45a10.64 10.64 0 01-2.83-.41c-.86-.37-2-1.21-2.28-1.32a1.27 1.27 0 00-.53-.1s-6-.24-6.66-.3-1.89-.15-1.89-.15zM36.29 4.55l-8.8.14a2.12 2.12 0 00-.46.07 1.47 1.47 0 00-.39.19h-2.23a6.48 6.48 0 01.83.06c.06 0 0 0 0 0h1.6l-.06.06-.48.06-.3.36h-1.81a1.75 1.75 0 01.4.11l.06.06H26s0 .07-.23.08a.78.78 0 00-.29.07 5 5 0 01-1.23.57c-.76.22-2.12.45-2.12.45a10.54 10.54 0 002.82-.41c.86-.37 2-1.21 2.29-1.32a1.27 1.27 0 01.5-.1s6-.24 6.66-.3 1.89-.15 1.89-.15z"/><path class="cls-3" d="M19.39 6.14h-2.71A2 2 0 0115 5.63c-.58-.49-.51-.72-.51-.72h4.93"/><path d="M19.39 6.13h-2.67A2 2 0 0115 5.62c-.56-.5-.5-.7-.5-.7h4.86" fill="url(#linear-gradient)"/><path class="cls-3" d="M19.22 6.14h2.71a2 2 0 001.71-.51c.58-.49.51-.72.51-.72h-4.93"/><path d="M19.22 6.13h2.67a2 2 0 001.69-.51c.56-.5.5-.7.5-.7h-5" fill="url(#linear-gradient-2)"/><path class="cls-3" d="M20.29 5.66h.69v-.08h-.48v-.34h-.21v.42M16.55 5.25v.41h.21v-.17h.36v.17h.21v-.41h-.21v.16h-.36v-.16h-.21M19.07 5.24l-.2.18-.21-.18h-.25l.31.25v.18h.21v-.18l.29-.25h-.15M21.16 5.66h.71v-.07h-.5v-.1h.48v-.07h-.48v-.11h.49v-.07h-.7v.42M19.33 5.35c0 .1.11.12.26.14s.24 0 .24.06 0 0-.19 0a1 1 0 01-.3 0v.09a1.31 1.31 0 00.33 0c.21 0 .41 0 .41-.14s-.09-.12-.31-.15-.2 0-.2 0h.16a1.66 1.66 0 01.27 0v-.08a2.63 2.63 0 00-.34 0c-.14 0-.33 0-.33.13M15.6 5.45c0 .14.14.23.43.23h.26v-.11h-.22c-.17 0-.28 0-.28-.14s.11-.13.28-.13h.22v-.05h-.25c-.3 0-.44.09-.44.22M17.6 5.66h.21v-.34H18c.06 0 .08 0 .08.06s0 0-.09.06h-.17l.24.21h.26l-.24-.17h.11c.07 0 .1-.06.1-.09s0-.09-.15-.12h-.54v.41M22.09 5.66h.21v-.34h.23c.06 0 .08 0 .08.06s0 0-.09.06h-.18l.24.21h.27l-.24-.17h.11c.07 0 .1-.06.1-.09s0-.09-.15-.12a1 1 0 00-.26 0h-.32v.42"/><path d="M19.38 7.45a5.77 5.77 0 00-.86 0 3.92 3.92 0 00-1 .26 9.36 9.36 0 01-1.75-.08L3 5.72a3.79 3.79 0 01-1.7-.52A3.15 3.15 0 010 4.23a4.9 4.9 0 01.44.26 5.5 5.5 0 001.67.89c.72.27 12 1.89 12 1.89a14.53 14.53 0 003 .3c.42-.17.66-.32.86-.37a7.23 7.23 0 011.72-.11"/><path d="M19.29 7.45a5.77 5.77 0 01.86 0 4.23 4.23 0 011 .26 9.36 9.36 0 001.75-.08l12.81-2a4.15 4.15 0 001.71-.52 2.77 2.77 0 001.29-1 3.66 3.66 0 00-.44.26 5.63 5.63 0 01-1.67.89c-.72.27-12 1.89-12 1.89a14.56 14.56 0 01-3 .3c-.42-.17-.66-.32-.86-.37a6.68 6.68 0 00-1.65-.11"/><path d="M19.48 4.49s-2.73 0-3-.09-.87-.4-1.08-.4a3.17 3.17 0 00-.64-.09L.32 4a.85.85 0 00-.26.11s.9.14 1.31.18c4.28.33 13.55.16 13.89.21s.57.29 1 .29h3.25" fill="url(#linear-gradient-3)"/><path d="M19.16 4.49s2.73 0 3-.09S23 4 23.23 4a3.33 3.33 0 01.65-.09L38.32 4a.85.85 0 01.26.11s-.9.14-1.31.18c-4.28.33-13.55.16-13.89.21s-.58.29-1 .29h-3.27" fill="url(#linear-gradient-4)"/></g></g></svg>