<svg xmlns="http://www.w3.org/2000/svg" viewBox="0 0 313 313"><defs><style>.cls-1{fill:#a70230}</style></defs><g id="Layer_2" data-name="Layer 2"><g id="Layer_1-2" data-name="Layer 1"><g id="Warstwa_1"><g id="_217956912" data-name="217956912"><path id="_217961256" data-name="217961256" class="cls-1" d="M0 60.2l6.24 192.61h30.31l-.66-79.88h25.42v-24.9H35.89l.09-62.67h33.19L69 60.2H0z"/><path id="_217958256" data-name="217958256" class="cls-1" d="M80.98 60.2l3.83 192.61h31.31l.63-192.61H80.98z"/><path id="_217960584" data-name="217960584" class="cls-1" d="M227.74 60.2v24.29h24.73l-.72 168.32h30.29l6.44-168.35H313l-.19-24.26h-85.07z"/><path id="_217960752" data-name="217960752" class="cls-1" d="M164 149.34l.35-65.42h17.48c7.92 14.57 13 33.84 17 65.42zM136 252.8h29l.32-79.65h34.73c2.73 14.06 3.39 57.46 3.56 79.65h28.11c2.65-98.33-5.59-153.91-28.35-192.61h-70L136 252.8z"/></g></g><path fill="none" d="M0 0h313v313H0z"/></g></g></svg>