<svg xmlns="http://www.w3.org/2000/svg" xmlns:xlink="http://www.w3.org/1999/xlink" viewBox="0 0 76.44 14.54"><defs><linearGradient id="linear-gradient" x1="-181.12" y1="174.88" x2="-181.12" y2="56.11" gradientTransform="matrix(.17 0 0 -.17 41.68 28.79)" gradientUnits="userSpaceOnUse"><stop offset=".18" stop-color="#ed1b2e"/><stop offset=".39" stop-color="#eb1b2e"/><stop offset=".5" stop-color="#e31a2c"/><stop offset=".59" stop-color="#d51829"/><stop offset=".67" stop-color="#c21626"/><stop offset=".74" stop-color="#a91321"/><stop offset=".8" stop-color="#8b101b"/><stop offset=".86" stop-color="#660c14"/><stop offset=".92" stop-color="#3c070c"/><stop offset=".97" stop-color="#0d0203"/><stop offset=".98"/></linearGradient><linearGradient id="linear-gradient-2" x1="142.81" y1="174.88" x2="142.81" y2="56.11" xlink:href="#linear-gradient"/><linearGradient id="linear-gradient-3" x1="-18.19" y1="174.88" x2="-18.19" y2="56.11" xlink:href="#linear-gradient"/><linearGradient id="linear-gradient-4" x1="4.77" y1="280.2" x2="4.77" y2="280.2" gradientTransform="matrix(.17 0 0 -.17 49.32 48.32)" gradientUnits="userSpaceOnUse"><stop offset="0" stop-color="#fff"/><stop offset="1" stop-color="#ed1b2e"/></linearGradient><linearGradient id="linear-gradient-5" x1="-181.38" y1="174.01" x2="-180.43" y2="62.39" xlink:href="#linear-gradient"/><linearGradient id="linear-gradient-6" x1="-18.28" y1="175.41" x2="-17.33" y2="63.77" xlink:href="#linear-gradient"/><linearGradient id="linear-gradient-7" x1="142.4" y1="176.78" x2="143.36" y2="65.14" xlink:href="#linear-gradient"/><linearGradient id="linear-gradient-8" x1="-181.51" y1="183.44" x2="-181.51" y2="96.15" gradientTransform="matrix(.17 0 0 -.17 41.68 28.79)" gradientUnits="userSpaceOnUse"><stop offset="0" stop-color="#fff"/><stop offset=".11" stop-color="snow"/><stop offset=".24" stop-color="#fdeaec"/><stop offset=".38" stop-color="#fbd1d5"/><stop offset=".54" stop-color="#f9adb4"/><stop offset=".71" stop-color="#f57f8a"/><stop offset=".88" stop-color="#f14857"/><stop offset="1" stop-color="#ed1b2e"/></linearGradient><linearGradient id="linear-gradient-9" x1="-180.98" y1="164.17" x2="-180.98" y2="69.91" xlink:href="#linear-gradient-8"/><linearGradient id="linear-gradient-10" x1="-146.57" y1="164.17" x2="-146.57" y2="69.91" xlink:href="#linear-gradient-8"/><linearGradient id="linear-gradient-11" x1="-64.85" y1="164.17" x2="-64.85" y2="69.91" xlink:href="#linear-gradient-8"/><linearGradient id="linear-gradient-12" x1="24.7" y1="164.17" x2="24.7" y2="69.91" xlink:href="#linear-gradient-8"/><linearGradient id="linear-gradient-13" x1="-13.28" y1="143.16" x2="-12.91" y2="65.69" xlink:href="#linear-gradient-8"/><linearGradient id="linear-gradient-14" x1="24.92" y1="183.44" x2="24.92" y2="96.15" xlink:href="#linear-gradient-8"/><linearGradient id="linear-gradient-15" x1="142.74" y1="183.44" x2="142.74" y2="96.15" xlink:href="#linear-gradient-8"/><linearGradient id="linear-gradient-16" x1="151.52" y1="164.17" x2="151.52" y2="69.91" xlink:href="#linear-gradient-8"/><style>.cls-7{fill:#ed1b2e}.cls-8{fill:#fdddd1}.cls-22{fill:#fff}</style></defs><g id="Layer_2" data-name="Layer 2"><g id="Layer_1-2" data-name="Layer 1"><path d="M21 .23c.14 0 .49-.07.51.52s0 1.65 0 1.9-.16.38-.43.39H5.25A1.17 1.17 0 004 4.16v6.24a1.2 1.2 0 001.22 1.18h11.25a1.2 1.2 0 001.23-1.18.49.49 0 000-.12V8.9c0-.14 0-.29-.33-.3h-5c-.34 0-.47-.11-.49-.48s0-1.63 0-1.82.1-.38.54-.38h8.77c.22 0 .36 0 .38.51s0 4.35 0 4.61a3.24 3.24 0 01-3.13 3.21c-2.43.07-14.86 0-15.1 0a3.46 3.46 0 01-3.1-3.12c-.07-.82-.06-7.3-.06-7.7C.18 2.81.84.25 3.36.2S20.7.22 21 .23z" fill="url(#linear-gradient)" stroke="#000" stroke-width=".35"/><path d="M55.66 3.67A3.34 3.34 0 0158.9.31h16.79c.35 0 .58.15.57.57s0 1.27 0 1.71 0 .52-.56.53h-15a1.29 1.29 0 00-1.33 1.18v.06c0 .56 0 5.62.09 6a1.16 1.16 0 001.17 1.11h15.14c.33 0 .45.2.46.6s0 1.41 0 1.73-.07.43-.55.45-15.06.1-16.87 0a3.22 3.22 0 01-3.13-3.31v0c-.03-1.88 0-6.34-.02-7.27z" fill="url(#linear-gradient-2)" stroke="#000" stroke-width=".35"/><path d="M26.74.72c0-.56.4-.43.52-.44s5.45 0 5.65 0 .28.16.48.5S38.2 9.3 38.3 9.5s.36.46.58.07 5-8.81 5.08-9 .27-.22.49-.23 5.66 0 5.66 0c.26 0 .37.17.38.52s0 13.08 0 13.08a.35.35 0 01-.3.41H47c-.17 0-.35 0-.34-.56s0-10.31 0-10.31-.08-.38-.28 0-3.69 6.91-6.1 10.77a.35.35 0 01-.3.13h-2.71c-.11 0-.2 0-.34-.22S31 3.57 30.88 3.35s-.32-.14-.32.12v10.42c0 .19 0 .42-.42.44s-3.06 0-3.26 0-.18-.16-.2-.39.06-12.66.06-13.22z" fill="url(#linear-gradient-3)" stroke="#000" stroke-width=".35"/><path fill="url(#linear-gradient-4)" d="M50.13.69h.01-.01z"/><path d="M46.87.89h2.87c.23 0 .37.45.37.45 0-.62-.1-.66-.31-.66h-5.27c-.19 0-.27.15-.33.35a1 1 0 01.49-.12z" fill="#fff6f2"/><path d="M46.87.91h2.87c.24 0 .37.45.37.45 0-.63-.11-.66-.31-.66h-5.28c-.2 0-.26.14-.33.35a.85.85 0 01.49-.12z" fill="#feefe8"/><path d="M26.83.37c.1-.22.23-.33.42-.33M5.25 3a1.26 1.26 0 00-.93.3 1.36 1.36 0 00-.32.96v6.14a1.22 1.22 0 001.26 1.18h.06a1.21 1.21 0 01-1.21-1.18V4.26a1.14 1.14 0 01.3-.83A1.2 1.2 0 015.25 3z"/><path class="cls-7" d="M12.45 6.23c-.21 0-.26.06-.26.26V6.2h.31z"/><path class="cls-8" d="M12.48 6.36c-.1 0-.16 0-.16.14v-.14z"/><path class="cls-7" d="M21 6.22a.32.32 0 01.32.26c0 .14 0 0 0 0v-.29H21z"/><path class="cls-8" d="M21 6.35c.11 0 .19 0 .19.14v-.14z"/><path d="M75.63 11.82c.1 0 .18 0 .18.13v-.14z" fill="#f6967f"/><path d="M21.26 2.3c0-.42.07-1 0-1.37a1.12 1.12 0 00-.09-.36H21c-.45 0-15.39-.06-17.68 0a3.13 3.13 0 00-2.85 2.9c0 .54 0 6.91.05 7.68A3.13 3.13 0 003.32 14h15.1a2.94 2.94 0 002.83-2.88V6.48a.28.28 0 010-.13v-.06h-9v1.93h5.21a.6.6 0 01.66.53v1.48a1.52 1.52 0 01-1.43 1.61H5.35a1.53 1.53 0 01-1.61-1.42V4.24a1.66 1.66 0 01.44-1.12 1.55 1.55 0 011.12-.44h16zm-.12.35H5.25a1.65 1.65 0 00-1.17.46 1.65 1.65 0 00-.44 1.16v6.18A1.61 1.61 0 005.32 12h11.22a1.58 1.58 0 001.6-1.58V8.88a.63.63 0 00-.63-.66h-5.18v-1.9h8.88a.33.33 0 010 .14v4.59a2.86 2.86 0 01-2.77 2.82c-2 .07-11 .05-14.81 0h-.31a3.07 3.07 0 01-2.77-2.78C.48 10.32.49 4 .5 3.43A3 3 0 013.32.61H21.2a.38.38 0 010 .15v1.87z" fill="url(#linear-gradient-5)"/><path d="M50.21.66H44.5c-.18 0-.19 0-.24.09L40.61 7.2l-1.44 2.54a.62.62 0 01-.57.38c-.16 0-.4-.09-.59-.47-.11-.2-4.69-8.34-4.91-8.7a2 2 0 00-.18-.32h-5.83V14c0 .11.06.1.06.09h3.17V3.63a.55.55 0 01.33-.55.52.52 0 01.59.25c.09.12 1.3 2.28 4 7.08l2.08 3.71H40c2.08-3.3 4.84-8.45 5.75-10.16l.25-.54c.18-.32.39-.36.53-.34a.49.49 0 01.37.43V13.9a.48.48 0 000 .17s0 .07.06 0h3.13V1a.6.6 0 00.12-.34zM47 14V3.47a.51.51 0 00-.4-.47.59.59 0 00-.59.35l-.29.54C44.79 5.6 42 10.77 40 14.06h-2.72l-2.08-3.71c-2.69-4.79-3.9-7-4-7.08a.57.57 0 00-.65-.27.58.58 0 00-.36.6V14h-3.11V.66h5.74L33 1c.22.37 4.79 8.51 4.9 8.71.22.4.48.5.65.5a.71.71 0 00.62-.41l1.44-2.56C42 4.71 44.17 1 44.27.76s0 0 .19 0h5.62a.38.38 0 010 .15V14H47z" fill="url(#linear-gradient-6)"/><path d="M75.67.62H58.9a3 3 0 00-2.91 3v7.26a2.92 2.92 0 002.81 3c1.76 0 16.23 0 16.85-.06h.22V12a1.31 1.31 0 000-.28H60.62a1.47 1.47 0 01-1.49-1.41c0-.22-.05-2-.07-4.35V4.35a1.47 1.47 0 01.44-1 1.66 1.66 0 011.25-.5h15.14a.29.29 0 010-.13V.82c.05-.12.04-.18-.22-.2zm0 2.09H60.74a1.75 1.75 0 00-1.31.52A1.55 1.55 0 0059 4.35V6c0 2.32 0 4.17.06 4.36a1.51 1.51 0 001.58 1.46h15.18a.88.88 0 010 .23v1.75h-.16c-.62 0-15.09.11-16.85.07a2.87 2.87 0 01-2.77-3V3.65A2.91 2.91 0 0158.88.71h16.77c.2 0 .2 0 .2.17v1.88z" fill="url(#linear-gradient-7)"/><path d="M1.33 13a2.87 2.87 0 01-.74-1.84C.52 10.35.53 4 .53 3.46A3 3 0 013.32.64h17.84v1.94l.11-1c0-.77-.07-1-.13-1H3.27A3.12 3.12 0 00.39 3.46v7.68A3 3 0 001.33 13z" fill="url(#linear-gradient-8)"/><path d="M17.42 8.25a.6.6 0 01.63.58v1.46a1.49 1.49 0 01-1.4 1.58H5.32a1.51 1.51 0 01-1.55-1.45V4.27a1.48 1.48 0 01.43-1.09 1.56 1.56 0 011.1-.49 1.55 1.55 0 00-1.18.4 1.63 1.63 0 00-.46 1.18v6.15A1.64 1.64 0 005.34 12h11.21a1.6 1.6 0 001.62-1.6.41.41 0 000-.11V8.86c-.04-.42-.26-.59-.75-.61z" fill="url(#linear-gradient-9)"/><path d="M21.14 6.35V11A3.26 3.26 0 0120 13.44 3.12 3.12 0 0021.34 11V6.23h-9.09a.06.06 0 00-.06.06V8.1c0 .13 0 .14.19.14l-.05-.06V6.35z" fill="url(#linear-gradient-10)"/><path d="M31.18 3.15c-.29-.37-.56-.34-.64-.31a.62.62 0 00-.4.64c0 .08.07 8.2.08 10.14V3.48a.48.48 0 01.31-.48.53.53 0 01.65.15z" fill="url(#linear-gradient-11)"/><path d="M47 12.47c0-2.81.06-9 .06-9A.55.55 0 0046.6 3a.6.6 0 00-.61.37s-.51 1-1.28 2.39L46 3.31c.13-.23.31-.34.48-.31a.48.48 0 01.37.4s.15 6.09.15 9.07z" fill="url(#linear-gradient-12)"/><path d="M41.56 5.55c-1.12 2-2.33 4-2.42 4.17a.58.58 0 01-.54.36.7.7 0 01-.6-.44s-.32-.46-.72-1.16c.38.67.6 1.17.62 1.21.22.43.49.52.67.52a.71.71 0 00.64-.43s1.11-2.03 2.35-4.23z" fill="url(#linear-gradient-13)"/><path d="M41.56 5.55C42.83 3.3 44.29.82 44.35.82h5.76v8.76l.1 2.75c0-.78.06-1.79.06-2.84V1A.43.43 0 0050 .62h-5.41a.67.67 0 00-.41.28c-.09.1-1.26 2.29-2.62 4.65z" fill="url(#linear-gradient-14)"/><path d="M75.88 2.55c0-.16.05-1.42.06-1.48a.45.45 0 00-.48-.47C75.19.59 61 .6 58.9.6a3 3 0 00-2.94 3v7.3a2.73 2.73 0 00.91 2.16 3.56 3.56 0 01-.79-2.16V3.64A2.88 2.88 0 0158.89.73h16.77c.17 0 .17 0 .17.14s.06 1.52.05 1.68z" fill="url(#linear-gradient-15)"/><path d="M75.85 13.73c0-.32.1-1.32.08-1.7 0-.21 0-.28-.08-.3H60.62a1.45 1.45 0 01-1.46-1.38c0-.17-.09-6-.09-6a1.47 1.47 0 01.44-1 1.64 1.64 0 011.23-.55 1.78 1.78 0 00-1.32.47A1.63 1.63 0 0059 4.38s.07 5.83.09 6a1.53 1.53 0 001.59 1.45H75.8v.21c.02.37.08 1.37.05 1.69z" fill="url(#linear-gradient-16)"/><path class="cls-22" d="M76 .82a.34.34 0 00-.32-.35H58.76A3.13 3.13 0 0056.46 2 3.44 3.44 0 0158.77.64h16.86c.3 0 .16 1.35.28 1.47.02-.58.09-1.01.09-1.29zM32.75.49h-5.36c-.27 0-.34.09-.34.37v1.46a8.55 8.55 0 01.09-1.23c0-.39.18-.4.28-.4h5.16c.16 0 .34.17.45.35s.14.23.22.27c-.04-.26-.25-.82-.5-.82zM21 .47H3.2A3.09 3.09 0 00.92 2 3.44 3.44 0 013.22.64H21c.29 0 .15 1.35.28 1.47a10.7 10.7 0 000-1.29.34.34 0 00-.28-.35zM49.88.5h-5.37c-.19 0-.37.34-.45.55a.55.55 0 00.14-.12l.15-.19c.12-.1.27-.07.44-.07h5.09c.27 0 .22.39.21.41v.72a3.31 3.31 0 00.06.54V.87a.33.33 0 00-.27-.37z"/><path class="cls-7" d="M27 1c0-.07 0-.56.27-.56h-.38z"/></g></g></svg>