<svg xmlns="http://www.w3.org/2000/svg" viewBox="0 0 313 313"><g data-name="Layer 2"><g data-name="Layer 1"><path d="M310.46 143.46c-11-35.22-58.73-64.83-142.08-67.39-1.92-.06-6.87-.31-11.88-.3s-10.32.25-12.37.31c-83 2.67-130.6 32.23-141.59 67.38-1.64 5.26-25.43 74.54 113.2 93.77L156.5 118.9l40.76 118.33c138.63-19.23 114.84-88.51 113.2-93.77zm-87 46.85l-66.91-89-66.91 89c-29.34-3.46-60.8-19.55-60.8-40.72 0-52.12 100.08-62.39 123.05-64a65.59 65.59 0 019 0c22.3 1.59 123.4 11.69 123.4 64.08-.08 21.09-31.54 37.18-60.88 40.64z"/><path fill="none" d="M0 0h313v313H0z"/></g></g></svg>