<svg data-name="Layer 1" xmlns="http://www.w3.org/2000/svg" xmlns:xlink="http://www.w3.org/1999/xlink" viewBox="0 0 313 313"><defs><linearGradient id="a" x1="80.47" y1="188.75" x2="80.47" y2="132.3" gradientTransform="matrix(1 0 0 -1 0 314)" gradientUnits="userSpaceOnUse"><stop offset="0" stop-color="#e5e2df"/><stop offset="0" stop-color="#ded9d6"/><stop offset=".06" stop-color="#cfcac9"/><stop offset=".18" stop-color="#a8a4a7"/><stop offset=".26" stop-color="#8b878d"/><stop offset=".52" stop-color="#f3f4f4"/><stop offset=".58" stop-color="#e5e5e6"/><stop offset=".7" stop-color="#c0bec0"/><stop offset=".86" stop-color="#858085"/><stop offset=".88" stop-color="#807b80"/><stop offset="1" stop-color="#d1d3d4"/><stop offset="1" stop-color="#a7a9ac"/></linearGradient><linearGradient id="b" x1="228.18" y1="188.75" x2="228.18" y2="132.3" xlink:href="#a"/><linearGradient id="c" x1="154.32" y1="188.75" x2="154.32" y2="132.3" xlink:href="#a"/><linearGradient id="d" x1="80.52" y1="204.69" x2="80.52" y2="125.24" xlink:href="#a"/><linearGradient id="e" x1="228.19" y1="204.69" x2="228.19" y2="125.24" xlink:href="#a"/><linearGradient id="f" x1="154.32" y1="204.69" x2="154.32" y2="125.24" xlink:href="#a"/><linearGradient id="g" x1="156.47" y1="217.96" x2="156.47" y2="100.28" xlink:href="#a"/><linearGradient id="h" x1="156.48" y1="121.01" x2="156.48" y2="211.17" xlink:href="#a"/></defs><path d="M313 156.52a24.82 24.82 0 01-4 13.35c-3.34 5.56-7.7 9.67-12.77 13.51a105 105 0 01-21.85 12.39 197.34 197.34 0 01-29.46 10c-28.13 7.35-59.5 10.45-88.43 10.45s-60.31-3.1-88.44-10.45a197.34 197.34 0 01-29.46-10 105.34 105.34 0 01-21.9-12.39c-5.04-3.84-9.39-7.95-12.69-13.51a24.5 24.5 0 010-26.71c3.31-5.56 7.69-9.69 12.77-13.51a105.38 105.38 0 0121.82-12.43 198.44 198.44 0 0129.46-10c28.13-7.35 59.5-10.45 88.44-10.45s60.31 3 88.43 10.45a197.3 197.3 0 0129.46 10 104.57 104.57 0 0121.85 12.4c5.08 3.84 9.43 7.95 12.77 13.51a24.87 24.87 0 014 13.39z"/><path d="M52.48 177.31a4.52 4.52 0 01-4.52-4.5V161h35.56a7.12 7.12 0 007.11-7.11v-8.78a3.31 3.31 0 00-3.3-3.3h-26.2v-11.74a4.52 4.52 0 014.52-4.52h42.8a4.52 4.52 0 014.52 4.52v30.39a16.87 16.87 0 01-16.86 16.85z" fill="url(#a)"/><path d="M212.52 177.31a16.87 16.87 0 01-16.86-16.85v-18.05a16.87 16.87 0 0116.86-16.86h43.68a4.51 4.51 0 014.51 4.51v11.76h-36.33a6.44 6.44 0 00-6.43 6.43v6.35a6.46 6.46 0 006.43 6.43h36.29v11.77a4.51 4.51 0 01-4.51 4.51h-43.64z" fill="url(#b)"/><path d="M173 177.31a8.9 8.9 0 01-8-5.08l-9.25-19.9h-2.91l-9.24 19.9a8.9 8.9 0 01-8 5.08h-19.85l21.67-46.64a8.88 8.88 0 018-5.07h17.71a8.87 8.87 0 018 5.07l21.67 46.64z" fill="url(#c)"/><path d="M49.23 172.8a3.31 3.31 0 003.25 3.33h43.68a15.65 15.65 0 0015.65-15.64v-30.42a3.31 3.31 0 00-3.31-3.3H65.65a3.29 3.29 0 00-3.3 3.28v10.53h25a4.51 4.51 0 014.52 4.5v8.77a8.35 8.35 0 01-8.34 8.35h-34.3z" fill="url(#d)"/><path d="M259.5 172.8v-10.55h-35.12a7.64 7.64 0 01-7.64-7.64v-6.35a7.64 7.64 0 017.64-7.64h35.12v-10.55a3.3 3.3 0 00-3.3-3.3h-43.68a15.63 15.63 0 00-15.64 15.63v18.05a15.64 15.64 0 0015.64 15.64h43.68a3.32 3.32 0 003.3-3.29z" fill="url(#e)"/><path d="M166.1 171.67a7.65 7.65 0 006.9 4.43h18l-20.88-44.91a7.67 7.67 0 00-6.94-4.42h-17.72a7.67 7.67 0 00-6.94 4.42q-10.44 22.45-20.86 44.91h17.92a7.63 7.63 0 006.92-4.43l9.58-20.6h4.41z" fill="url(#f)"/><path d="M309 143.16c-3.34-5.56-7.7-9.67-12.77-13.51a104.44 104.44 0 00-21.85-12.43 197.3 197.3 0 00-29.46-10C216.8 99.9 185.38 96.8 156.45 96.8s-60.31 3-88.44 10.45a198.44 198.44 0 00-29.46 10 105.8 105.8 0 00-21.86 12.4C11.65 133.49 7.3 137.6 4 143.16a24.5 24.5 0 000 26.71c3.34 5.56 7.7 9.67 12.77 13.51a105 105 0 0021.85 12.39 197.34 197.34 0 0029.46 10c28.13 7.35 59.5 10.45 88.44 10.45s60.3-3.1 88.43-10.45a197.34 197.34 0 0029.46-10 105 105 0 0021.85-12.39c5.08-3.84 9.43-7.95 12.77-13.51a24.5 24.5 0 000-26.71zM288.11 177a177.45 177.45 0 01-65 23.24 36.69 36.69 0 01-17.73-1.55l-7.74-2.58a37.47 37.47 0 00-12.11-2h-58.08a37.47 37.47 0 00-12.11 2l-7.74 2.58a36.69 36.69 0 01-17.73 1.55 177.63 177.63 0 01-65-23.24A15.62 15.62 0 0118 158.86a87.63 87.63 0 0112.19-24.55 43.37 43.37 0 0122.45-16.38 346 346 0 01207.73 0 43.37 43.37 0 0122.45 16.38A87.9 87.9 0 01295 158.86a15.64 15.64 0 01-6.89 18.14z" fill="url(#g)"/><path d="M295 159a87.9 87.9 0 00-12.19-24.55A43.41 43.41 0 00260.35 118a346 346 0 00-207.73 0 43.41 43.41 0 00-22.45 16.38A87.63 87.63 0 0018 159a15.65 15.65 0 006.88 18.19 177.63 177.63 0 0065 23.24 36.7 36.7 0 0017.73-1.56l7.74-2.58a37.51 37.51 0 0112.11-2h58.07a37.47 37.47 0 0112.11 2l7.74 2.58a36.69 36.69 0 0017.73 1.56 177.46 177.46 0 0065-23.25A15.64 15.64 0 00295 159zm-12.44 15.46a180.3 180.3 0 01-59.93 20.88A33.47 33.47 0 01206 194l-8-2.66a33.91 33.91 0 00-10-1.82q-15.72-.42-31.44-.42t-31.49.42a34 34 0 00-10.09 1.78L107 194a33.47 33.47 0 01-16.61 1.34 180.3 180.3 0 01-59.93-20.88 11.29 11.29 0 01-5.08-13.88 126.27 126.27 0 0113.39-25.79A34.8 34.8 0 0156 121.42c58.14-20.52 142.81-20.52 201 0a34.8 34.8 0 0117.27 13.33 126.27 126.27 0 0113.39 25.79 11.3 11.3 0 01-5.11 13.88z" fill="url(#h)"/></svg>