<svg xmlns="http://www.w3.org/2000/svg" viewBox="0 0 313 313"><defs><style>.cls-1{fill:#231f20;fill-rule:evenodd}</style></defs><g id="Layer_2" data-name="Layer 2"><g id="Layer_1-2" data-name="Layer 1"><path class="cls-1" d="M54.18 93.65h25.58v67.11c0 11.56-5 35.76-40.43 35.76S0 174 0 161.31v-12.37h24.75V161c0 7.43 5 14.3 14.31 14.3s15.12-5.23 15.12-14V93.65zM122.39 180.84c-8.25 0-12.92-4.67-12.92-16h47.58c0-35.48-17.6-43.18-37.68-43.18-23.38 0-33.83 21.45-33.83 39.88s11.83 36.3 36 36.3c21.18.28 35.21-13.47 35.21-23.65H133.4a11.82 11.82 0 01-11.01 6.65zM121 137.11c8.81 0 12.65 6.6 12.65 13.48h-24.2c.02-7.43 3.04-13.48 11.55-13.48zM198.86 180.84c-8.25 0-12.93-4.67-12.93-16h47.58c0-35.48-17.6-43.18-37.68-43.18-23.38 0-33.83 21.45-33.83 39.88s11.83 36.3 36 36.3c21.18.28 35.21-13.47 35.21-23.65h-23.35a11.81 11.81 0 01-11 6.65zm-1.38-43.73c8.81 0 12.65 6.6 12.65 13.48h-24.2c0-7.43 3.07-13.48 11.55-13.48zM282.75 122.53c-11.83 0-17.61 6.6-17.88 7.43s-3.3 4.12-3.3-1.65v-3.85h-23.66v94.89h23.93v-26.13c0-1.93 1.93-1.65 3.3 0S272.57 199 283 199c19 0 30-16.5 30-39.05 0-29.17-18.43-37.42-30.25-37.42zm-7.16 59.69c-11.55 0-14.57-7.43-14.3-21.46S267.07 141 274.5 141c12.1 0 14.3 9.35 14.3 19s-1.65 22.22-13.21 22.22z"/><path fill="none" d="M0 0h313v313H0z"/></g></g></svg>