<svg xmlns="http://www.w3.org/2000/svg" viewBox="0 0 313 313"><defs><style>.cls-1{fill:#b5121b}</style></defs><g id="Layer_2" data-name="Layer 2"><g id="Layer_2-2" data-name="Layer 2"><path class="cls-1" d="M156.5 76.16C70.06 76.16 0 112.13 0 156.5s70.06 80.34 156.5 80.34S313 200.87 313 156.5s-70.06-80.34-156.5-80.34zm.66 142.29c-79 0-143.11-27.56-143.11-61.56s64.07-61.56 143.11-61.56 143.12 27.57 143.12 61.56-64.08 61.56-143.12 61.56z"/><path class="cls-1" d="M208.25 124.58a2 2 0 00.18-.74 1.62 1.62 0 00-1.61-1.62h-2.16a.32.32 0 01-.33-.32v-3.82a.32.32 0 01.33-.32h29.3c.88 0 1.72.18 2 1.08l25.44 74.26a2 2 0 01.05.42 1.4 1.4 0 01-1.4 1.42h-18.36a2.42 2.42 0 01-2.11-1.64l-15.73-47.91c-.11-.42-.36-.77-.8-.77s-.7.32-.8.77l-15.66 47.91a2.45 2.45 0 01-2.13 1.64h-18.3a1.43 1.43 0 01-1.42-1.43 1.37 1.37 0 010-.4zM147.13 124.51v-.7a1.62 1.62 0 00-1.64-1.59h-2.43a.33.33 0 01-.33-.33v-3.83a.33.33 0 01.33-.32h24.29a1.62 1.62 0 011.6 1.63v74a1.61 1.61 0 01-1.6 1.61h-18.62a1.61 1.61 0 01-1.6-1.61v-68.8zM131.37 194.92h-21.43a4 4 0 01-2.78-1.62l-21.4-29.41c-.36-.33-.39-.44-.64-.65a1.08 1.08 0 00-.6-.17.88.88 0 00-.88 1v29.27a1.61 1.61 0 01-1.6 1.61H64a1.61 1.61 0 01-1.6-1.61v-69.51a1.6 1.6 0 00-1.59-1.61h-2.53a.33.33 0 01-.32-.33v-3.82a.33.33 0 01.32-.33h23.77a1.62 1.62 0 011.6 1.63v24.53a.89.89 0 00.88 1 1.21 1.21 0 00.62-.18c.23-.2.25-.31.62-.66l3-4.07 14.78-20.61a4 4 0 012.79-1.63h20.52a1.39 1.39 0 011.38 1.43 1.46 1.46 0 01-.22.8l-22.69 33a1.54 1.54 0 00-.38 1 1.36 1.36 0 00.35.94l27.16 37.63a1.28 1.28 0 01.34 1 1.4 1.4 0 01-1.43 1.37z"/><path fill="none" d="M0 0h313v313H0z"/></g></g></svg>