<svg id="Layer_1" data-name="Layer 1" xmlns="http://www.w3.org/2000/svg" viewBox="0 0 313 313"><defs><radialGradient id="radial-gradient" cx="116.25" cy="176.2" r="19.39" gradientTransform="matrix(5.98 0 0 5.98 -538.65 -897.14)" gradientUnits="userSpaceOnUse"><stop offset="0" stop-color="#00683f"/><stop offset=".18" stop-color="#00683f"/><stop offset="1" stop-color="#174a3e"/></radialGradient><style>.cls-1{fill:#00683f}</style></defs><path class="cls-1" d="M250.75 170.58h-4.36l-2.58 8H248a13.93 13.93 0 002.8-.51 4.16 4.16 0 002-1.25 5.88 5.88 0 001.36-2.26 3.55 3.55 0 000-2.93c-.43-.67-1.55-1-3.35-1M189.06 144.78a9.52 9.52 0 004.63-.87 9.1 9.1 0 003-3 32.68 32.68 0 003.17-6.87c1.44-4.24 1.93-7.09 1.39-8.64s-2-2.3-4.56-2.3h-2.39l-7.61 21.65zM102.67 170.58h-4.32l-2.6 8h4.14a14.17 14.17 0 002.8-.51 4.3 4.3 0 002-1.25 6.16 6.16 0 001.37-2.26 3.6 3.6 0 000-2.93c-.48-.67-1.59-1-3.39-1M121.87 124.4l-8.41 14.26h6.87l1.54-14.26z"/><path d="M156.51 86.4C74.89 86.4 8.3 117.92 8.3 156.52s66.59 70.11 148.21 70.11 148.23-31.51 148.23-70.11-66.6-70.12-148.23-70.12m67.14 51l2.77-8.2 27-.45-5.42 8.3-26.62 12.63 14.2-12.76zm-21.49-23.23c2.86 0 5 .5 6.35 1.46a7 7 0 012.81 4.15 16.49 16.49 0 01.26 6.39 38.85 38.85 0 01-2 7.68 45.41 45.41 0 01-4.58 9.86 27.14 27.14 0 01-5.22 5.85 15.78 15.78 0 01-5.46 3.17 21.46 21.46 0 01-6.09 1.08H174l13.92-39.64zm-81.83 0h10.51l-2.19 39.64h-10.06l.76-6.54h-11l-3.81 6.54h-9.85zm-40.51 0h9.63L79 144h15l-3.41 9.78h-24.7zm-6.15 70.62l-27 .47 5.39-8.34 26.63-12.64L64.54 177l11.9-.44zm42.62-11.2a18 18 0 01-3 5.66 16.4 16.4 0 01-4.38 3.83 13.25 13.25 0 01-4 1.54 7.09 7.09 0 012.1 1.45 8.67 8.67 0 01.91 2.08 12.19 12.19 0 01.58 2.45l1.06 11.4H98.5l-1.37-12a6.59 6.59 0 00-.83-3 2.58 2.58 0 00-2.09-.92h-.9l-5.18 16h-9.92L91 162.66h16.49c3 0 5.25.3 6.66 1a4.85 4.85 0 012.73 3.57 11.5 11.5 0 01-.58 6.34m37.06 8.43a38.13 38.13 0 01-5.57 11.33 25.43 25.43 0 01-7.66 6.89 19.93 19.93 0 01-9.68 2.44c-3.63 0-6.36-.73-8.26-2.12s-3.08-3.68-3.55-6.72 0-6.87 1.51-11.46q3.16-9.61 9.25-15a20.36 20.36 0 0113.86-5.36c5.32 0 8.86 1.75 10.57 5.25s1.58 8.44-.47 14.74m2-28.21l-4-21.76-7.64 21.76h-9.02l13.92-39.64h9l4 21.93 7.69-21.93h9.09l-13.92 39.64zm6.78 48.22l.74-39.3h10.33l-2 28.27 16.3-28.27h10L172.85 202zm59.45-16.64h-15.35l-2.52 7.64h17l-2.85 9h-27l12.8-39.3h26.44l-2.73 8.4h-16.49l-2 6.23h15.36zm42.77-11.77a17.62 17.62 0 01-3 5.66A16.1 16.1 0 01257 183a13.18 13.18 0 01-3.95 1.54 7.09 7.09 0 012.1 1.45 9.1 9.1 0 01.91 2.08 12.19 12.19 0 01.58 2.45l1.08 11.4h-11.17l-1.39-12a6.35 6.35 0 00-.78-3 2.67 2.67 0 00-2.14-.92h-.85l-5.21 16h-9.9l12.79-39.3h16.44c3.06 0 5.3.3 6.71 1a4.81 4.81 0 012.73 3.57 11.91 11.91 0 01-.59 6.34" fill="url(#radial-gradient)"/><path class="cls-1" d="M140.25 171.17a8 8 0 00-5.64 2.62c-1.76 1.7-3.28 4.59-4.62 8.6s-1.58 6.81-1 8.54a3.88 3.88 0 004 2.61 8 8 0 005.78-2.57c1.69-1.68 3.26-4.74 4.69-9.14q1.83-5.52.82-8.08a4 4 0 00-4.1-2.58"/><path d="M156.51 77.68C70.31 77.68 0 113.12 0 156.52s70.31 78.8 156.51 78.8S313 199.93 313 156.52s-70.28-78.84-156.49-78.84m0 153.06c-84.29 0-153-33.34-153-74.22s68.74-74.22 153-74.22 153.05 33.33 153.05 74.22-68.76 74.22-153 74.22" fill="#969696"/></svg>