<svg data-name="Layer 1" xmlns="http://www.w3.org/2000/svg" viewBox="0 0 313 313"><path d="M62.3 233.1c-8.57-5.27-11.3-12-24.33-17.33-13-17-18-38.16-18-59.32a155.33 155.33 0 016.92-44.76L40 137.74a141.39 141.39 0 00-1.13 18.76c0 86.33 57.27 103.75 117.67 103.55 60.4.2 117.67-17.22 117.67-103.55a160.59 160.59 0 00-1.75-24.45l9.36-19.27c4.93 12.27 7.6 28 7.29 43.81-.5 25.51-8.78 51.3-27.92 63.43l-3.19 4.61-3.31 4.2-3.53 3.91-3.74 3.61-4 3.33-4.14 3-4.3 2.79-4.48 2.54-4.5 2.34-4.77 2.05-4.9 1.83-5 1.62-5.14 1.41-5.24 1.22-5.33 1-5.41.86-5.48.71-5.55.54-5.6.41-5.64.27-5.68.15h-11.45l-5.67-.15-5.64-.27-5.6-.41-5.54-.54-5.49-.71-5.41-.86-5.34-1-5.23-1.22-5.14-1.41-5-1.62-4.91-1.83-4.77-2.05-4.63-2.29-4.48-2.54-4.31-2.79-4.14-3-3.94-3.33-3.27-3.3zM26.92 77.65l-1.79-1.8C9.7 94.56 0 120.55 0 156.5 0 265.34 88.84 283 156.5 283S313 265.34 313 156.5c0-35.95-9.7-61.94-25.13-80.64l-1.79 1.73c-.33 9.51-2 19.37-3.34 28.68 6.76 14.55 9.95 31.85 10.41 50.23 1 54.07-26.49 110.87-136.65 114.57-69.25-.55-112.77-21.9-130.5-66.52-11.77-7.49-17.52-21.26-23-34.64l-.28-3.6-.26-9.81.26-9.8.74-9.29 1.22-8.76 1.67-8.27 2.1-7.78 2.5-7.32 2.89-6.85L17.08 92l3.61-6 3.36-4.7c1.29 9.17 2.88 21.34 5.72 23.68 35 29.42 96.72 25.63 126.4 84.94 32.25-65.77 89.19-57.46 124.24-86.89l3.26-28.19c-40.87 44.18-96.41 29.2-127.5 95.28-33.49-64.87-88.27-48.86-129.25-92.47zm27.46 15.78C75.4 60.91 115.22 52.82 156.5 53c40.58-.13 79.75 7.69 101.13 39.22L282.92 73l1.5-1.14C252.68 37.38 200.18 30 156.5 30c-44.6 0-98.39 7.68-129.88 44.08l.59.49.88.7.43.36c6.79 6.65 14.31 13.63 21.93 17.63a4.73 4.73 0 003.93.16zm226.21-22l-11.4 7.16c-33.8-29.73-69.81-37-112.69-36.71C113.18 41.59 75.17 49.3 41.81 81l-11.68-7.13 3.27-3.49 4.82-4.47 5.07-4.11 5.3-3.8 5.53-3.47 5.73-3.15 5.91-2.86L71.84 46l6.21-2.31 6.35-2 6.44-1.8 6.53-1.57 6.63-1.45 6.63-1.14 6.66-.95 6.66-.77 6.63-.6 6.6-.44 6.55-.3 6.46-.17h12.71l6.46.17 6.55.3 6.59.44 6.64.6 6.66.77 6.66.95 6.63 1.14 6.59 1.35 6.53 1.57 6.45 1.8 6.34 2 6.18 2.41 6.07 2.58 5.91 2.86 5.73 3.15 5.53 3.41 5.31 3.79 5.07 4.11 4.81 4.47 1 1.05zM156.17 210c-14.46-31-30.26-45.07-54.41-55.08l-60.41-20.41-8.35-23c14.87 11.4 36.75 19.13 57.64 27.19 32.19 12.3 49.69 27.93 65.53 59.93V210zm0 0c14.47-31 30.27-47.07 54.41-57.08l59.75-21.37 8.31-22.29c-14.88 11.4-38.39 20.06-59.27 28.12-32.19 12.3-47.36 29.27-63.2 61.27V210zm105.3-97.63l3.69-1.93 3.6-2.06 3.48-2.21 3.36-2.38 2.5-2 2.34-20.2-3 2.75-4.11 3.44-4.19 3.16-4.23 2.9-4.28 2.68-4.29 2.48-4.34 2.26-4.35 2.15-8.75 4c-7.21 3.07-14.44 6-21.65 9.13l-8.43 3.89-4.13 2.09-3.79 2.08c-9.9 8.4-14.85 16.56-16.9 25.19l2.69-2.19 4.1-3 4.16-2.8 4.2-2.58 4.25-2.38 4.27-2.21 4.28-2.06 4.29-1.92 8.58-3.53c8.32-3.22 16.71-6.26 25-9.56l4-1.66 3.88-1.73 3.8-1.82zm-72.22 19.81l-.44.31-3.78 3-3.68 3.27-3.6 3.55-1 1.12c-3.44 6.5-5 12.44-4.82 18.19l2.93-3.25 3.88-3.87 1.72-1.55c1-6.85 3.9-13.7 8.81-20.78zM102 121.9l-8.49-3.71c-7.21-2.93-14.47-5.76-21.7-8.7L63 105.66l-4.36-2.07-4.33-2.23L50 99l-4.28-2.6-4.23-2.84-4.17-3.09-4.12-3.37-4-3.68-2.78-2.8q.77 5.28 1.59 10.55l.66 3.58.71 3.23.77 2.65.76 1.8.67.89 3.08 2.43 3.4 2.42 3.55 2.27 3.68 2.13 3.81 2 3.9 1.9 4 1.85 8.31 3.5c8.69 3.48 17.49 6.79 26.19 10.32l8.9 3.85 4.42 2.08 4.4 2.2 4.35 2.36 4.31 2.52 2.31 1.47c-5.1-8.47-11.54-16.61-18.24-24.72z" fill="#231f20" fill-rule="evenodd"/></svg>