<svg xmlns="http://www.w3.org/2000/svg" viewBox="0 0 313 313"><defs><style>.cls-1,.cls-2{fill:#231f20;fill-rule:evenodd}.cls-2{fill:#fff}</style></defs><g id="Layer_2" data-name="Layer 2"><g id="Layer_1-2" data-name="Layer 1"><path class="cls-1" d="M156.5 0A156.5 156.5 0 0045.85 267.17 156.5 156.5 0 00267.16 45.83 155.46 155.46 0 00156.5 0zM55.68 257.34A142.6 142.6 0 11257.33 55.67 142.6 142.6 0 01156.52 299.1a141.68 141.68 0 01-100.84-41.76z"/><path class="cls-2" d="M296.59 93.91C270.65 34 209-3.19 142.81 2.19 94.07 5.13 45.68 37.36 21.27 80.46a131 131 0 00-11.52 26.85c-18.66 55.2-.86 116.27 36.47 156L53.6 269c-26.38-26.83-43.38-63.3-46.5-98.36a149 149 0 0119.1-87.49 153.4 153.4 0 0161.11-59C129.13.44 192.14 2.48 232.38 28.56c23.06 13.19 43.28 34.29 55.88 56.76 7.52 14 15.83 30.49 19.29 53.29-2-18.77-4.65-30.17-11-44.7z"/><path class="cls-2" d="M300.91 167.45c2-30.77-5.07-62.77-20.16-86.52C274.89 72 265 59.39 257.91 51c34.89 32 50 73.61 49.23 118.25-3.63 57.84-48.26 113.14-103.56 129.84-56.66 17.78-117.94 1.76-156.24-42.19-7.32-8-11.18-13.42-17.88-24.6-2-2.9.22-4.91 1.89-2.76 29.79 49.81 86.85 77.74 146.65 69.93 41-6.16 78.63-30.48 101.88-66.73 3.81.49 4.88-2.13 2.75-4.59 10.93-17.31 16.91-38.69 18.29-60.7zM24.51 223.17c-5.34-13.67-13.6-29.55-14.29-60.85a170.56 170.56 0 0018.29 62c1.49 2.77-1.14 5.11-4-1.18z"/><path class="cls-1" d="M157.87 183.74l119.06 47.91c1.9.9 5.8 3.12 7.18 1 1.07-1.61 1.11-2.13-2.08-5l-.5.6-99.84-84.65-20.46-131.48c-.68-2.7-1-3.78-3.26-3.78-2 0-2.18 2.65-2.52 3.67L134.33 142 33.92 221.77c-1.53 1.2-4.37 1.76-6.73-2.51l3 7.34 5.23 6.71a11.6 11.6 0 01-1.25-3.72l.65-1.83 123.07-44z"/><path class="cls-2" d="M278.67 229.93l-118.22-70.57v25.4l-2.37-.9-2.53.73-.05-26.35-123.36 67.42L140 147.82l-7-4.64 1.29-1.18.34-1.91.11-.56 6.57 4.33L155.5 12.55c.23-2.42 1.07-4.09 2.64-4.09 2.08 0 2.53 3 2.53 4.6l1.13 139.34 19.44-11.47.45 2.7 1.86 1.57-6.55 4.05s99.89 75.51 103 78 0 3.82-1.34 2.7zm-125.35-73.15l-6.18-4.1-28.65 21.86 34.83-17.76zm16-3.09l-5.11 3.09 113.27 70.79-108.15-73.88zm-21.68-5.56l7.64 4.94 3.13-142-10.76 137.06z"/><path fill="none" d="M0 0h313v313H0z"/></g></g></svg>