<svg xmlns="http://www.w3.org/2000/svg" viewBox="0 0 313 131.82"><defs><style>.cls-1{fill:#151112}</style></defs><g id="Layer_2" data-name="Layer 2"><g id="Logos"><g id="Mini"><path class="cls-1" d="M156.69 120.4a54.51 54.51 0 10-54.51-54.49 54.5 54.5 0 0054.51 54.49zm0-105a50.46 50.46 0 11-50.45 50.47 50.46 50.46 0 0150.45-50.43z"/><path class="cls-1" d="M8.5 44.17c2.48 3 5.48 6.54 9 10.41 3.23 3.6 6.88 7.53 10.93 11.65 3.3 3.33 6.85 6.84 10.65 10.38 4.1 3.82 8.46 7.72 13.11 11.65 4.13 3.49 8.49 7 13 10.4 5.1 3.84 10.47 7.59 16.06 11.22h26.38a65.87 65.87 0 0098.16 0h26C281.45 77.69 313 33.34 313 33.34h-99a66 66 0 00-114.66 0H0s3 4.14 8.48 10.83zm33 32.44c-3.63-3.37-7.23-6.83-10.75-10.38h60a66.89 66.89 0 00.86 10.38zm230 0h-49.76a64.52 64.52 0 00.87-10.38h59.65Q277 71.56 271.5 76.61zm30.82-32.44c-2.54 3-5.56 6.57-9 10.41h-71.68A66.2 66.2 0 00219 44.17zm-83.6 44.09h39.53c-4.38 3.61-8.8 7.1-13.24 10.4h-31.1a68.08 68.08 0 004.81-10.4zm-62-79.41a57 57 0 11-57 57.06 57 57 0 0156.97-57.06zM99.47 98.66H68c-4.44-3.3-8.85-6.79-13.23-10.4h39.89a67.14 67.14 0 004.81 10.4zm-5-54.49a65.14 65.14 0 00-2.69 10.41h-72c-3.47-3.84-6.49-7.35-9-10.41z"/><path class="cls-1" d="M149.79 51.94h6.89v28.23h-6.89zM129.58 80.17l7.08-16.6v16.6h7V51.94H136l-8 18.61-7.34-18.61h-7.79v28.23h5.92v-17l6.75 17zM168.7 63.15l13.11 17.02h5.33V51.94h-5.99v17.17l-13.21-17.17h-5.16v28.23h5.92V63.15zM193.33 51.94h6.89v28.23h-6.89z"/></g></g></g></svg>