<svg xmlns="http://www.w3.org/2000/svg" viewBox="0 0 313 313"><g data-name="Layer 2"><g data-name="Layer 1"><g data-name="Layer 1"><g data-name="Nissan Badge"><path d="M182.4 167a12.11 12.11 0 01-1.68.07h-32.05v7.45h32.61c.25 0 2.17 0 2.55-.06 6.64-.62 9.68-6.15 9.68-11s-3.16-10.3-9.19-10.86a23.37 23.37 0 00-2.61-.13h-21.3a11.26 11.26 0 01-2.36-.18 3.14 3.14 0 01-2.3-3.17 3.2 3.2 0 012.36-3.11 9.22 9.22 0 012.24-.18h30.74v-7.33h-31.24a19.89 19.89 0 00-3.1.19 10.65 10.65 0 00-.13 21c1.12.12 2.67.12 3.36.12h20.74a11 11 0 011.49.06 3.58 3.58 0 01.19 7.08zM121.66 167a11.5 11.5 0 01-1.61.07H87.94v7.45h32.6c.25 0 2.18 0 2.55-.06 6.64-.62 9.69-6.15 9.69-11s-3.17-10.3-9.19-10.86a23.46 23.46 0 00-2.61-.13h-21.3a11.13 11.13 0 01-2.36-.18 3.13 3.13 0 01-2.3-3.17 3.19 3.19 0 012.36-3.12 9.07 9.07 0 012.23-.18h30.74v-7.33H99.12a19.94 19.94 0 00-3.11.19 10.65 10.65 0 00-.12 21c1.12.12 2.67.12 3.35.12H120a10.81 10.81 0 011.49.06 3.58 3.58 0 01.19 7.08zM63.16 138.21h8.07v36.45h-8.07zM45.34 174.66v-36.45h-8.08v27.2l-26.89-27.2H0v36.45h8.07v-27.32l27.08 27.32h10.19zM304.99 138.21v27.2l-26.89-27.2h-10.37v36.45h8.07v-27.32l27.01 27.32H313v-36.45h-8.01zM225.68 138.21L203 174.67h9.82l4-6.53h26.52l4 6.53h9.75l-22.73-36.46zm13.48 23H221l9.13-14.66zM44.9 117.53a118.2 118.2 0 01223.32 0l.13.37h35.58v-4.28l-14.78-1.74c-9.13-1.06-11-5.09-13.54-10.19l-.62-1.24C253.63 55 207.11 25.56 156.56 25.56a131.1 131.1 0 00-118.43 75l-.62 1.24C35 106.91 33.1 111 24 112l-14.81 1.74V118h35.52zM268.35 195l-.13.37a118.21 118.21 0 01-223.32-.06l-.12-.38H9.25v4.29L24 201c9.13 1.05 11.06 5.09 13.54 10.18l.62 1.24c21.37 45.59 67.88 75 118.43 75s97.1-29.42 118.46-74.93l.63-1.25c2.48-5.09 4.41-9.13 13.53-10.18l14.79-1.74V195z"/></g></g><path fill="none" d="M0 0h313v313H0z"/></g></g></svg>