<svg xmlns="http://www.w3.org/2000/svg" viewBox="0 0 143.75 187.09"><defs><style>.cls-1,.cls-2{fill:#231f20;fill-rule:evenodd}.cls-2{fill:#fff}</style></defs><g id="Layer_2" data-name="Layer 2"><g id="Layer_1-2" data-name="Layer 1"><path class="cls-1" d="M71.87 187.09C37.56 169.39 9.39 144.47 8 114.49L0 9.75C29.25 3.07 47 0 71.87 0v187.09z"/><path class="cls-2" d="M71.87 62.48h-24.2v41.18c0 11.19 9.4 24 24.2 24V62.48z"/><path class="cls-1" d="M71.87 187.09c34.31-17.7 62.49-42.62 63.93-72.6l7.95-104.74C114.49 3.07 96.79 0 71.87 0v187.09z"/><path class="cls-2" d="M71.87 2.89c29.62 0 56.35 6.32 68.81 9.39l-1.34 17.91C107.45 22.21 88.49 21 71.87 21S36.3 22.21 4.4 30.19L3.07 12.28c12.46-3.07 39.19-9.39 68.8-9.39zM98.96 79.17l-.06 19.89 35.04.11 1.56-20.1-36.54.1zM136.97 59.83l1.57-20.73-65.22-.37v20.22h25.64v.87l38.01.01z"/><path class="cls-1" d="M44.79 79.26a12.18 12.18 0 00-2 3.27 8.42 8.42 0 012 1.91v-5.18z"/><path class="cls-2" d="M35.93 159.33c10.53 9.53 23 17.46 34.5 23.56v-23.63l-34.5.07zM70.43 138.94v-8.41a26.34 26.34 0 01-21-11.49H11.2A55.36 55.36 0 0018.7 139h51.73zM71.87 62.48h24.2v41.18c0 11.19-9.39 24-24.2 24V62.48z"/><path class="cls-2" d="M88.51 125.12C95.57 119.69 99 111.34 99 105.46V102l34.88-.11-1.29 17c-4.33 28.53-34 50.74-59.23 64.1v-52.4a27 27 0 0011.09-2.83l-.08.72a13.33 13.33 0 00-.85 4.07c-.14 1.12-1.51 1.23-1.76 1.11a1.92 1.92 0 00-1-.28 2 2 0 00-2 2 1.62 1.62 0 00.08.49 1.67 1.67 0 00-1 1.71 1.85 1.85 0 001.82 2c.45 0 .75.06 1.08-.2a2 2 0 001.5.67c1.1 0 1.66-.29 1.73-2.53 7.36-3.9 18.56-6.88 23.51-6.61 5.61.3 9.68 5.92 10.12 6.28s.79.37.72-.21c-.36-2.31-1.07-5.79-6.54-8.78.36-1.52 3-1.8 3.52-2s.51-.65 0-.65c-3.65-.48-6.26 1.15-6.77 1.8a20.44 20.44 0 00-3.7-.25 8.21 8.21 0 013.11-4.57c-.24.2.43-.58-.08-.58-4 .37-6.55 4.56-6.84 5.64-.36.07-4.75.79-5.47 1 .66-4.26 5.49-7.15 5.92-7.44s.58-.72 0-.72c-6.08.2-10.53 8-10.74 9.71a25.33 25.33 0 00-3.11 1.3c-.25-2.83-.2-3.7.57-5.39l.41-.84z"/><path class="cls-1" d="M82.58 151.77c-.06 1.8-.51 2-1.38 2a1.59 1.59 0 01-1.2-.54 1.21 1.21 0 01-.87.17 1.48 1.48 0 01-1.45-1.6 1.33 1.33 0 01.83-1.37 1.27 1.27 0 01-.06-.39 1.59 1.59 0 011.55-1.56 1.56 1.56 0 01.81.22c.2.1 1.3 0 1.41-.88s2.07-8.12 7-8.81c.52-.11.35.29.11.52.4-.39-4.21 3.28-3.85 7.38a27.69 27.69 0 013-1.22c.17-1.33 4.18-7.34 9-7.51.47 0 .35.35 0 .58s-4.57 2.46-5.1 5.86c.58-.17 3.46-.75 3.75-.81.23-.86 3.28-4.67 6.83-4.59.4 0-.13.62.06.46-1.3 1.09-3.7 2.44-4 3.93a15.37 15.37 0 013 .2 7 7 0 015.6-1.63c.4 0 .3.39 0 .52s-2.26.77-2.55 2c3.16 1.87 4.4 3.82 4.69 5.67.06.46-.23.46-.58.17s-3.69-3.52-8.18-3.76c-4-.21-12.56 1.9-18.45 5zM81 164.13c0 1.22-.62 1.48-1.22 1.48a1.13 1.13 0 01-.82-.37c-.18.14-.34.11-.59.11a1 1 0 01-1-1.09.92.92 0 01.56-.94A1.07 1.07 0 0179 162a1 1 0 01.56.16c.13.06.88 0 1-.61s.39-5.66 3.42-6.2c.36-.08.24.2.08.35a7.51 7.51 0 00-1.28 5.09 14.56 14.56 0 011.66-.7c.12-.9 1.24-5.11 4.56-5.22.32 0 .24.24 0 .4a7 7 0 00-2 4 16.35 16.35 0 012-.55c.15-.59 2.56-3.83 5-3.78.28 0-.09.43 0 .32a7 7 0 00-2.3 3 7.29 7.29 0 011.62 0 3.42 3.42 0 013.29-1.34c.28 0 .21.27 0 .36a2.31 2.31 0 00-1.2 1.44c2.33 1.13 3.33 2.11 3.52 3.38 0 .32-.15.32-.39.12a10.54 10.54 0 00-5.42-1.81c-2.71-.14-8 1.33-12.12 3.84zM51.83 99.19c.22-.68 1-1.49 1-1.9s0-.72.22-1.13a14.44 14.44 0 011.31-1.44 1 1 0 011.72.4c.49 1.09 1.35 3.48 3.07 4.2a16.59 16.59 0 01-3.15 1.13c-.86.18-1.54.32-1.18 2.44a11.59 11.59 0 01.32 3.7 3.41 3.41 0 001.08 3.25l1.13 1.58c.45.41 1.54.86 1.63 0s.36-1.81-.55-1.9a1.72 1.72 0 01-1.08-1.58 3.55 3.55 0 00-.5-2.17 3 3 0 01-.31-2.12c.18-.68.68-1.08 1.8-.86.91.32 5.06 1.45 6.32 0 .86.63 6 2.53 8.94 2.21a17.7 17.7 0 002.4 3.61 2.43 2.43 0 01-.18 3.16c-.59.45-2.13 2-3.39 2.4a4.56 4.56 0 00-2.35 1.17c-.58.59-1 .59-1.31 1.35s-1.17 2.13.14 2.13 1.67-.64 1.76-1 0-1.13.5-1.26a5 5 0 003.07-1.49 7.4 7.4 0 013.95-2.07 1.07 1.07 0 00.82-1.35 2.53 2.53 0 01.36-2c.72.18 3 .68 4.11 2.17a6.08 6.08 0 00.4.9c-.31.54-.95 1-1.17 1.58a4.76 4.76 0 01-1.54 2.26 11.69 11.69 0 00-2.43 2 3.59 3.59 0 00-.73 2.48c.09 1 .36.5.82.5s1.49-.5 1.53-1.17-.27-1 .68-1.4a7.34 7.34 0 003-2.62 8 8 0 012.3-3c.86-.49.68-1.22.27-1.94s-1.81-2.66-1.53-3.93 1.76-2 2.21-4a5.27 5.27 0 00-.09-3.52c.77-.23 1.22 0 2.21.41s3.25.36 3.52-.28a3.49 3.49 0 000-2.16c.63-.54 1.08-1.72.72-2.26a2.52 2.52 0 01-.36-2c-.63-.09-1.31-.63-.86-1a2.47 2.47 0 001-2.58c.14-.77.18-1.71-1.13-1.67 0-.49-.45-2.12-2.48-.63-.31.23-.68-.27-.22-.41s2.79-.9 3.16-1.71a1.71 1.71 0 00.09-1.54c.18-.36.36-1.08.18-1.35s-.91-.23-1.4 1-.43 1.22-1.74 1.46-2.31 0-3.16 1.44a3 3 0 01-1 1.13 2.21 2.21 0 00-1.09 1.44c-.09.5.37 1.4.28 2a3.21 3.21 0 001.21 3.43c.82.9 2 2.07 1.13 3s-1.71 0-2.39-.5a9.44 9.44 0 00-4.33-1c-1.45.09-6.19-1.08-7.32-2s-.44-1.43.14-1.72a1.58 1.58 0 00.9-.81 1 1 0 011-.54c.41 0 .82-.09 1.18-1s.72-.54 1.13-.63a.65.65 0 000-1.22c-.72-.27-1.13-.54-1.08-.81a1.42 1.42 0 011.22-.9c.67 0 .72-.5.67-.86a.66.66 0 01.46-.81c.45-.23.4-.77-.37-1s-1.89-.49-1.89-.86a1.65 1.65 0 011-1.17c.5-.18.72-.95-.41-.9s-1.76.18-2-.54-.27-1.13.9-1.58c.5-.14.63-.82-.27-.77s-1.94.49-2.26.18-.22-.59 0-.72a.33.33 0 00-.23-.59c-.45 0-2.21.68-2.66.18a1.41 1.41 0 00-1.76-.41c-.59.37-.59.91-.27 1.22a.34.34 0 11-.45.5.6.6 0 01-.23-.68 1.44 1.44 0 00-.59-.77c-.31-.18-.31-.67-.22-1s-.27-.63-.82-.31a1.36 1.36 0 00-.76 1.67c-.59 0-2.08.4-2.12.85s.18 1 .09 1.13-.59.18-.86.36c-.77.77-2.08 1.49-2.39 1.81a13.19 13.19 0 00-1 1.13 1 1 0 00-.27 1.22c.49.72.9.22 1.17.63s.27.5.23.72.49.72 1.3 0 1.4-1.4 2-.64 0 1.22-.23 1.72c-.54.54-1.81 2.21-2.39 2.71a5.43 5.43 0 00-1.27 2.75 2.66 2.66 0 01-.72 1.58 12.17 12.17 0 01-3-1.44A1.37 1.37 0 0054 92a22.72 22.72 0 00-2.35 3.52c-.41 1-1 .59-1 2.39 0 .63-.5.91-.77 1.9 0 .27-.77 1.94 0 2.26a1.42 1.42 0 001.76-.55 13.85 13.85 0 00.27-2.34z"/><path class="cls-2" d="M44.79 59.59h25.64V24c-14.31.2-33.78 1-65.76 9.36l5 65.77h35.1V87c-1-.77-2.49-2-7-2-2.67 0-10.24 2.52-14.64 7.92-.07 1.89-1.15 2.59-2.08 2.59a1.68 1.68 0 01-1.26-.57 1.55 1.55 0 01-1 .33 1.68 1.68 0 01-1.68-1.68 1.81 1.81 0 011.1-1.6 1.41 1.41 0 01-.07-.41 1.68 1.68 0 011.68-1.68 1.65 1.65 0 01.86.23c.21.11.88.56 1-.38s0-10.44 5-11.87c.54-.12.36.3.12.55a15.6 15.6 0 00-2.18 9 23.38 23.38 0 012.72-1.67c.25-1 2-8.88 6.17-9 .48 0 .36.37 0 .61s-2.19 2.4-2.55 6.24c.61-.19 2.13-.45 2.43-.51.25-.91 2-6.17 5.46-6.48.43 0 .24.44.06.63a12.72 12.72 0 00-2.35 5.14 10.14 10.14 0 012.45.11c.37-.48 3.26-3.65 5.73-4.69V67.07c-.47-.43-1.21-.89-3.49-.89-3.56 0-9.51 1.46-17.72 6.82-.08 2.52-1.52 3.46-2.76 3.46a2.22 2.22 0 01-1.68-.76 2.11 2.11 0 01-1.33.44 2.25 2.25 0 01-2.24-2.24A2.45 2.45 0 0117 71.76a1.63 1.63 0 01-.08-.55A2.24 2.24 0 0119.2 69a2.19 2.19 0 011.14.32c.28.14 1.42.62 1.58-.64S24.1 56.09 31 55.11c.73-.16.48.41.16.74s-5.71 4.74-5.31 11.22A44.09 44.09 0 0130.21 65c.33-1.38 3.38-9.8 8.94-9.91.65 0 .49.49 0 .81a10.63 10.63 0 00-4.36 7.83c.81-.24 3.32-.83 3.73-.91.32-1.22 2.48-6.07 7-6.47.57 0 .33.58.08.83a8.23 8.23 0 00-3.13 5.17 10.53 10.53 0 012.3.3v-3z"/><path class="cls-1" d="M22.57 53.18C22.48 56 20.88 57 19.5 57a2.5 2.5 0 01-1.87-.85 2.27 2.27 0 01-1.47.49 2.5 2.5 0 01-2.49-2.49 2.69 2.69 0 011.63-2.37 2.1 2.1 0 01-.09-.61 2.48 2.48 0 012.49-2.49 2.4 2.4 0 011.27.35c.31.15 1.57.69 1.75-.71s2.12-14.76 9.8-15.84c.81-.19.54.45.18.81s-6.32 5.15-5.6 13.27a55.65 55.65 0 015.24-2.53c.27-2.07 3.25-11.74 9.93-11.92.72 0 .54.55 0 .91a13.65 13.65 0 00-5.15 9.3c.91-.27 3.8-.72 4.25-.82.36-1.35 3.16-7.94 8.21-8.39.64 0 .37.45.09.72s-3.88 3.34-3.88 7a20 20 0 014.07.09 10.91 10.91 0 017.22-4.06c.63 0 .36.45 0 .81s-2.71 2.42-3.16 4.33c1.35.72 5.24 3.34 5.69 6.23.09.72-.36.72-.91.27a16.83 16.83 0 00-9.93-3.79c-5.24 0-15.08 2.52-24.2 8.48zM62 16.27v2.09l-3.12.15v-1.83c0-1.83-1-3-2.71-2.85l-8.62.56.09 5-3.11.14-.34-12.47 12.94-.86c2.37-.2 4.45.29 4.45 3.54a5.43 5.43 0 01-.83 2.71C61.4 13 62 14.31 62 16.27zM6.68 27.18l-.9-12.55 12.87-2.89c1.62-.36 3.92-.14 4 2.75s-.45 4.11-2.48 4.56L9.39 21.49l.41 5-3.12.72z"/><path class="cls-2" d="M9.12 16.75l.09 1.85 9-2a1.06 1.06 0 00.86-1.21c0-.32-.36-.77-1.26-.59s-8.67 1.94-8.67 1.94z"/><path class="cls-1" d="M24.61 13.14c0-1.18-.05-2.89 3.16-3.39L38.19 8c1.27-.23 4.11.63 4.11 3l.14 6.05c0 1.26 0 2.93-3.43 3.43L29.35 22c-1.72.32-4.52 0-4.61-3.2l-.13-5.69z"/><path class="cls-2" d="M27.77 14.54c0-.95-.05-1.85 1.62-2.17l8-1.35a1.49 1.49 0 011.76 1.35l.09 3.7a1.71 1.71 0 01-1.58 1.76l-7.9 1.27c-1.08.18-1.8.22-1.89-1.18l-.09-3.38z"/><path class="cls-1" d="M68.62 10.79a1.09 1.09 0 010-2.17h12.73V5.91H67.13c-.72 0-3.16.16-3.13 3.84s2.59 3.75 3.13 3.75h10a1.08 1.08 0 011.09 1.08 1 1 0 01-1.09 1H64.38v2.7h14.17c.91 0 3.28.14 3.28-3.77s-2.67-3.72-3.28-3.72h-9.93zM103.66 7.45l-.77 12.82 2.98.41.36-5.51 10.47 1.99-.36 5.23 2.98.54.77-12.77-2.93-.54-.32 4.96-10.48-1.98.28-4.7-2.98-.45zM122.12 23.34l.72-12.64 14.36 3.02-.18 2.58-11.33-2.4-.09 2.35 11.24 2.4-.18 2.57-11.24-2.39-.14 2.57 11.2 2.39-.23 2.58-14.13-3.03zM100.81 10l.14-2.8-13.23-1c-1.13-.1-3.3-.19-3.48 3.52S84 15.08 84 15.08a3.39 3.39 0 003.12 3.57l13.18 1 .14-2.8-11-.81c-1-.05-2.17-.36-2.08-2.26l.09-2.71c0-1.08.41-2.08 2.13-1.94l11.28.9z"/><path class="cls-2" d="M56.71 11.1l-9.24.52v-2l9.36-.49c.73 0 1 .27 1.06.93s-.5 1-1.14 1z"/><path class="cls-1" d="M51 70.45c.14.76.49 1.08 1.2 1.08s1-.32 1-.77c0-.24-.13-.4-.48-.57l-1.65-.76A1.63 1.63 0 0150 67.79a1.87 1.87 0 012-2 2 2 0 012.11 2.12h-1.06c-.11-.72-.41-1-1-1s-.93.31-.93.76a.57.57 0 00.38.49l1.7.79a1.59 1.59 0 011.1 1.65 2.08 2.08 0 01-.68 1.57 1.91 1.91 0 01-1.43.47 2 2 0 01-1.92-.95 2.24 2.24 0 01-.27-1.24h1zM59.02 65.92v1.19h-1.6v5.39h-1.11v-5.39h-1.64v-1.19h4.35zM64.14 65.92V70c0 1.5-.44 2.64-2.18 2.64S59.79 71.5 59.79 70v-4.08h1.11v4c0 1.06.29 1.48 1 1.48S63 71 63 70v-4zM69.07 65.92v1.19h-1.6v5.39h-1.11v-5.39h-1.64v-1.19h4.35zM76.52 68.94h2.24v3.57H78l-.11-.84a1.83 1.83 0 01-1.62 1c-1.45 0-2.48-1.39-2.48-3.36s1-3.47 2.64-3.47A2.25 2.25 0 0178.76 68h-1.13c-.22-.72-.58-1-1.19-1-.93 0-1.51.86-1.51 2.23s.6 2.22 1.51 2.22c.7 0 1.16-.49 1.3-1.37h-1.22v-1.14zM81.31 65.92h1.25l1.91 6.58h-1.21l-.37-1.38h-1.96l-.38 1.38h-1.16l1.92-6.58zM87.46 65.92c.77 0 1.06.08 1.39.38a2 2 0 01.56 1.52 1.52 1.52 0 01-.77 1.52c.52.28.59.47.63 1.74 0 1.06.06 1.23.24 1.43h-1.23a2.86 2.86 0 01-.14-1c0-1 .11-1.57-.92-1.57h-1v2.61h-1.13v-6.63zM94.37 65.92v1.19h-1.6v5.39h-1.11v-5.39h-1.63v-1.19h4.34zM73.94 65.92v1.19h-1.6v5.39h-1.11v-5.39H69.6v-1.19h4.34z"/><path class="cls-2" d="M82.59 70l-.68-2.57-.67 2.57h1.35zM86.2 68.79h1.06c.76 0 1-.2 1-.84s-.24-.84-1-.84H86.2v1.68z"/></g></g></svg>