<svg xmlns="http://www.w3.org/2000/svg" xmlns:xlink="http://www.w3.org/1999/xlink" viewBox="0 0 313 313"><defs><radialGradient id="a" cx="-107.32" cy="572.96" r="145.22" gradientTransform="matrix(-1 0 0 1 32.52 -523.67)" gradientUnits="userSpaceOnUse"><stop offset="0" stop-color="#fff"/><stop offset="1" stop-color="#ccc"/></radialGradient><radialGradient id="c" cx="-107.24" cy="572.96" r="145.22" gradientTransform="translate(282.64 -523.67)" xlink:href="#a"/><radialGradient id="e" cx="-107.24" cy="514.49" r="145.22" gradientTransform="matrix(1 0 0 -1 282.64 778.3)" gradientUnits="userSpaceOnUse"><stop offset="0" stop-color="#ccc"/><stop offset="1" stop-color="#666"/></radialGradient><radialGradient id="f" cx="-176.13" cy="595.65" r="63.85" gradientTransform="matrix(1 0 0 -1 282.64 778.3)" xlink:href="#a"/><radialGradient id="g" cx="-107.32" cy="514.49" r="145.22" gradientTransform="rotate(180 16.26 389.15)" gradientUnits="userSpaceOnUse"><stop offset="0" stop-color="#e6e6e6"/><stop offset="1" stop-color="#999"/></radialGradient><linearGradient id="b" x1="-236.02" y1="555.29" x2="-112.82" y2="687.41" gradientTransform="matrix(-.58 0 0 .58 85.62 -246.55)" gradientUnits="userSpaceOnUse"><stop offset=".09"/><stop offset=".91" stop-color="#4d4d4d"/></linearGradient><linearGradient id="d" x1="-164.26" y1="685.54" x2="-126.11" y2="444.66" gradientTransform="matrix(.58 0 0 .58 230.05 -246.55)" gradientUnits="userSpaceOnUse"><stop offset=".02" stop-color="#7f7f7f"/><stop offset=".98" stop-color="#ccc"/></linearGradient><linearGradient id="h" x1="-261.52" y1="403.3" x2="-27.39" y2="538.48" gradientTransform="matrix(-.58 0 0 -.58 85.62 505.24)" xlink:href="#b"/></defs><g data-name="Layer 2"><g data-name="Page 1"><g data-name="Layer 1"><path d="M122.63 0h70l94.25 156.5L192.62 313h-70L28.38 156.5 122.63 0M157 83.84l-42 72.65 43.28 72.67 42.07-72.65L157 83.84" fill-rule="evenodd"/><path fill="url(#a)" fill-rule="evenodd" d="M191.63 1.75h-68.01l90.67 154.75h70.53L191.63 1.75z"/><path fill="url(#b)" fill-rule="evenodd" d="M159.22 65.46l55.07 91.04h-11.96l-45.34-76.13 2.23-14.91z"/><path fill="url(#c)" fill-rule="evenodd" d="M123.62 1.75h68.01L100.95 156.5H30.42l93.2-154.75z"/><path fill="url(#d)" fill-rule="evenodd" d="M191.63 1.75L100.95 156.5h11.96l44.08-76.13 2.23-14.91 32.41-63.71z"/><path fill="url(#e)" fill-rule="evenodd" d="M123.62 311.25h68.01L100.95 156.5H30.42l93.2 154.75z"/><path fill="url(#f)" fill-rule="evenodd" d="M156.02 247.54l-55.07-91.04h11.96l45.34 76.13-2.23 14.91z"/><path fill="url(#g)" fill-rule="evenodd" d="M191.63 311.25h-68.01l90.67-154.75h70.53l-93.19 154.75z"/><path fill="url(#h)" fill-rule="evenodd" d="M123.62 311.25l90.67-154.75h-11.96l-44.08 76.13-2.23 14.91-32.4 63.71z"/><path fill="none" d="M0 0h313v313H0z"/></g></g></g></svg>