<svg xmlns="http://www.w3.org/2000/svg" viewBox="0 0 313 313"><defs><style>.cls-1{fill:#e82127}</style></defs><g id="Layer_2" data-name="Layer 2"><g id="Layer_1-2" data-name="Layer 1"><g id="T"><path id="path35" class="cls-1" d="M156.52 312.33l43.79-246.27c41.73 0 54.9 4.58 56.8 23.26 0 0 28-10.44 42.12-31.64C244.12 32.15 188.75 31 188.75 31l-32.31 39.35h.08L124.21 31S68.84 32.14 13.74 57.68c14.11 21.2 42.12 31.64 42.12 31.64C57.77 70.64 70.92 66.06 112.38 66l44.14 246.3"/><path id="path37" class="cls-1" d="M156.5 19.63c44.55-.34 95.53 6.89 147.73 29.64 7-12.56 8.77-18.11 8.77-18.11A428.43 428.43 0 00156.49.67 428.33 428.33 0 000 31.16a152.42 152.42 0 008.76 18.11C61 26.52 112 19.29 156.49 19.63"/></g><path fill="none" d="M0 0h313v313H0z"/></g></g></svg>