<svg id="Layer_1" data-name="Layer 1" xmlns="http://www.w3.org/2000/svg" xmlns:xlink="http://www.w3.org/1999/xlink" viewBox="0 0 313 313"><defs><linearGradient id="linear-gradient" x1="156.5" y1="72.26" x2="156.5" y2="242.42" gradientUnits="userSpaceOnUse"><stop offset="0" stop-color="#fff"/><stop offset=".88" stop-color="#999"/></linearGradient><linearGradient id="linear-gradient-2" x1="133.15" y1="113.2" x2="179.85" y2="113.2" gradientUnits="userSpaceOnUse"><stop offset="0" stop-color="#616161"/><stop offset="1" stop-color="#fff"/></linearGradient><linearGradient id="linear-gradient-3" x1="131.84" y1="181.98" x2="181.15" y2="181.98" gradientUnits="userSpaceOnUse"><stop offset="0" stop-color="#fff"/><stop offset="1" stop-color="#616161"/></linearGradient><linearGradient id="linear-gradient-4" x1="156.5" y1="59.97" x2="156.5" y2="253.03" gradientUnits="userSpaceOnUse"><stop offset="0" stop-color="#f2f2f2"/><stop offset=".88" stop-color="#616161"/></linearGradient><linearGradient id="linear-gradient-5" x1="156.5" y1="61.76" x2="156.5" y2="148.81" gradientUnits="userSpaceOnUse"><stop offset=".22" stop-color="#f2f2f2"/><stop offset=".88" stop-color="#d9d9d9"/></linearGradient><linearGradient id="linear-gradient-6" x1="156.5" y1="154.49" x2="156.5" y2="106.24" gradientUnits="userSpaceOnUse"><stop offset=".01" stop-color="#fff"/><stop offset=".4" stop-color="#616161"/></linearGradient><linearGradient id="linear-gradient-7" x1="156.5" y1="102.3" x2="194.62" y2="102.3" gradientUnits="userSpaceOnUse"><stop offset="0" stop-color="#fff"/><stop offset=".88" stop-color="#616161"/></linearGradient><linearGradient id="linear-gradient-8" x1="118.38" y1="102.3" x2="156.5" y2="102.3" xlink:href="#linear-gradient-2"/><linearGradient id="linear-gradient-9" x1="116.11" y1="194.35" x2="156.5" y2="194.35" xlink:href="#linear-gradient-2"/><linearGradient id="linear-gradient-10" x1="156.5" y1="194.35" x2="196.89" y2="194.35" xlink:href="#linear-gradient-7"/><linearGradient id="linear-gradient-11" x1="156.5" y1="243.33" x2="156.5" y2="98.79" gradientUnits="userSpaceOnUse"><stop offset="0"/><stop offset=".88" stop-color="#616161"/></linearGradient><linearGradient id="linear-gradient-12" x1="156.5" y1="134.66" x2="156.5" y2="72.26" gradientUnits="userSpaceOnUse"><stop offset=".16" stop-color="#d9d9d9"/><stop offset="1"/></linearGradient><style>.cls-2{fill:#fff}.cls-2,.cls-3,.cls-6{fill-rule:evenodd}.cls-3{fill:#231f20}.cls-6{fill:#434e58}</style></defs><ellipse cx="156.5" cy="157.34" rx="36.58" ry="85.08" fill="url(#linear-gradient)"/><path class="cls-2" d="M156.5 216.28c13.62 0 24.66-26.66 24.66-61.86 0-36.52-11-61.68-24.66-61.68s-24.66 25.16-24.66 61.68c0 35.2 11 61.86 24.66 61.86z"/><path class="cls-3" d="M0 156.5c0 53.65 70.21 97.29 156.5 97.29S313 210.15 313 156.5s-70.21-97.29-156.5-97.29S0 102.86 0 156.5zm1.52 0c0-52.81 69.52-95.77 155-95.77s155 43 155 95.77-69.52 95.77-155 95.77-155-43-155-95.77z"/><path class="cls-3" d="M141.66 77.19c-35.8 2.19-62.73 11.79-67 23.9a10.51 10.51 0 00-.62 3.5 11 11 0 001.62 5.6c4.88 8.31 20.42 15.25 42.63 19l.75.14.12-.76c3.79-23.11 12.2-41.36 23.05-50L144 77l-2.38.15zm-64.72 32.23a9.49 9.49 0 01-1.41-4.84 9 9 0 01.53-3c4-11.11 30-20.36 63.56-22.73-10.23 9.28-18.12 26.78-21.84 48.72-21-3.68-36.31-10.43-40.84-18.16l-2.31-8.33 2.31 8.33zM136.42 130.61l-.14.82.84.07c6.3.48 12.83.72 19.38.72s13.07-.24 19.38-.72l.83-.07-.14-.82c-3.45-19.35-11.14-31.37-20.07-31.37s-16.62 12-20.08 31.37zm20.08-29.86c8 0 15 11.22 18.4 29.28-6 .43-12.18.67-18.4.67s-12.4-.24-18.4-.67c3.37-18.06 10.38-29.28 18.4-29.28zM170.82 78.54c10.85 8.7 19.25 26.94 23 50.05l.13.76.75-.14c22.21-3.77 37.75-10.71 42.62-19a10.39 10.39 0 001-9.1c-4.29-12.11-31.22-21.71-67-23.9L169 77l1.86 1.5zm2.56.32C207 81.23 233 90.48 236.93 101.59a9 9 0 01.53 3 9.57 9.57 0 01-1.4 4.84c-4.54 7.73-19.79 14.48-40.85 18.16-3.72-21.94-11.61-39.44-21.83-48.72zM50.71 111.33c-16.24 13.6-24.83 29.72-24.83 46.6 0 40 49.23 73.91 114.51 78.78l2.31.18-1.76-1.51c-14.85-12.71-24.08-42.61-24.08-78l.13-6.91-.63-.12c-36-6.47-60.69-21.25-64.41-38.56l-.27-1.22-1 .8zm-23.31 46.6c0-16.1 8.12-31.5 23.41-44.64 4.69 17.28 29.2 31.9 64.64 38.38 0 1.05-.1 5.67-.1 5.67 0 34.53 8.76 63.91 23 77.63-63.37-5.4-110.91-38.25-110.91-77zM134.47 153.56v.88c0 31 9.67 55.36 22 55.36s22-24.32 22-55.36v-1.7l-.82.07c-6.91.61-14 .92-21.2.92s-14.29-.31-21.2-.92l-.82-.07v.82zm1.51.88v-.06c6.7.56 13.6.86 20.52.86s13.81-.3 20.51-.86v.06c0 30.19-9 53.84-20.51 53.84S136 184.63 136 154.44zM261.05 111.75c-3.72 17.31-28.41 32.09-64.41 38.56l-.64.11.13 6.92c0 35.43-9.23 65.33-24.07 78l-1.76 1.51 2.31-.18c65.28-4.87 114.5-38.74 114.5-78.78 0-16.88-8.58-33-24.83-46.6l-1-.8-.27 1.22zm1.13 1.54c15.3 13.14 23.42 28.54 23.42 44.64 0 38.79-47.54 71.64-110.92 77 14.21-13.72 23-43.1 23-77.63 0 0-.08-4.62-.1-5.67 35.44-6.48 60-21.1 64.64-38.38z"/><path d="M137.17 130.75l-4 2.9c3.3-24.94 12.5-40.91 23.35-40.91s20.05 16 23.35 40.91l-4-2.9c-3.42-18.92-10.8-30.75-19.37-30.75s-16 11.84-19.32 30.76z" fill="url(#linear-gradient-2)" fill-rule="evenodd"/><path d="M181 147.68l-3.26 5.89v.87c0 31.07-9.53 54.6-21.27 54.6s-21.28-23.53-21.28-54.6v-1l-3.19-5.76c-.08 2.2-.13 4.45-.13 6.74 0 35.2 11 61.86 24.66 61.86s24.65-26.66 24.65-61.86q0-3.43-.12-6.74z" fill="url(#linear-gradient-3)" fill-rule="evenodd"/><path class="cls-6" d="M261.27 111.47a80.73 80.73 0 0115.1 16.18 55.64 55.64 0 00-10.63-25.27c-1.49-1.18-3-2.35-4.61-3.48a19.57 19.57 0 01.59 1.89 18.49 18.49 0 01-.45 10.68zM51.73 111.47a18.49 18.49 0 01-.45-10.68 11.65 11.65 0 01.74-2q-2.46 1.75-4.77 3.6a55.75 55.75 0 00-10.62 25.26 80.73 80.73 0 0115.1-16.18z"/><path d="M.76 156.5C.76 103.19 70.49 60 156.5 60s155.74 43.22 155.74 96.53S242.51 253 156.5 253 .76 209.81.76 156.5zm155.74 86.83c76.8 0 139.06-39 139.06-87.08S233.3 69.18 156.5 69.18s-139.07 39-139.07 87.07 62.26 87.08 139.07 87.08z" fill="url(#linear-gradient-4)" fill-rule="evenodd"/><path class="cls-2" d="M16.52 156.25c0 48.52 62.8 88 140 88s140-39.47 140-88-62.79-88-140-88-140 39.47-140 88zm1.82 0c0-47.5 62-86.16 138.16-86.16s138.16 38.66 138.16 86.16-62 86.17-138.16 86.17-138.16-38.66-138.16-86.17z"/><path d="M119.91 157.34c0-46.5 16.39-85.08 36.59-85.08s36.58 38.58 36.58 85.08c0 47-16.37 85.08-36.58 85.08s-36.59-38.09-36.59-85.08z" fill="none" fill-rule="evenodd"/><path d="M51.27 100.79c4-15.9 52.56-39 105.23-39s99.53 16.53 105.22 39c6.37 25.22-40.42 48-105.22 48S44.91 126 51.27 100.79zM156.5 72.26c-45.23 0-85.47 11.85-90.35 28-5.47 18.07 34.69 34.42 90.35 34.42s95.82-16.35 90.35-34.42c-4.88-16.13-45.13-28-90.35-28z" fill="url(#linear-gradient-5)" fill-rule="evenodd"/><path d="M131.94 147.67l3.34 5.89c6.81.59 13.88.92 21.19.92s14.45-.33 21.27-.93l3.26-5.88c-7.82.74-16 1.14-24.54 1.14s-16.73-.4-24.56-1.14zm130.34-41.43c-.85 18-28.55 34-69.53 40l4 4.77c40.08-7.2 66.45-24.89 65.51-44.8zm-211.56 0c-.95 19.92 25.42 37.6 65.51 44.8l4-4.77c-41-6-68.67-22-69.52-40z" fill="url(#linear-gradient-6)" fill-rule="evenodd"/><path d="M191.45 132.33l3.16-3.84c-5.51-33.63-20.51-56.23-38.11-56.23 16.43 0 30.33 25.52 34.95 60.07z" fill="url(#linear-gradient-7)" fill-rule="evenodd"/><path d="M121.55 132.33c4.61-34.55 18.52-60.07 35-60.07-17.6 0-32.6 22.6-38.12 56.23l3.17 3.84z" fill="url(#linear-gradient-8)" fill-rule="evenodd"/><path d="M119.91 157.34c0-3.75.12-7.44.33-11.07l-4 4.77c-.08 2.08-.12 4.17-.12 6.3 0 49.75 17.74 85.08 40.39 85.08-20.2 0-36.59-38.09-36.59-85.08z" fill="url(#linear-gradient-9)" fill-rule="evenodd"/><path d="M196.77 151l-4-4.77c.2 3.63.32 7.32.32 11.07 0 47-16.37 85.08-36.58 85.08 22.65 0 40.39-35.33 40.39-85.08 0-2.13 0-4.22-.12-6.3z" fill="url(#linear-gradient-10)" fill-rule="evenodd"/><path d="M261.13 98.9a19.57 19.57 0 01.59 1.89 18.49 18.49 0 01-.45 10.68c15.77 13 25.09 29.07 25.09 46.46 0 43.42-58.15 78.62-129.86 78.62s-129.86-35.2-129.86-78.62c0-17.38 9.32-33.45 25.09-46.46a18.49 18.49 0 01-.45-10.68 11.65 11.65 0 01.74-2c-21.52 15.33-34.59 35.44-34.59 57.46 0 48.1 62.26 87.08 139.07 87.08s139.06-39 139.06-87.08c0-22-13-42-34.43-57.35z" fill="url(#linear-gradient-11)" fill-rule="evenodd"/><path d="M175.82 130.74c-6.13.46-12.59.72-19.32.72s-13.19-.26-19.32-.72l-4 2.9c7.4.65 15.2 1 23.35 1s15.95-.36 23.34-1l-4-2.9zm71-30.5c-4.88-16.13-45.13-28-90.35-28s-85.47 11.87-90.32 28c-4.24 14 18.9 26.94 55.39 32.09l-3.17-3.86c-29.52-5-47.06-15.73-43-27.13 4.9-13.82 40.54-23.84 81.15-23.84s76.25 10 81.14 23.84c4.05 11.4-13.49 22.11-43 27.13l-3.17 3.86c36.49-5.15 59.62-18.1 55.39-32.09z" fill="url(#linear-gradient-12)" fill-rule="evenodd"/></svg>