<?xml version="1.0" encoding="utf-8"?>
<!-- Generator: Adobe Illustrator 22.0.0, SVG Export Plug-In . SVG Version: 6.00 Build 0)  -->
<svg version="1.1" id="Layer_1" xmlns="http://www.w3.org/2000/svg" xmlns:xlink="http://www.w3.org/1999/xlink" x="0px" y="0px"
	 viewBox="0 0 137 38" style="enable-background:new 0 0 137 38;" xml:space="preserve">
<style type="text/css">
	.st0{fill:#B1B1B1;}
	.st1{fill:#43AA34;}
	.st2{fill:#FFFFFF;}
</style>
<title>afiliado-amvo-color copy</title>
<desc>Created with Sketch.</desc>
<g id="Group" transform="translate(0.000000, 7.037037)">
	<path id="Shape" class="st0" d="M0.2,11.9c0-0.9,0.1-1.7,0.4-2.5c0.3-0.8,0.7-1.4,1.1-2s1-1,1.7-1.3c0.6-0.3,1.3-0.5,2.1-0.5
		c0.7,0,1.4,0.2,2,0.5s1.1,0.8,1.6,1.3V5.7h3v12.4h-3v-1.7c-0.5,0.6-1,1-1.6,1.3s-1.3,0.5-2,0.5c-0.7,0-1.4-0.2-2.1-0.5
		s-1.2-0.8-1.7-1.3c-0.5-0.6-0.8-1.2-1.1-2C0.3,13.6,0.2,12.8,0.2,11.9z M3.2,11.9c0,0.4,0.1,0.8,0.2,1.2c0.1,0.4,0.3,0.7,0.6,1
		c0.3,0.3,0.6,0.5,0.9,0.7C5.3,14.9,5.7,15,6.1,15c0.4,0,0.8-0.1,1.1-0.2c0.4-0.2,0.7-0.4,0.9-0.7c0.3-0.3,0.5-0.6,0.6-1
		c0.2-0.4,0.2-0.8,0.2-1.2c0-0.4-0.1-0.8-0.2-1.2c-0.2-0.4-0.4-0.7-0.6-1C7.9,9.5,7.6,9.3,7.3,9.1C6.9,8.9,6.5,8.9,6.1,8.9
		C5.7,8.9,5.3,8.9,5,9.1C4.6,9.3,4.3,9.5,4.1,9.8c-0.3,0.3-0.5,0.6-0.6,1C3.3,11.1,3.2,11.5,3.2,11.9z"/>
	<path id="Path" class="st0" d="M13.5,5.7h0.8V5.6c0-0.6,0.1-1.1,0.2-1.7s0.4-1,0.7-1.4c0.3-0.4,0.8-0.7,1.3-0.9
		c0.5-0.2,1.2-0.2,2-0.1v2.4c-0.4,0-0.7,0.1-0.9,0.3c-0.2,0.2-0.3,0.5-0.3,1v0.5h1.4v2.6h-1.4v9.8h-3V8.3h-0.8V5.7z"/>
	<polygon id="Path_1_" class="st0" points="22.8,5.7 22.8,18.1 19.8,18.1 19.8,5.7 	"/>
	<path id="Path_2_" class="st1" d="M19.6,2.2c0-0.5,0.2-1,0.5-1.4s0.8-0.6,1.3-0.6c0.5,0,1,0.2,1.3,0.6c0.3,0.4,0.5,0.8,0.5,1.4
		c0,0.5-0.2,0.9-0.5,1.3c-0.3,0.4-0.8,0.6-1.3,0.6c-0.5,0-0.9-0.2-1.3-0.6S19.6,2.7,19.6,2.2z"/>
	<polygon id="Path_3_" class="st0" points="27.8,2.2 27.8,18.1 24.8,18.1 24.8,2.2 	"/>
	<polygon id="Path_4_" class="st0" points="32.5,5.7 32.5,18.1 29.5,18.1 29.5,5.7 	"/>
	<path id="Path_5_" class="st1" d="M29.3,2.2c0-0.5,0.2-1,0.5-1.4s0.8-0.6,1.3-0.6c0.5,0,1,0.2,1.3,0.6c0.3,0.4,0.5,0.8,0.5,1.4
		c0,0.5-0.2,0.9-0.5,1.3c-0.3,0.4-0.8,0.6-1.3,0.6c-0.5,0-0.9-0.2-1.3-0.6S29.3,2.7,29.3,2.2z"/>
	<path id="Shape_1_" class="st0" d="M33.9,11.9c0-0.9,0.1-1.7,0.4-2.5c0.3-0.8,0.7-1.4,1.1-2s1-1,1.7-1.3c0.6-0.3,1.3-0.5,2.1-0.5
		c0.7,0,1.4,0.2,2,0.5c0.6,0.3,1.1,0.8,1.6,1.3V5.7h3v12.4h-3v-1.7c-0.5,0.6-1,1-1.6,1.3c-0.6,0.3-1.3,0.5-2,0.5
		c-0.7,0-1.4-0.2-2.1-0.5c-0.6-0.3-1.2-0.8-1.7-1.3c-0.5-0.6-0.8-1.2-1.1-2C34.1,13.6,33.9,12.8,33.9,11.9z M37,11.9
		c0,0.4,0.1,0.8,0.2,1.2c0.1,0.4,0.3,0.7,0.6,1c0.3,0.3,0.6,0.5,0.9,0.7c0.3,0.2,0.7,0.2,1.2,0.2c0.4,0,0.8-0.1,1.1-0.2
		c0.4-0.2,0.7-0.4,0.9-0.7c0.3-0.3,0.5-0.6,0.6-1c0.2-0.4,0.2-0.8,0.2-1.2c0-0.4-0.1-0.8-0.2-1.2c-0.2-0.4-0.4-0.7-0.6-1
		c-0.3-0.3-0.6-0.5-0.9-0.7c-0.4-0.2-0.7-0.2-1.1-0.2c-0.4,0-0.8,0.1-1.2,0.2c-0.3,0.2-0.7,0.4-0.9,0.7c-0.3,0.3-0.5,0.6-0.6,1
		S37,11.5,37,11.9z"/>
	<path id="Shape_2_" class="st0" d="M46.9,11.9c0-0.9,0.1-1.7,0.4-2.5c0.3-0.8,0.7-1.4,1.1-2c0.5-0.6,1-1,1.7-1.3
		c0.6-0.3,1.3-0.5,2.1-0.5c0.7,0,1.4,0.2,2,0.5s1.1,0.7,1.6,1.3V2.2h3v15.9h-3v-1.6c-0.5,0.5-1,1-1.6,1.3c-0.6,0.3-1.3,0.4-2,0.4
		c-0.7,0-1.4-0.2-2.1-0.5c-0.6-0.3-1.2-0.8-1.7-1.3c-0.5-0.6-0.8-1.2-1.1-2C47.1,13.6,46.9,12.8,46.9,11.9z M49.9,11.9
		c0,0.4,0.1,0.8,0.2,1.2c0.1,0.4,0.3,0.7,0.6,1c0.3,0.3,0.6,0.5,0.9,0.7s0.7,0.2,1.2,0.2c0.4,0,0.7-0.1,1.1-0.2
		c0.3-0.1,0.6-0.3,0.9-0.6c0.3-0.2,0.5-0.5,0.6-0.8c0.2-0.3,0.3-0.7,0.3-1.1v-0.8c0-0.4-0.2-0.7-0.3-1.1s-0.4-0.6-0.6-0.9
		c-0.3-0.2-0.6-0.4-0.9-0.6c-0.3-0.1-0.7-0.2-1.1-0.2c-0.4,0-0.8,0.1-1.2,0.2s-0.7,0.4-0.9,0.7c-0.3,0.3-0.5,0.6-0.6,1
		C50,11.1,49.9,11.5,49.9,11.9z"/>
	<path id="Shape_3_" class="st0" d="M71.7,11.9c0,0.9-0.2,1.7-0.5,2.4c-0.3,0.8-0.7,1.4-1.3,2c-0.5,0.6-1.2,1-1.9,1.3
		c-0.7,0.3-1.5,0.5-2.3,0.5c-0.8,0-1.6-0.2-2.3-0.5s-1.4-0.8-1.9-1.3c-0.5-0.6-1-1.2-1.3-2c-0.3-0.8-0.5-1.6-0.5-2.4
		c0-0.9,0.2-1.7,0.5-2.5c0.3-0.8,0.7-1.4,1.3-2c0.5-0.6,1.2-1,1.9-1.3c0.7-0.3,1.5-0.5,2.3-0.5c0.8,0,1.6,0.2,2.3,0.5
		c0.7,0.3,1.4,0.8,1.9,1.3c0.5,0.6,1,1.2,1.3,2C71.5,10.2,71.7,11.1,71.7,11.9z M68.6,11.9c0-0.4-0.1-0.8-0.2-1.2
		c-0.2-0.4-0.4-0.7-0.6-1c-0.3-0.3-0.6-0.5-0.9-0.7s-0.7-0.2-1.1-0.2c-0.4,0-0.8,0.1-1.1,0.2s-0.7,0.4-0.9,0.7
		c-0.3,0.3-0.5,0.6-0.6,1c-0.2,0.4-0.2,0.8-0.2,1.2c0,0.4,0.1,0.8,0.2,1.2c0.2,0.4,0.4,0.7,0.6,1c0.3,0.3,0.6,0.5,0.9,0.7
		s0.7,0.2,1.1,0.2c0.4,0,0.8-0.1,1.1-0.2s0.7-0.4,0.9-0.7c0.3-0.3,0.5-0.6,0.6-1C68.6,12.8,68.6,12.4,68.6,11.9z"/>
</g>
<path id="Path_6_" class="st1" d="M136.5,18c0,0,0-0.2,0-0.4c0-0.2-0.1-0.5-0.1-0.7c-0.5-2.7-1.9-5.2-3.9-7.2c-2.7-2.5-6-4-9.8-4
	l0,0c-0.1,0-0.2,0.1-0.2,0.2v0c0,2.5,2.8,3.1,3,3.1c0,0,0,0,0,0c1.8,0.4,3.2,1.3,4.8,2.8c1.9,1.8,2.9,3.9,3.1,6.2l0,0.1l0.1,0
	c0.4,0.2,1,0.2,1.5,0.2c0,0,0,0,0.1,0C135.5,18.3,136,18.2,136.5,18L136.5,18L136.5,18z"/>
<path id="Path_7_" class="st1" d="M122.6,9.9L122.6,9.9c-0.1,0-0.2,0.1-0.2,0.2l0,0.3c0,0,0,0,0,0c0.2,1.9,2.1,3,2.2,3.1l0,0
	c1.7,0.9,2.8,2.6,2.9,4.7h0c0,0,0.9,0.2,1.7,0.2c0.8,0,1.6-0.2,1.6-0.2v0c-0.1-2.2-0.9-4.2-2.4-5.8C127,10.7,124.9,9.9,122.6,9.9z"
	/>
<path id="Path_8_" class="st1" d="M122.7,15.5h-0.1c0,0-0.1,0-0.1,0.1v1.9v0.6c0,0,0,0.1,0.1,0.1c0.2,0,0.7,0.1,1.3,0.1
	s1.2-0.1,1.3-0.1c0,0,0.1,0,0.1-0.1v-0.2C125.3,16.6,124.1,15.5,122.7,15.5z"/>
<g id="Group_1_" transform="translate(73.185185, 12.666667)">
	<path id="Shape_4_" class="st2" d="M11.7,0.3H8.8c-0.1,0-0.2,0.1-0.2,0.2v1.1C8.2,1.2,7.8,0.9,7.3,0.7C6.7,0.4,6,0.2,5.3,0.2
		c-0.7,0-1.4,0.2-2.1,0.5C2.6,1,2,1.5,1.6,2C1.1,2.6,0.7,3.2,0.5,3.9C0.2,4.6,0.1,5.4,0.1,6.3c0,0.8,0.1,1.6,0.4,2.3
		s0.6,1.4,1.1,1.9s1,1,1.7,1.3c0.6,0.3,1.3,0.5,2.1,0.5c0.7,0,1.4-0.2,2-0.5c0.5-0.2,0.9-0.5,1.3-0.9V12c0,0.1,0.1,0.2,0.2,0.2h2.9
		c0.1,0,0.2-0.1,0.2-0.2V0.5C11.9,0.4,11.8,0.3,11.7,0.3z M5.9,8.9c-0.4,0-0.7-0.1-1-0.2C4.6,8.6,4.3,8.4,4.1,8.2
		C3.8,7.9,3.6,7.6,3.5,7.3C3.4,7,3.3,6.6,3.3,6.3c0-0.4,0.1-0.7,0.2-1.1c0.1-0.3,0.3-0.6,0.6-0.9c0.2-0.2,0.5-0.4,0.8-0.6
		c0.3-0.1,0.7-0.2,1-0.2c0.4,0,0.7,0.1,1,0.2c0.3,0.1,0.6,0.3,0.8,0.6C8,4.6,8.2,4.9,8.3,5.2c0.1,0.3,0.2,0.7,0.2,1
		c0,0.4-0.1,0.7-0.2,1C8.2,7.6,8,7.9,7.8,8.2C7.5,8.4,7.3,8.6,6.9,8.7C6.6,8.9,6.3,8.9,5.9,8.9z"/>
	<path id="Path_9_" class="st2" d="M27.3,1.5c-0.3-0.4-0.7-0.7-1.2-1c-0.5-0.2-1-0.3-1.5-0.3c-0.7,0-1.3,0.1-1.8,0.4
		c-0.4,0.2-0.8,0.6-1.1,1c-0.3-0.4-0.6-0.7-1-1c-0.5-0.3-1.1-0.5-1.7-0.5c-0.8,0-1.6,0.3-2.2,0.8V0.5c0-0.1-0.1-0.2-0.2-0.2h-2.9
		c-0.1,0-0.2,0.1-0.2,0.2V12c0,0.1,0.1,0.2,0.2,0.2h2.9c0.1,0,0.2-0.1,0.2-0.2V5.2c0-0.6,0.1-1,0.3-1.2c0.2-0.2,0.4-0.4,0.6-0.4
		c0,0,0,0,0,0c0.2-0.1,0.3-0.1,0.5-0.1c0.2,0,0.4,0.1,0.5,0.2C19,3.7,19.1,3.8,19.2,4c0.1,0.2,0.1,0.4,0.1,0.6V12
		c0,0.1,0.1,0.2,0.2,0.2h2.9c0.1,0,0.2-0.1,0.2-0.2V5.2c0-0.6,0.1-1,0.3-1.3c0.2-0.2,0.4-0.4,0.6-0.5c0,0,0,0,0,0
		c0.2-0.1,0.3-0.1,0.5-0.1c0.2,0,0.3,0.1,0.5,0.2c0.2,0.1,0.3,0.2,0.4,0.4c0.1,0.2,0.1,0.4,0.1,0.6V12c0,0.1,0.1,0.2,0.2,0.2h2.9
		c0.1,0,0.2-0.1,0.2-0.2V4.6c0-0.6-0.1-1.2-0.3-1.7C27.9,2.4,27.7,1.9,27.3,1.5z"/>
	<path id="Path_10_" class="st2" d="M40.4,0.4c0,0-0.1-0.1-0.1-0.1h-3.1c-0.1,0-0.1,0-0.2,0.1l-2.3,6.9l-2.2-6.9
		c0-0.1-0.1-0.1-0.2-0.1h-3.1c-0.1,0-0.1,0-0.1,0.1c0,0,0,0.1,0,0.2l3.9,11.6c0,0.1,0.1,0.1,0.2,0.1h3.1c0.1,0,0.1,0,0.2-0.1
		l4.1-11.6C40.4,0.5,40.4,0.4,40.4,0.4z"/>
</g>
<path id="Path_11_" class="st1" d="M96.3,1.9c0,0,17.2,6.2,18.7,6.8c1.8,0.6,3.2-0.4,3.2-0.4L95.4,0l0,0l-3.9,11.3
	c0,0,1.4,0,2.2-1.8S96.3,1.9,96.3,1.9"/>
<polygon id="Path_12_" class="st1" points="115.5,26.7 112,36.2 87.8,28 88.1,27.1 86.5,27.1 85.9,28.9 113,38 116.8,27.6 "/>
<path id="Path_13_" class="st2" d="M129.2,19.4c-0.9,0-1.7-0.1-1.7-0.1l0,0.1c0,0.2-0.1,0.4-0.1,0.6c0,0.1-0.1,0.2-0.1,0.3l0,0
	c0,0.1-0.1,0.2-0.1,0.3c0,0,0,0,0,0.1c0,0.1-0.1,0.2-0.1,0.3l0,0c-0.1,0.1-0.1,0.2-0.2,0.3l0,0c-0.1,0.1-0.1,0.2-0.2,0.3l0,0
	c0,0,0,0,0,0c-0.1,0.1-0.1,0.2-0.2,0.3l0,0c-0.1,0.1-0.2,0.2-0.2,0.2l0,0c-0.1,0.1-0.2,0.1-0.3,0.2l-0.1,0c-0.1,0.1-0.2,0.1-0.3,0.2
	l-0.1,0c-0.1,0.1-0.2,0.1-0.3,0.2l0,0c-0.1,0.1-0.2,0.1-0.3,0.2l0,0c0,0,0,0,0,0c-0.1,0.1-0.2,0.1-0.4,0.1c0,0,0,0,0,0l0,0
	c-0.1,0-0.3,0.1-0.4,0.1l0,0c-0.1,0-0.3,0.1-0.4,0.1l0,0c0,0,0,0-0.1,0c-0.1,0-0.3,0-0.4,0.1c0,0,0,0-0.1,0l0,0c-0.2,0-0.3,0-0.5,0
	c-3.5,0-5.1-2.5-5.1-4.7c0-1.7,0.9-3.9,3.5-4.5c0,0,0,0,0,0c0.7-0.2,1.1-0.8,1.1-1.5c0-0.9-0.8-1.6-1.7-1.6c-0.2,0-0.3,0-0.5,0.1
	c0,0,0,0,0,0c0,0,0,0,0,0l0,0c-1.8,0.5-3,1.5-3.7,2.2c-1.3,1.4-2.1,3.4-2.1,5.3s0.8,3.9,2.1,5.3c1.1,1.2,3.1,2.5,6.3,2.5
	c3.3,0,5.3-1.4,6.3-2.5c0.1-0.1,0.2-0.2,0.3-0.3c0,0,0-0.1,0.1-0.1l0,0c0.1-0.1,0.2-0.2,0.2-0.3l0,0c0,0,0,0,0,0
	c0.1-0.1,0.2-0.3,0.3-0.4c0,0,0,0,0-0.1l0,0c0.1-0.1,0.1-0.2,0.2-0.3l0,0c0,0,0-0.1,0-0.1c0.1-0.2,0.1-0.3,0.2-0.4l0,0
	c0.1-0.1,0.1-0.3,0.2-0.4c0,0,0-0.1,0-0.1c0-0.1,0.1-0.2,0.1-0.4l0,0c0,0,0,0,0,0c0-0.1,0.1-0.3,0.1-0.4l0,0c0,0,0,0,0,0s0,0,0,0
	c0.1-0.4,0.1-0.8,0.2-1.1l0-0.1C130.9,19.3,130.1,19.4,129.2,19.4z"/>
</svg>
