<svg xmlns="http://www.w3.org/2000/svg" viewBox="0 0 161 54.01"><defs><style>.cls-1{fill:none;stroke:#fff;stroke-miterlimit:10;stroke-width:2px;}.cls-2{fill:#fff;}</style></defs><title>Recurso 8</title><g id="Capa_2" data-name="Capa 2"><g id="Layer_1" data-name="Layer 1"><rect class="cls-1" x="1" y="1" width="159" height="52.01" rx="7.03"/><rect x="1" y="1" width="159" height="52.01" rx="7.03"/><path class="cls-2" d="M42.46,35.38a25.46,25.46,0,0,1-2.33,4.35c-1.51,2.3-3.64,5.17-6.28,5.19-2.35,0-3-1.53-6.13-1.51s-3.85,1.54-6.2,1.51c-2.64,0-4.66-2.61-6.17-4.91-4.23-6.44-4.67-14-2.07-18a9.38,9.38,0,0,1,7.53-4.52c2.8,0,4.56,1.53,6.87,1.53s3.62-1.53,6.85-1.53a9.15,9.15,0,0,1,6.89,3.63A7.88,7.88,0,0,0,42.46,35.38Z"/><path class="cls-2" d="M32.08,14.9a7.83,7.83,0,0,0,1.74-5.81A8.48,8.48,0,0,0,28.34,12a7.31,7.31,0,0,0-1.79,5.68A7.18,7.18,0,0,0,32.08,14.9Z"/><path class="cls-2" d="M55.34,21.91,49.29,39.74h2.77l1.81-5.48h5.86l1.86,5.48h2.86L58.36,21.91Zm1.44,2.93c.21.79.43,1.62.71,2.51l1.63,4.73H54.48l1.61-4.76C56.33,26.55,56.57,25.72,56.78,24.84Z"/><path class="cls-2" d="M72.28,26.53a5.07,5.07,0,0,0-4.29,2l-.1-1.77H65.42V27c.08,1.1.11,2.32.11,4.06V44.85h2.7V38.43A4.69,4.69,0,0,0,71.92,40,5.57,5.57,0,0,0,76,38.28a7.38,7.38,0,0,0,1.81-5.19,7.24,7.24,0,0,0-1.57-4.74A5.16,5.16,0,0,0,72.28,26.53Zm-.67,2.23c2.41,0,3.48,2.23,3.48,4.44,0,2.84-1.37,4.61-3.58,4.61a3.27,3.27,0,0,1-3.18-2.5,3.58,3.58,0,0,1-.09-.87V32.27a4.2,4.2,0,0,1,.08-.67c0-.07,0-.15,0-.22A3.42,3.42,0,0,1,71.61,28.76Z"/><path class="cls-2" d="M86.17,26.53a5.06,5.06,0,0,0-4.28,2l-.11-1.77H79.31l0,.23c.07,1.1.1,2.32.1,4.06V44.85h2.7V38.43A4.69,4.69,0,0,0,85.81,40a5.57,5.57,0,0,0,4.09-1.74,7.38,7.38,0,0,0,1.81-5.19,7.24,7.24,0,0,0-1.57-4.74A5.16,5.16,0,0,0,86.17,26.53Zm-.67,2.23C87.91,28.76,89,31,89,33.2c0,2.84-1.37,4.61-3.58,4.61a3.28,3.28,0,0,1-3.18-2.5,3.58,3.58,0,0,1-.09-.87V32.27a4.2,4.2,0,0,1,.08-.67,1.7,1.7,0,0,0,0-.22A3.42,3.42,0,0,1,85.5,28.76Z"/><path class="cls-2" d="M103.58,29.46c-2.52-1-3.33-1.74-3.33-3.16,0-1.19,1-2.39,3.07-2.39a6.12,6.12,0,0,1,3.17.79l.23.14.76-2.25-.15-.09a7.91,7.91,0,0,0-3.93-.88c-3.44,0-5.85,2-5.85,4.94,0,2.34,1.51,4,4.74,5.16,2.29.85,3.14,1.73,3.14,3.23,0,1.7-1.31,2.76-3.43,2.76a7.4,7.4,0,0,1-3.89-1.1l-.23-.15-.72,2.3.13.09A9.23,9.23,0,0,0,101.85,40c4.63,0,6.28-2.83,6.28-5.25S106.81,30.74,103.58,29.46Z"/><path class="cls-2" d="M113,23.74l-2.64.83v2.24H108.4V29h1.94v6.6a5,5,0,0,0,.93,3.42,3.44,3.44,0,0,0,2.61,1A6.41,6.41,0,0,0,116,39.7l.15-.06L116,37.48l-.26.08a3.87,3.87,0,0,1-1.25.15c-1,0-1.5-.66-1.5-2.22V29h3.26V26.81H113Z"/><path class="cls-2" d="M122.92,26.53c-3.77,0-6.41,2.81-6.41,6.85S119.06,40,122.72,40h0c3.09,0,6.41-2.15,6.41-6.88a6.79,6.79,0,0,0-1.72-4.77A6,6,0,0,0,122.92,26.53Zm-.07,2.13c2.42,0,3.53,2.36,3.53,4.56,0,2.71-1.51,4.67-3.59,4.67h0c-2,0-3.53-1.93-3.53-4.59C119.24,31,120.35,28.66,122.85,28.66Z"/><path class="cls-2" d="M137.42,26.65l-.17,0a2.51,2.51,0,0,0-.67-.08,3.84,3.84,0,0,0-3.38,2.17l-.08-1.89H130.7l0,.23c.07,1.07.1,2.27.1,3.88l0,8.82h2.7V32.86a8.54,8.54,0,0,1,.07-1.05,3,3,0,0,1,2.84-2.71c.28,0,.5,0,.73,0l.29,0Z"/><path class="cls-2" d="M143.48,26.5c-3.59,0-6.1,2.87-6.1,7s2.5,6.51,6.36,6.51a10.25,10.25,0,0,0,4.27-.82l.16-.07-.52-2-.22.09a8.33,8.33,0,0,1-3.38.61,3.75,3.75,0,0,1-4-3.92l8.71,0,0-.17a5.64,5.64,0,0,0,.08-1.13C148.83,29.79,147.43,26.5,143.48,26.5Zm-.18,2.05a2.67,2.67,0,0,1,2,.76,3.83,3.83,0,0,1,.93,2.51h-6.15C140.31,30.26,141.28,28.55,143.3,28.55Z"/><path class="cls-2" d="M49.29,6.29a16.23,16.23,0,0,1,2.47-.19,5.15,5.15,0,0,1,3.66,1.13,4.15,4.15,0,0,1,1.27,3.23A4.78,4.78,0,0,1,55.39,14a5.56,5.56,0,0,1-4,1.3,18,18,0,0,1-2.11-.11Zm1.16,8a6.66,6.66,0,0,0,1.18.07,3.47,3.47,0,0,0,3.84-3.83C55.48,8.38,54.28,7,51.82,7a6.3,6.3,0,0,0-1.37.13Z"/><path class="cls-2" d="M59.47,6.89a.69.69,0,0,1-.74.72A.7.7,0,0,1,58,6.89a.71.71,0,0,1,.73-.73A.7.7,0,0,1,59.47,6.89Zm-1.31,8.3V8.71h1.18v6.48Z"/><path class="cls-2" d="M61.13,14a3.09,3.09,0,0,0,1.56.47c.85,0,1.25-.43,1.25-1s-.33-.87-1.2-1.19C61.58,11.88,61,11.24,61,10.46a2,2,0,0,1,2.23-1.9A3.14,3.14,0,0,1,64.85,9l-.29.85a2.5,2.5,0,0,0-1.32-.37c-.7,0-1.09.4-1.09.88s.39.78,1.23,1.1c1.13.43,1.7,1,1.7,2,0,1.14-.88,1.94-2.42,1.94a3.68,3.68,0,0,1-1.82-.44Z"/><path class="cls-2" d="M66.6,10.82c0-.82,0-1.49-.06-2.11H67.6l.05,1.11h0A2.54,2.54,0,0,1,70,8.56c1.57,0,2.74,1.33,2.74,3.3,0,2.32-1.41,3.47-2.94,3.47a2.26,2.26,0,0,1-2-1h0v3.52H66.6Zm1.16,1.73a3.37,3.37,0,0,0,0,.48,1.83,1.83,0,0,0,1.77,1.38c1.24,0,2-1,2-2.5,0-1.3-.69-2.41-1.93-2.41A1.89,1.89,0,0,0,67.84,11a1.93,1.93,0,0,0-.08.48Z"/><path class="cls-2" d="M80.07,11.9a3.16,3.16,0,0,1-3.22,3.43A3.07,3.07,0,0,1,73.75,12,3.16,3.16,0,0,1,77,8.56,3.07,3.07,0,0,1,80.07,11.9ZM74.94,12c0,1.42.81,2.49,2,2.49s2-1.06,2-2.51c0-1.1-.55-2.49-1.94-2.49S74.94,10.73,74.94,12Z"/><path class="cls-2" d="M81.56,10.46c0-.66,0-1.21,0-1.75h1l.07,1.07h0a2.39,2.39,0,0,1,2.14-1.22c.89,0,2.28.54,2.28,2.76v3.87H85.9V11.45c0-1-.39-1.91-1.5-1.91a1.67,1.67,0,0,0-1.58,1.21,1.71,1.71,0,0,0-.08.54v3.9H81.56Z"/><path class="cls-2" d="M90.3,6.89a.69.69,0,0,1-.75.72.7.7,0,0,1-.71-.72.72.72,0,0,1,.74-.73A.7.7,0,0,1,90.3,6.89ZM89,15.19V8.71h1.18v6.48Z"/><path class="cls-2" d="M100.12,5.69h1.18v9.5h-1.18Z"/><path class="cls-2" d="M92.14,15.19c0-.44,0-1.1,0-1.68V5.69h1.17V9.75h0a2.43,2.43,0,0,1,2.21-1.19c1.61,0,2.74,1.34,2.73,3.31,0,2.31-1.46,3.46-2.9,3.46a2.31,2.31,0,0,1-2.17-1.21h0l0,1.07Zm1.22-2.6a2,2,0,0,0,0,.43,1.82,1.82,0,0,0,1.77,1.38c1.23,0,2-1,2-2.49,0-1.3-.67-2.41-1.92-2.41A1.88,1.88,0,0,0,93.42,11a2.84,2.84,0,0,0-.06.48Z"/><path class="cls-2" d="M103.55,12.16a2.08,2.08,0,0,0,2.23,2.25,4.38,4.38,0,0,0,1.79-.33l.2.84a5.2,5.2,0,0,1-2.15.4,3,3,0,0,1-3.19-3.26c0-2,1.15-3.5,3-3.5,2.11,0,2.67,1.86,2.67,3a3.35,3.35,0,0,1,0,.55Zm3.46-.84a1.68,1.68,0,0,0-1.63-1.91,1.94,1.94,0,0,0-1.81,1.91Z"/><path class="cls-2" d="M113.1,12.16a2.07,2.07,0,0,0,2.22,2.25,4.38,4.38,0,0,0,1.79-.33l.2.84a5.16,5.16,0,0,1-2.15.4A3,3,0,0,1,112,12.06c0-2,1.15-3.5,3-3.5,2.12,0,2.68,1.86,2.68,3a5.07,5.07,0,0,1,0,.55Zm3.45-.84a1.68,1.68,0,0,0-1.63-1.91,2,2,0,0,0-1.81,1.91Z"/><path class="cls-2" d="M119.15,10.46c0-.66,0-1.21-.05-1.75h1l.07,1.07h0a2.42,2.42,0,0,1,2.15-1.22c.89,0,2.28.54,2.28,2.76v3.87h-1.17V11.45c0-1-.39-1.91-1.5-1.91a1.67,1.67,0,0,0-1.58,1.21,1.71,1.71,0,0,0-.08.54v3.9h-1.18Z"/></g></g></svg>