<svg width="16" height="16" viewBox="0 0 16 16" fill="none" xmlns="http://www.w3.org/2000/svg">
<path d="M11.0025 14C10.9148 14.0005 10.8278 13.9837 10.7466 13.9505C10.6654 13.9173 10.5916 13.8685 10.5293 13.8067L5.19715 8.47458C5.13468 8.41262 5.0851 8.3389 5.05126 8.25768C5.01742 8.17646 5 8.08935 5 8.00136C5 7.91337 5.01742 7.82625 5.05126 7.74503C5.0851 7.66381 5.13468 7.59009 5.19715 7.52813L10.5293 2.19602C10.6548 2.07051 10.825 2 11.0025 2C11.18 2 11.3502 2.07051 11.4757 2.19602C11.6012 2.32152 11.6717 2.49175 11.6717 2.66924C11.6717 2.84674 11.6012 3.01696 11.4757 3.14247L6.61016 8.00136L11.4757 12.8602C11.5382 12.9222 11.5878 12.9959 11.6216 13.0771C11.6555 13.1584 11.6729 13.2455 11.6729 13.3335C11.6729 13.4215 11.6555 13.5086 11.6216 13.5898C11.5878 13.671 11.5382 13.7447 11.4757 13.8067C11.4134 13.8685 11.3396 13.9173 11.2584 13.9505C11.1772 13.9837 11.0902 14.0005 11.0025 14Z" fill="black"/>
</svg>
