<svg width="16" height="16" viewBox="0 0 16 16" fill="none" xmlns="http://www.w3.org/2000/svg">
<path d="M9.0025 14C8.91478 14.0005 8.82782 13.9837 8.74662 13.9505C8.66541 13.9173 8.59155 13.8685 8.52927 13.8067L3.19715 8.47458C3.13468 8.41262 3.0851 8.3389 3.05126 8.25768C3.01742 8.17646 3 8.08935 3 8.00136C3 7.91337 3.01742 7.82625 3.05126 7.74503C3.0851 7.66381 3.13468 7.59009 3.19715 7.52813L8.52927 2.19602C8.65478 2.07051 8.825 2 9.0025 2C9.17999 2 9.35021 2.07051 9.47572 2.19602C9.60123 2.32152 9.67174 2.49175 9.67174 2.66924C9.67174 2.84674 9.60123 3.01696 9.47572 3.14247L4.61016 8.00136L9.47572 12.8602C9.53819 12.9222 9.58778 12.9959 9.62162 13.0771C9.65545 13.1584 9.67288 13.2455 9.67288 13.3335C9.67288 13.4215 9.65545 13.5086 9.62162 13.5898C9.58778 13.671 9.53819 13.7447 9.47572 13.8067C9.41344 13.8685 9.33958 13.9173 9.25838 13.9505C9.17717 13.9837 9.09021 14.0005 9.0025 14Z" fill="black"/>
<path d="M13.0025 14C12.9148 14.0005 12.8278 13.9837 12.7466 13.9505C12.6654 13.9173 12.5916 13.8685 12.5293 13.8067L7.19715 8.47458C7.13468 8.41262 7.0851 8.3389 7.05126 8.25768C7.01742 8.17646 7 8.08935 7 8.00136C7 7.91337 7.01742 7.82625 7.05126 7.74503C7.0851 7.66381 7.13468 7.59009 7.19715 7.52813L12.5293 2.19602C12.6548 2.07051 12.825 2 13.0025 2C13.18 2 13.3502 2.07051 13.4757 2.19602C13.6012 2.32152 13.6717 2.49175 13.6717 2.66924C13.6717 2.84674 13.6012 3.01696 13.4757 3.14247L8.61016 8.00136L13.4757 12.8602C13.5382 12.9222 13.5878 12.9959 13.6216 13.0771C13.6555 13.1584 13.6729 13.2455 13.6729 13.3335C13.6729 13.4215 13.6555 13.5086 13.6216 13.5898C13.5878 13.671 13.5382 13.7447 13.4757 13.8067C13.4134 13.8685 13.3396 13.9173 13.2584 13.9505C13.1772 13.9837 13.0902 14.0005 13.0025 14Z" fill="black"/>
</svg>
