<svg xmlns="http://www.w3.org/2000/svg" viewBox="0 0 313 298.69"><defs><style>.cls-1{fill:#a7a9ac;fill-rule:evenodd;}</style></defs><title>acura</title><g id="Layer_2" data-name="Layer 2"><g id="Layer_1-2" data-name="Layer 1"><path class="cls-1" d="M0,148.93C0,12.62,101,0,156.5,0S313,12.62,313,148.93c0,132.94-102.65,149.76-156.5,149.76-53,0-156.5-16.82-156.5-149.76Zm215.4-5.05,16.83,126.21c9.25-5,59.73-29.45,58.89-121.16,0-107.7-65.63-136.31-122-136.31L215.4,143.88Zm-58.9-25.24h7.57v-106h-14.3v106Zm0,167.43c31.13,0,58.9-8.41,70.68-14.3L165.75,138H147.24L85.82,271.77c11.78,5.89,39.55,14.3,70.68,14.3ZM143.88,12.62c-56.38,0-122,28.61-122,136.31C21,240.64,71.52,265,80.77,270.09L98.44,143.88,143.88,12.62Z"/></g></g></svg>