<svg xmlns="http://www.w3.org/2000/svg" viewBox="0 0 60.76 61.25"><defs><style>.cls-1{fill:#05197a;}.cls-2{fill:#fff;}.cls-3{fill:#7c0404;}.cls-4{fill:#085b04;}</style></defs><title>alfa romeo</title><g id="Layer_2" data-name="Layer 2"><g id="Logos"><path class="cls-1" d="M30.38,0A30.63,30.63,0,1,0,60.76,30.63,30.5,30.5,0,0,0,30.38,0Z"/><path class="cls-2" d="M8.46,30.63A21.84,21.84,0,0,0,30,52.56V8.7A21.83,21.83,0,0,0,8.46,30.63Z"/><path class="cls-3" d="M8.55,33.46A21.91,21.91,0,0,0,16.73,48V33.46Z"/><path class="cls-3" d="M16.72,13.29a21.89,21.89,0,0,0-8,13.39h8Z"/><path class="cls-3" d="M23.52,26.67h6.55V8.62a21.41,21.41,0,0,0-6.55,1.09Z"/><polygon class="cls-2" points="48.62 7.03 49.83 8.16 48.53 11.47 51.78 10.02 52.99 11.18 49.74 16.68 48.54 15.5 50.36 12.27 50.34 12.26 46.8 13.78 46.31 13.32 47.66 9.71 47.64 9.7 44.62 11.75 43.39 10.61 48.62 7.03"/><path class="cls-2" d="M35.24,4.14A3.37,3.37,0,0,1,39.6,2.21,3.4,3.4,0,0,1,42,6.34a3.34,3.34,0,0,1-4.43,2.14A3.37,3.37,0,0,1,35.24,4.14Z"/><path class="cls-2" d="M28.22,1.06c1.27-.1,2.28.4,2.38,1.72a1.67,1.67,0,0,1-1.27,1.85L31.55,7l-2.08.17L27.71,4.91h0l.18,2.37-1.67.13-.48-6.16Z"/><polygon class="cls-2" points="17.52 3.93 22.51 8.27 20.93 9.1 20.07 8.35 18.03 9.43 18.13 10.59 16.55 11.42 15.9 4.79 17.52 3.93"/><polygon class="cls-2" points="9.81 9.22 10.81 10.14 9.44 11.64 10.2 12.34 11.43 10.97 12.44 11.89 11.19 13.26 12.97 14.89 11.85 16.14 7.32 11.97 9.81 9.22"/><polygon class="cls-2" points="3.07 19.19 7.48 21.04 8.26 19.17 9.5 19.69 8.09 23.12 2.43 20.74 3.07 19.19"/><polygon class="cls-2" points="6.92 28.77 5.84 29.18 5.82 31.5 6.88 31.96 6.86 33.75 0.76 31.19 0.78 29.34 6.94 26.97 6.92 28.77"/><polygon class="cls-2" points="51.5 20.02 57.16 17.65 58.56 21.06 57.31 21.58 56.55 19.73 55.61 20.13 56.33 21.88 55.08 22.4 54.36 20.65 53.38 21.05 54.15 22.91 52.9 23.43 51.5 20.02"/><path class="cls-2" d="M57.26,33.34a3.36,3.36,0,0,1-3.5-3.47,3.28,3.28,0,1,1,6.53-.23A3.4,3.4,0,0,1,57.26,33.34Z"/><path class="cls-1" d="M57.07,27.92a1.83,1.83,0,1,0,.12,3.66,1.84,1.84,0,0,0-.12-3.66Z"/><path class="cls-1" d="M27.77,3.87c.55,0,1.15-.19,1.1-.86s-.67-.72-1.22-.68l-.16,0,.12,1.53Z"/><path class="cls-1" d="M38.07,7a1.79,1.79,0,0,0,2.29-1.19,1.78,1.78,0,0,0-1.23-2.12,1.76,1.76,0,0,0-2.23,1A1.81,1.81,0,0,0,38.07,7Z"/><polygon class="cls-1" points="4.61 29.62 2.66 30.29 2.66 30.3 4.6 31.02 4.61 29.62"/><polygon class="cls-1" points="19.09 7.47 17.58 6.04 17.56 6.05 17.86 8.12 19.09 7.47"/><path class="cls-3" d="M23.52,51.54a21.67,21.67,0,0,0,6.55,1.09V33.47H23.52Z"/><path class="cls-2" d="M30.79,8.7V52.56a21.93,21.93,0,0,0,0-43.86Z"/><path class="cls-4" d="M44.17,14a.66.66,0,0,1,.66.66.66.66,0,1,1-1.32,0A.66.66,0,0,1,44.17,14Z"/><rect class="cls-4" x="36.9" y="15.69" width="7.91" height="0.64"/><rect class="cls-4" x="36.9" y="17.03" width="7.91" height="0.83"/><path class="cls-4" d="M42.5,14a.66.66,0,0,1,.66.66.66.66,0,1,1-1.32,0A.65.65,0,0,1,42.5,14Z"/><path class="cls-4" d="M40.83,14a.66.66,0,0,1,.66.66.66.66,0,1,1-1.32,0A.65.65,0,0,1,40.83,14Z"/><path class="cls-4" d="M39.16,14a.66.66,0,0,1,.66.66.66.66,0,1,1-1.32,0A.65.65,0,0,1,39.16,14Z"/><path class="cls-4" d="M37.48,14a.65.65,0,0,1,.66.66.66.66,0,1,1-1.31,0A.65.65,0,0,1,37.48,14Z"/><path class="cls-4" d="M32.87,26.79a.64.64,0,0,1,.19-.46l1.17-.82c.57-.39.46-1,.38-1.55s-.63-.28-.79-.08a1.37,1.37,0,1,1,0-1.91c.16.19.71.44.79-.09s.19-1.16-.38-1.55l-1.17-.81a.64.64,0,1,1,.9-.92l1.82,1.26a3.38,3.38,0,0,0,1.53,3.05A3.4,3.4,0,0,0,35.78,26L34,27.24a.6.6,0,0,1-.45.19A.64.64,0,0,1,32.87,26.79Z"/><path class="cls-4" d="M46.92,18a8.09,8.09,0,0,1,3.78,6.76A6.09,6.09,0,0,1,45,30.83H37.63a.7.7,0,1,0,0,1.4h6.92a4,4,0,0,1,4,4.06,3.94,3.94,0,0,1-4,3.94H38a.66.66,0,0,0-.66.67.65.65,0,0,0,.66.66h5a2.15,2.15,0,0,1,0,4.29h-3a.51.51,0,0,0,0,1h2.32c.81,0,1.71,1.21,0,1.88,0-.35,0-.85-.77-.85H39.61A1.61,1.61,0,0,1,38,46.32a1.69,1.69,0,0,1,1.64-1.7h3.18a.63.63,0,0,0,.63-.63.64.64,0,0,0-.63-.64h-5.1a3,3,0,0,1-3-3,3,3,0,0,1,3-2.94H44a.62.62,0,0,0,.7-.6.72.72,0,0,0-.7-.72H37.63a4.54,4.54,0,0,1,0-9.08H43.7a.88.88,0,0,0,.85-.89.83.83,0,0,0-.85-.83H36.86A1.9,1.9,0,0,1,39,23.61h3.18a.66.66,0,0,0,.66-.66.62.62,0,0,0-.66-.62H39a2.14,2.14,0,0,1-2.09-1.88h3.3c.27-.89.82-1.33,1.42-1.33H45.1A1.84,1.84,0,0,0,46.92,18Z"/></g></g></svg>