<svg id="레이어_1" data-name="레이어 1" xmlns="http://www.w3.org/2000/svg" xmlns:xlink="http://www.w3.org/1999/xlink" viewBox="0 0 313 313"><defs><style>.cls-1{fill:none;}.cls-2{fill:url(#linear-gradient);}.cls-3{clip-path:url(#clip-path);}.cls-4{fill:url(#linear-gradient-2);}.cls-5{fill:url(#linear-gradient-3);}.cls-6{fill:url(#linear-gradient-4);}.cls-7{fill:#3e3b3c;}.cls-8{fill:url(#linear-gradient-5);}.cls-9{fill:url(#linear-gradient-6);}.cls-10{fill:url(#linear-gradient-7);}.cls-11{fill:url(#linear-gradient-8);}</style><linearGradient id="linear-gradient" x1="176.01" y1="163.66" x2="281.67" y2="163.66" gradientTransform="matrix(1, 0, 0, -1, 0, 313)" gradientUnits="userSpaceOnUse"><stop offset="0" stop-color="#fff"/><stop offset="1"/></linearGradient><clipPath id="clip-path"><path class="cls-1" d="M241.72,56.94S204.89,78.51,195.64,84.3h0c-14.3,9-21.64,28.87-19.16,46.28h0c2,13.92,4.18,25.67,11.3,51.57h0C196,212,206.51,221,219.32,227.78h0c9.8,5.21,22.76,11.53,28.33,14.23h0c.23.07.49.13.73.19h0a133.61,133.61,0,0,0,31.84-26.27h0a1,1,0,0,1-.69-.06h0c-.09,0-.13-.11-.21-.1h0c-12.45,1.92-59.33,6.23-73.78-34.7h0c-3.34-9.46-11-35.6-14.47-49.29h0c-3.84-15.13,4.91-29.17,16.52-35.51h0c7.9-4.31,15.61-8,23.87-11.55h0c28.2-12.23,46.31-.18,46.31-.18h0l3.9,3.4a143.1,143.1,0,0,0-39.53-31.46h0a4.93,4.93,0,0,1-.42.49"/></clipPath><linearGradient id="linear-gradient-2" x1="189.6" y1="222.84" x2="280.13" y2="222.84" xlink:href="#linear-gradient"/><linearGradient id="linear-gradient-3" x1="23.04" y1="164.75" x2="122.56" y2="164.75" gradientTransform="matrix(1, 0, 0, -1, 0, 313)" gradientUnits="userSpaceOnUse"><stop offset="0.19"/><stop offset="1" stop-color="#fff"/></linearGradient><linearGradient id="linear-gradient-4" x1="32.18" y1="163.72" x2="136.72" y2="163.72" xlink:href="#linear-gradient"/><linearGradient id="linear-gradient-5" x1="193.01" y1="200.99" x2="302.82" y2="137.6" gradientTransform="matrix(1, 0, 0, -1, 0, 313)" gradientUnits="userSpaceOnUse"><stop offset="0"/><stop offset="0.85" stop-color="#fff"/></linearGradient><linearGradient id="linear-gradient-6" x1="170.56" y1="162.29" x2="246.81" y2="162.29" gradientTransform="matrix(1, 0, 0, -1, 0, 313)" gradientUnits="userSpaceOnUse"><stop offset="0" stop-color="#7a7a7a"/><stop offset="0.62" stop-color="#fff"/><stop offset="0.99"/></linearGradient><linearGradient id="linear-gradient-7" x1="6.99" y1="161.95" x2="306" y2="161.95" xlink:href="#linear-gradient"/><linearGradient id="linear-gradient-8" y1="151.05" x2="313" y2="151.05" gradientUnits="userSpaceOnUse"><stop offset="0" stop-color="#bfbfbf"/><stop offset="1" stop-color="#fff"/></linearGradient></defs><title>baic</title><path class="cls-2" d="M241.72,56.94S204.89,78.51,195.64,84.3h0c-14.3,9-21.64,28.87-19.16,46.28h0c2,13.92,4.18,25.67,11.3,51.57h0C196,212,206.51,221,219.32,227.78h0c9.8,5.21,22.76,11.53,28.33,14.23h0c.23.07.49.13.73.19h0a133.61,133.61,0,0,0,31.84-26.27h0a1,1,0,0,1-.69-.06h0c-.09,0-.13-.11-.21-.1h0c-12.45,1.92-59.33,6.23-73.78-34.7h0c-3.34-9.46-11-35.6-14.47-49.29h0c-3.84-15.13,4.91-29.17,16.52-35.51h0c7.9-4.31,15.61-8,23.87-11.55h0c28.2-12.23,46.31-.18,46.31-.18h0l3.9,3.4a143.1,143.1,0,0,0-39.53-31.46h0a4.93,4.93,0,0,1-.42.49"/><g class="cls-3"><path class="cls-4" d="M196.27,103.34c5.94-8.9,18.84-15,41.75-25.67,18-8.42,11.7-16,8.22-18.86a137.44,137.44,0,0,1,33.89,27.35l-3.08-1.46s-17.55-12.17-45.76,0c-8.21,3.59-15.94,7.19-23.84,11.55a33.86,33.86,0,0,0-16.82,22.26l-1,3a42.77,42.77,0,0,1,6.67-18.18"/></g><path class="cls-5" d="M35.55,84.67h0l-10.44,23.8s6.61-10.26,17.34-16.15h0C53.21,86.38,66.18,87,80.3,93h0c3.2,1.36,12.45,5.5,19.83,8.88h0a23.24,23.24,0,0,1,13,27.66h0c-2.75,9.77-8.81,28.5-13.2,41.15h0c-4.47,12.92-14.37,27-28.64,31.94h0c-24.78,8.62-42.11-3.81-43.74-5h0a1.18,1.18,0,0,1-.18-.4h0L23,189.39s1,2.65,2.06,4.87h0c.54,1.13,1.62,2.89,2.18,4.11h0a20.55,20.55,0,0,1,1.79,5.35h0c.67,3.5.87,5,1.51,7.28h0a10.58,10.58,0,0,0,1.51,3h0l1,1.2a41.16,41.16,0,0,0,9.24,1.92h0c19,.83,53.1-2.86,64.81-36.05h0c3.34-9.46,11-35.6,14.47-49.29h0c3.85-15.13-4.9-29.17-16.53-35.51h0c-7.9-4.31-15.61-8-23.86-11.55h0a61.14,61.14,0,0,0-24.44-5.44h0c-13.35,0-21.05,5.23-21.28,5.39"/><path class="cls-6" d="M32.46,86.13l3.08-1.45s17.54-12.19,45.74,0h0c8.22,3.58,16,7.19,23.86,11.55h0c11.63,6.34,20.38,20.38,16.54,35.51h0c-3.5,13.69-11.14,39.83-14.47,49.29h0C92.76,222,45.87,217.65,33.43,215.73h0a8.36,8.36,0,0,1-1.25-.1h0a136.38,136.38,0,0,0,32.18,26.53h0c.26-.07.5-.12.73-.19h0c5.59-2.7,18.48-9,28.32-14.23h0c12.82-6.83,23.38-15.75,31.54-45.63h0c7.11-25.93,9.32-37.65,11.3-51.58h0c2.45-17.45-4.86-37.26-19.18-46.27h0C107.83,78.45,71,56.9,71,56.9h0a3.78,3.78,0,0,1-.49-.49h0a138.73,138.73,0,0,0-38,29.68"/><path class="cls-7" d="M124.15,183.22s-5,17.89-14.1,29.36c-7.45,9.41-18,13.94-26,17-24.95,9.79-41.66-3.9-51.35-13.35A86.62,86.62,0,0,0,45.43,229a140.63,140.63,0,0,0,18.49,12.9c.6,0,.48.07,1.15.07,5.59-2.69,18.48-9,28.32-14.23,12.72-6.77,23.19-15.61,31.36-44.92a6.91,6.91,0,0,0,0-.91Z"/><path class="cls-8" d="M231.71,84.72c-8.22,3.59-16,7.19-23.85,11.55h0c-11.63,6.34-20.38,20.38-16.53,35.51h0c3.49,13.69,11.12,39.83,14.46,49.29h0c13.74,38.86,56.68,37,71.65,35h0a20.2,20.2,0,0,0,2.4-.87h0a74.23,74.23,0,0,0,3.49-9.37h0a79.76,79.76,0,0,0,2.24-8.32h0a7.36,7.36,0,0,1-.78.6h0c-3.74,2.57-20.25,12.5-43.08,4.56h0c-14.27-5-24.17-19-28.65-31.94h0c-4.38-12.65-10.45-31.37-13.19-41.15h0a23.22,23.22,0,0,1,12.94-27.66h0c7.39-3.38,16.64-7.51,19.85-8.88h0c14.12-6,27.08-6.61,37.82-.68h0c10.75,5.94,13.44,9,18.39,17.78h0c5,8.82,8.87,26.1,8.87,26.1h0s-2.05-15.92-6.59-28.56h0c-4.86-13.47-10.49-19.74-10.49-19.74h0l-3.2-3.29h0c-.23-.18-8-5.4-21.28-5.4h0a61.18,61.18,0,0,0-24.45,5.44"/><path class="cls-9" d="M194.34,75.81c-16.7,11.6-26.42,28.88-23.14,53.59h0c2.45,18.49,6.92,41,10.19,57h0c3.77,18.21,10,36.6,31.09,50.87h0c5.7,3.86,14.38,9.18,14.38,9.18h0s9.92-1.84,16.16-3.17h0c.79-.17,3.79-1.19,3.79-1.19h0s-.29-.73-.62-.89h0c-6.17-3-17.7-8.66-26.59-13.4h0C206.78,221,196.22,212,188.06,182.15h0c-7.11-25.93-9.32-37.65-11.3-51.57h0c-2.46-17.46,4.85-37.27,19.16-46.28h0c8.89-5.59,34.81-20.78,45.05-26.7h0c.15-.09.18-.66.18-.66h0s-4.48-.94-8.58-1.4h0c-5-.54-7.06-.54-7.06-.54h0s-16.74,10.82-31.17,20.86"/><path class="cls-10" d="M13.94,151.05c0-60.45,64-109.66,142.56-109.66h0c78.6,0,142.55,48.27,142.55,109.66h0c0,60.48-64,109.7-142.55,109.7h0c-78.56,0-142.56-49.22-142.56-109.7m-6.95,0c0,63.53,66.93,115,149.51,115h0c82.56,0,149.5-51.49,149.5-115h0c0-63.5-66.94-115-149.5-115h0C73.92,36,7,87.52,7,151.05"/><path class="cls-11" d="M7.27,151.05c0-63.28,67-114.79,149.24-114.79h0c82.28,0,149.22,50.53,149.22,114.79h0c0,63.31-66.94,114.84-149.22,114.84h0c-82.25,0-149.24-51.53-149.24-114.84m-7.27,0c0,66.51,70.06,120.41,156.51,120.41h0c86.42,0,156.49-53.9,156.49-120.41h0c0-66.48-70.07-120.4-156.49-120.4h0C70.06,30.65,0,84.55,0,151.05"/></svg>