<svg xmlns="http://www.w3.org/2000/svg" xmlns:xlink="http://www.w3.org/1999/xlink" viewBox="0 0 313 313"><defs><style>.cls-1{fill:url(#linear-gradient);}.cls-2{fill:#444b4c;}.cls-3{fill:url(#radial-gradient);}.cls-4{fill:url(#linear-gradient-2);}.cls-5{fill:#333;}.cls-6{fill:url(#radial-gradient-2);}.cls-7{fill:url(#radial-gradient-3);}.cls-8{fill:url(#radial-gradient-4);}.cls-9{fill:url(#radial-gradient-5);}.cls-10{fill:url(#radial-gradient-6);}.cls-11{fill:url(#radial-gradient-7);}.cls-12{fill:url(#radial-gradient-8);}.cls-13{fill:url(#radial-gradient-9);}.cls-14{fill:url(#linear-gradient-3);}.cls-15{fill:#bdd5e5;}.cls-16{fill:url(#linear-gradient-4);}.cls-17{fill:#005d6c;}.cls-18{fill:url(#linear-gradient-5);}.cls-19{fill:url(#linear-gradient-6);}.cls-20{fill:url(#linear-gradient-7);}.cls-21{fill:url(#linear-gradient-8);}.cls-22{fill:none;}</style><linearGradient id="linear-gradient" x1="-22.88" y1="-16.84" x2="309.13" y2="303.99" gradientUnits="userSpaceOnUse"><stop offset="0" stop-color="#deebf2"/><stop offset="0.1" stop-color="#d5e1e8"/><stop offset="0.28" stop-color="#bcc6cc"/><stop offset="0.51" stop-color="#939b9f"/><stop offset="0.78" stop-color="#5c5f61"/><stop offset="1" stop-color="#2b2b2b"/></linearGradient><radialGradient id="radial-gradient" cx="35.39" cy="44.33" r="167.57" gradientTransform="translate(-48.91 -48.47) scale(1.33 1.33)" gradientUnits="userSpaceOnUse"><stop offset="0" stop-color="#fff"/><stop offset="0.31" stop-color="#a8a8a8"/><stop offset="0.65" stop-color="#4f4f4f"/><stop offset="0.89" stop-color="#161616"/><stop offset="1"/></radialGradient><linearGradient id="linear-gradient-2" x1="-7775.61" y1="-7539.37" x2="-7564.16" y2="-7335.03" gradientTransform="translate(-7504.86 -7272.46) rotate(180)" gradientUnits="userSpaceOnUse"><stop offset="0" stop-color="#deebf2"/><stop offset="0.09" stop-color="#d5e1e8"/><stop offset="0.24" stop-color="#bbc6cc"/><stop offset="0.44" stop-color="#929a9f"/><stop offset="0.68" stop-color="#585d60"/><stop offset="0.94" stop-color="#101111"/><stop offset="1"/></linearGradient><radialGradient id="radial-gradient-2" cx="5.29" cy="27.26" r="402.63" gradientTransform="translate(-48.91 -48.47) scale(1.33 1.33)" gradientUnits="userSpaceOnUse"><stop offset="0" stop-color="#fff"/><stop offset="0.31" stop-color="#fdfdfd"/><stop offset="0.45" stop-color="#f6f6f6"/><stop offset="0.56" stop-color="#e9e9e9"/><stop offset="0.65" stop-color="#d7d7d7"/><stop offset="0.72" stop-color="#bfbfbf"/><stop offset="0.79" stop-color="#a2a2a2"/><stop offset="0.86" stop-color="gray"/><stop offset="0.92" stop-color="#575757"/><stop offset="0.97" stop-color="#2b2b2b"/><stop offset="1" stop-color="#141414"/></radialGradient><radialGradient id="radial-gradient-3" cx="5.27" cy="27.27" r="402.67" xlink:href="#radial-gradient-2"/><radialGradient id="radial-gradient-4" cx="5.27" cy="27.26" r="402.68" xlink:href="#radial-gradient-2"/><radialGradient id="radial-gradient-5" cx="77.4" cy="83.09" r="108.6" gradientTransform="translate(-48.91 -48.47) scale(1.33 1.33)" gradientUnits="userSpaceOnUse"><stop offset="0" stop-color="#e6e6e6"/><stop offset="0.1" stop-color="#d6d6d6"/><stop offset="0.31" stop-color="#aeaeae"/><stop offset="0.59" stop-color="#6c6c6c"/><stop offset="0.93" stop-color="#131313"/><stop offset="1"/></radialGradient><radialGradient id="radial-gradient-6" cx="107.11" cy="97.69" r="157.94" gradientTransform="translate(-48.91 -48.47) scale(1.33 1.33)" gradientUnits="userSpaceOnUse"><stop offset="0" stop-color="#fff"/><stop offset="0.34" stop-color="#fdfdfd"/><stop offset="0.48" stop-color="#f6f6f6"/><stop offset="0.58" stop-color="#eaeaea"/><stop offset="0.67" stop-color="#d8d8d8"/><stop offset="0.74" stop-color="#c2c2c2"/><stop offset="0.8" stop-color="#a6a6a6"/><stop offset="0.86" stop-color="#848484"/><stop offset="0.91" stop-color="#5f5f5f"/><stop offset="0.95" stop-color="#404040"/><stop offset="0.96" stop-color="#404040"/><stop offset="1" stop-color="#404040"/><stop offset="1"/></radialGradient><radialGradient id="radial-gradient-7" cx="60.74" cy="37.82" r="279.71" gradientTransform="translate(-48.91 -48.47) scale(1.33 1.33)" gradientUnits="userSpaceOnUse"><stop offset="0.17" stop-color="#fff"/><stop offset="0.19" stop-color="#e2f5fb"/><stop offset="0.23" stop-color="#aee2f4"/><stop offset="0.27" stop-color="#7fd1ee"/><stop offset="0.31" stop-color="#58c3e9"/><stop offset="0.36" stop-color="#38b7e5"/><stop offset="0.4" stop-color="#1faee2"/><stop offset="0.45" stop-color="#0ea8e0"/><stop offset="0.5" stop-color="#03a4de"/><stop offset="0.56" stop-color="#00a3de"/><stop offset="0.6" stop-color="#01a0da"/><stop offset="0.65" stop-color="#0498ce"/><stop offset="0.7" stop-color="#088bba"/><stop offset="0.74" stop-color="#0e789e"/><stop offset="0.79" stop-color="#17607a"/><stop offset="0.84" stop-color="#20424f"/><stop offset="0.87" stop-color="#292929"/></radialGradient><radialGradient id="radial-gradient-8" cx="60.73" cy="37.82" r="279.71" xlink:href="#radial-gradient-7"/><radialGradient id="radial-gradient-9" cx="78.89" cy="84.45" r="106.52" xlink:href="#radial-gradient-5"/><linearGradient id="linear-gradient-3" x1="137.97" y1="28.3" x2="275.8" y2="161.5" gradientUnits="userSpaceOnUse"><stop offset="0" stop-color="#eef0f3"/><stop offset="0.11" stop-color="#e9ebed"/><stop offset="0.26" stop-color="#d9dbde"/><stop offset="0.42" stop-color="#c0c1c3"/><stop offset="0.59" stop-color="#9c9d9f"/><stop offset="0.77" stop-color="#6e6f70"/><stop offset="0.96" stop-color="#373737"/><stop offset="1" stop-color="#2b2b2b"/></linearGradient><linearGradient id="linear-gradient-4" x1="26.09" y1="140.76" x2="163.93" y2="273.96" xlink:href="#linear-gradient-3"/><linearGradient id="linear-gradient-5" x1="92.77" y1="93.26" x2="164.25" y2="162.33" gradientUnits="userSpaceOnUse"><stop offset="0" stop-color="#bdd5e5"/><stop offset="0.14" stop-color="#b5cedf"/><stop offset="0.37" stop-color="#9fbccd"/><stop offset="0.65" stop-color="#7b9eb1"/><stop offset="0.97" stop-color="#49758b"/><stop offset="1" stop-color="#437086"/></linearGradient><linearGradient id="linear-gradient-6" x1="56.97" y1="110.19" x2="193.43" y2="242.05" gradientUnits="userSpaceOnUse"><stop offset="0" stop-color="#eef0f3"/><stop offset="0.1" stop-color="#e5e7ea"/><stop offset="0.27" stop-color="#cdcfd1"/><stop offset="0.48" stop-color="#a6a7a9"/><stop offset="0.73" stop-color="#707071"/><stop offset="1" stop-color="#2b2b2b"/></linearGradient><linearGradient id="linear-gradient-7" x1="157.55" y1="159.1" x2="205.41" y2="205.35" gradientUnits="userSpaceOnUse"><stop offset="0" stop-color="#d6dde8"/><stop offset="0.12" stop-color="#d1dae5"/><stop offset="0.26" stop-color="#c4d1de"/><stop offset="0.41" stop-color="#adc2d1"/><stop offset="0.56" stop-color="#8daebf"/><stop offset="0.72" stop-color="#6493a8"/><stop offset="0.87" stop-color="#32738c"/><stop offset="0.97" stop-color="#105d79"/></linearGradient><linearGradient id="linear-gradient-8" x1="108.59" y1="60.14" x2="244.89" y2="191.86" xlink:href="#linear-gradient-3"/></defs><title>bmw</title><g id="Layer_2" data-name="Layer 2"><g id="Warstwa_1" data-name="Warstwa 1"><path class="cls-1" d="M156.5,0A156.5,156.5,0,1,0,313,156.5,156.5,156.5,0,0,0,156.5,0Zm0,305.17A148.67,148.67,0,1,1,305.17,156.5,148.67,148.67,0,0,1,156.5,305.17Z"/><path class="cls-2" d="M306.3,156.5A149.8,149.8,0,1,1,156.5,6.71,149.81,149.81,0,0,1,306.3,156.5Z"/><path class="cls-3" d="M305.17,156.5A148.67,148.67,0,1,1,156.5,7.83,148.67,148.67,0,0,1,305.17,156.5Z"/><path class="cls-4" d="M256.18,156.5A99.68,99.68,0,1,1,156.5,56.83,99.67,99.67,0,0,1,256.18,156.5Z"/><polygon points="160.49 54.13 170.85 26.69 170.85 54.13 178.71 54.13 178.71 14.83 166.89 14.83 156.14 42.97 156.25 42.97 145.5 14.83 133.68 14.83 133.68 54.13 141.54 54.13 141.54 26.69 151.9 54.13 160.49 54.13"/><polygon points="268.41 71.75 254.98 91.34 276.08 80.97 281.81 87.83 248.59 104.51 241.88 96.38 254.75 76.97 254.68 76.88 233.26 86.04 226.47 77.97 248.87 48.31 254.59 55.18 240.57 74.07 262.27 64.39 268.41 71.75"/><path class="cls-5" d="M86.89,64.25a10,10,0,0,0-12.64-1.16,8.69,8.69,0,0,0,.06-5.87c-2-3.6-2.67-4-4.29-5.42-5.28-4.42-10.83-.64-14.8,4.08L36,78.74,66.19,104l20.23-24.1C91,74.43,91.75,69,86.89,64.25Zm-39,11L59.41,61.54c1.34-1.59,4.36-1.52,6.29.11a4.13,4.13,0,0,1,.71,6L55,81.25Zm31.78,2.28-12,14.31-7.52-6.32,12.1-14.42a4.77,4.77,0,0,1,6.48-.38C81,72.69,81.27,75.66,79.67,77.55Z"/><polygon class="cls-6" points="160.58 52.61 170.93 25.17 170.93 52.61 178.79 52.61 178.79 13.31 166.97 13.31 156.23 41.45 156.33 41.45 145.58 13.31 133.76 13.31 133.76 52.61 141.63 52.61 141.63 25.17 151.98 52.61 160.58 52.61"/><polygon class="cls-7" points="268.49 69.12 255.06 88.71 276.16 78.33 281.88 85.19 248.67 101.87 241.96 93.74 254.84 74.33 254.76 74.23 233.34 83.41 226.56 75.33 248.95 45.68 254.68 52.54 240.66 71.43 262.35 61.75 268.49 69.12"/><path class="cls-8" d="M85.49,63.47a10,10,0,0,0-12.64-1.15,8.68,8.68,0,0,0,.05-5.87c-2-3.6-2.66-4.05-4.29-5.42-5.28-4.43-10.83-.65-14.79,4.08L34.63,78l30.16,25.29L85,79.16C89.63,73.65,90.35,68.2,85.49,63.47Zm-39,11L58,60.77c1.33-1.59,4.35-1.53,6.3.1a4.14,4.14,0,0,1,.7,6L53.61,80.48Zm31.78,2.28-12,14.31-7.53-6.32L70.84,70.34a4.93,4.93,0,0,1,7.43,6.44Z"/><path class="cls-9" d="M60.14,156.5a96.36,96.36,0,1,1,96.36,96.36A96.36,96.36,0,0,1,60.14,156.5Z"/><path class="cls-10" d="M62.91,156.5a93.59,93.59,0,1,1,93.59,93.59A93.59,93.59,0,0,1,62.91,156.5Z"/><path class="cls-11" d="M62.77,156.5H156.5V62.77A93.72,93.72,0,0,0,62.77,156.5Z"/><path class="cls-12" d="M156.5,156.5v93.74a93.74,93.74,0,0,0,93.73-93.74Z"/><polygon class="cls-13" points="251.01 154.84 158.16 154.84 158.16 61.99 154.84 61.99 154.84 154.84 61.99 154.84 61.99 158.16 154.84 158.16 154.84 251.01 158.16 251.01 158.16 158.16 251.01 158.16 251.01 154.84"/><path class="cls-14" d="M158.16,64.62a91.89,91.89,0,0,1,90.23,90.22h1.66A93.57,93.57,0,0,0,158.16,63Z"/><path class="cls-15" d="M64.45,154.82a92,92,0,0,1,90.34-90.34V62.82a93.67,93.67,0,0,0-92,92Z"/><path class="cls-16" d="M154.84,248.38a91.88,91.88,0,0,1-90.23-90.22H63a93.57,93.57,0,0,0,91.89,91.89Z"/><path class="cls-17" d="M248.39,158.16a91.88,91.88,0,0,1-90.23,90.22v1.67a93.57,93.57,0,0,0,91.89-91.89Z"/><polygon class="cls-18" points="153.06 62.82 153.06 153.01 62.87 153.01 62.87 154.79 153.06 154.79 154.84 154.79 154.84 153.01 154.84 62.82 153.06 62.82"/><polygon class="cls-19" points="152.91 249.18 152.91 160.06 63.61 160.06 63.61 158.31 152.91 158.31 154.67 158.31 154.67 160.06 154.67 249.18 152.91 249.18"/><polygon class="cls-20" points="160.07 249.18 160.07 160.06 249.18 160.06 249.18 158.31 160.07 158.31 158.32 158.31 158.32 160.06 158.32 249.18 160.07 249.18"/><polygon class="cls-21" points="160.07 63.61 160.07 152.72 249.18 152.72 249.18 154.48 160.07 154.48 158.32 154.48 158.32 152.72 158.32 63.61 160.07 63.61"/><rect class="cls-22" width="313" height="313"/></g></g></svg>