<svg xmlns="http://www.w3.org/2000/svg" viewBox="0 0 313 313"><defs><style>.cls-1{fill:#a70230;}.cls-2{fill:none;}</style></defs><title>fiat</title><g id="Layer_2" data-name="Layer 2"><g id="Layer_1-2" data-name="Layer 1"><g id="Warstwa_1"><g id="_217956912" data-name=" 217956912"><polygon id="_217961256" data-name=" 217961256" class="cls-1" points="0 60.2 6.24 252.81 36.55 252.81 35.89 172.93 61.31 172.93 61.31 148.03 35.89 148.03 35.98 85.36 69.17 85.36 69 60.2 0 60.2"/><polygon id="_217958256" data-name=" 217958256" class="cls-1" points="80.98 60.2 84.81 252.81 116.12 252.81 116.75 60.2 80.98 60.2"/><polygon id="_217960584" data-name=" 217960584" class="cls-1" points="227.74 60.2 227.74 84.49 252.47 84.49 251.75 252.81 282.04 252.81 288.48 84.46 313 84.46 312.81 60.2 227.74 60.2"/><path id="_217960752" data-name=" 217960752" class="cls-1" d="M164,149.34l.35-65.42h17.48c7.92,14.57,13,33.84,17,65.42ZM136,252.8h29l.32-79.65h34.73c2.73,14.06,3.39,57.46,3.56,79.65h28.11c2.65-98.33-5.59-153.91-28.35-192.61h-70L136,252.8Z"/></g></g><rect class="cls-2" width="313" height="313"/></g></g></svg>