<svg xmlns="http://www.w3.org/2000/svg" viewBox="0 0 313 313"><defs><style>.cls-1{fill:#2f5e9c;}.cls-1,.cls-2{fill-rule:evenodd;}.cls-2{fill:#fff;}.cls-3{fill:none;}</style></defs><title>ford</title><g id="Layer_2" data-name="Layer 2"><g id="Layer_1-2" data-name="Layer 1"><path class="cls-1" d="M156.55,215.7C243,215.7,313,189.25,313,156.55S243,97.3,156.55,97.3,0,123.85,0,156.55,70.05,215.7,156.55,215.7Z"/><path class="cls-2" d="M156.55,209.64c-83,0-150.39-23.62-150.39-53.09s67.42-53.29,150.39-53.29c83.17,0,150.49,23.92,150.49,53.29s-67.32,53.09-150.49,53.09Z"/><path class="cls-1" d="M156.55,205.5c80.45,0,145.75-21.9,145.75-48.95S237,107.7,156.55,107.7,10.9,129.6,10.9,156.55,76,205.5,156.55,205.5Z"/><path class="cls-2" d="M194.71,166.34c6.86-6.46,10.69-13.22,20.58-13.12,6,.1,7.47,4.84,8.48,6.86h0l13-22h8l-21.6,38.25h0c-.41.81-1.42,2.33-1.31,3.54.2,1.91,2.62,1.41,1.71,1.41,4.34-.2,12.32-8.48,14.23-10.5.41-.5,1.11-1.41,1.52-1.41s1.21.4,1.21,1a9.52,9.52,0,0,1-1.62,2.83c-4,5-10.7,12.81-18.27,13-3.73,0-5.14-1.52-5.65-4.45-1.71,1.52-7.57,4.14-13.52,4.14a8.22,8.22,0,0,1-8-5.35,11.71,11.71,0,0,1-.6-7.57c-2.73,1.42-5.25,1.62-8.89,1.52-4.23-.1-6.86-2-8.17-7-4.85,8.89-5.05,9.19-10,18.47h-8.58l11-18.67h0a24.38,24.38,0,0,0,2.62-6.66,2,2,0,0,0-1.91-2.42c-1.42,0-3.74,1.41-6,3.53A115.85,115.85,0,0,0,153.22,174c-3.94,5.86-10.7,12.52-18.07,12.52-5.35,0-10.19-2.93-11.2-8.58,0,0-.51,1.31-5.25,4-.4.2-1.41.8-1.71.6a4.55,4.55,0,0,1-1.52-2.52c.3.1.91-.41,2.83-1.92,3.73-2.83,4.54-5.05,4.54-5.05.91-1.91,2.52-4.94,3.63-7.06,3-6.06,8.28-12.21,16.86-12.52a2.09,2.09,0,0,1,2.12,1.11,1.89,1.89,0,0,1,.5,1.82,19.3,19.3,0,0,0-12.72,7.87,22.33,22.33,0,0,0-3.43,8.48c-.6,4.54,1.52,7.57,4.65,8.28,5.85.91,10.69-3.33,14.53-9.89,1-1.72,1.72-6.16,1.72-8.58a9.58,9.58,0,0,0-2.32-6,2.57,2.57,0,0,1,2.42-2.82,1.5,1.5,0,0,1,1.21.4c2,2,3.13,5.85,3.13,8.78a15.44,15.44,0,0,1-.2,3c4.23-5.15,9.58-11.81,13.72-13.12a5.06,5.06,0,0,1,2.42-.41c7.58-.2,6.57,6.66,6.57,6.66,4-4.64,6.86-6.35,10.59-6.15,4,.2,5.45,3,5.45,5.25-.1,2.62-2,5.65-5.34,5.75a5.37,5.37,0,0,1-5.56-4c-1.91.71-2.82,2-3.23,4.65a5,5,0,0,0,5.15,6c5.55,0,8-2.42,10-4.24Z"/><path class="cls-2" d="M200.76,122.84c0,3.23-11.3,9.38-20.89,9.38-14.94,0-30.49-7.16-37.65-8.78-7.77-1.81-14.84-3.33-20.39-3.33-19.48,0-28.16,8.38-27.76,16,.2,3.13,2.73,5.15,6.46,4.44,4-.7,9.69-4.54,11.1-7.87a1.09,1.09,0,0,1,1.42-.61,1.23,1.23,0,0,1,.4,1.22c-.5,3.93-6.56,14.83-17.06,14.83-5.85,0-9.79-5.45-9.69-10.8.1-10,10.3-20.08,35.43-20.08a94,94,0,0,1,16,1.41c6.76,1.21,23.62,4,37.35,4.24,5,0,11.5.2,16.75-.61,5.55-.91,4.34-1.11,6.56-1.11,2,0,2,.81,2,1.62Z"/><path class="cls-1" d="M215.7,158c-3.53-.4-8,2.63-11.61,7.07a21.81,21.81,0,0,0-4,9c-.4,2.53.31,5.05,1.21,5.76s5,2.82,11.21-3.54a57.21,57.21,0,0,0,7-9.28h0l-1.11-.31h0c2.12-3.93,1.72-8.17-2.62-8.68Z"/><path class="cls-2" d="M141.92,146.05c0,1.11,1.51,2,2.82,2.12-.3,1.11-.2,1.62-.71,1.52a4.87,4.87,0,0,1-4.23-2.93c-4,.71-8,1.21-16,2-20.09,32.5-26.35,37.85-38.66,37.85-8.78,0-16.55-5.75-16.76-16-.1-6.26,4.95-13.93,14.34-16.25,1.11,0,1.51.4,1.51,1,0,.4-.4.91-1.31,1.31-2.73,1-7.47,6.36-7.47,11.31,0,3.73,2.32,7.87,6.26,8.78a11.24,11.24,0,0,0,3.13.2c9.79,0,20.79-11,32.7-27.76-1.92.1-10.09,1-12.11,3.33-.91.71-1.52.31-1.72-.5a3.49,3.49,0,0,1,.61-1.31c3.23-3.64,12.92-4.45,15.24-4.75,9.08-13.93,20.79-22.61,23.21-22.51a1.16,1.16,0,0,1,.91,1.62,10.73,10.73,0,0,1-1.51,1.61c-2,1.82-8.88,6.26-16.35,18.88A128.9,128.9,0,0,0,139,144a9.66,9.66,0,0,1-.41-2.42c.31-4.34,2.83-7,6.06-6.46a3.54,3.54,0,0,1,3,3.43A8.92,8.92,0,0,1,145,144a17.68,17.68,0,0,1-3.12,2Z"/><path class="cls-1" d="M141.41,143.83s1,.1,2.52-1.61a5.4,5.4,0,0,0,1.42-3.64c-.1-.6-.41-1.31-1.11-1.21a3.22,3.22,0,0,0-2.83,2.53,6.55,6.55,0,0,0,0,3.93Z"/><rect class="cls-3" width="313" height="313"/></g></g></svg>