<svg xmlns="http://www.w3.org/2000/svg" xmlns:xlink="http://www.w3.org/1999/xlink" viewBox="0 0 76.44 14.54"><defs><style>.cls-1,.cls-2,.cls-3{stroke:#000;stroke-width:0.35px;}.cls-1{fill:url(#linear-gradient);}.cls-2{fill:url(#linear-gradient-2);}.cls-3{fill:url(#linear-gradient-3);}.cls-4{fill:url(#linear-gradient-4);}.cls-5{fill:#fff6f2;}.cls-6{fill:#feefe8;}.cls-7{fill:#ed1b2e;}.cls-8{fill:#fdddd1;}.cls-9{fill:#f6967f;}.cls-10{fill:url(#linear-gradient-5);}.cls-11{fill:url(#linear-gradient-6);}.cls-12{fill:url(#linear-gradient-7);}.cls-13{fill:url(#linear-gradient-8);}.cls-14{fill:url(#linear-gradient-9);}.cls-15{fill:url(#linear-gradient-10);}.cls-16{fill:url(#linear-gradient-11);}.cls-17{fill:url(#linear-gradient-12);}.cls-18{fill:url(#linear-gradient-13);}.cls-19{fill:url(#linear-gradient-14);}.cls-20{fill:url(#linear-gradient-15);}.cls-21{fill:url(#linear-gradient-16);}.cls-22{fill:#fff;}</style><linearGradient id="linear-gradient" x1="-181.12" y1="174.88" x2="-181.12" y2="56.11" gradientTransform="matrix(0.17, 0, 0, -0.17, 41.68, 28.79)" gradientUnits="userSpaceOnUse"><stop offset="0.18" stop-color="#ed1b2e"/><stop offset="0.39" stop-color="#eb1b2e"/><stop offset="0.5" stop-color="#e31a2c"/><stop offset="0.59" stop-color="#d51829"/><stop offset="0.67" stop-color="#c21626"/><stop offset="0.74" stop-color="#a91321"/><stop offset="0.8" stop-color="#8b101b"/><stop offset="0.86" stop-color="#660c14"/><stop offset="0.92" stop-color="#3c070c"/><stop offset="0.97" stop-color="#0d0203"/><stop offset="0.98"/></linearGradient><linearGradient id="linear-gradient-2" x1="142.81" y1="174.88" x2="142.81" y2="56.11" xlink:href="#linear-gradient"/><linearGradient id="linear-gradient-3" x1="-18.19" y1="174.88" x2="-18.19" y2="56.11" xlink:href="#linear-gradient"/><linearGradient id="linear-gradient-4" x1="4.77" y1="280.2" x2="4.77" y2="280.2" gradientTransform="matrix(0.17, 0, 0, -0.17, 49.32, 48.32)" gradientUnits="userSpaceOnUse"><stop offset="0" stop-color="#fff"/><stop offset="1" stop-color="#ed1b2e"/></linearGradient><linearGradient id="linear-gradient-5" x1="-181.38" y1="174.01" x2="-180.43" y2="62.39" xlink:href="#linear-gradient"/><linearGradient id="linear-gradient-6" x1="-18.28" y1="175.41" x2="-17.33" y2="63.77" xlink:href="#linear-gradient"/><linearGradient id="linear-gradient-7" x1="142.4" y1="176.78" x2="143.36" y2="65.14" xlink:href="#linear-gradient"/><linearGradient id="linear-gradient-8" x1="-181.51" y1="183.44" x2="-181.51" y2="96.15" gradientTransform="matrix(0.17, 0, 0, -0.17, 41.68, 28.79)" gradientUnits="userSpaceOnUse"><stop offset="0" stop-color="#fff"/><stop offset="0.11" stop-color="snow"/><stop offset="0.24" stop-color="#fdeaec"/><stop offset="0.38" stop-color="#fbd1d5"/><stop offset="0.54" stop-color="#f9adb4"/><stop offset="0.71" stop-color="#f57f8a"/><stop offset="0.88" stop-color="#f14857"/><stop offset="1" stop-color="#ed1b2e"/></linearGradient><linearGradient id="linear-gradient-9" x1="-180.98" y1="164.17" x2="-180.98" y2="69.91" xlink:href="#linear-gradient-8"/><linearGradient id="linear-gradient-10" x1="-146.57" y1="164.17" x2="-146.57" y2="69.91" xlink:href="#linear-gradient-8"/><linearGradient id="linear-gradient-11" x1="-64.85" y1="164.17" x2="-64.85" y2="69.91" xlink:href="#linear-gradient-8"/><linearGradient id="linear-gradient-12" x1="24.7" y1="164.17" x2="24.7" y2="69.91" xlink:href="#linear-gradient-8"/><linearGradient id="linear-gradient-13" x1="-13.28" y1="143.16" x2="-12.91" y2="65.69" xlink:href="#linear-gradient-8"/><linearGradient id="linear-gradient-14" x1="24.92" y1="183.44" x2="24.92" y2="96.15" xlink:href="#linear-gradient-8"/><linearGradient id="linear-gradient-15" x1="142.74" y1="183.44" x2="142.74" y2="96.15" xlink:href="#linear-gradient-8"/><linearGradient id="linear-gradient-16" x1="151.52" y1="164.17" x2="151.52" y2="69.91" xlink:href="#linear-gradient-8"/></defs><title>Asset 2</title><g id="Layer_2" data-name="Layer 2"><g id="Layer_1-2" data-name="Layer 1"><path class="cls-1" d="M21,.23c.14,0,.49-.07.51.52s0,1.65,0,1.9-.16.38-.43.39H5.25A1.17,1.17,0,0,0,4,4.16V10.4a1.2,1.2,0,0,0,1.22,1.18H16.47A1.2,1.2,0,0,0,17.7,10.4a.49.49,0,0,0,0-.12V8.9c0-.14,0-.29-.33-.3h-5c-.34,0-.47-.11-.49-.48s0-1.63,0-1.82.1-.38.54-.38h8.77c.22,0,.36,0,.38.51s0,4.35,0,4.61a3.24,3.24,0,0,1-3.13,3.21c-2.43.07-14.86,0-15.1,0A3.46,3.46,0,0,1,.24,11.13c-.07-.82-.06-7.3-.06-7.7C.18,2.81.84.25,3.36.2S20.7.22,21,.23Z"/><path class="cls-2" d="M55.66,3.67A3.34,3.34,0,0,1,58.9.31H75.69c.35,0,.58.15.57.57s0,1.27,0,1.71,0,.52-.56.53h-15A1.29,1.29,0,0,0,59.37,4.3v.06c0,.56,0,5.62.09,6a1.16,1.16,0,0,0,1.17,1.11H75.77c.33,0,.45.2.46.6s0,1.41,0,1.73-.07.43-.55.45-15.06.1-16.87,0a3.22,3.22,0,0,1-3.13-3.31v0C55.65,9.06,55.68,4.6,55.66,3.67Z"/><path class="cls-3" d="M26.74.72c0-.56.4-.43.52-.44s5.45,0,5.65,0,.28.16.48.5S38.2,9.3,38.3,9.5s.36.46.58.07,5-8.81,5.08-9,.27-.22.49-.23,5.66,0,5.66,0c.26,0,.37.17.38.52s0,13.08,0,13.08a.35.35,0,0,1-.3.41H47c-.17,0-.35,0-.34-.56s0-10.31,0-10.31-.08-.38-.28,0-3.69,6.91-6.1,10.77a.35.35,0,0,1-.3.13H37.27c-.11,0-.2,0-.34-.22S31,3.57,30.88,3.35s-.32-.14-.32.12V13.89c0,.19,0,.42-.42.44s-3.06,0-3.26,0-.18-.16-.2-.39S26.74,1.28,26.74.72Z"/><polygon class="cls-4" points="50.13 0.69 50.13 0.69 50.14 0.69 50.13 0.69"/><path class="cls-5" d="M46.87.89h2.87c.23,0,.37.45.37.45,0-.62-.1-.66-.31-.66H44.53c-.19,0-.27.15-.33.35a1,1,0,0,1,.49-.12Z"/><path class="cls-6" d="M46.87.91h2.87c.24,0,.37.45.37.45C50.11.73,50,.7,49.8.7H44.52c-.2,0-.26.14-.33.35a.85.85,0,0,1,.49-.12Z"/><path d="M26.83.37c.1-.22.23-.33.42-.33"/><path d="M5.25,3a1.26,1.26,0,0,0-.93.3A1.36,1.36,0,0,0,4,4.26V10.4a1.22,1.22,0,0,0,1.26,1.18h.06a1.21,1.21,0,0,1-1.21-1.18V4.26a1.14,1.14,0,0,1,.3-.83A1.2,1.2,0,0,1,5.25,3Z"/><path class="cls-7" d="M12.45,6.23c-.21,0-.26.06-.26.26h0V6.2h.31Z"/><path class="cls-8" d="M12.48,6.36c-.1,0-.16,0-.16.14V6.36Z"/><path class="cls-7" d="M21,6.22a.32.32,0,0,1,.32.26c0,.14,0,0,0,0V6.19H21Z"/><path class="cls-8" d="M21,6.35c.11,0,.19,0,.19.14V6.35Z"/><path class="cls-9" d="M75.63,11.82c.1,0,.18,0,.18.13v-.14Z"/><path class="cls-10" d="M21.26,2.3c0-.42.07-1,0-1.37a1.12,1.12,0,0,0-.09-.36H21C20.55.57,5.61.51,3.32.57A3.13,3.13,0,0,0,.47,3.47c0,.54,0,6.91.05,7.68A3.13,3.13,0,0,0,3.32,14h15.1a2.94,2.94,0,0,0,2.83-2.88V6.48a.28.28,0,0,1,0-.13h0V6.29h-9V8.22h5.21a.6.6,0,0,1,.66.53v.06h0v1.42a1.52,1.52,0,0,1-1.43,1.61H5.35a1.53,1.53,0,0,1-1.61-1.42V4.24a1.66,1.66,0,0,1,.44-1.12A1.55,1.55,0,0,1,5.3,2.68h16Zm-.12.35H5.25a1.65,1.65,0,0,0-1.17.46,1.65,1.65,0,0,0-.44,1.16v6.18A1.61,1.61,0,0,0,5.32,12H16.54a1.58,1.58,0,0,0,1.6-1.58V8.88h0a.63.63,0,0,0-.63-.66H12.33V6.32h8.88a.33.33,0,0,1,0,.14v4.59a2.86,2.86,0,0,1-2.77,2.82c-2,.07-11,.05-14.81,0H3.32A3.07,3.07,0,0,1,.55,11.09C.48,10.32.49,4,.5,3.43A3,3,0,0,1,3.32.61H21.2a.38.38,0,0,1,0,.15V2.63Z"/><path class="cls-11" d="M50.21.66H44.5c-.18,0-.19,0-.24.09L40.61,7.2,39.17,9.74a.62.62,0,0,1-.57.38c-.16,0-.4-.09-.59-.47-.11-.2-4.69-8.34-4.91-8.7a2,2,0,0,0-.18-.32H27.09V14h0c0,.11.06.1.06.09h3.17V3.63a.55.55,0,0,1,.33-.55.52.52,0,0,1,.59.25c.09.12,1.3,2.28,4,7.08h0l2.08,3.71H40c2.08-3.3,4.84-8.45,5.75-10.16L46,3.42c.18-.32.39-.36.53-.34a.49.49,0,0,1,.37.43V13.9a.48.48,0,0,0,0,.17s0,.07.06,0h3.13V1A.6.6,0,0,0,50.21.66ZM47,14V3.47h0A.51.51,0,0,0,46.6,3a.59.59,0,0,0-.59.35l-.29.54C44.79,5.6,42,10.77,40,14.06H37.28L35.2,10.35h0c-2.69-4.79-3.9-7-4-7.08A.57.57,0,0,0,30.55,3a.58.58,0,0,0-.36.6V14H27.08V.66h5.74L33,1c.22.37,4.79,8.51,4.9,8.71.22.4.48.5.65.5a.71.71,0,0,0,.62-.41l1.44-2.56C42,4.71,44.17,1,44.27.76s0,0,.19,0h5.62a.38.38,0,0,1,0,.15V14H47Z"/><path class="cls-12" d="M75.67.62H58.9a3,3,0,0,0-2.91,3v7.26a2.92,2.92,0,0,0,2.81,3h0c1.76,0,16.23,0,16.85-.06h.22V12a1.31,1.31,0,0,0,0-.28H60.62a1.47,1.47,0,0,1-1.49-1.41c0-.22-.05-2-.07-4.35V4.35a1.47,1.47,0,0,1,.44-1,1.66,1.66,0,0,1,1.25-.5H75.89a.29.29,0,0,1,0-.13V.82C75.94.7,75.93.64,75.67.62Zm0,2.09H60.74a1.75,1.75,0,0,0-1.31.52A1.55,1.55,0,0,0,59,4.35V6c0,2.32,0,4.17.06,4.36a1.51,1.51,0,0,0,1.58,1.46H75.82a.88.88,0,0,1,0,.23V13.8h-.16c-.62,0-15.09.11-16.85.07a2.87,2.87,0,0,1-2.77-3h0V3.65A2.91,2.91,0,0,1,58.88.71H75.65c.2,0,.2,0,.2.17V2.76Z"/><path class="cls-13" d="M1.33,13a2.87,2.87,0,0,1-.74-1.84C.52,10.35.53,4,.53,3.46A3,3,0,0,1,3.32.64H21.16s0,1.59,0,1.94l.11-1c0-.77-.07-1-.13-1l-.3,0H3.27A3.12,3.12,0,0,0,.39,3.46c0,.54,0,6.91,0,7.68A3,3,0,0,0,1.33,13Z"/><path class="cls-14" d="M17.42,8.25a.6.6,0,0,1,.63.58v.05h0v1.41a1.49,1.49,0,0,1-1.4,1.58H5.32a1.51,1.51,0,0,1-1.55-1.45V4.27A1.48,1.48,0,0,1,4.2,3.18a1.56,1.56,0,0,1,1.1-.49,1.55,1.55,0,0,0-1.18.4,1.63,1.63,0,0,0-.46,1.18v6.15A1.64,1.64,0,0,0,5.34,12H16.55a1.6,1.6,0,0,0,1.62-1.6.41.41,0,0,0,0-.11V8.86h0C18.13,8.44,17.91,8.27,17.42,8.25Z"/><path class="cls-15" d="M21.14,6.35V11A3.26,3.26,0,0,1,20,13.44,3.12,3.12,0,0,0,21.34,11V6.23H12.25a.06.06,0,0,0-.06.06V8.1c0,.13,0,.14.19.14l-.05-.06V6.35Z"/><path class="cls-16" d="M31.18,3.15c-.29-.37-.56-.34-.64-.31a.62.62,0,0,0-.4.64c0,.08.07,8.2.08,10.14V3.48A.48.48,0,0,1,30.53,3,.53.53,0,0,1,31.18,3.15Z"/><path class="cls-17" d="M47,12.47c0-2.81.06-9,.06-9h0A.55.55,0,0,0,46.6,3a.6.6,0,0,0-.61.37s-.51,1-1.28,2.39L46,3.31c.13-.23.31-.34.48-.31a.48.48,0,0,1,.37.4h0S47,9.49,47,12.47Z"/><path class="cls-18" d="M41.56,5.55c-1.12,2-2.33,4-2.42,4.17a.58.58,0,0,1-.54.36A.7.7,0,0,1,38,9.64s-.32-.46-.72-1.16c.38.67.6,1.17.62,1.21.22.43.49.52.67.52a.71.71,0,0,0,.64-.43S40.32,7.75,41.56,5.55Z"/><path class="cls-19" d="M41.56,5.55C42.83,3.3,44.29.82,44.35.82h5.76V9.58l.1,2.75c0-.78.06-1.79.06-2.84V1A.43.43,0,0,0,50,.62H44.59a.67.67,0,0,0-.41.28C44.09,1,42.92,3.19,41.56,5.55Z"/><path class="cls-20" d="M75.88,2.55c0-.16.05-1.42.06-1.48A.45.45,0,0,0,75.46.6C75.19.59,61,.6,58.9.6a3,3,0,0,0-2.94,3v7.3a2.73,2.73,0,0,0,.91,2.16,3.56,3.56,0,0,1-.79-2.16V3.64A2.88,2.88,0,0,1,58.89.73c2.09,0,16.4,0,16.77,0,.17,0,.17,0,.17.14S75.89,2.39,75.88,2.55Z"/><path class="cls-21" d="M75.85,13.73c0-.32.1-1.32.08-1.7,0-.21,0-.28-.08-.3H60.62a1.45,1.45,0,0,1-1.46-1.38c0-.17-.09-6-.09-6a1.47,1.47,0,0,1,.44-1,1.64,1.64,0,0,1,1.23-.55,1.78,1.78,0,0,0-1.32.47A1.63,1.63,0,0,0,59,4.38s.07,5.83.09,6a1.53,1.53,0,0,0,1.59,1.45H75.8v.21C75.82,12.41,75.88,13.41,75.85,13.73Z"/><path class="cls-22" d="M76,.82a.34.34,0,0,0-.32-.35H58.76A3.13,3.13,0,0,0,56.46,2,3.44,3.44,0,0,1,58.77.64H75.63c.3,0,.16,1.35.28,1.47C75.93,1.53,76,1.1,76,.82Z"/><path class="cls-22" d="M32.75.49H27.39c-.27,0-.34.09-.34.37V2.32a8.55,8.55,0,0,1,.09-1.23h0c0-.39.18-.4.28-.4h5.16c.16,0,.34.17.45.35s.14.23.22.27C33.21,1.05,33,.49,32.75.49Z"/><path class="cls-22" d="M21,.47H3.2A3.09,3.09,0,0,0,.92,2,3.44,3.44,0,0,1,3.22.64H21c.29,0,.15,1.35.28,1.47a10.7,10.7,0,0,0,0-1.29A.34.34,0,0,0,21,.47Z"/><path class="cls-22" d="M49.88.5H44.51c-.19,0-.37.34-.45.55A.55.55,0,0,0,44.2.93l.15-.19c.12-.1.27-.07.44-.07h5.09c.27,0,.22.39.21.41V1.8a3.31,3.31,0,0,0,.06.54V.87A.33.33,0,0,0,49.88.5Z"/><path class="cls-7" d="M27,1c0-.07,0-.56.27-.56h-.38Z"/></g></g></svg>