<svg xmlns="http://www.w3.org/2000/svg" viewBox="0 0 313 313"><defs><style>.cls-1{fill:#005baa;fill-rule:evenodd;}.cls-2{fill:none;}</style></defs><title>hyundai</title><g id="Layer_2" data-name="Layer 2"><g id="Layer_1-2" data-name="Layer 1"><path class="cls-1" d="M156.5,79.24C70.07,79.24,0,113.83,0,156.5s70.07,77.26,156.5,77.26S313,199.17,313,156.5,242.93,79.24,156.5,79.24ZM141.66,96.43c17.86-6.31,70.93,0,91.54,9.9,6.6,6.33-29.42,26.66-72.3,35.47-61.3,12.36-32.17-34.92-19.24-45.37ZM36.37,188c-13.48-9.61-39.87-37.11,3.85-65.7,23.09-13.47,36-16.5,52-19.79,7.7-1.66,13.2.27,6.32,6-14.56,15.13-44.81,65.15-47.55,76.15-2.21,7.43-6.6,9.35-14.57,3.3Zm125.9,31.89c-25.84,2.75-83.29-5.77-84.39-13.19,1.1-17.88,91.27-47.57,107.49-31.07,6.87,12.92-6.33,43.44-23.1,44.26Zm131.41-52c-6.6,15.13-28.87,32.18-75.6,43.73-7.15,1.64-9.62-2.75-5-6.88,7.7-4.67,44.81-66.8,49.49-79.18,2.75-6.32,8-3.84,11.27-1.37,14.85,9.62,26.12,25.29,19.79,43.7Z"/><rect class="cls-2" width="313" height="313"/></g></g></svg>