<svg id="Layer_1" data-name="Layer 1" xmlns="http://www.w3.org/2000/svg" xmlns:xlink="http://www.w3.org/1999/xlink" viewBox="0 0 313 313"><defs><style>.cls-1{fill:url(#linear-gradient);}.cls-2{fill:url(#linear-gradient-2);}.cls-3{fill:url(#linear-gradient-3);}.cls-4{fill:url(#linear-gradient-4);}.cls-5{fill:url(#linear-gradient-5);}.cls-6{fill:url(#linear-gradient-6);}.cls-7{fill:url(#linear-gradient-7);}.cls-8{fill:url(#linear-gradient-8);}</style><linearGradient id="linear-gradient" x1="80.47" y1="188.75" x2="80.47" y2="132.3" gradientTransform="matrix(1, 0, 0, -1, 0, 314)" gradientUnits="userSpaceOnUse"><stop offset="0" stop-color="#e5e2df"/><stop offset="0" stop-color="#ded9d6"/><stop offset="0.06" stop-color="#cfcac9"/><stop offset="0.18" stop-color="#a8a4a7"/><stop offset="0.26" stop-color="#8b878d"/><stop offset="0.52" stop-color="#f3f4f4"/><stop offset="0.58" stop-color="#e5e5e6"/><stop offset="0.7" stop-color="#c0bec0"/><stop offset="0.86" stop-color="#858085"/><stop offset="0.88" stop-color="#807b80"/><stop offset="1" stop-color="#d1d3d4"/><stop offset="1" stop-color="#a7a9ac"/></linearGradient><linearGradient id="linear-gradient-2" x1="228.18" y1="188.75" x2="228.18" y2="132.3" xlink:href="#linear-gradient"/><linearGradient id="linear-gradient-3" x1="154.32" y1="188.75" x2="154.32" y2="132.3" xlink:href="#linear-gradient"/><linearGradient id="linear-gradient-4" x1="80.52" y1="204.69" x2="80.52" y2="125.24" xlink:href="#linear-gradient"/><linearGradient id="linear-gradient-5" x1="228.19" y1="204.69" x2="228.19" y2="125.24" xlink:href="#linear-gradient"/><linearGradient id="linear-gradient-6" x1="154.32" y1="204.69" x2="154.32" y2="125.24" xlink:href="#linear-gradient"/><linearGradient id="linear-gradient-7" x1="156.47" y1="217.96" x2="156.47" y2="100.28" xlink:href="#linear-gradient"/><linearGradient id="linear-gradient-8" x1="156.48" y1="121.01" x2="156.48" y2="211.17" xlink:href="#linear-gradient"/></defs><title>jac</title><path d="M313,156.52a24.82,24.82,0,0,1-4,13.35c-3.34,5.56-7.7,9.67-12.77,13.51a105,105,0,0,1-21.85,12.39,197.34,197.34,0,0,1-29.46,10c-28.13,7.35-59.5,10.45-88.43,10.45s-60.31-3.1-88.44-10.45a197.34,197.34,0,0,1-29.46-10,105.34,105.34,0,0,1-21.9-12.39C11.65,179.54,7.3,175.43,4,169.87a24.5,24.5,0,0,1,0-26.71c3.31-5.56,7.69-9.69,12.77-13.51a105.38,105.38,0,0,1,21.82-12.43,198.44,198.44,0,0,1,29.46-10c28.13-7.35,59.5-10.45,88.44-10.45s60.31,3,88.43,10.45a197.3,197.3,0,0,1,29.46,10,104.57,104.57,0,0,1,21.85,12.4c5.08,3.84,9.43,7.95,12.77,13.51A24.87,24.87,0,0,1,313,156.52Z"/><path class="cls-1" d="M52.48,177.31a4.52,4.52,0,0,1-4.52-4.5h0V161H83.52a7.12,7.12,0,0,0,7.11-7.11v-8.78a3.31,3.31,0,0,0-3.3-3.3H61.13V130.07a4.52,4.52,0,0,1,4.52-4.52h42.8a4.52,4.52,0,0,1,4.52,4.52v30.39a16.87,16.87,0,0,1-16.86,16.85Z"/><path class="cls-2" d="M212.52,177.31a16.87,16.87,0,0,1-16.86-16.85V142.41a16.87,16.87,0,0,1,16.86-16.86H256.2a4.51,4.51,0,0,1,4.51,4.51h0v11.76H224.38a6.44,6.44,0,0,0-6.43,6.43v6.35a6.46,6.46,0,0,0,6.43,6.43h36.29V172.8a4.51,4.51,0,0,1-4.51,4.51H212.52Z"/><path class="cls-3" d="M173,177.31a8.9,8.9,0,0,1-8-5.08l-9.25-19.9h-2.91l-9.24,19.9a8.9,8.9,0,0,1-8,5.08H115.75l21.67-46.64a8.88,8.88,0,0,1,8-5.07h17.71a8.87,8.87,0,0,1,8,5.07l21.67,46.64Z"/><path class="cls-4" d="M49.23,172.8a3.31,3.31,0,0,0,3.25,3.33H96.16a15.65,15.65,0,0,0,15.65-15.64V130.07a3.31,3.31,0,0,0-3.31-3.3H65.65a3.29,3.29,0,0,0-3.3,3.28v10.53h25a4.51,4.51,0,0,1,4.52,4.5h0v8.77a8.35,8.35,0,0,1-8.34,8.35H49.23Z"/><path class="cls-5" d="M259.5,172.8V162.25H224.38a7.64,7.64,0,0,1-7.64-7.64v-6.35a7.64,7.64,0,0,1,7.64-7.64H259.5V130.07a3.3,3.3,0,0,0-3.3-3.3H212.52a15.63,15.63,0,0,0-15.64,15.63h0v18.05a15.64,15.64,0,0,0,15.64,15.64H256.2A3.32,3.32,0,0,0,259.5,172.8Z"/><path class="cls-6" d="M166.1,171.67A7.65,7.65,0,0,0,173,176.1h18l-20.88-44.91a7.67,7.67,0,0,0-6.94-4.42H145.46a7.67,7.67,0,0,0-6.94,4.42q-10.44,22.45-20.86,44.91h17.92a7.63,7.63,0,0,0,6.92-4.43l9.58-20.6h4.41Z"/><path class="cls-7" d="M309,143.16c-3.34-5.56-7.7-9.67-12.77-13.51a104.44,104.44,0,0,0-21.85-12.43,197.3,197.3,0,0,0-29.46-10c-28.12-7.32-59.54-10.42-88.47-10.42s-60.31,3-88.44,10.45a198.44,198.44,0,0,0-29.46,10,105.8,105.8,0,0,0-21.86,12.4C11.65,133.49,7.3,137.6,4,143.16a24.5,24.5,0,0,0,0,26.71c3.34,5.56,7.7,9.67,12.77,13.51a105,105,0,0,0,21.85,12.39,197.34,197.34,0,0,0,29.46,10c28.13,7.35,59.5,10.45,88.44,10.45s60.3-3.1,88.43-10.45a197.34,197.34,0,0,0,29.46-10,105,105,0,0,0,21.85-12.39c5.08-3.84,9.43-7.95,12.77-13.51a24.5,24.5,0,0,0,0-26.71ZM288.11,177a177.45,177.45,0,0,1-65,23.24,36.69,36.69,0,0,1-17.73-1.55l-7.74-2.58a37.47,37.47,0,0,0-12.11-2H127.45a37.47,37.47,0,0,0-12.11,2l-7.74,2.58a36.69,36.69,0,0,1-17.73,1.55,177.63,177.63,0,0,1-65-23.24A15.62,15.62,0,0,1,18,158.86a87.63,87.63,0,0,1,12.19-24.55,43.37,43.37,0,0,1,22.45-16.38,346,346,0,0,1,207.73,0,43.37,43.37,0,0,1,22.45,16.38A87.9,87.9,0,0,1,295,158.86,15.64,15.64,0,0,1,288.11,177Z"/><path class="cls-8" d="M295,159a87.9,87.9,0,0,0-12.19-24.55A43.41,43.41,0,0,0,260.35,118a346,346,0,0,0-207.73,0,43.41,43.41,0,0,0-22.45,16.38A87.63,87.63,0,0,0,18,159a15.65,15.65,0,0,0,6.88,18.19,177.63,177.63,0,0,0,65,23.24,36.7,36.7,0,0,0,17.73-1.56l7.74-2.58a37.51,37.51,0,0,1,12.11-2h58.07a37.47,37.47,0,0,1,12.11,2l7.74,2.58a36.69,36.69,0,0,0,17.73,1.56,177.46,177.46,0,0,0,65-23.25A15.64,15.64,0,0,0,295,159Zm-12.44,15.46a180.3,180.3,0,0,1-59.93,20.88A33.47,33.47,0,0,1,206,194l-8-2.66A33.91,33.91,0,0,0,188,189.52q-15.72-.42-31.44-.42t-31.49.42a34,34,0,0,0-10.09,1.78L107,194a33.47,33.47,0,0,1-16.61,1.34,180.3,180.3,0,0,1-59.93-20.88,11.29,11.29,0,0,1-5.08-13.88,126.27,126.27,0,0,1,13.39-25.79A34.8,34.8,0,0,1,56,121.42c58.14-20.52,142.81-20.52,201,0a34.8,34.8,0,0,1,17.27,13.33,126.27,126.27,0,0,1,13.39,25.79A11.3,11.3,0,0,1,282.55,174.42Z"/></svg>