<svg xmlns="http://www.w3.org/2000/svg" viewBox="0 0 313 313"><defs><style>.cls-1{fill:#231f20;fill-rule:evenodd;}.cls-2{fill:none;}</style></defs><title>jaguar</title><g id="Layer_2" data-name="Layer 2"><g id="Layer_1-2" data-name="Layer 1"><path class="cls-1" d="M210.17,141.27c4.68,4.86,12,5.22,12,5.22l7,.46c5.15.36,6.22,2.84,6.22,2.84,4.46,7.84,15.62,12.08,15.62,12.08-7.1-4.08-12.25-13.14-12.25-13.14-3.37-5-11.54-5-11.54-5h-4.8a36.85,36.85,0,0,1-12.25-2.48Z"/><path class="cls-1" d="M261.59,164.83a28,28,0,0,0-8.21-2c4.38,1.54,5.92,2.84,5.92,2.84,3.32,2,1.07,5.56,1.07,5.56-2.81,5-13.82,2.48-13.82,2.48,11.72,7.81,16.64,2,16.64,2,3-3.62,2.3-5.39,1.48-7.64,0,0,10.65,3.43,21.66-6.75,0,0-11.84,9.47-24.74,3.56Z"/><path class="cls-1" d="M60.65,81.44s-6.93.82-10.24.76c0,0-.71.12-.71.6,0,0,.23.83,1.71.83,0,0,6.16-.18,9.24-2.19Z"/><path class="cls-1" d="M132.85,132.18a209.5,209.5,0,0,0,24.75.07,18.09,18.09,0,0,1,5.68.41c6.91,1,8,4.26,8,4.26s12.26,25.22,36.41,24.6l11.4.06c10.3,0,24,10.12,24,10.12-2.84-2.13-8.64-7.7-8.64-7.7-7.34-6.51-19.2-6.56-19.2-6.56l-12-.07c-22.85-.21-28.83-20.81-28.83-20.81a10.56,10.56,0,0,0-9.77-6c-.52,0-1,0-1.54,0-22.49,1.13-29.86-.67-29.86-.67a70.25,70.25,0,0,1-14.81-5.91s1.06-5.09-1.07-9.35c0,0,8.29,3.31,15.86,1.53,0,0-12.19-3.07-20.83-9.23,0,0,4.14,12,.71,16.46,0,0-2.25,8.28-22.85,1.54,0,0-8.53-3.32-15.16-3.32,0,0-5.33.24-5.33,3a2.2,2.2,0,0,0,1.31,1.9s1.54,1.06.59,3.43c0,0,2.13-1.54,1.54-3.79,0,0-.24-1.18.83-1.42,0,0,2.84-1.18,10.89,1.78,0,0,13,5.91,20.48,5.91,0,0,8.05-.47,11-4a68.75,68.75,0,0,0,16.38,3.86Z"/><path class="cls-1" d="M39.9,111.43c2.66.09,4.88-2.44,4.88-2.44a22.62,22.62,0,0,1,13.86-6.66c10.43-.71,23.13,9.41,23.13,9.41C72.8,99.8,63.34,99,63.34,99a4.74,4.74,0,0,1-3.28-2.84c-3-5.55-6.44-5.82-6.44-5.82a9.5,9.5,0,0,1,1.51,5.47c0,5.81-8.7,6.65-8.7,6.65-3.47,6.84-6.38,6.44-6.38,6.44a2,2,0,0,1-2-.89c-.35-.53.24-1,.24-1a16.78,16.78,0,0,0,1.84-1.36c5.92-4.56,6-9.71,6-9.71-.78-6-5.81-6.1-5.81-6.1A4.07,4.07,0,0,0,37,91.26a61.06,61.06,0,0,0-3.2,5.21c-1.72,2.84-3.26,2.43-3.26,2.43a4.48,4.48,0,0,1-3.31-1.66,1.78,1.78,0,0,1-.35-2.13c2.24-3.61,7-4.5,7-4.5l.48-.14s.42-.1.89-.26l0,0c6.13-2.16,6.65-5.37,6.65-5.37a8.51,8.51,0,0,0-4-1.13c-3.73.24-5,3.91-5,3.91L32,86.66s-.4-.49.22-1.07c0,0,2.8-3.44,13-5a73.48,73.48,0,0,1,19.3-.06s-6.75,7-14.86,4.08c0,0-.12,2.61,7,3.91,0,0,7.46.77,16.87,9.77,0,0-2.48-5.45-10.53-11.61a.6.6,0,0,1-.06-1s3.49-4,8.17-4c0,0,24.21,1.24,37.82,15.45a20.16,20.16,0,0,0-2.54-5.8s-.42-.41-.18-.71c0,0,.18-.59,2.55-.12,0,0,8.64,1.42,28.71,8.76l21.72,7.76s7.58,2.78,11.78,4.67c0,0-8.46-.29-13,2,0,0-.19.11-.1.27,0,0,0,.16.42.09a23.29,23.29,0,0,1,14,1.07,58.28,58.28,0,0,1,12.59,7.3s3.77,3.28,6.17,6a74.66,74.66,0,0,0,12.08,9s-5.24-5-9.59-9.59c0,0-6.22-7.46-9.06-9.95,0,0,21.44,10.06,40.76,21,3.46,1.95,14.65,8.43,14.65,8.43a158.23,158.23,0,0,0,21.47,11,20.61,20.61,0,0,0,17.76-.24l.39-.17c5.21-2.7,6.4-1.85,6.4-1.85a3,3,0,0,1,1.83,3.64c2.25-2.31,2.05-3.56,2.05-3.56-.07-4-4.4-3.63-4.4-3.63-1.13.13-4.85,2.2-7.23,3.58l-.7.45c-6.28,3.26-15,.24-15,.24a156.24,156.24,0,0,1-21.74-10.91s-19.89-11.81-37-20.42c0,0-21.4-11.1-50.08-23.53,0,0-54.7-25.31-95-25.31,0,0-20.9-.27-28,7.77A4,4,0,0,0,30,86.66a.62.62,0,0,1-.17.58,30.72,30.72,0,0,0-5.64,5A2.75,2.75,0,0,0,24,95.67s.89,1.42,1.69,2.49h0c.37.49,2.49,3.14,5.63,2.89a3,3,0,0,1,1.33.23,6.24,6.24,0,0,0,1.77,1.06h1.47s.31,0,.35-.31a7.41,7.41,0,0,0-.26-1.33,3,3,0,0,1-.49-2.44,8.67,8.67,0,0,1,1.73-3.82,2.58,2.58,0,0,1,3.29-.13s3.37,2.93,1.64,6.43c0,0-1.42,2.67-3,2.67a1.69,1.69,0,0,1-1.55-.54l-1-.13s-.31,0-.31.27l0,.75a1.11,1.11,0,0,0,.22.67.91.91,0,0,1,0,1.11A2.06,2.06,0,0,0,36,107.7s.89,3.73,3.91,3.73ZM38.75,85.76a4.64,4.64,0,0,1-4.15,2s.65-2.84,4.15-2ZM30.8,88.43c1-.39,1.15.18,1.15.18.05.49-.53.67-.53.67a25.33,25.33,0,0,0-5.11,4.31c-.4.44-.66.22-.66.22-.49-.45,0-1,0-1a30.94,30.94,0,0,1,5.15-4.36Z"/><path class="cls-1" d="M85.57,99.79c-5.68,8-1.18,13.73-1.18,13.73-15.28-.47-19.66,3.79-19.66,3.79-7.46,5.8-4.73,12.55-4.73,12.55,4.26,6.75,9.23,2,9.23,2-7.1,1.42-7-4.85-7-4.85C63.79,116.12,78,116.6,78,116.6c12.2,0,31.14,3.43,31.14,3.43-14.33-3.31-18.71-6.87-18.71-6.87-6-3.67-4.85-13.37-4.85-13.37Z"/><path class="cls-1" d="M198.37,216.6a33.27,33.27,0,0,0,.7-8.08V187.66h-4.6v22.42a27.57,27.57,0,0,1-.53,5.89c-1.27,6.21-6,8.5-13,8.5-3.34,0-7.3-.78-9.59-3.44-2-2.27-2.44-5.35-2.44-10.51V187.66h-7.49v23.26c0,4.74.5,9.18,3.78,12.4,3,3,8.9,4.37,15.59,4.37,9.85,0,15.74-3.28,17.62-11.09Z"/><path class="cls-1" d="M250.7,226.82h8.91l-19.12-39.16h-4.65L216.3,226.82h4.75l5.29-11h19.43l4.93,11Zm-14.41-31.73,8.24,18.07H227.62l8.67-18.07Z"/><path class="cls-1" d="M72.41,226.82h8.91L62.19,187.66H57.54L38,226.82h4.75l5.29-11H67.48l4.93,11ZM58,195.09l8.25,18.07H49.33L58,195.09Z"/><path class="cls-1" d="M122.09,227.69c4.82,0,11-.93,15.44-2.91v-16h-7.48v14.3a26.57,26.57,0,0,1-8.46,1.37c-10,0-16.43-6.82-16.43-16.79,0-11,7.33-17.66,18-17.66a22.69,22.69,0,0,1,13.1,4.58V190a31.55,31.55,0,0,0-13.63-3.05c-7.36,0-15.15,2.22-20.29,7.79a20.65,20.65,0,0,0-5.44,13.49c0,15,12.29,19.49,25.22,19.49Z"/><path class="cls-1" d="M304.37,226.82H313l-11.51-15.9c4.06-1.44,8.63-5.11,8.63-11.16a11.1,11.1,0,0,0-2.59-7.73c-3.2-3.54-8.95-4.37-14.7-4.37H278.66v39.16h7.49v-15H294l10.37,15Zm-12.71-36.44c6,0,10.81,2.5,10.81,9.12a9,9,0,0,1-3.17,7.35c-1.88,1.51-4.3,2.26-8.33,2.26h-4.82V190.38Z"/><path class="cls-1" d="M6.38,234.87c6.8-3.34,9.59-10.33,9.59-17.57V187.66H8.48v24.63A82.32,82.32,0,0,1,8,222.69c-.74,6.25-2.9,10-8,13.73a15.14,15.14,0,0,0,6.38-1.55Z"/><rect class="cls-2" width="313" height="313"/></g></g></svg>