<svg xmlns="http://www.w3.org/2000/svg" viewBox="0 0 313 313"><defs><style>.cls-1{fill:#b5121b;}.cls-2{fill:none;}</style></defs><title>kia</title><g id="Layer_2" data-name="Layer 2"><g id="Layer_2-2" data-name="Layer 2"><path class="cls-1" d="M156.5,76.16C70.06,76.16,0,112.13,0,156.5s70.06,80.34,156.5,80.34S313,200.87,313,156.5,242.94,76.16,156.5,76.16Zm.66,142.29c-79,0-143.11-27.56-143.11-61.56S78.12,95.33,157.16,95.33s143.12,27.57,143.12,61.56S236.2,218.45,157.16,218.45Z"/><path class="cls-1" d="M208.25,124.58a2,2,0,0,0,.18-.74,1.62,1.62,0,0,0-1.61-1.62h-2.16a.32.32,0,0,1-.33-.32v-3.82a.32.32,0,0,1,.33-.32h10l19.3,0c.88,0,1.72.18,2,1.08l25.44,74.26a2,2,0,0,1,.05.42,1.4,1.4,0,0,1-1.4,1.42h0l-18.36,0a2.42,2.42,0,0,1-2.11-1.64l-15.73-47.91c-.11-.42-.36-.77-.8-.77s-.7.32-.8.77L206.59,193.3a2.45,2.45,0,0,1-2.13,1.64l-18.3,0a1.43,1.43,0,0,1-1.42-1.43,1.37,1.37,0,0,1,0-.4Z"/><path class="cls-1" d="M147.13,124.51v-.7h0a1.62,1.62,0,0,0-1.64-1.59h-2.43a.33.33,0,0,1-.33-.33v-3.83a.33.33,0,0,1,.33-.32h24.29a1.62,1.62,0,0,1,1.6,1.63v74a1.61,1.61,0,0,1-1.6,1.61H148.73a1.61,1.61,0,0,1-1.6-1.61v-68.8Z"/><path class="cls-1" d="M131.37,194.92H109.94a4,4,0,0,1-2.78-1.62l-21.4-29.41c-.36-.33-.39-.44-.64-.65a1.08,1.08,0,0,0-.6-.17.88.88,0,0,0-.88,1v29.27a1.61,1.61,0,0,1-1.6,1.61H64a1.61,1.61,0,0,1-1.6-1.61l0-69.51h0a1.6,1.6,0,0,0-1.59-1.61h0l-2.53,0a.33.33,0,0,1-.32-.33v-3.82a.33.33,0,0,1,.32-.33H82.05a1.62,1.62,0,0,1,1.6,1.63V143.9a.89.89,0,0,0,.88,1,1.21,1.21,0,0,0,.62-.18c.23-.2.25-.31.62-.66l3-4.07,14.78-20.61a4,4,0,0,1,2.79-1.63h20.52a1.39,1.39,0,0,1,1.38,1.43,1.46,1.46,0,0,1-.22.8l-22.69,33a1.54,1.54,0,0,0-.38,1,1.36,1.36,0,0,0,.35.94l27.16,37.63a1.28,1.28,0,0,1,.34,1A1.4,1.4,0,0,1,131.37,194.92Z"/><rect class="cls-2" width="313" height="313"/></g></g></svg>