<svg id="Layer_1" data-name="Layer 1" xmlns="http://www.w3.org/2000/svg" viewBox="0 0 24 24"><defs><style>.cls-1{fill:#757575;}</style></defs><title>lincoln</title><g id="make-_-lincoln" data-name="make-/-lincoln"><g id="Shape"><path class="cls-1" d="M9.6,20.9v.3H12l.2,2.8.2-2.8h2.3v-.3a62.32,62.32,0,0,0,.7-8.6l2-.3-2-.2a49.09,49.09,0,0,0-.7-8.6V2.9H12.4L12.2,0,12,2.8H9.7v.3A51,51,0,0,0,9,11.8L7,12l2,.2a63.6,63.6,0,0,0,.6,8.7m4.5-.4H12.4l.5-7.9,1.8-.2a55.2,55.2,0,0,1-.6,8.1m0-17a55.2,55.2,0,0,1,.6,8.1l-1.8-.2-.5-7.9Zm-3.8,0H12l-.5,7.9-1.8.2a56.23,56.23,0,0,1,.6-8.1m1.2,9.1.5,7.9H10.3a73.57,73.57,0,0,1-.6-8.2Z"/></g></g></svg>