<svg xmlns="http://www.w3.org/2000/svg" xmlns:xlink="http://www.w3.org/1999/xlink" viewBox="0 0 313 313"><defs><style>.cls-1,.cls-2,.cls-3,.cls-4,.cls-5,.cls-6,.cls-7,.cls-8,.cls-9{fill-rule:evenodd;}.cls-2{fill:url(#New_Gradient_11);}.cls-3{fill:url(#New_Gradient_7);}.cls-4{fill:url(#New_Gradient_11-2);}.cls-5{fill:url(#New_Gradient_5);}.cls-6{fill:url(#New_Gradient_1);}.cls-7{fill:url(#New_Gradient_11-3);}.cls-8{fill:url(#New_Gradient_4);}.cls-9{fill:url(#New_Gradient_7-2);}.cls-10{fill:none;}</style><radialGradient id="New_Gradient_11" cx="-107.32" cy="572.96" r="145.22" gradientTransform="matrix(-1, 0, 0, 1, 32.52, -523.67)" gradientUnits="userSpaceOnUse"><stop offset="0" stop-color="#fff"/><stop offset="1" stop-color="#ccc"/></radialGradient><linearGradient id="New_Gradient_7" x1="-236.02" y1="555.29" x2="-112.82" y2="687.41" gradientTransform="matrix(-0.58, 0, 0, 0.58, 85.62, -246.55)" gradientUnits="userSpaceOnUse"><stop offset="0.09"/><stop offset="0.91" stop-color="#4d4d4d"/></linearGradient><radialGradient id="New_Gradient_11-2" cx="-107.24" cy="572.96" r="145.22" gradientTransform="translate(282.64 -523.67)" xlink:href="#New_Gradient_11"/><linearGradient id="New_Gradient_5" x1="-164.26" y1="685.54" x2="-126.11" y2="444.66" gradientTransform="translate(230.05 -246.55) scale(0.58 0.58)" gradientUnits="userSpaceOnUse"><stop offset="0.02" stop-color="#7f7f7f"/><stop offset="0.98" stop-color="#ccc"/></linearGradient><radialGradient id="New_Gradient_1" cx="-107.24" cy="514.49" r="145.22" gradientTransform="matrix(1, 0, 0, -1, 282.64, 778.3)" gradientUnits="userSpaceOnUse"><stop offset="0" stop-color="#ccc"/><stop offset="1" stop-color="#666"/></radialGradient><radialGradient id="New_Gradient_11-3" cx="-176.13" cy="595.65" r="63.85" gradientTransform="matrix(1, 0, 0, -1, 282.64, 778.3)" xlink:href="#New_Gradient_11"/><radialGradient id="New_Gradient_4" cx="-107.32" cy="514.49" r="145.22" gradientTransform="translate(32.52 778.3) rotate(180)" gradientUnits="userSpaceOnUse"><stop offset="0" stop-color="#e6e6e6"/><stop offset="1" stop-color="#999"/></radialGradient><linearGradient id="New_Gradient_7-2" x1="-261.52" y1="403.3" x2="-27.39" y2="538.48" gradientTransform="translate(85.62 505.24) rotate(180) scale(0.58 0.58)" xlink:href="#New_Gradient_7"/></defs><title>Renault</title><g id="Layer_2" data-name="Layer 2"><g id="Page_1" data-name="Page 1"><g id="Layer_1-2" data-name="Layer 1"><path class="cls-1" d="M122.63,0h70l94.25,156.5L192.62,313h-70L28.38,156.5,122.63,0M157,83.84,115,156.49l43.28,72.67,42.07-72.65L157,83.84"/><polygon class="cls-2" points="191.63 1.75 123.62 1.75 214.29 156.5 284.82 156.5 191.63 1.75 191.63 1.75"/><polygon class="cls-3" points="159.22 65.46 214.29 156.5 202.33 156.5 156.99 80.37 159.22 65.46 159.22 65.46"/><polygon class="cls-4" points="123.62 1.75 191.63 1.75 100.95 156.5 30.42 156.5 123.62 1.75 123.62 1.75"/><polygon class="cls-5" points="191.63 1.75 100.95 156.5 112.91 156.5 156.99 80.37 159.22 65.46 191.63 1.75 191.63 1.75"/><polygon class="cls-6" points="123.62 311.25 191.63 311.25 100.95 156.5 30.42 156.5 123.62 311.25 123.62 311.25"/><polygon class="cls-7" points="156.02 247.54 100.95 156.5 112.91 156.5 158.25 232.63 156.02 247.54 156.02 247.54"/><polygon class="cls-8" points="191.63 311.25 123.62 311.25 214.29 156.5 284.82 156.5 191.63 311.25 191.63 311.25"/><polygon class="cls-9" points="123.62 311.25 214.29 156.5 202.33 156.5 158.25 232.63 156.02 247.54 123.62 311.25 123.62 311.25"/><rect class="cls-10" width="313" height="313"/></g></g></g></svg>