<svg xmlns="http://www.w3.org/2000/svg" viewBox="0 0 313 313"><defs><style>.cls-1{fill:#001e50;}.cls-2{fill:none;}</style></defs><title>volkswagen</title><g id="Layer_2" data-name="Layer 2"><g id="Layer_1-2" data-name="Layer 1"><path class="cls-1" d="M151.83,0H163.2a159.44,159.44,0,0,1,67.26,18.35,157,157,0,0,1,75.64,91.1,150.1,150.1,0,0,1,6.35,31.81c.93,8.44.38,17,.44,25.46a154.31,154.31,0,0,1-20.58,68.11A156.43,156.43,0,0,1,163.09,313H150.16a193.15,193.15,0,0,1-19.65-2.14,155.94,155.94,0,0,1-86.13-45.22c-26.65-27.26-43-64.59-44-102.77a66.09,66.09,0,0,1,.07-14c-.11-4.3.73-8.51.87-12.79l.32-.39c5-42.28,29.1-81.59,63.6-106.36A157.41,157.41,0,0,1,151.83,0m-9.27,15.14a37.3,37.3,0,0,1-5.05.65c-2.52.51-5.08.78-7.59,1.32-1,.25-2.1.45-3.14.65-.85.23-1.72.42-2.58.61-2.52.65-5,1.24-7.5,2.13l-1.42.34-1.9.71-1.93.58-1,.66c.56,1.1,1.09,2.22,1.57,3.36.73,1.66,1.49,3.31,2.24,5,.92,2.17,1.92,4.31,2.82,6.49.87,1.89,1.74,3.8,2.53,5.72,1.65,3.55,3.16,7.15,4.79,10.7,7.92,17.88,16,35.7,23.91,53.57.84,1.91,1.72,3.8,2.54,5.72s1.71,3.8,2.56,5.71,1.5,4.24,3.28,5.66c1.59-1.31,2.26-3.29,3-5.14,1-2.06,1.87-4.15,2.78-6.24,8.62-19.34,17.33-38.66,25.92-58,.84-1.91,1.7-3.81,2.54-5.72s1.7-3.81,2.54-5.71,1.7-3.82,2.54-5.73q1.36-3.12,2.75-6.24c.84-1.92,1.71-3.81,2.53-5.73.53-1.17,1.06-2.34,1.66-3.48-1-.37-1.94-.8-2.92-1.17-.66-.21-1.3-.42-1.94-.65l-1.42-.35c-2.45-.87-5-1.43-7.48-2.14-1.91-.37-3.82-.81-5.7-1.29-2.54-.41-5.1-.76-7.63-1.29a34.91,34.91,0,0,1-5.09-.65c-3.17-.29-6.38-.12-9.53-.66-6.24-.32-12.46.42-18.69.67M86.41,33.34A149.82,149.82,0,0,0,37.78,79.63,17.76,17.76,0,0,0,39.57,84c1,1.86,1.85,3.77,2.77,5.65,1,2.12,2.1,4.24,3.18,6.34C56.61,118.48,68,140.89,79,163.45l.92,1.78c1.26,2.56,2.53,5.12,3.77,7.69q13.05,26.29,26.14,52.57a2.29,2.29,0,0,0,2.39,1.53c1-1.81,1.85-3.68,2.66-5.57s1.49-3.47,2.24-5.21,1.41-3.32,2.15-5,1.54-3.46,2.25-5.22,1.46-3.3,2.17-5Q132,182,140.44,162.9a3.47,3.47,0,0,1,3.54-2.22q12.74,0,25.47,0a3.56,3.56,0,0,1,3.61,2.48c5.54,12.64,11.12,25.26,16.61,37.93.72,1.66,1.44,3.32,2.19,5s1.5,3.48,2.25,5.21,1.42,3.33,2.13,5c1.65,3.53,2.93,7.23,4.87,10.61l1.55,0c7.05-13.53,13.67-27.29,20.53-40.93,15.23-30.9,30.63-61.73,45.94-92.6,1.19-2.25,2.19-4.59,3.4-6.83A41.16,41.16,0,0,1,276,80.1c-1.28-1.57-2.36-3.28-3.51-4.94A148.7,148.7,0,0,0,227,33.35a6.58,6.58,0,0,0-2.15-.87Q213,58.55,201.31,84.69c-1,2.33-2.11,4.62-3.09,7-.74,1.67-1.49,3.33-2.27,5-.93,2.17-1.92,4.32-2.83,6.5s-1.9,4.15-2.82,6.23q-8.06,18-16.2,36a20,20,0,0,1-1.92,3.78c-1,1.1-2.67,1-4,1.11-7.87,0-15.74,0-23.6,0-1.66,0-3.52-.54-4.09-2.26q-8.75-19.29-17.4-38.62c-.92-2.08-1.86-4.16-2.8-6.23s-1.93-4.32-2.89-6.47-1.84-4.18-2.77-6.26C106,71,97.11,51.73,88.55,32.33a23.09,23.09,0,0,0-2.14,1M289.22,107c-2.84,6.22-6.05,12.26-9,18.41-.87,1.7-1.72,3.39-2.54,5.1s-1.67,3.39-2.5,5.1l-1,1.82c-.3.65-.6,1.31-.91,1.95-.17.34-.49,1-.66,1.32-.32.6-.63,1.21-.94,1.81-.49,1.12-1,2.22-1.56,3.32-10.37,21-21,41.89-31.31,62.89l-.63,1.27c-.44.84-.85,1.7-1.27,2.56s-.84,1.69-1.25,2.55-.85,1.68-1.25,2.54c-.15.32-.46,1-.62,1.28-.31.59-.62,1.18-.92,1.77-1,2.14-2.11,4.25-3.15,6.38C222,242.92,214,258.7,206.09,274.5c-1.1,2.71-4.58,4.14-7.12,2.47-2.61-1.84-3.24-5.21-4.58-7.92-.95-2.07-1.88-4.16-2.79-6.24-9.42-21.28-19-42.49-28.43-63.76-.83-1.91-1.72-3.8-2.53-5.73s-1.76-3.81-2.46-5.79a1.74,1.74,0,0,0-2.44-.7,79.45,79.45,0,0,0-3.32,7.27c-9.54,21.43-19.19,42.82-28.67,64.28-.74,1.65-1.49,3.29-2.24,4.94-.9,2.18-1.91,4.31-2.83,6.48a47.73,47.73,0,0,1-2.72,5.68,5,5,0,0,1-5.75,1.9c-1.54-.5-2.45-1.95-3.18-3.29-7.87-15.87-15.87-31.68-23.69-47.57-.4-.85-.82-1.7-1.23-2.54-.82-1.71-1.67-3.4-2.53-5.09L79,217.6c-.4-.85-.84-1.68-1.26-2.52s-.84-1.7-1.27-2.54c-.31-.69-.63-1.37-1-2-.53-1-1-2-1.56-3.06-.63-1.28-1.24-2.55-1.91-3.81-10.32-21.05-21-41.92-31.29-63-.15-.32-.47-1-.63-1.28-.72-1.52-1.47-3-2.21-4.52s-1.47-2.92-2.23-4.36c-.29-.68-.6-1.35-.9-2s-.63-1.18-.94-1.77c-3.19-6.47-6.37-12.94-9.62-19.38a30.77,30.77,0,0,0-2.48,6.39A140.66,140.66,0,0,0,31,221.37c.06.17.19.52.26.69,1.64,2.84,3.16,5.74,4.9,8.51a144.21,144.21,0,0,0,65.91,56.88c1.06.43,2.12.87,3.19,1.28.78.32,1.57.62,2.36.95s1.81.63,2.72.95c.64.22,1.27.45,1.91.69s1.27.41,1.92.6c1.63.52,3.29.95,4.92,1.47,2.53.68,5.08,1.29,7.63,1.9,1.06.18,2.12.38,3.17.62s2.14.41,3.2.67c5.12.62,10.21,1.57,15.38,1.59a75,75,0,0,0,15.85,0,119.07,119.07,0,0,0,16-1.67c1.06-.26,2.14-.44,3.21-.62s2.11-.44,3.18-.63c2.55-.62,5.1-1.22,7.63-1.9,1.63-.52,3.28-1,4.9-1.48l1.95-.68,1.33-.36c1.88-.72,3.79-1.4,5.66-2.13l3.18-1.31a144.15,144.15,0,0,0,79.94-87.07c9.92-30.12,9.51-63.78-2-93.39Z"/><rect class="cls-2" width="313" height="313"/></g></g></svg>