<?xml version="1.0" encoding="UTF-8"?>
<!DOCTYPE svg PUBLIC "-//W3C//DTD SVG 1.1//EN" "http://www.w3.org/Graphics/SVG/1.1/DTD/svg11.dtd">
<svg xmlns="http://www.w3.org/2000/svg" version="1.1" width="1024px" height="1024px" style="shape-rendering:geometricPrecision; text-rendering:geometricPrecision; image-rendering:optimizeQuality; fill-rule:evenodd; clip-rule:evenodd" xmlns:xlink="http://www.w3.org/1999/xlink">
<g><path style="opacity:0.989" fill="#3373db" d="M 480.5,-0.5 C 501.167,-0.5 521.833,-0.5 542.5,-0.5C 685.992,10.8299 805.159,70.1632 900,177.5C 973.447,264.609 1014.61,365.276 1023.5,479.5C 1023.5,500.833 1023.5,522.167 1023.5,543.5C 1008.77,709.516 933.773,840.35 798.5,936C 720.977,987.786 635.644,1016.95 542.5,1023.5C 521.833,1023.5 501.167,1023.5 480.5,1023.5C 314.075,1009.07 182.908,934.068 87,798.5C 35.4229,721.271 6.25624,636.271 -0.5,543.5C -0.5,522.167 -0.5,500.833 -0.5,479.5C 14.2252,313.487 89.2252,182.653 224.5,87C 302.022,35.2144 387.355,6.04775 480.5,-0.5 Z M 484.5,51.5 C 630.274,46.341 753.108,96.341 853,201.5C 947.156,309.704 985.156,435.371 967,578.5C 943.403,721.312 870.57,830.812 748.5,907C 640.017,969.26 524.684,986.593 402.5,959C 259.424,921.237 155.924,835.737 92,702.5C 49.6465,605.629 40.3132,505.629 64,402.5C 101.763,259.424 187.263,155.924 320.5,92C 372.872,68.74 427.539,55.24 484.5,51.5 Z"/></g>
<g><path style="opacity:0.989" fill="#3373db" d="M 508.5,203.5 C 541.502,205.002 559.835,222.169 563.5,255C 559.324,285.843 541.824,303.343 511,307.5C 479.607,304.274 462.441,286.941 459.5,255.5C 463.557,226.446 479.891,209.113 508.5,203.5 Z"/></g>
<g><path style="opacity:0.986" fill="#3273db" d="M 504.5,408.5 C 523.105,406.766 538.939,412.432 552,425.5C 558.627,434.378 562.294,444.378 563,455.5C 563.983,563.856 563.65,672.189 562,780.5C 555.009,805.967 538.176,818.967 511.5,819.5C 481.13,818.096 463.963,802.429 460,772.5C 459.333,666.833 459.333,561.167 460,455.5C 462.749,428.254 477.583,412.587 504.5,408.5 Z"/></g>
</svg>
