<?xml version="1.0" encoding="UTF-8"?>
<!DOCTYPE svg PUBLIC "-//W3C//DTD SVG 1.1//EN" "http://www.w3.org/Graphics/SVG/1.1/DTD/svg11.dtd">
<svg xmlns="http://www.w3.org/2000/svg" version="1.1" width="1024px" height="1024px" style="shape-rendering:geometricPrecision; text-rendering:geometricPrecision; image-rendering:optimizeQuality; fill-rule:evenodd; clip-rule:evenodd" xmlns:xlink="http://www.w3.org/1999/xlink">
<g><path style="opacity:0.988" fill="#3373db" d="M 118.5,82.5 C 301.167,82.3333 483.834,82.5 666.5,83C 711.313,91.4786 738.813,117.979 749,162.5C 750.647,265.146 750.98,367.813 750,470.5C 742.991,520.177 714.824,549.677 665.5,559C 558.5,559.333 451.5,559.667 344.5,560C 289.019,607.313 233.686,654.813 178.5,702.5C 177.5,654.838 177.167,607.171 177.5,559.5C 155.798,559.919 134.131,559.419 112.5,558C 67.7863,546.619 41.9529,518.119 35,472.5C 34.3333,371.167 34.3333,269.833 35,168.5C 40.3915,132.208 59.5582,106.041 92.5,90C 101.02,86.5411 109.687,84.0411 118.5,82.5 Z M 126.5,130.5 C 303.834,130.333 481.167,130.5 658.5,131C 682.516,133.683 695.849,147.016 698.5,171C 697.672,271.149 697.172,371.316 697,471.5C 691.634,496.529 676.134,509.696 650.5,511C 541.5,511.333 432.5,511.667 323.5,512C 291.926,540.912 259.759,569.078 227,596.5C 226.5,568.169 226.333,539.835 226.5,511.5C 191.143,511.93 155.809,511.43 120.5,510C 102.458,505.904 90.6246,495.07 85,477.5C 83.3445,374.868 83.0111,272.202 84,169.5C 89.0844,146.55 103.251,133.55 126.5,130.5 Z"/></g>
<g><path style="opacity:0.99" fill="#3373db" d="M 792.5,320.5 C 829.502,320.333 866.502,320.5 903.5,321C 951.919,330.085 980.085,358.918 988,407.5C 988.667,508.833 988.667,610.167 988,711.5C 982.609,747.792 963.442,773.959 930.5,790C 922.477,793.423 914.143,795.756 905.5,797C 885.503,797.5 865.503,797.667 845.5,797.5C 845.833,845.171 845.5,892.838 844.5,940.5C 788.686,893.187 733.02,845.687 677.5,798C 570.5,797.667 463.5,797.333 356.5,797C 311.69,788.525 284.19,762.025 274,717.5C 272.557,705.532 272.223,693.532 273,681.5C 288.688,668.311 304.521,655.311 320.5,642.5C 321.333,664.826 321.833,687.159 322,709.5C 325.864,729.697 337.698,742.531 357.5,748C 470.137,749.321 582.804,749.988 695.5,750C 727.055,778.725 759.055,806.891 791.5,834.5C 792.5,806.175 792.833,777.841 792.5,749.5C 826.168,749.667 859.835,749.5 893.5,749C 916.19,746.31 930.023,733.81 935,711.5C 935.667,610.167 935.667,508.833 935,407.5C 930.616,387.449 918.45,374.949 898.5,370C 863.168,369.5 827.835,369.333 792.5,369.5C 792.5,353.167 792.5,336.833 792.5,320.5 Z"/></g>
</svg>
