<?xml version="1.0" encoding="UTF-8"?>
<!DOCTYPE svg PUBLIC "-//W3C//DTD SVG 1.1//EN" "http://www.w3.org/Graphics/SVG/1.1/DTD/svg11.dtd">
<svg xmlns="http://www.w3.org/2000/svg" version="1.1" width="1024px" height="1024px" style="shape-rendering:geometricPrecision; text-rendering:geometricPrecision; image-rendering:optimizeQuality; fill-rule:evenodd; clip-rule:evenodd" xmlns:xlink="http://www.w3.org/1999/xlink">
<g><path style="opacity:0.999" fill="#d42424" d="M 486.5,36.5 C 654.479,32.5884 789.979,96.255 893,227.5C 977.952,346.585 1004.95,477.918 974,621.5C 940.722,752.335 866.555,852.502 751.5,922C 641.593,984.083 524.926,1001.42 401.5,974C 270.665,940.722 170.498,866.555 101,751.5C 38.9173,641.592 21.584,524.925 49,401.5C 82.2779,270.665 156.445,170.498 271.5,101C 338.166,62.6094 409.833,41.1094 486.5,36.5 Z M 502.5,176.5 C 545.875,175.061 573.708,195.061 586,236.5C 586.929,241.287 587.429,246.12 587.5,251C 575.907,381.188 564.074,511.354 552,641.5C 545.596,665.888 529.763,677.055 504.5,675C 486.363,669.862 475.529,658.029 472,639.5C 460.257,509.825 448.423,380.158 436.5,250.5C 440.612,209.729 462.612,185.062 502.5,176.5 Z M 505.5,714.5 C 541.992,714.644 565.826,731.977 577,766.5C 582.761,803.149 568.928,829.315 535.5,845C 500.659,855.388 473.159,845.555 453,815.5C 439.719,788.346 442.052,762.679 460,738.5C 472.376,725.064 487.542,717.064 505.5,714.5 Z"/></g>
</svg>
