<?xml version="1.0" encoding="UTF-8"?>
<!DOCTYPE svg PUBLIC "-//W3C//DTD SVG 1.1//EN" "http://www.w3.org/Graphics/SVG/1.1/DTD/svg11.dtd">
<svg xmlns="http://www.w3.org/2000/svg" version="1.1" width="1024px" height="1024px" style="shape-rendering:geometricPrecision; text-rendering:geometricPrecision; image-rendering:optimizeQuality; fill-rule:evenodd; clip-rule:evenodd" xmlns:xlink="http://www.w3.org/1999/xlink">
<g><path style="opacity:0.988" fill="#3373db" d="M 486.5,36.5 C 632.732,32.2717 756.566,82.2717 858,186.5C 960.289,299.729 1001.29,432.396 981,584.5C 955.15,728.818 880.65,839.985 757.5,918C 641.052,986.016 517.385,1003.35 386.5,970C 246.072,928.557 143.905,842.057 80,710.5C 27.8949,592.961 22.5616,473.295 64,351.5C 117.167,213 213,117.167 351.5,64C 395.399,48.7207 440.399,39.5541 486.5,36.5 Z M 498.5,84.5 C 631.383,83.3675 742.55,131.367 832,228.5C 920.442,333.565 953.442,454.231 931,590.5C 908.558,702.299 851.725,791.799 760.5,859C 661.103,927.176 551.77,951.176 432.5,931C 300.877,903.666 202.044,831.832 136,715.5C 83.331,614.147 71.331,508.147 100,397.5C 136.803,272.041 213.969,180.874 331.5,124C 384.706,99.947 440.373,86.7804 498.5,84.5 Z"/></g>
<g><path style="opacity:0.987" fill="#3373db" d="M 501.5,226.5 C 517.837,226.333 534.17,226.5 550.5,227C 601.541,230.595 638.708,255.095 662,300.5C 684.667,361.827 674.001,416.493 630,464.5C 619.052,475.57 608.218,486.737 597.5,498C 582,509.5 568.5,523 557,538.5C 546.85,557.282 540.517,577.282 538,598.5C 536.842,613.212 535.509,627.879 534,642.5C 531.873,646.589 529.373,650.423 526.5,654C 518.103,654.87 509.77,654.537 501.5,653C 497.612,650.778 494.779,647.612 493,643.5C 488.357,593.406 499.691,547.406 527,505.5C 538.538,490.962 551.704,478.129 566.5,467C 586.338,449.131 602.172,428.297 614,404.5C 628.66,371.773 627.994,339.44 612,307.5C 598.466,287.131 579.633,274.297 555.5,269C 529.993,263.813 504.66,264.48 479.5,271C 447.604,282.565 427.104,304.732 418,337.5C 414.198,351.917 412.198,366.584 412,381.5C 410.804,386.223 408.804,390.557 406,394.5C 402.5,398 399,401.5 395.5,405C 389.017,407.983 382.351,408.316 375.5,406C 368.674,398.847 364.674,390.347 363.5,380.5C 362.951,314.7 391.951,267.534 450.5,239C 466.995,232.207 483.995,228.04 501.5,226.5 Z"/></g>
<g><path style="opacity:0.989" fill="#3373db" d="M 508.5,700.5 C 536.951,700.113 553.785,713.78 559,741.5C 561.658,761.904 554.825,778.07 538.5,790C 522.936,797.445 506.936,798.445 490.5,793C 474.782,785.933 465.948,773.766 464,756.5C 461.52,723.697 476.353,705.031 508.5,700.5 Z"/></g>
</svg>
