<?xml version="1.0" encoding="UTF-8"?>
<!DOCTYPE svg PUBLIC "-//W3C//DTD SVG 1.1//EN" "http://www.w3.org/Graphics/SVG/1.1/DTD/svg11.dtd">
<svg xmlns="http://www.w3.org/2000/svg" version="1.1" width="1024px" height="1024px" style="shape-rendering:geometricPrecision; text-rendering:geometricPrecision; image-rendering:optimizeQuality; fill-rule:evenodd; clip-rule:evenodd" xmlns:xlink="http://www.w3.org/1999/xlink">
<g><path style="opacity:0.991" fill="#3373db" d="M 485.5,79.5 C 604.416,74.0562 700.582,117.723 774,210.5C 826.461,282.011 846.128,361.678 833,449.5C 822.72,489.672 807.72,528.005 788,564.5C 758.588,619.019 725.921,671.352 690,721.5C 634.57,798.647 575.07,872.647 511.5,943.5C 423.952,847.02 345.118,744.02 275,634.5C 248.001,591.172 224.668,545.839 205,498.5C 192.546,467.854 185.713,436.021 184.5,403C 188.428,281.42 241.428,188.42 343.5,124C 387.638,98.6381 434.971,83.8048 485.5,79.5 Z M 500.5,132.5 C 606.648,132.639 688.148,176.972 745,265.5C 773.931,314.214 784.264,366.547 776,422.5C 766.901,456.701 753.901,489.368 737,520.5C 703.902,581.061 666.568,638.728 625,693.5C 589.214,741.125 551.381,787.125 511.5,831.5C 441.02,750.862 376.853,665.528 319,575.5C 292.255,534.01 270.255,490.01 253,443.5C 241.78,408.588 240.447,373.255 249,337.5C 272.255,246.907 327.422,184.407 414.5,150C 442.462,139.975 471.128,134.141 500.5,132.5 Z M 501.5,296.5 C 533.719,294.237 554.219,308.57 563,339.5C 564.819,366.369 553.319,385.203 528.5,396C 500.049,406.012 477.549,398.512 461,373.5C 448.288,344.179 455.455,321.012 482.5,304C 488.746,300.98 495.079,298.48 501.5,296.5 Z"/></g>
<g><path style="opacity:0.989" fill="#3373db" d="M 493.5,242.5 C 541.14,239.72 576.974,258.72 601,299.5C 622.647,349.268 613.813,392.768 574.5,430C 543.964,453.094 509.964,460.094 472.5,451C 429.135,434.947 405.302,403.78 401,357.5C 399.43,305.784 422.264,269.618 469.5,249C 477.459,246.179 485.459,244.013 493.5,242.5 Z M 501.5,296.5 C 495.079,298.48 488.746,300.98 482.5,304C 455.455,321.012 448.288,344.179 461,373.5C 477.549,398.512 500.049,406.012 528.5,396C 553.319,385.203 564.819,366.369 563,339.5C 554.219,308.57 533.719,294.237 501.5,296.5 Z"/></g>
</svg>
