<?xml version="1.0" encoding="UTF-8"?>
<!DOCTYPE svg PUBLIC "-//W3C//DTD SVG 1.1//EN" "http://www.w3.org/Graphics/SVG/1.1/DTD/svg11.dtd">
<svg xmlns="http://www.w3.org/2000/svg" version="1.1" width="1024px" height="1024px" style="shape-rendering:geometricPrecision; text-rendering:geometricPrecision; image-rendering:optimizeQuality; fill-rule:evenodd; clip-rule:evenodd" xmlns:xlink="http://www.w3.org/1999/xlink">
<g><path style="opacity:0.997" fill="#bacefd" d="M 886.5,302.5 C 887.016,305.899 887.85,309.232 889,312.5C 895.554,328.922 902.054,345.255 908.5,361.5C 909.493,366.313 910.993,370.98 913,375.5C 934.758,404.014 956.758,432.348 979,460.5C 979.5,521.832 979.667,583.166 979.5,644.5C 965.829,644.667 952.163,644.5 938.5,644C 931.919,641.71 925.919,638.376 920.5,634C 911.912,622.741 902.579,612.074 892.5,602C 887.058,598.296 881.058,595.963 874.5,595C 631.833,594.333 389.167,594.333 146.5,595C 140.678,596.245 135.345,598.578 130.5,602C 121.253,611.243 112.753,621.076 105,631.5C 99.185,637.325 92.3517,641.491 84.5,644C 70.8374,644.5 57.1707,644.667 43.5,644.5C 43.3333,583.499 43.5,522.499 44,461.5C 66,432.833 88,404.167 110,375.5C 111.743,370.765 113.577,366.098 115.5,361.5C 121.032,346.073 126.865,330.74 133,315.5C 134.684,311.284 135.851,306.951 136.5,302.5C 154.826,254.17 175.66,206.836 199,160.5C 214.208,129.989 238.708,111.489 272.5,105C 309.919,99.083 347.586,96.083 385.5,96C 427.502,95.6764 469.502,95.1764 511.5,94.5C 553.498,95.1764 595.498,95.6764 637.5,96C 675.418,96.0179 713.085,99.0179 750.5,105C 783.538,111.067 807.705,128.9 823,158.5C 833.238,178.206 842.904,198.206 852,218.5C 863.829,246.475 875.329,274.475 886.5,302.5 Z"/></g>
<g><path style="opacity:1" fill="#424243" d="M 261.5,119.5 C 259.659,121.849 258.326,124.515 257.5,127.5C 256.517,131.298 256.183,135.298 256.5,139.5C 426.49,124.868 596.49,124.868 766.5,139.5C 767.257,124.514 760.924,113.681 747.5,107C 764.95,107.963 775.95,116.796 780.5,133.5C 780.5,136.167 780.5,138.833 780.5,141.5C 781.5,141.5 782.5,141.5 783.5,141.5C 793.891,143.385 802.058,148.719 808,157.5C 829.275,206.384 850.275,255.384 871,304.5C 874.272,310.861 874.272,317.194 871,323.5C 869.421,325.041 867.587,326.208 865.5,327C 799.5,327.667 733.5,327.667 667.5,327C 655.631,323.909 643.631,321.242 631.5,319C 550.833,318.333 470.167,318.333 389.5,319C 378.238,321.878 366.905,324.545 355.5,327C 289.5,327.667 223.5,327.667 157.5,327C 150.558,323.2 148.058,317.367 150,309.5C 171.667,258.833 193.333,208.167 215,157.5C 220.942,148.719 229.109,143.385 239.5,141.5C 240.5,141.5 241.5,141.5 242.5,141.5C 242.5,138.833 242.5,136.167 242.5,133.5C 242.5,132.5 242.5,131.5 242.5,130.5C 244.105,127.622 245.439,124.622 246.5,121.5C 254.068,112.383 263.734,107.549 275.5,107C 269.992,110.348 265.325,114.515 261.5,119.5 Z"/></g>
<g><path style="opacity:1" fill="#fcfdfe" d="M 257.5,127.5 C 258.326,124.515 259.659,121.849 261.5,119.5C 320.445,115.462 379.445,112.295 438.5,110C 463.5,109.333 488.5,109.333 513.5,110C 516.192,112.632 515.859,114.966 512.5,117C 428.662,117.211 344.995,121.044 261.5,128.5C 259.955,128.489 258.622,128.156 257.5,127.5 Z"/></g>
<g><path style="opacity:1" fill="#fafbfd" d="M 246.5,121.5 C 245.439,124.622 244.105,127.622 242.5,130.5C 232.926,131.037 224.759,134.704 218,141.5C 223.506,129.624 233.006,122.957 246.5,121.5 Z"/></g>
<g><path style="opacity:1" fill="#7d879e" d="M 780.5,133.5 C 781.065,136.305 782.065,138.972 783.5,141.5C 782.5,141.5 781.5,141.5 780.5,141.5C 780.5,138.833 780.5,136.167 780.5,133.5 Z"/></g>
<g><path style="opacity:1" fill="#838da8" d="M 242.5,133.5 C 242.5,136.167 242.5,138.833 242.5,141.5C 241.5,141.5 240.5,141.5 239.5,141.5C 240.935,138.972 241.935,136.305 242.5,133.5 Z"/></g>
<g><path style="opacity:1" fill="#57585a" d="M 424.5,139.5 C 431.841,139.334 439.174,139.5 446.5,140C 449.937,141.105 452.437,143.272 454,146.5C 456.619,158.779 463.786,166.945 475.5,171C 499.5,171.667 523.5,171.667 547.5,171C 552.767,169.807 557.267,167.307 561,163.5C 564.527,157.779 567.527,151.779 570,145.5C 571.663,143.083 573.829,141.25 576.5,140C 635.851,141.934 695.184,144.601 754.5,148C 764.012,148.189 773.346,149.522 782.5,152C 792.396,156.229 799.229,163.396 803,173.5C 815.804,205.58 828.804,237.58 842,269.5C 847.53,283.654 844.696,295.82 833.5,306C 828.921,308.973 823.921,310.973 818.5,312C 613.833,312.667 409.167,312.667 204.5,312C 185.495,307.308 176.995,295.142 179,275.5C 193,240.833 207,206.167 221,171.5C 227.173,158.67 237.339,151.17 251.5,149C 309.343,146.158 367.01,142.991 424.5,139.5 Z"/></g>
<g><path style="opacity:0.981" fill="#424242" d="M 136.5,302.5 C 135.851,306.951 134.684,311.284 133,315.5C 126.865,330.74 121.032,346.073 115.5,361.5C 107.002,355.855 98.3354,350.355 89.5,345C 80.3708,342.286 71.0375,340.619 61.5,340C 56.0795,337.677 53.2462,333.51 53,327.5C 52.3333,313.833 52.3333,300.167 53,286.5C 53.4445,276.732 58.2779,270.565 67.5,268C 86.6104,266.896 105.61,267.896 124.5,271C 129.235,272.068 132.402,274.901 134,279.5C 136.062,287.028 136.895,294.694 136.5,302.5 Z"/></g>
<g><path style="opacity:0.981" fill="#424242" d="M 908.5,361.5 C 902.054,345.255 895.554,328.922 889,312.5C 887.85,309.232 887.016,305.899 886.5,302.5C 885.967,293.918 887.134,285.584 890,277.5C 891.668,273.835 894.501,271.668 898.5,271C 917.39,267.896 936.39,266.896 955.5,268C 964.584,269.752 969.418,275.252 970,284.5C 970.667,299.5 970.667,314.5 970,329.5C 969.385,334.783 966.551,338.283 961.5,340C 951.963,340.619 942.629,342.286 933.5,345C 924.767,350.024 916.433,355.524 908.5,361.5 Z"/></g>
<g><path style="opacity:1" fill="#d6e3ff" d="M 394.5,324.5 C 472.501,324.333 550.501,324.5 628.5,325C 633.868,330.138 635.868,336.471 634.5,344C 633.779,358.169 631.779,372.169 628.5,386C 628.833,386.833 629.167,387.667 629.5,388.5C 637.756,376.328 645.256,363.662 652,350.5C 655.414,345.748 659.914,342.581 665.5,341C 730.5,340.333 795.5,340.333 860.5,341C 864.59,343.513 866.59,347.179 866.5,352C 864.591,363.62 862.091,375.12 859,386.5C 856.207,395.624 850.374,401.791 841.5,405C 731.478,404.081 621.478,401.915 511.5,398.5C 401.512,401.564 291.512,403.731 181.5,405C 172.876,401.04 167.042,394.54 164,385.5C 161.558,374.451 159.058,363.451 156.5,352.5C 156.778,347.778 158.778,343.945 162.5,341C 227.833,340.333 293.167,340.333 358.5,341C 363.568,343.078 367.734,346.245 371,350.5C 377.84,364.156 385.673,377.156 394.5,389.5C 394.833,388.833 395.167,388.167 395.5,387.5C 389.717,368.825 387.884,349.825 390,330.5C 391.332,328.34 392.832,326.34 394.5,324.5 Z"/></g>
<g><path style="opacity:1" fill="#434444" d="M 769.5,412.5 C 774.167,413.167 778.833,413.833 783.5,414.5C 758.955,428.252 748.122,449.252 751,477.5C 761.108,513.946 784.941,530.113 822.5,526C 855.704,515.773 871.204,493.273 869,458.5C 864.812,438.166 853.646,423.166 835.5,413.5C 845.167,413.5 854.833,413.5 864.5,413.5C 876.972,416.469 885.139,424.136 889,436.5C 889.864,458.19 889.53,479.857 888,501.5C 883.405,521.435 871.571,535.269 852.5,543C 824.649,552.46 795.983,557.126 766.5,557C 593.833,557.667 421.167,557.667 248.5,557C 221.662,556.786 195.662,552.12 170.5,543C 150.538,535.046 138.704,520.546 135,499.5C 133.445,478.528 133.112,457.528 134,436.5C 137.385,425.283 144.552,417.95 155.5,414.5C 166.115,413.546 176.782,413.213 187.5,413.5C 156.637,431.928 147.137,458.262 159,492.5C 173.256,519.212 195.423,530.378 225.5,526C 259.18,515.632 274.68,492.799 272,457.5C 267.742,438.091 256.909,423.757 239.5,414.5C 246.5,413.833 253.5,413.167 260.5,412.5C 340.668,411.705 420.835,410.705 501,409.5C 590.494,411.076 679.994,412.076 769.5,412.5 Z"/></g>
<g><path style="opacity:1" fill="#6d7381" d="M 237.5,413.5 C 244.982,412.508 252.648,412.175 260.5,412.5C 253.5,413.167 246.5,413.833 239.5,414.5C 238.833,414.167 238.167,413.833 237.5,413.5 Z"/></g>
<g><path style="opacity:1" fill="#656a75" d="M 769.5,412.5 C 775.358,412.178 781.025,412.511 786.5,413.5C 785.391,413.557 784.391,413.89 783.5,414.5C 778.833,413.833 774.167,413.167 769.5,412.5 Z"/></g>
<g><path style="opacity:1" fill="#fefefe" d="M 187.5,413.5 C 204.167,413.5 220.833,413.5 237.5,413.5C 238.167,413.833 238.833,414.167 239.5,414.5C 256.909,423.757 267.742,438.091 272,457.5C 274.68,492.799 259.18,515.632 225.5,526C 195.423,530.378 173.256,519.212 159,492.5C 147.137,458.262 156.637,431.928 187.5,413.5 Z"/></g>
<g><path style="opacity:1" fill="#fefefe" d="M 786.5,413.5 C 802.833,413.5 819.167,413.5 835.5,413.5C 853.646,423.166 864.812,438.166 869,458.5C 871.204,493.273 855.704,515.773 822.5,526C 784.941,530.113 761.108,513.946 751,477.5C 748.122,449.252 758.955,428.252 783.5,414.5C 784.391,413.89 785.391,413.557 786.5,413.5 Z"/></g>
<g><path style="opacity:1" fill="#d6e3fe" d="M 864.5,413.5 C 881.707,415.203 892.207,424.537 896,441.5C 896.667,461.833 896.667,482.167 896,502.5C 895.469,532.083 881.636,552.583 854.5,564C 828.978,572.984 802.644,577.651 775.5,578C 597.833,578.667 420.167,578.667 242.5,578C 217.026,577.41 192.36,572.743 168.5,564C 144.783,553.944 131.283,536.111 128,510.5C 127.333,486.5 127.333,462.5 128,438.5C 131.832,424.341 140.998,416.341 155.5,414.5C 144.552,417.95 137.385,425.283 134,436.5C 133.112,457.528 133.445,478.528 135,499.5C 138.704,520.546 150.538,535.046 170.5,543C 195.662,552.12 221.662,556.786 248.5,557C 421.167,557.667 593.833,557.667 766.5,557C 795.983,557.126 824.649,552.46 852.5,543C 871.571,535.269 883.405,521.435 888,501.5C 889.53,479.857 889.864,458.19 889,436.5C 885.139,424.136 876.972,416.469 864.5,413.5 Z"/></g>
<g><path style="opacity:1" fill="#f8f8f8" d="M 436.5,418.5 C 444.903,418.13 453.236,418.63 461.5,420C 466.428,421.927 469.594,425.427 471,430.5C 471.667,464.833 471.667,499.167 471,533.5C 468.744,538.757 464.91,542.257 459.5,544C 451.5,544.667 443.5,544.667 435.5,544C 430.333,542.167 426.833,538.667 425,533.5C 424.333,498.833 424.333,464.167 425,429.5C 427.437,424.226 431.271,420.56 436.5,418.5 Z"/></g>
<g><path style="opacity:1" fill="#f6f6f6" d="M 499.5,418.5 C 507.174,418.334 514.841,418.5 522.5,419C 528.501,420.336 532.668,423.836 535,429.5C 535.667,463.833 535.667,498.167 535,532.5C 533.257,537.91 529.757,541.744 524.5,544C 515.833,544.667 507.167,544.667 498.5,544C 493.667,541.833 490.167,538.333 488,533.5C 487.333,498.833 487.333,464.167 488,429.5C 490.412,424.252 494.246,420.586 499.5,418.5 Z"/></g>
<g><path style="opacity:1" fill="#f8f8f8" d="M 564.5,418.5 C 572.585,418.099 580.585,418.599 588.5,420C 593.757,422.256 597.257,426.09 599,431.5C 599.667,465.167 599.667,498.833 599,532.5C 597.167,538.333 593.333,542.167 587.5,544C 579.167,544.667 570.833,544.667 562.5,544C 557.243,541.744 553.743,537.91 552,532.5C 551.333,498.5 551.333,464.5 552,430.5C 554.208,424.337 558.375,420.337 564.5,418.5 Z"/></g>
<g><path style="opacity:1" fill="#f9f9f9" d="M 309.5,419.5 C 316.841,419.334 324.174,419.5 331.5,420C 337.501,421.336 341.668,424.836 344,430.5C 344.667,464.833 344.667,499.167 344,533.5C 342.257,538.91 338.757,542.744 333.5,545C 325.167,545.667 316.833,545.667 308.5,545C 303.307,543.141 299.807,539.641 298,534.5C 297.333,499.833 297.333,465.167 298,430.5C 300.437,425.226 304.271,421.56 309.5,419.5 Z"/></g>
<g><path style="opacity:1" fill="#f8f8f8" d="M 372.5,419.5 C 381.235,419.124 389.902,419.624 398.5,421C 402.719,423.552 405.886,427.052 408,431.5C 408.667,465.5 408.667,499.5 408,533.5C 406.167,539.333 402.333,543.167 396.5,545C 388.167,545.667 379.833,545.667 371.5,545C 366.243,542.744 362.743,538.91 361,533.5C 360.333,499.5 360.333,465.5 361,431.5C 363.019,425.65 366.852,421.65 372.5,419.5 Z"/></g>
<g><path style="opacity:1" fill="#f6f6f6" d="M 627.5,419.5 C 634.841,419.334 642.174,419.5 649.5,420C 655.501,421.336 659.668,424.836 662,430.5C 662.667,465.167 662.667,499.833 662,534.5C 659.744,539.757 655.91,543.257 650.5,545C 642.5,545.667 634.5,545.667 626.5,545C 619.983,542.807 616.15,538.307 615,531.5C 614.333,498.5 614.333,465.5 615,432.5C 617.353,426.315 621.52,421.982 627.5,419.5 Z"/></g>
<g><path style="opacity:1" fill="#f9f9f9" d="M 690.5,419.5 C 697.841,419.334 705.174,419.5 712.5,420C 718.09,421.253 722.257,424.419 725,429.5C 725.667,464.5 725.667,499.5 725,534.5C 723.193,539.641 719.693,543.141 714.5,545C 706.167,545.667 697.833,545.667 689.5,545C 684.667,542.833 681.167,539.333 679,534.5C 678.333,499.833 678.333,465.167 679,430.5C 681.412,425.252 685.246,421.586 690.5,419.5 Z"/></g>
<g><path style="opacity:1" fill="#fdfdff" d="M 106.5,422.5 C 109.505,422.253 112.005,423.253 114,425.5C 114.667,445.833 114.667,466.167 114,486.5C 110.433,491.796 106.766,491.796 103,486.5C 102.333,466.5 102.333,446.5 103,426.5C 104.376,425.295 105.542,423.962 106.5,422.5 Z"/></g>
<g><path style="opacity:1" fill="#fdfeff" d="M 912.5,422.5 C 915.961,422.146 918.461,423.479 920,426.5C 920.667,446.5 920.667,466.5 920,486.5C 916.283,491.815 912.617,491.815 909,486.5C 908.333,466.5 908.333,446.5 909,426.5C 909.69,424.65 910.856,423.316 912.5,422.5 Z"/></g>
<g><path style="opacity:1" fill="#444444" d="M 437.5,426.5 C 444.508,426.334 451.508,426.5 458.5,427C 460.667,427.833 462.167,429.333 463,431.5C 463.667,465.167 463.667,498.833 463,532.5C 461.786,534.049 460.286,535.215 458.5,536C 451.167,536.667 443.833,536.667 436.5,536C 434.622,534.457 433.122,532.624 432,530.5C 431.333,497.833 431.333,465.167 432,432.5C 433.36,429.977 435.193,427.977 437.5,426.5 Z"/></g>
<g><path style="opacity:1" fill="#424242" d="M 500.5,426.5 C 507.841,426.334 515.174,426.5 522.5,427C 524.667,427.833 526.167,429.333 527,431.5C 527.667,465.167 527.667,498.833 527,532.5C 525.786,534.049 524.286,535.215 522.5,536C 514.833,536.667 507.167,536.667 499.5,536C 497.951,534.786 496.785,533.286 496,531.5C 495.333,498.167 495.333,464.833 496,431.5C 497.025,429.313 498.525,427.646 500.5,426.5 Z"/></g>
<g><path style="opacity:1" fill="#434343" d="M 564.5,426.5 C 571.508,426.334 578.508,426.5 585.5,427C 587.624,428.122 589.457,429.622 591,431.5C 591.667,464.5 591.667,497.5 591,530.5C 590.602,533.232 589.102,535.065 586.5,536C 579.167,536.667 571.833,536.667 564.5,536C 562.333,535.167 560.833,533.667 560,531.5C 559.333,498.167 559.333,464.833 560,431.5C 561.366,429.638 562.866,427.972 564.5,426.5 Z"/></g>
<g><path style="opacity:1" fill="#444444" d="M 310.5,427.5 C 317.508,427.334 324.508,427.5 331.5,428C 333.667,428.833 335.167,430.333 336,432.5C 336.667,466.167 336.667,499.833 336,533.5C 334.786,535.049 333.286,536.215 331.5,537C 324.167,537.667 316.833,537.667 309.5,537C 307.622,535.457 306.122,533.624 305,531.5C 304.333,498.833 304.333,466.167 305,433.5C 306.36,430.977 308.193,428.977 310.5,427.5 Z"/></g>
<g><path style="opacity:1" fill="#434343" d="M 373.5,427.5 C 380.508,427.334 387.508,427.5 394.5,428C 396.624,429.122 398.457,430.622 400,432.5C 400.667,465.5 400.667,498.5 400,531.5C 399.315,534.057 397.815,535.891 395.5,537C 388.167,537.667 380.833,537.667 373.5,537C 371.333,536.167 369.833,534.667 369,532.5C 368.333,499.167 368.333,465.833 369,432.5C 370.193,430.503 371.693,428.836 373.5,427.5 Z"/></g>
<g><path style="opacity:1" fill="#434343" d="M 628.5,427.5 C 636.253,427.104 643.92,427.604 651.5,429C 652.701,429.903 653.535,431.069 654,432.5C 654.667,465.833 654.667,499.167 654,532.5C 653.167,534.667 651.667,536.167 649.5,537C 642.167,537.667 634.833,537.667 627.5,537C 625.274,535.773 623.774,533.939 623,531.5C 622.333,498.833 622.333,466.167 623,433.5C 624.36,430.977 626.193,428.977 628.5,427.5 Z"/></g>
<g><path style="opacity:1" fill="#444444" d="M 691.5,427.5 C 698.508,427.334 705.508,427.5 712.5,428C 715,429.167 716.833,431 718,433.5C 718.667,466.167 718.667,498.833 718,531.5C 716.833,534 715,535.833 712.5,537C 705.167,537.667 697.833,537.667 690.5,537C 688.951,535.786 687.785,534.286 687,532.5C 686.333,499.167 686.333,465.833 687,432.5C 688.025,430.313 689.525,428.646 691.5,427.5 Z"/></g>
<g><path style="opacity:0.996" fill="#424242" d="M 979.5,644.5 C 980.666,720.999 980.832,797.666 980,874.5C 978.724,882.711 975.558,890.045 970.5,896.5C 963.866,903.273 955.866,907.773 946.5,910C 920.5,910.667 894.5,910.667 868.5,910C 851.376,904.543 840.876,893.043 837,875.5C 836.829,867.656 836.329,859.989 835.5,852.5C 835.666,843.827 835.5,835.16 835,826.5C 824.136,834.263 811.969,838.43 798.5,839C 607.167,839.667 415.833,839.667 224.5,839C 211.031,838.43 198.864,834.263 188,826.5C 187.5,835.16 187.334,843.827 187.5,852.5C 186.671,860.323 186.171,868.323 186,876.5C 182.239,894.519 171.405,905.686 153.5,910C 127.5,910.667 101.5,910.667 75.5,910C 71.2707,908.885 67.2707,907.219 63.5,905C 59.9387,901.927 56.272,899.094 52.5,896.5C 46.8961,889.532 43.7294,881.532 43,872.5C 42.1678,796.332 42.3344,720.332 43.5,644.5C 57.1707,644.667 70.8374,644.5 84.5,644C 92.3517,641.491 99.185,637.325 105,631.5C 112.753,621.076 121.253,611.243 130.5,602C 135.345,598.578 140.678,596.245 146.5,595C 389.167,594.333 631.833,594.333 874.5,595C 881.058,595.963 887.058,598.296 892.5,602C 902.579,612.074 911.912,622.741 920.5,634C 925.919,638.376 931.919,641.71 938.5,644C 952.163,644.5 965.829,644.667 979.5,644.5 Z M 835.5,852.5 C 619.5,852.5 403.5,852.5 187.5,852.5C 187.334,843.827 187.5,835.16 188,826.5C 198.864,834.263 211.031,838.43 224.5,839C 415.833,839.667 607.167,839.667 798.5,839C 811.969,838.43 824.136,834.263 835,826.5C 835.5,835.16 835.666,843.827 835.5,852.5 Z"/></g>
<g><path style="opacity:1" fill="#595959" d="M 72.5,742.5 C 77.8088,749.496 84.8088,753.996 93.5,756C 131.816,760.914 170.149,765.581 208.5,770C 253.833,770.667 299.167,770.667 344.5,770C 352.833,769 361.167,768 369.5,767C 463.833,766.333 558.167,766.333 652.5,767C 683.683,771.003 715.016,772.503 746.5,771.5C 767.5,771.333 788.5,771.167 809.5,771C 849.866,766.246 890.199,761.246 930.5,756C 938.651,753.844 945.151,749.344 950,742.5C 946.048,751.435 939.214,757.268 929.5,760C 889.449,765.738 849.449,771.738 809.5,778C 767.5,778.667 725.5,778.667 683.5,778C 675.818,776.76 668.151,775.426 660.5,774C 561.167,773.333 461.833,773.333 362.5,774C 354.886,775.577 347.22,776.911 339.5,778C 297.5,778.667 255.5,778.667 213.5,778C 172.491,771.749 131.491,765.415 90.5,759C 82.3793,755.709 76.3793,750.209 72.5,742.5 Z"/></g>
<g><path style="opacity:0.983" fill="#57585a" d="M 187.5,852.5 C 403.5,852.5 619.5,852.5 835.5,852.5C 836.329,859.989 836.829,867.656 837,875.5C 840.876,893.043 851.376,904.543 868.5,910C 894.5,910.667 920.5,910.667 946.5,910C 955.866,907.773 963.866,903.273 970.5,896.5C 986.433,902.423 1002.43,908.256 1018.5,914C 1020.58,914.697 1022.25,915.864 1023.5,917.5C 1023.5,919.833 1023.5,922.167 1023.5,924.5C 1022.03,926.41 1020.03,927.576 1017.5,928C 680.167,928.667 342.833,928.667 5.5,928C 2.97457,927.576 0.97457,926.41 -0.5,924.5C -0.5,922.167 -0.5,919.833 -0.5,917.5C 0.748938,915.864 2.4156,914.697 4.5,914C 20.5668,908.256 36.5668,902.423 52.5,896.5C 56.272,899.094 59.9387,901.927 63.5,905C 67.2707,907.219 71.2707,908.885 75.5,910C 101.5,910.667 127.5,910.667 153.5,910C 171.405,905.686 182.239,894.519 186,876.5C 186.171,868.323 186.671,860.323 187.5,852.5 Z"/></g>
</svg>
